<svg width="112" height="133" viewBox="0 0 112 133" fill="none" xmlns="http://www.w3.org/2000/svg">
<path d="M109.406 103.388C107.4 108.023 105.025 112.289 102.273 116.212C98.5228 121.559 95.4518 125.261 93.0852 127.316C89.4165 130.69 85.4857 132.418 81.2766 132.516C78.2548 132.516 74.6106 131.656 70.3687 129.912C66.1128 128.176 62.2017 127.316 58.6256 127.316C54.875 127.316 50.8524 128.176 46.55 129.912C42.2409 131.657 38.7695 132.566 36.1154 132.656C32.0791 132.828 28.0558 131.05 24.0399 127.316C21.4766 125.081 18.2707 121.248 14.4299 115.819C10.3092 110.021 6.92145 103.298 4.26732 95.6327C1.4249 87.3538 0 79.3366 0 71.5751C0 62.6842 1.92117 55.0159 5.76922 48.5899C8.79345 43.4284 12.8167 39.3568 17.8522 36.3678C22.8876 33.3788 28.3285 31.8556 34.1877 31.7582C37.3938 31.7582 41.598 32.7499 46.8226 34.6989C52.0326 36.6545 55.3777 37.6461 56.8444 37.6461C57.9409 37.6461 61.6572 36.4865 67.957 34.1748C73.9146 32.0309 78.9426 31.1431 83.0617 31.4928C94.2235 32.3936 102.609 36.7936 108.186 44.7207C98.2034 50.7691 93.2652 59.2407 93.3636 70.1084C93.4536 78.5734 96.5246 85.6176 102.56 91.2109C105.295 93.8068 108.35 95.8131 111.748 97.238C111.011 99.3753 110.233 101.423 109.406 103.388V103.388ZM83.807 2.65413C83.807 9.28894 81.383 15.4839 76.5514 21.2179C70.7209 28.0346 63.6684 31.9735 56.0206 31.3519C55.9182 30.5178 55.8668 29.6782 55.8666 28.8378C55.8666 22.4684 58.6394 15.6518 63.5636 10.0783C66.022 7.25636 69.1486 4.90998 72.9401 3.03821C76.7234 1.19436 80.302 0.174662 83.6678 0C83.7661 0.886944 83.807 1.774 83.807 2.65402V2.65413Z" fill="black"/>
</svg>
