<svg width="181" height="36" viewBox="0 0 181 36" fill="none" xmlns="http://www.w3.org/2000/svg">
<path d="M11.4663 34.4917H4.64609V17.4897H0V11.9541H4.64591V8.01522C4.64591 3.3476 6.7008 0 13.5026 0C14.9412 0 17.1997 0.289962 17.1997 0.289962V5.43H14.8275C12.4104 5.43 11.4667 6.16522 11.4667 8.19785V11.9541H17.1092L16.6067 17.4897H11.4665L11.4663 34.4917ZM27.1156 11.5118C27.0162 11.5118 26.914 11.5154 26.8128 11.5179C20.4887 11.5179 17.5952 16.275 17.5952 23.0277C17.5952 31.5344 21.3484 34.939 26.8622 34.939C30.0169 34.939 32.0895 33.6112 33.3493 31.1333V34.4941H39.8363V11.9565H33.3493V15.4225C32.3206 13.1925 30.1901 11.5382 27.1156 11.5118ZM28.7651 16.8373C31.4212 16.8373 33.0155 18.6901 33.0155 21.8415L33.0216 25.0602C33.0216 27.1842 31.7049 29.6692 28.7651 29.6692C24.2455 29.6692 24.3662 24.789 24.3662 23.1637C24.3662 17.6962 26.7742 16.8373 28.7651 16.8373ZM42.4561 23.2265C42.4561 20.4878 42.325 11.5264 54.0003 11.5264C58.6869 11.5264 60.6439 13.0166 60.6439 13.0166L59.071 17.8951C59.071 17.8951 57.1165 16.8189 54.5699 16.8189C51.3081 16.8189 49.2267 18.7098 49.2267 22.0368L49.2304 24.4223C49.2304 27.6192 51.2386 29.7531 54.5766 29.7531C56.8966 29.7531 59.035 28.6668 59.035 28.6668L60.6039 33.4434C60.6039 33.4434 58.8145 34.943 54.033 34.943C42.9164 34.943 42.4563 26.9029 42.4563 23.2265H42.4561ZM98.6797 11.5179C105.004 11.5179 107.943 16.275 107.943 23.0277C107.943 31.5344 104.19 34.939 98.6759 34.939C95.5213 34.939 93.1893 33.6113 91.9295 31.1333V34.4941L85.5241 34.4915V0.685266L92.325 0.092129V15.1171C93.3066 12.4885 96.5324 11.5179 98.6799 11.5179H98.6797ZM96.7731 16.8373C94.1169 16.8373 92.325 18.6901 92.325 21.8415L92.3187 25.0602C92.3147 27.1842 93.5596 29.6692 96.7731 29.6692C101.293 29.6692 101.172 24.789 101.172 23.1637C101.172 17.6962 98.7641 16.8373 96.7731 16.8373ZM72.444 11.5366C65.271 11.5366 61.4841 15.4474 61.4841 22.3975V23.6887C61.4841 32.7092 66.802 35.0316 73.1421 35.0316C79.3046 35.0316 82.094 33.308 82.094 33.308L80.8214 28.7178C80.8214 28.7178 77.5402 30.1139 73.9575 30.1139C70.2434 30.1139 68.6461 29.1672 68.2366 25.5979H82.6377V21.9155C82.6377 14.3765 78.3877 11.5364 72.4438 11.5364L72.444 11.5366ZM72.6168 16.1329C75.0998 16.1329 76.7087 17.6555 76.6204 21.1866H68.2491C68.3943 17.4701 70.1293 16.1331 72.6168 16.1331V16.1329ZM121.504 11.5056C114.138 11.5056 110.26 15.6567 110.26 23.0956C110.26 33.3022 116.944 34.9451 121.516 34.9451C128.209 34.9451 132.661 31.342 132.661 23.1883C132.661 14.7017 127.655 11.5056 121.504 11.5056ZM121.411 16.8558C124.65 16.8558 125.934 19.2799 125.934 22.0393V24.4117C125.934 27.7544 124.138 29.6878 121.399 29.6878C118.837 29.6878 117.037 27.8793 117.037 24.4117V22.0393C117.037 18.3411 119.179 16.8558 121.411 16.8558ZM146.21 11.5056C138.844 11.5056 134.966 15.6567 134.966 23.0956C134.966 33.3022 141.651 34.9451 146.222 34.9451C152.915 34.9451 157.368 31.342 157.368 23.1883C157.368 14.7017 152.361 11.5056 146.21 11.5056ZM146.117 16.8558C149.356 16.8558 150.64 19.2799 150.64 22.0393V24.4117C150.64 27.7544 148.844 29.6878 146.105 29.6878C143.544 29.6878 141.743 27.8793 141.743 24.4117V22.0393C141.743 18.3411 143.885 16.8558 146.117 16.8558ZM159.938 34.4917V0.685266L166.758 0.09231V22.7515L173.525 11.9543H180.728L173.669 23.1371L181 34.4917H173.776L166.758 23.4663V34.4917H159.938Z" fill="#1877F2"/>
</svg>
