<svg width="171" height="57" viewBox="0 0 171 57" fill="none" xmlns="http://www.w3.org/2000/svg">
<path d="M73.1779 29.6225C73.1779 37.721 66.8425 43.6886 59.0675 43.6886C51.2924 43.6886 44.957 37.721 44.957 29.6225C44.957 21.467 51.2924 15.5564 59.0675 15.5564C66.8425 15.5564 73.1779 21.467 73.1779 29.6225ZM67.001 29.6225C67.001 24.5617 63.3291 21.0991 59.0675 21.0991C54.8058 21.0991 51.1339 24.5617 51.1339 29.6225C51.1339 34.6325 54.8058 38.1459 59.0675 38.1459C63.3291 38.1459 67.001 34.6262 67.001 29.6225Z" fill="#EA4335"/>
<path d="M103.618 29.6225C103.618 37.721 97.283 43.6886 89.508 43.6886C81.733 43.6886 75.3975 37.721 75.3975 29.6225C75.3975 21.4733 81.733 15.5564 89.508 15.5564C97.283 15.5564 103.618 21.467 103.618 29.6225ZM97.4416 29.6225C97.4416 24.5617 93.7697 21.0991 89.508 21.0991C85.2463 21.0991 81.5744 24.5617 81.5744 29.6225C81.5744 34.6325 85.2463 38.1459 89.508 38.1459C93.7697 38.1459 97.4416 34.6262 97.4416 29.6225Z" fill="#FBBC05"/>
<path d="M132.791 16.4062V41.6592C132.791 52.0471 126.665 56.2897 119.422 56.2897C112.605 56.2897 108.502 51.73 106.954 48.001L112.332 45.7623C113.29 48.0517 115.636 50.7533 119.416 50.7533C124.052 50.7533 126.925 47.8932 126.925 42.509V40.486H126.709C125.326 42.1919 122.663 43.6822 119.302 43.6822C112.269 43.6822 105.825 37.5561 105.825 29.6732C105.825 21.7333 112.269 15.5564 119.302 15.5564C122.657 15.5564 125.32 17.0467 126.709 18.7019H126.925V16.4125H132.791V16.4062ZM127.362 29.6732C127.362 24.7203 124.058 21.0991 119.853 21.0991C115.592 21.0991 112.021 24.7203 112.021 29.6732C112.021 34.5754 115.592 38.1459 119.853 38.1459C124.058 38.1459 127.362 34.5754 127.362 29.6732Z" fill="#4285F4"/>
<path d="M142.462 1.60447V42.8261H136.437V1.60447H142.462Z" fill="#34A853"/>
<path d="M165.939 34.252L170.734 37.4483C169.186 39.7376 165.457 43.6822 159.014 43.6822C151.023 43.6822 145.056 37.5053 145.056 29.6162C145.056 21.2513 151.074 15.5501 158.323 15.5501C165.622 15.5501 169.193 21.3591 170.359 24.4983L171 26.0965L152.197 33.8842C153.636 36.7063 155.875 38.1459 159.014 38.1459C162.16 38.1459 164.341 36.5985 165.939 34.252ZM151.182 29.1913L163.751 23.972C163.06 22.2153 160.98 20.9913 158.532 20.9913C155.393 20.9913 151.023 23.7627 151.182 29.1913Z" fill="#EA4335"/>
<path d="M22.1519 25.9633V19.9957H42.2617C42.4583 21.0357 42.5597 22.266 42.5597 23.5978C42.5597 28.0751 41.3358 33.6115 37.3912 37.5561C33.5544 41.5514 28.6522 43.6822 22.1582 43.6822C10.1215 43.6822 0 33.8778 0 21.8411C0 9.80441 10.1215 0 22.1582 0C28.8171 0 33.5607 2.61282 37.1248 6.01836L32.9139 10.2293C30.3581 7.83211 26.8955 5.96762 22.1519 5.96762C13.3621 5.96762 6.48765 13.0514 6.48765 21.8411C6.48765 30.6308 13.3621 37.7146 22.1519 37.7146C27.8531 37.7146 31.1001 35.4252 33.1802 33.3451C34.8672 31.6582 35.977 29.2483 36.4146 25.9569L22.1519 25.9633Z" fill="#4285F4"/>
</svg>
