<svg width="254" height="148" viewBox="0 0 254 148" fill="none" xmlns="http://www.w3.org/2000/svg">
<path d="M234.44 73.8697H211.909C210.345 73.8697 209.078 72.6034 209.078 71.0392V39.8302C209.078 38.266 210.345 36.9998 211.909 36.9998H226.21L237.271 48.3959V71.002C237.234 72.6034 235.967 73.8697 234.44 73.8697Z" fill="#EBEBEB"/>
<path d="M226.173 37.0376V45.8268C226.173 47.2792 227.364 48.4338 228.78 48.4338H237.234L226.173 37.0376Z" fill="#F5F5F5"/>
<path d="M226.284 46.5715C226.284 46.5715 226.173 48.6943 228.593 49.4019C228.668 49.4392 228.779 49.4392 228.854 49.4764C229.971 49.6626 237.196 50.9661 237.196 50.7799C237.196 50.5937 237.196 48.4336 237.196 48.4336H228.742C228.817 48.4336 226.694 48.3592 226.284 46.5715Z" fill="#E0E0E0"/>
<path d="M234.44 73.8701C234.44 73.8701 234.627 73.8701 234.925 73.7956C235.222 73.7211 235.707 73.6094 236.191 73.1997C236.675 72.7901 237.159 72.1197 237.196 71.2259C237.196 70.3321 237.196 69.252 237.196 68.0975C237.196 63.3678 237.159 56.6269 237.159 48.4708L237.196 48.5453C233.845 45.0818 230.12 41.2458 226.135 37.1492L226.21 37.1864C223.566 37.1864 220.81 37.1864 217.979 37.1864C216.564 37.1864 215.112 37.1864 213.659 37.1864C213.287 37.1864 212.914 37.1864 212.579 37.1864C212.207 37.1864 211.834 37.1492 211.499 37.2236C210.792 37.3354 210.158 37.745 209.749 38.3409C209.451 38.7506 209.265 39.2347 209.265 39.7189C209.227 40.203 209.265 40.7244 209.265 41.2458C209.265 42.2514 209.265 43.2941 209.265 44.2997C209.265 46.3108 209.265 48.2846 209.265 50.2585C209.265 54.1689 209.265 57.9304 209.265 61.5056C209.265 63.2933 209.265 65.0437 209.265 66.7568C209.265 67.6134 209.265 68.4327 209.265 69.2521C209.265 69.6617 209.265 70.0714 209.265 70.481C209.265 70.8907 209.227 71.3004 209.302 71.6728C209.451 72.4176 209.935 73.088 210.568 73.4977C210.903 73.6839 211.238 73.8329 211.611 73.8701C211.983 73.9073 212.356 73.9073 212.728 73.9073C214.218 73.9073 215.633 73.9073 216.974 73.9073C222.374 73.9073 226.768 73.9446 229.822 73.9446C231.349 73.9446 232.504 73.9446 233.323 73.9446C233.733 73.9446 234.031 73.9446 234.217 73.9446C234.329 73.8701 234.44 73.8701 234.44 73.8701C234.44 73.8701 234.329 73.8701 234.142 73.8701C233.919 73.8701 233.621 73.8701 233.249 73.8701C232.429 73.8701 231.275 73.8701 229.748 73.8701C226.694 73.8701 222.337 73.8701 216.899 73.9073C215.559 73.9073 214.106 73.9073 212.654 73.9073C212.281 73.9073 211.909 73.9446 211.536 73.8701C211.164 73.8329 210.792 73.6839 210.419 73.4977C209.749 73.088 209.227 72.3804 209.078 71.5983C209.004 71.1887 209.041 70.779 209.004 70.3693C209.004 69.9597 209.004 69.55 209.004 69.1403C209.004 68.321 209.004 67.4644 209.004 66.6451C209.004 64.9319 209.004 63.1815 209.004 61.3939C209.004 57.8187 209.004 54.0572 209.004 50.1467C209.004 48.2101 209.004 46.199 209.004 44.188C209.004 43.1824 209.004 42.1769 209.004 41.1341C209.004 40.6127 209.004 40.1285 209.004 39.6072C209.041 39.0858 209.227 38.5644 209.525 38.1175C209.972 37.4843 210.68 37.0747 211.425 36.9257C211.797 36.8512 212.17 36.8885 212.542 36.8885C212.914 36.8885 213.287 36.8885 213.622 36.8885C215.074 36.8885 216.527 36.8885 217.942 36.8885C220.772 36.8885 223.528 36.8885 226.173 36.8885H226.21L226.247 36.9257C230.232 41.0224 233.956 44.8956 237.308 48.3219L237.345 48.3591V48.3963C237.345 56.5524 237.308 63.3305 237.308 68.0231C237.308 69.2148 237.308 70.2576 237.271 71.1887C237.196 72.1197 236.712 72.8273 236.228 73.1997C235.744 73.6094 235.222 73.7211 234.925 73.7956C234.776 73.8329 234.627 73.8329 234.552 73.8329C234.478 73.8701 234.44 73.8701 234.44 73.8701Z" fill="#E0E0E0"/>
<path d="M237.234 48.4338C237.234 48.4338 237.159 48.4338 237.01 48.471C236.861 48.471 236.638 48.471 236.377 48.471C235.818 48.471 235.036 48.471 234.105 48.5082C233.137 48.5082 231.982 48.5082 230.716 48.5455C230.083 48.5455 229.413 48.5455 228.705 48.5455C227.997 48.5455 227.253 48.2103 226.731 47.6144C226.471 47.3165 226.284 46.9813 226.173 46.6461C226.061 46.3109 226.024 45.9013 226.061 45.5661C226.061 44.8585 226.061 44.1881 226.061 43.555C226.061 42.2888 226.061 41.1343 226.098 40.166C226.098 39.2349 226.135 38.4528 226.135 37.8942C226.135 37.6335 226.135 37.4473 226.135 37.2611C226.135 37.1121 226.135 37.0376 226.173 37.0376C226.21 37.0376 226.173 37.1121 226.21 37.2611C226.21 37.41 226.21 37.6335 226.21 37.8942C226.21 38.4528 226.21 39.2349 226.247 40.166C226.247 41.1343 226.247 42.2888 226.284 43.555C226.284 44.1881 226.284 44.8585 226.284 45.5661C226.247 46.2365 226.433 46.9441 226.917 47.5027C227.402 48.0241 228.072 48.3593 228.742 48.3593C229.45 48.3593 230.12 48.3593 230.753 48.3593C232.02 48.3593 233.174 48.3593 234.142 48.3965C235.073 48.3965 235.856 48.4338 236.414 48.4338C236.675 48.4338 236.861 48.4338 237.047 48.4338C237.159 48.4338 237.234 48.4338 237.234 48.4338Z" fill="#E0E0E0"/>
<path d="M225.763 44.8583C225.763 44.8956 223.119 44.97 219.804 44.97C216.527 44.97 213.846 44.9328 213.846 44.8583C213.846 44.8211 216.49 44.7466 219.804 44.7466C223.082 44.7838 225.763 44.8211 225.763 44.8583Z" fill="#E0E0E0"/>
<path d="M231.387 49.2528C231.387 49.2901 227.476 49.3646 222.635 49.3646C217.793 49.3646 213.883 49.3273 213.883 49.2528C213.883 49.2156 217.793 49.1411 222.635 49.1411C227.476 49.1411 231.387 49.1784 231.387 49.2528Z" fill="#E0E0E0"/>
<path d="M231.387 53.6476C231.387 53.6849 227.476 53.7593 222.635 53.7593C217.793 53.7593 213.883 53.7221 213.883 53.6476C213.883 53.5731 217.793 53.5359 222.635 53.5359C227.476 53.5359 231.387 53.5731 231.387 53.6476Z" fill="#E0E0E0"/>
<path d="M231.387 58.0046C231.387 58.0418 227.476 58.1163 222.635 58.1163C217.793 58.1163 213.883 58.079 213.883 58.0046C213.883 57.9673 217.793 57.8928 222.635 57.8928C227.476 57.8928 231.387 57.9673 231.387 58.0046Z" fill="#E0E0E0"/>
<path d="M231.387 62.3993C231.387 62.4366 227.476 62.511 222.635 62.511C217.793 62.511 213.883 62.4738 213.883 62.3993C213.883 62.3248 217.793 62.2876 222.635 62.2876C227.476 62.2876 231.387 62.3248 231.387 62.3993Z" fill="#E0E0E0"/>
<path d="M231.387 67.7995C231.387 67.8367 227.476 67.9112 222.635 67.9112C217.793 67.9112 213.883 67.874 213.883 67.7995C213.883 67.725 217.793 67.6877 222.635 67.6877C227.476 67.6877 231.387 67.725 231.387 67.7995Z" fill="#E0E0E0"/>
<path d="M221.592 67.7993H205.578C204.721 67.7993 204.013 67.0917 204.013 66.2351V60.7605C204.013 59.9039 204.721 59.1963 205.578 59.1963H221.592C222.448 59.1963 223.156 59.9039 223.156 60.7605V66.2351C223.156 67.0917 222.448 67.7993 221.592 67.7993Z" fill="#E0E0E0"/>
<path d="M206.211 61.99H207.701C208.781 61.99 209.489 62.6231 209.489 63.6287C209.489 64.597 208.744 65.2673 207.701 65.2673H206.211V61.99ZM207.664 64.6342C208.297 64.6342 208.744 64.2618 208.744 63.6287C208.744 62.9955 208.334 62.6231 207.664 62.6231H206.993V64.6342H207.664V64.6342Z" fill="white"/>
<path d="M209.861 63.6285C209.861 62.6602 210.606 61.9526 211.648 61.9526C212.654 61.9526 213.436 62.6602 213.436 63.6285C213.436 64.5968 212.691 65.3044 211.648 65.3044C210.606 65.3044 209.861 64.5968 209.861 63.6285ZM212.654 63.6285C212.654 62.9954 212.207 62.5858 211.648 62.5858C211.09 62.5858 210.643 62.9954 210.643 63.6285C210.643 64.2617 211.09 64.6713 211.648 64.6713C212.207 64.6713 212.654 64.2244 212.654 63.6285Z" fill="white"/>
<path d="M213.771 63.6285C213.771 62.6602 214.516 61.9526 215.522 61.9526C216.08 61.9526 216.564 62.1388 216.862 62.5113L216.378 62.9582C216.155 62.6975 215.894 62.5858 215.559 62.5858C214.963 62.5858 214.516 62.9954 214.516 63.6285C214.516 64.2244 214.963 64.6713 215.559 64.6713C215.894 64.6713 216.155 64.5596 216.378 64.2989L216.862 64.7458C216.564 65.1182 216.08 65.3417 215.522 65.3417C214.516 65.3044 213.771 64.5968 213.771 63.6285Z" fill="white"/>
<path d="M219.358 65.2301L218.575 64.1128L217.793 65.2301H216.937L218.129 63.5914L216.974 61.99H217.831L218.575 63.0328L219.32 61.99H220.14L219.022 63.5542L220.251 65.2301H219.358V65.2301Z" fill="white"/>
<path d="M207.664 114.166L190.607 143.997L156.828 144.481C155.748 144.481 154.891 145.338 154.817 146.418L189.154 146.53L190.458 146.492L233.435 146.567L242.113 131.595L253.211 115.693C253.956 114.65 253.174 113.235 251.907 113.235L209.004 113.384C208.483 113.347 207.961 113.645 207.664 114.166Z" fill="#EBEBEB"/>
<path d="M253.248 114.315C253.248 114.315 253.173 114.315 253.024 114.352C252.875 114.352 252.652 114.352 252.429 114.39C251.87 114.39 251.088 114.427 250.12 114.427C248.071 114.427 245.166 114.464 241.591 114.501C234.366 114.501 224.422 114.539 213.436 114.576C212.765 114.576 212.058 114.576 211.387 114.576C210.754 114.539 210.159 114.799 209.823 115.321C209.19 116.475 208.52 117.63 207.924 118.784C206.658 121.056 205.466 123.253 204.311 125.339C202.002 129.51 199.917 133.234 198.166 136.4C196.416 139.528 195.001 142.061 193.995 143.848C193.511 144.705 193.139 145.375 192.841 145.859C192.729 146.083 192.617 146.232 192.543 146.381C192.468 146.492 192.431 146.567 192.431 146.567C192.431 146.567 192.468 146.492 192.506 146.381C192.58 146.232 192.655 146.046 192.766 145.859C193.027 145.375 193.399 144.668 193.846 143.811C194.815 142.023 196.193 139.454 197.906 136.288C199.656 133.122 201.704 129.361 203.976 125.19C205.131 123.104 206.323 120.907 207.589 118.635C208.222 117.481 208.855 116.326 209.525 115.172C209.935 114.539 210.717 114.166 211.425 114.241C212.095 114.241 212.803 114.241 213.473 114.241C224.46 114.278 234.403 114.278 241.628 114.315C245.204 114.352 248.108 114.352 250.157 114.39C251.125 114.39 251.907 114.427 252.466 114.427C252.726 114.427 252.913 114.427 253.062 114.464C253.173 114.315 253.248 114.315 253.248 114.315Z" fill="#E0E0E0"/>
<path d="M222.97 129.324C222.226 130.18 222.188 131.372 222.933 132.042C223.678 132.713 224.87 132.564 225.652 131.707C226.397 130.85 226.434 129.659 225.689 128.988C224.944 128.355 223.753 128.504 222.97 129.324Z" fill="white"/>
<path d="M5.69789 114.725C5.69789 115.06 5.69789 132.564 5.69789 132.564H2.71851V134.5H5.69789V146.455H61.4124V135.58H57.2785V133.197H61.4124V129.659H63.2373V128.057H61.0772V114.725H5.69789Z" fill="#F5F5F5"/>
<path d="M46.6274 114.762V146.232H61.4126V135.357H57.2787V133.197L61.4126 133.271V129.733H63.2748L63.2375 127.908L61.0775 127.834V114.725L46.6274 114.762Z" fill="#E0E0E0"/>
<path d="M47.67 134.239C47.67 134.351 37.5774 134.426 25.1757 134.426C12.7367 134.426 2.64404 134.351 2.64404 134.239C2.64404 134.128 12.7367 134.053 25.1757 134.053C37.5774 134.053 47.67 134.128 47.67 134.239Z" fill="#E0E0E0"/>
<path d="M47.67 132.415C47.67 132.526 37.5774 132.601 25.1757 132.601C12.7367 132.601 2.64404 132.526 2.64404 132.415C2.64404 132.303 12.7367 132.229 25.1757 132.229C37.5774 132.229 47.67 132.303 47.67 132.415Z" fill="#E0E0E0"/>
<path d="M50.5751 127.536C50.5751 127.648 40.4824 127.722 28.0807 127.722C15.6417 127.722 5.54907 127.648 5.54907 127.536C5.54907 127.424 15.6417 127.35 28.0807 127.35C40.4824 127.35 50.5751 127.424 50.5751 127.536Z" fill="#E0E0E0"/>
<path d="M50.8356 140.831C50.8356 140.943 40.7429 141.017 28.3412 141.017C15.9022 141.017 5.80957 140.943 5.80957 140.831C5.80957 140.72 15.9022 140.645 28.3412 140.645C40.7429 140.645 50.8356 140.72 50.8356 140.831Z" fill="#E0E0E0"/>
<path d="M191.575 38.7132H169.564C168.037 38.7132 166.808 37.4842 166.808 35.9572V5.49299C166.808 3.96606 168.037 2.73706 169.564 2.73706H183.53L194.33 13.8725V35.9572C194.33 37.4842 193.101 38.7132 191.575 38.7132Z" fill="#EBEBEB"/>
<path d="M183.53 2.73706V11.3028C183.53 12.718 184.685 13.8725 186.1 13.8725H194.33L183.53 2.73706Z" fill="#F5F5F5"/>
<path d="M183.642 12.085C183.642 12.085 183.53 14.1705 185.913 14.8409C185.988 14.8781 186.1 14.8781 186.174 14.9154C187.254 15.1016 194.33 16.3678 194.33 16.2189C194.33 16.0326 194.33 13.9098 194.33 13.9098H186.1C186.1 13.8726 184.051 13.8354 183.642 12.085Z" fill="#E0E0E0"/>
<path d="M191.574 38.7131C191.574 38.7131 191.723 38.7131 192.058 38.6386C192.356 38.5641 192.84 38.4524 193.325 38.0427C193.771 37.6703 194.256 37 194.293 36.1061C194.293 35.2123 194.293 34.1695 194.293 33.0523C194.293 28.4342 194.256 21.8423 194.256 13.8725L194.293 13.9469C191.016 10.5951 187.366 6.83366 183.493 2.81149L183.567 2.84873C180.96 2.84873 178.279 2.84873 175.523 2.84873C174.145 2.84873 172.73 2.84873 171.314 2.84873C170.942 2.84873 170.607 2.84873 170.234 2.84873C169.862 2.84873 169.527 2.84873 169.192 2.88597C168.521 2.9977 167.888 3.40737 167.478 3.966C167.18 4.37567 167.031 4.82257 166.994 5.30672C166.957 5.79088 166.994 6.31227 166.994 6.79642C166.994 7.80196 166.994 8.77026 166.994 9.7758C166.994 11.7496 166.994 13.6863 166.994 15.5856C166.994 19.3843 166.994 23.0713 166.994 26.5721C166.994 28.3225 166.994 30.0356 166.994 31.6743C166.994 32.4936 166.994 33.313 166.994 34.1323C166.994 34.542 166.994 34.9516 166.994 35.324C166.994 35.7337 166.957 36.1061 167.031 36.4786C167.18 37.2234 167.665 37.8565 168.26 38.2662C168.558 38.4524 168.931 38.5641 169.266 38.6386C169.601 38.6759 169.974 38.6759 170.346 38.6759C171.799 38.6759 173.176 38.6759 174.517 38.6759C179.806 38.6759 184.088 38.7131 187.068 38.7131C188.558 38.7131 189.675 38.7131 190.494 38.7131C190.867 38.7131 191.165 38.7131 191.388 38.7131C191.5 38.7131 191.574 38.7131 191.574 38.7131C191.574 38.7131 191.462 38.7131 191.276 38.7131C191.053 38.7131 190.792 38.7131 190.382 38.7131C189.6 38.7131 188.446 38.7131 186.956 38.7131C183.977 38.7131 179.694 38.7131 174.405 38.7503C173.065 38.7503 171.687 38.7503 170.234 38.7503C169.862 38.7503 169.527 38.7503 169.117 38.7131C168.745 38.6759 168.372 38.5269 168.037 38.3407C167.367 37.931 166.883 37.2606 166.696 36.4786C166.622 36.0689 166.659 35.6965 166.622 35.2868C166.622 34.8771 166.622 34.5047 166.622 34.095C166.622 33.2757 166.622 32.4564 166.622 31.6371C166.622 29.9612 166.622 28.2852 166.622 26.5349C166.622 23.0341 166.622 19.3471 166.622 15.5484C166.622 13.649 166.622 11.7124 166.622 9.73856C166.622 8.77026 166.622 7.76472 166.622 6.75918C166.622 6.27503 166.622 5.75363 166.622 5.26948C166.659 4.74809 166.845 4.2267 167.143 3.81703C167.59 3.22115 168.26 2.77425 169.005 2.66252C169.378 2.58803 169.75 2.62528 170.085 2.62528C170.458 2.62528 170.793 2.62528 171.165 2.62528C172.581 2.62528 173.996 2.62528 175.374 2.62528C178.13 2.62528 180.848 2.62528 183.418 2.62528H183.455L183.493 2.66252C187.366 6.68469 191.016 10.4462 194.293 13.798L194.33 13.8352V13.8725C194.33 21.8423 194.293 28.4342 194.293 33.0523C194.293 34.2068 194.293 35.2123 194.256 36.1434C194.218 37.0744 193.697 37.7448 193.213 38.1172C192.729 38.4896 192.245 38.6386 191.947 38.6759C191.798 38.7131 191.686 38.7131 191.574 38.7131C191.649 38.7503 191.574 38.7131 191.574 38.7131Z" fill="#E0E0E0"/>
<path d="M194.33 13.8725C194.33 13.8725 194.256 13.8725 194.107 13.9098C193.958 13.9098 193.734 13.9098 193.511 13.9098C192.952 13.9098 192.207 13.9098 191.276 13.947C190.308 13.947 189.191 13.947 187.962 13.9842C187.329 13.9842 186.696 13.9842 185.988 13.9842C185.28 13.9842 184.573 13.6491 184.089 13.0904C183.828 12.7925 183.642 12.4946 183.53 12.1221C183.418 11.7869 183.418 11.4145 183.418 11.0793C183.418 10.409 183.418 9.73862 183.418 9.1055C183.418 7.8765 183.418 6.75923 183.455 5.79093C183.455 4.85987 183.493 4.11503 183.493 3.55639C183.493 3.2957 183.493 3.10948 183.493 2.96051C183.493 2.81155 183.493 2.73706 183.53 2.73706C183.53 2.73706 183.53 2.81155 183.567 2.96051C183.567 3.10948 183.567 3.33294 183.567 3.55639C183.567 4.11503 183.567 4.85987 183.604 5.79093C183.604 6.75923 183.604 7.8765 183.642 9.1055C183.642 9.73862 183.642 10.3717 183.642 11.0793C183.604 11.7497 183.791 12.4201 184.275 12.9415C184.722 13.4629 185.392 13.7608 186.062 13.7608C186.733 13.7608 187.403 13.7608 187.999 13.7608C189.228 13.7608 190.345 13.7608 191.314 13.798C192.245 13.798 192.989 13.8353 193.548 13.8353C193.809 13.8353 193.995 13.8353 194.144 13.8353C194.256 13.8725 194.33 13.8725 194.33 13.8725Z" fill="#E0E0E0"/>
<path d="M183.12 10.4088C183.12 10.4461 180.513 10.5206 177.311 10.5206C174.108 10.5206 171.501 10.4833 171.501 10.4088C171.501 10.3716 174.108 10.2971 177.311 10.2971C180.513 10.2971 183.12 10.3344 183.12 10.4088Z" fill="#E0E0E0"/>
<path d="M188.632 14.6918C188.632 14.729 184.796 14.8035 180.066 14.8035C175.337 14.8035 171.501 14.7663 171.501 14.6918C171.501 14.6546 175.337 14.5801 180.066 14.5801C184.796 14.5801 188.632 14.6173 188.632 14.6918Z" fill="#E0E0E0"/>
<path d="M188.632 18.9748C188.632 19.012 184.796 19.0865 180.066 19.0865C175.337 19.0865 171.501 19.0492 171.501 18.9748C171.501 18.9375 175.337 18.863 180.066 18.863C184.796 18.863 188.632 18.9003 188.632 18.9748Z" fill="#E0E0E0"/>
<path d="M188.632 23.2204C188.632 23.2576 184.796 23.3321 180.066 23.3321C175.337 23.3321 171.501 23.2949 171.501 23.2204C171.501 23.1831 175.337 23.1086 180.066 23.1086C184.796 23.1459 188.632 23.1831 188.632 23.2204Z" fill="#E0E0E0"/>
<path d="M188.632 27.5031C188.632 27.5403 184.796 27.6148 180.066 27.6148C175.337 27.6148 171.501 27.5776 171.501 27.5031C171.501 27.4658 175.337 27.3914 180.066 27.3914C184.796 27.4286 188.632 27.4658 188.632 27.5031Z" fill="#E0E0E0"/>
<path d="M188.632 32.7919C188.632 32.8291 184.796 32.9036 180.066 32.9036C175.337 32.9036 171.501 32.8664 171.501 32.7919C171.501 32.7174 175.337 32.6802 180.066 32.6802C184.796 32.6802 188.632 32.7547 188.632 32.7919Z" fill="#E0E0E0"/>
<path d="M179.024 32.7916H163.456C162.6 32.7916 161.892 32.084 161.892 31.2275V25.9763C161.892 25.1197 162.6 24.4121 163.456 24.4121H179.024C179.88 24.4121 180.588 25.1197 180.588 25.9763V31.2275C180.588 32.084 179.88 32.7916 179.024 32.7916Z" fill="#E0E0E0"/>
<path d="M169.192 28.2857C169.192 28.9933 168.671 29.4402 167.814 29.4402H167.181V30.334H166.436V27.1684H167.814C168.671 27.1312 169.192 27.5781 169.192 28.2857ZM168.447 28.2857C168.447 27.9505 168.224 27.7271 167.777 27.7271H167.181V28.8443H167.777C168.224 28.8443 168.447 28.6209 168.447 28.2857Z" fill="white"/>
<path d="M169.714 27.1306H171.166C172.209 27.1306 172.916 27.7637 172.916 28.732C172.916 29.7003 172.209 30.3335 171.166 30.3335H169.714V27.1306ZM171.129 29.7003C171.762 29.7003 172.172 29.3279 172.172 28.732C172.172 28.1362 171.762 27.7637 171.129 27.7637H170.458V29.7376H171.129V29.7003Z" fill="white"/>
<path d="M174.182 27.7266V28.5832H175.635V29.1791H174.182V30.3336H173.437V27.168H175.821V27.7638H174.182V27.7266Z" fill="white"/>
<path d="M106.961 24.8214L106.514 62.9575C106.439 69.4377 107.631 78.9717 117.91 78.6366C126.773 77.6683 129.157 69.2515 129.231 63.2182C129.269 60.3506 129.306 57.9671 129.306 57.6691C129.306 57.6691 139.026 56.887 139.845 47.2785C140.255 42.6232 140.292 33.0147 140.218 24.3C140.143 14.9522 132.881 7.24301 123.571 6.53541L122.64 6.46092C112.584 6.31195 106.849 14.766 106.961 24.8214Z" fill="#FFD4BE"/>
<path d="M129.269 57.6691C129.269 57.6691 123.198 57.5946 117.016 53.051C117.016 53.051 119.548 60.276 129.194 60.1271L129.269 57.6691Z" fill="#EB996E"/>
<path d="M123.757 28.2104C123.571 28.3966 122.453 27.5028 120.852 27.4655C119.25 27.391 118.059 28.2104 117.872 27.9869C117.798 27.9124 117.984 27.54 118.506 27.1676C119.027 26.7952 119.884 26.46 120.889 26.4972C121.895 26.5345 122.714 26.9441 123.198 27.3538C123.719 27.7635 123.868 28.1359 123.757 28.2104Z" fill="#263238"/>
<path d="M123.421 31.5621C123.384 32.2325 122.788 32.7911 122.08 32.7911C121.373 32.7911 120.814 32.1953 120.814 31.5249C120.851 30.8545 121.447 30.2959 122.155 30.2959C122.9 30.2959 123.458 30.8545 123.421 31.5621Z" fill="#263238"/>
<path d="M127.816 39.4202C127.816 39.3457 128.747 39.234 130.237 39.1595C130.609 39.1595 130.982 39.085 131.056 38.8616C131.168 38.6009 131.019 38.1912 130.87 37.707C130.572 36.776 130.274 35.7704 129.976 34.7649C128.71 30.5565 127.853 27.1302 128.002 27.0557C128.188 27.0185 129.306 30.3703 130.572 34.5787C130.87 35.6215 131.168 36.5898 131.428 37.5581C131.54 38.005 131.764 38.4891 131.503 39.0478C131.391 39.3085 131.093 39.4947 130.833 39.5692C130.572 39.6436 130.386 39.6064 130.199 39.6064C128.747 39.5692 127.816 39.4947 127.816 39.4202Z" fill="#263238"/>
<path d="M123.086 22.1769C122.937 22.5493 121.634 22.2514 120.107 22.3259C118.58 22.3631 117.314 22.7356 117.127 22.4004C117.053 22.2514 117.276 21.9162 117.798 21.581C118.319 21.2459 119.139 20.9852 120.07 20.9479C121.001 20.9107 121.82 21.1341 122.379 21.3948C122.9 21.6928 123.161 21.9907 123.086 22.1769Z" fill="#263238"/>
<path d="M138.355 25.1564C138.169 25.4543 136.94 25.1191 135.413 25.0819C133.886 25.0074 132.62 25.2309 132.471 24.9329C132.397 24.7839 132.657 24.5233 133.179 24.2998C133.7 24.0763 134.519 23.8901 135.413 23.9274C136.307 23.9646 137.126 24.1881 137.648 24.486C138.206 24.7467 138.43 25.0074 138.355 25.1564Z" fill="#263238"/>
<path d="M107.221 31.972C107.072 31.8975 100.778 29.5513 100.48 36.1059C100.219 42.6978 106.886 41.6178 106.886 41.4316C106.923 41.2454 107.221 31.972 107.221 31.972Z" fill="#FFD4BE"/>
<path d="M105.023 38.8615C104.986 38.8242 104.912 38.936 104.725 39.0105C104.539 39.0849 104.204 39.1222 103.869 39.0105C103.199 38.7125 102.64 37.5953 102.677 36.4035C102.677 35.8076 102.826 35.249 103.05 34.7648C103.273 34.2807 103.608 33.9827 103.943 33.9083C104.279 33.8338 104.539 34.0572 104.614 34.2434C104.688 34.4297 104.651 34.5786 104.688 34.5786C104.688 34.5786 104.837 34.4669 104.8 34.2062C104.763 34.0572 104.725 33.9083 104.576 33.7965C104.428 33.6476 104.204 33.5731 103.943 33.6103C103.422 33.6103 102.975 34.0572 102.714 34.5786C102.416 35.1 102.267 35.7331 102.23 36.4035C102.23 37.7442 102.863 39.0105 103.794 39.3084C104.241 39.4574 104.651 39.3084 104.837 39.1594C104.986 39.0105 105.023 38.8615 105.023 38.8615Z" fill="#EB996E"/>
<path d="M126.252 43.9637C126.326 43.8147 125.023 43.4051 124.129 42.2133C123.682 41.6174 123.421 40.9843 123.235 40.5002C123.049 40.016 122.9 39.7181 122.825 39.7553C122.751 39.7926 122.788 40.0905 122.863 40.6119C122.974 41.1333 123.198 41.8781 123.719 42.5485C124.24 43.2189 124.911 43.6285 125.395 43.852C125.879 44.001 126.214 44.0382 126.252 43.9637Z" fill="#263238"/>
<path d="M152.954 15.6598C152.843 15.2873 152.582 14.9522 152.209 14.7659C151.465 14.319 150.608 14.3935 149.751 14.3563C147.219 14.319 144.686 13.5369 142.526 12.159C141.521 10.7065 140.404 9.3658 139.175 8.09956C136.27 5.08294 133.886 3.07185 131.391 2.06631C128.188 0.762826 122.825 0.241433 119.473 1.13525C116.122 2.02906 113.142 4.71051 112.658 8.13681C110.796 6.53539 107.965 6.57263 105.694 7.46645L105.619 7.4292C103.087 8.32302 101.634 11.0045 100.889 13.6114C100.145 16.2184 99.8094 18.9743 98.4315 21.2833C98.1335 21.7675 97.7983 22.3634 98.059 22.8475C98.2452 23.22 98.7666 23.4062 99.1763 23.3317C99.6232 23.2572 99.9956 23.0337 100.368 22.8103C100.07 23.4806 99.8094 24.151 99.5115 24.8586C100.443 25.0076 101.374 24.9331 102.267 24.6724C102.826 27.0932 103.459 29.8491 104.092 31.4877C105.172 31.4877 106.141 31.5622 106.774 32.1581C107.668 32.9402 108.077 34.4671 109.53 33.9085C110.275 33.6106 110.982 32.0464 111.206 31.2643C112.881 26.1621 113.44 20.7247 112.844 15.3991C113.887 14.2818 115.153 13.3507 116.568 12.7176L116.457 12.8293C119.138 11.8983 122.192 10.9672 124.725 12.2335C126.698 13.2018 127.853 15.2501 129.343 16.8888C132.136 19.9799 135.897 21.6558 140.068 21.842C140.217 24.5607 139.994 28.3594 140.143 31.0781L142.415 26.758V26.7952C142.601 26.46 142.75 26.1621 142.899 25.8269L142.936 25.7152C143.159 25.1938 143.383 24.6724 143.681 24.1883C143.681 24.1883 143.681 24.1883 143.718 24.2255C145.171 25.529 147.331 23.5551 146.176 21.9537C145.953 21.6558 145.655 21.3578 145.357 21.1344C146.027 21.7675 147.033 22.0654 147.889 21.8047C148.783 21.544 149.453 20.6502 149.379 19.7192C149.342 19.0861 148.895 18.5274 148.299 18.304C149.491 18.3784 150.682 18.155 151.725 17.5591C152.507 17.1495 153.178 16.5163 152.954 15.6598Z" fill="#263238"/>
<path d="M115.712 9.2168C115.749 9.25404 115.302 9.47749 114.744 10.1106C114.185 10.7437 113.552 11.8238 113.254 13.3135C113.105 14.0583 112.993 14.8776 112.993 15.7714C112.993 16.6653 113.068 17.5963 113.142 18.6019C113.217 19.6074 113.291 20.6502 113.217 21.7675C113.18 22.3261 113.105 22.8847 112.993 23.4434C112.882 24.002 112.733 24.5979 112.323 25.0448C111.988 25.4172 111.429 25.6034 110.982 25.4917C110.498 25.4172 110.089 25.1565 109.753 24.8213C109.12 24.1137 108.971 23.1827 108.822 22.3633L109.009 22.4006C108.673 23.1082 108.338 23.853 107.854 24.4117C107.37 24.9703 106.662 25.38 105.992 25.4172C105.657 25.4545 105.284 25.38 104.986 25.231C104.688 25.082 104.465 24.8213 104.316 24.5606C104.167 24.2999 104.093 24.002 104.13 23.7041C104.13 23.4061 104.241 23.1454 104.428 22.9592L104.539 23.0337C103.795 23.8903 103.012 24.3372 102.491 24.5979C102.23 24.7096 102.007 24.7841 101.858 24.8586C101.709 24.8958 101.635 24.9331 101.635 24.9331C101.635 24.9331 101.709 24.8958 101.858 24.8586C102.007 24.7841 102.23 24.7096 102.491 24.5979C103.012 24.3372 103.757 23.853 104.465 23.0337L104.577 23.1082C104.241 23.4434 104.241 24.0392 104.502 24.5234C104.651 24.7469 104.837 24.9703 105.098 25.1193C105.359 25.231 105.694 25.3055 105.992 25.2682C106.625 25.1938 107.258 24.8586 107.742 24.2999C108.226 23.7413 108.524 23.0709 108.86 22.3261L109.009 22.0282L109.083 22.3633C109.232 23.1827 109.418 24.0392 109.977 24.7096C110.275 25.0075 110.647 25.2682 111.057 25.3427C111.467 25.4172 111.913 25.2682 112.211 24.9703C112.584 24.5606 112.733 24.002 112.844 23.4806C112.956 22.922 113.031 22.4006 113.068 21.8419C113.142 20.7619 113.068 19.7191 112.993 18.7136C112.919 17.708 112.882 16.777 112.882 15.8832C112.882 14.9894 112.993 14.17 113.142 13.4252C113.478 11.9355 114.111 10.8182 114.707 10.2223C115.265 9.44025 115.712 9.2168 115.712 9.2168Z" fill="#455A64"/>
<path d="M145.432 18.5646C145.432 18.5646 145.394 18.6019 145.357 18.6391C145.283 18.6763 145.208 18.7508 145.134 18.8253C145.022 18.8998 144.91 19.0115 144.724 19.086C144.575 19.1977 144.352 19.3095 144.128 19.3839C143.234 19.7936 141.819 20.2405 140.031 20.1288C138.244 20.0171 136.121 19.3839 134.222 18.006C132.285 16.628 130.609 14.5797 129.231 12.2707C128.524 11.1161 127.965 9.92439 127.332 8.80712C126.699 7.68985 126.028 6.68431 125.172 5.86498C124.352 5.04565 123.384 4.44977 122.416 4.18907C121.932 4.0401 121.447 4.00286 120.963 4.00286C120.479 4.0401 120.032 4.11459 119.623 4.26356C118.803 4.52425 118.133 5.00841 117.612 5.45531C117.09 5.93946 116.755 6.42361 116.532 6.87052C116.085 7.76434 116.085 8.32297 116.047 8.32297C116.047 8.32297 116.047 8.28573 116.047 8.21125C116.047 8.13676 116.085 8.02503 116.085 7.91331C116.122 7.65261 116.234 7.28019 116.457 6.83328C116.68 6.38637 117.016 5.86498 117.537 5.38083C118.058 4.89668 118.729 4.41253 119.585 4.11459C119.995 3.96562 120.479 3.85389 120.963 3.81665C121.447 3.81665 121.969 3.81665 122.49 3.96562C123.533 4.22632 124.501 4.85944 125.358 5.67877C126.215 6.4981 126.922 7.54088 127.555 8.65815C128.188 9.77542 128.747 10.9672 129.455 12.1217C130.833 14.4307 132.471 16.4418 134.371 17.8198C136.233 19.235 138.318 19.8309 140.069 19.9798C141.819 20.0916 143.234 19.7191 144.128 19.3095C144.985 18.8998 145.394 18.5646 145.432 18.5646Z" fill="#455A64"/>
<path d="M146.288 14.3564C146.288 14.3564 146.176 14.4682 145.953 14.5799C145.729 14.7289 145.394 14.9151 144.947 15.1013C144.5 15.2875 143.942 15.4737 143.346 15.6227C142.713 15.7716 142.005 15.8834 141.297 15.8834C140.553 15.9206 139.845 15.8461 139.212 15.7344C138.579 15.6227 138.02 15.4737 137.573 15.3247C137.126 15.1758 136.754 14.9896 136.53 14.8778C136.307 14.7661 136.158 14.6916 136.158 14.6544C136.158 14.6171 136.717 14.8778 137.61 15.1758C138.057 15.3247 138.616 15.4365 139.249 15.5482C139.882 15.6227 140.553 15.6972 141.297 15.6599C142.005 15.6227 142.713 15.5482 143.308 15.3992C143.904 15.2503 144.463 15.1013 144.91 14.9151C145.766 14.6171 146.251 14.3192 146.288 14.3564Z" fill="#455A64"/>
<path d="M138.43 28.8434C138.244 29.0296 137.126 28.1358 135.525 28.0986C133.924 28.0241 132.732 28.8434 132.546 28.62C132.471 28.5455 132.657 28.1731 133.179 27.8006C133.7 27.4282 134.557 27.093 135.562 27.1303C136.568 27.1675 137.387 27.5772 137.871 27.9868C138.355 28.3965 138.542 28.7317 138.43 28.8434Z" fill="#263238"/>
<path d="M136.792 32.0089C136.754 32.6793 136.158 33.2379 135.451 33.2379C134.743 33.2379 134.185 32.642 134.185 31.9717C134.222 31.3013 134.818 30.7427 135.525 30.7427C136.27 30.7799 136.829 31.3386 136.792 32.0089Z" fill="#263238"/>
<path d="M196.788 67.1289C196.788 64.3358 194.107 64.3358 194.107 64.3358C193.101 62.995 191.947 63.4792 191.947 63.4792L187.627 66.3841C186.994 67.4641 182.785 71.598 182.785 71.598C181.631 70.7414 181.631 69.0655 180.29 66.98C178.912 64.9316 175.821 65.1551 175.821 65.1551C175.821 65.1551 178.242 70.6297 178.502 74.0188C178.763 77.4078 176.64 86.9046 176.64 86.9046L188.856 90.3309C188.856 90.3309 189.638 85.117 190.979 84.7073C192.617 84.1859 193.548 81.7652 193.548 81.7652C195.336 78.1527 198.949 72.9387 199.433 70.2573C199.954 67.6131 196.788 67.1289 196.788 67.1289Z" fill="#FFBE9D"/>
<path d="M106.029 61.0955C113.813 65.9742 121.634 67.7991 129.566 64.6707L141.484 67.7246L153.215 146.12L84.4658 146.716L87.8549 128.504L96.3834 63.0693L106.029 61.0955Z" fill="#54609A"/>
<path d="M141.521 67.7249C141.521 67.7249 150.794 71.5608 154.332 78.3389C157.87 85.0798 163.568 104.036 163.568 104.036L174.034 84.7818L193.474 89.7723C193.474 89.7723 178.987 129.696 175.374 133.346C171.389 137.331 160.552 141.353 155.226 138.225C149.901 135.133 148.82 123.365 148.82 123.365L141.521 67.7249Z" fill="#54609A"/>
<path d="M142.154 100.498C142.117 100.498 142.042 97.0342 142.042 92.7141C142.042 88.4312 142.08 84.9304 142.154 84.9304C142.191 84.9304 142.266 88.394 142.266 92.7141C142.266 96.9969 142.191 100.498 142.154 100.498Z" fill="#54609A"/>
<path d="M145.767 72.1936C145.804 72.1936 145.618 72.6778 145.32 73.4598C145.022 74.2419 144.649 75.322 144.277 76.551C143.904 77.78 143.606 78.8972 143.383 79.7166C143.197 80.5359 143.048 81.02 143.048 81.02C143.048 81.02 143.048 80.8711 143.085 80.6476C143.122 80.4242 143.197 80.089 143.271 79.6793C143.458 78.86 143.718 77.7055 144.091 76.4765C144.463 75.2475 144.873 74.1675 145.208 73.3854C145.357 73.0129 145.506 72.6778 145.618 72.4915C145.692 72.3053 145.767 72.1936 145.767 72.1936Z" fill="#54609A"/>
<path d="M95.117 92.4162L97.2771 62.8831C97.2771 62.8831 81.0767 64.3728 75.7138 75.8062C71.2075 85.4147 58.7313 114.389 57.3905 118.374C53.4801 129.994 59.5878 145.971 84.8009 145.077L87.6686 129.286L95.117 92.4162Z" fill="#54609A"/>
<path d="M76.98 132.563C76.98 132.563 77.0172 132.452 77.129 132.266C77.2407 132.079 77.3524 131.819 77.5386 131.483C77.911 130.776 78.4324 129.808 79.0656 128.579C79.2145 128.281 79.4007 127.945 79.5869 127.61C79.7732 127.275 79.9966 126.903 80.3318 126.642C80.667 126.381 81.1139 126.27 81.5608 126.27C82.0077 126.27 82.4546 126.381 82.9015 126.493C83.7953 126.716 84.7264 127.052 85.6202 127.536C86.0671 127.759 86.514 128.02 86.9237 128.355L87.0727 128.467C87.1471 128.504 87.1844 128.616 87.1844 128.653C87.2216 128.802 87.2589 128.914 87.2589 129.063C87.2961 129.323 87.2961 129.584 87.2589 129.882C87.2216 130.962 87.0727 131.968 86.9609 132.973C86.812 133.979 86.663 134.91 86.514 135.841C86.2161 137.666 85.9181 139.267 85.6574 140.645C85.3967 141.986 85.1733 143.103 85.0243 143.885C84.9498 144.258 84.9126 144.556 84.8381 144.779C84.8009 144.965 84.7636 145.077 84.7636 145.077C84.7636 145.077 84.7636 144.965 84.8009 144.779C84.8381 144.593 84.8754 144.295 84.9498 143.885C85.0988 143.103 85.285 141.986 85.5085 140.645C85.7692 139.267 86.0299 137.666 86.3278 135.841C86.4768 134.947 86.6257 133.979 86.7375 133.01C86.8492 132.005 86.9982 130.999 87.0354 129.957C87.0354 129.696 87.0354 129.435 87.0354 129.174C87.0354 129.063 86.9982 128.914 86.9609 128.802C86.9237 128.728 86.9237 128.728 86.8864 128.69L86.7375 128.579C86.365 128.243 85.9181 127.983 85.4712 127.759C84.5774 127.312 83.6836 126.977 82.7898 126.754C82.3429 126.642 81.896 126.53 81.4863 126.53C81.0766 126.53 80.667 126.605 80.3318 126.865C80.0339 127.089 79.8104 127.424 79.6242 127.759C79.438 128.094 79.2518 128.392 79.1028 128.728C78.4324 129.919 77.8738 130.925 77.5014 131.595C77.3152 131.93 77.1662 132.191 77.0545 132.377C77.0545 132.452 76.98 132.563 76.98 132.563Z" fill="#54609A"/>
<path d="M65.2856 118.523C65.2856 118.523 65.3601 118.523 65.4719 118.523C65.6208 118.523 65.807 118.523 66.0305 118.56C66.5146 118.597 67.185 118.635 68.0416 118.709C68.8981 118.784 69.8665 118.895 70.9837 119.119C72.0638 119.342 73.2555 119.715 74.4473 120.273C75.6018 120.832 76.6446 121.54 77.5011 122.284C78.3205 123.029 78.9908 123.849 79.3632 124.631C79.7357 125.413 79.8846 126.083 79.9219 126.567C79.9591 126.791 79.9219 126.977 79.9219 127.126C79.9219 127.238 79.9219 127.312 79.9219 127.312C79.8846 127.312 79.9219 127.051 79.8474 126.567C79.8102 126.12 79.6239 125.45 79.2515 124.705C78.8791 123.96 78.246 123.178 77.3894 122.433C76.5701 121.689 75.5273 121.018 74.3728 120.46C73.2183 119.901 72.0637 119.566 70.9465 119.305C69.8665 119.082 68.8609 118.933 68.0416 118.821C67.2222 118.709 66.5146 118.672 66.0677 118.635C65.8443 118.597 65.6581 118.597 65.5091 118.56C65.3229 118.523 65.2856 118.523 65.2856 118.523Z" fill="#54609A"/>
<path d="M82.6036 117.034C82.6409 117.034 82.4919 117.481 82.194 118.188C81.9333 118.896 81.4864 119.864 81.0395 120.907C80.5926 121.95 80.1456 122.881 79.8105 123.626C79.5125 124.333 79.2891 124.743 79.2891 124.743C79.2518 124.743 79.4008 124.296 79.6987 123.588C79.9594 122.881 80.4063 121.912 80.8533 120.87C81.3002 119.827 81.7471 118.896 82.0822 118.151C82.3802 117.443 82.5664 116.996 82.6036 117.034Z" fill="#54609A"/>
<path d="M91.5417 93.7573C91.5044 93.7573 91.4299 91.8952 91.4299 89.5862C91.4299 87.2772 91.4672 85.415 91.5417 85.415C91.5789 85.415 91.6534 87.2772 91.6534 89.5862C91.6534 91.8952 91.6161 93.7573 91.5417 93.7573Z" fill="#54609A"/>
<g opacity="0.3">
<g opacity="0.3">
<path opacity="0.3" d="M79.8479 127.238C75.6023 128.728 72.6974 132.601 71.5429 136.958C71.4312 137.405 71.3567 137.964 71.6546 138.299C71.9526 138.671 72.5857 138.671 72.9954 138.411C73.405 138.15 73.703 137.74 73.9264 137.331C75.9747 134.053 77.9858 131 79.8479 127.238Z" fill="#54609A"/>
</g>
</g>
<g opacity="0.3">
<g opacity="0.3">
<path opacity="0.3" d="M74.5594 118.821C72.3248 117.592 69.7551 117.034 67.2226 116.885C66.2171 116.81 65.2488 116.922 64.2432 117.145C62.9025 117.443 61.3756 118.114 61.0776 119.045C64.1315 118.076 68.6378 118.709 71.7662 119.417C74.9318 120.125 77.5015 121.912 79.2519 124.705C78.5443 122.359 76.7567 120.05 74.5594 118.821Z" fill="#54609A"/>
</g>
</g>
<path d="M89.1581 81.2062C89.1581 81.2062 89.0836 81.0572 89.0091 80.7221C88.9346 80.4241 88.7856 79.9772 88.6367 79.4558C88.3015 78.3758 87.7056 76.9606 86.849 75.4709C85.9925 73.9812 85.0242 72.7895 84.2421 71.9701C83.8696 71.5605 83.5345 71.2253 83.311 71.0018C83.0876 70.7784 82.9758 70.6666 82.9758 70.6294C82.9758 70.6294 83.1248 70.7411 83.3483 70.9273C83.6089 71.1135 83.9069 71.4487 84.3166 71.8584C85.0986 72.6777 86.1042 73.8695 86.998 75.3592C87.8546 76.8489 88.4505 78.3013 88.7484 79.3813C88.8974 79.94 89.0091 80.3496 89.0836 80.6848C89.1581 81.02 89.1953 81.2062 89.1581 81.2062Z" fill="#54609A"/>
<path d="M95.1171 146.678L77.0918 103.142C76.2725 101.168 77.3153 99.5294 79.4008 99.5294H83.0133C84.503 99.5294 85.5086 98.7101 85.5831 97.4438L85.6948 95.8424C85.8065 94.5762 86.8121 93.7568 88.3018 93.7568H105.545C106.886 93.7568 108.413 94.4272 109.53 95.5072L110.945 96.848C112.062 97.928 113.589 98.5983 114.93 98.5983H136.903C138.989 98.5983 141.335 100.2 142.154 102.211L160.031 146.641H95.1171V146.678Z" fill="#8587FE"/>
<path d="M92.1377 131.893L85.3223 105.6C84.8754 103.849 85.9927 102.136 87.5941 102.136H140.925C141.968 102.136 142.899 102.918 143.197 104.11L153.103 143.699C153.55 145.449 152.843 146.492 151.278 146.455H97.6123C96.5695 146.455 95.6757 145.635 95.3777 144.518L92.1377 131.893Z" fill="#E0E0E0"/>
<path d="M95.8243 145.486L92.9194 104.036C92.8076 102.583 93.9994 101.317 95.4519 101.317H150.719V145.486H95.8243V145.486Z" fill="#EBEBEB"/>
<path d="M95.1914 146.455L101.783 103.738C102.081 102.36 103.347 101.354 104.8 101.354H160.701C162.898 101.354 164.388 103.589 163.531 105.563L151.465 144.667L95.1914 146.455Z" fill="#FAFAFA"/>
<path d="M95.1169 146.678L108.673 106.68C109.232 105.004 110.759 103.887 112.435 103.887H170.086C171.948 103.887 173.251 105.786 172.655 107.611L160.03 146.678H95.1169Z" fill="#8587FE"/>
<g opacity="0.3">
<g opacity="0.3">
<path opacity="0.3" d="M122.974 139.975C122.974 139.975 120.814 140.087 119.809 140.161C115.042 140.496 110.163 139.64 105.806 137.666C104.465 137.07 103.012 136.213 102.603 134.798C102.156 133.197 103.161 131.521 104.428 130.441C105.694 129.361 107.221 128.579 108.338 127.35C109.418 126.083 109.939 124.072 108.859 122.806L108.561 123.03C107.779 125.003 105.619 125.972 103.794 127.089C100.443 129.175 97.9101 132.526 96.7556 136.288C96.1225 138.373 95.9363 140.757 97.2025 142.545C98.0964 143.811 99.5488 144.518 101.001 145.04C105.359 146.641 110.014 146.716 114.669 146.716C116.122 146.716 120.665 146.641 120.665 146.641C122.08 146.269 122.565 145.524 123.421 144.332C124.203 143.215 124.017 140.831 122.974 139.975Z" fill="black"/>
</g>
</g>
<path d="M122.974 139.975L107.928 137.703L102.081 134.351C101.299 133.904 100.778 133.122 100.74 132.228V132.191C100.703 131.074 101.374 130.068 102.379 129.659C104.241 128.876 107.146 127.834 108.412 125.636C110.2 122.471 108.412 121.838 108.412 121.838L95.8616 126.865L86.9607 132.899L85.1731 142.991L97.5748 147.051C97.5748 147.051 111.392 147.833 115.19 147.386C118.989 146.976 118.989 145.189 118.989 145.189C119.697 144.965 121.112 143.699 121.112 142.544C123.049 140.794 122.974 139.975 122.974 139.975Z" fill="#FFD4BE"/>
<path d="M103.757 144.295C103.757 144.295 103.98 144.332 104.39 144.406C104.8 144.518 105.358 144.63 106.066 144.779C107.481 145.077 109.455 145.375 111.652 145.449C113.85 145.524 115.861 145.375 117.276 145.226C117.983 145.151 118.579 145.077 118.989 145.002C119.399 144.928 119.622 144.928 119.622 144.928C119.622 144.928 119.399 145.002 119.026 145.114C118.617 145.226 118.058 145.3 117.35 145.412C115.898 145.635 113.924 145.784 111.689 145.71C109.455 145.635 107.481 145.3 106.066 144.965C105.358 144.816 104.8 144.63 104.39 144.518C103.98 144.406 103.757 144.332 103.757 144.295Z" fill="#FFD4BE"/>
<path d="M105.135 141.986C105.135 141.986 105.358 142.023 105.768 142.098C106.178 142.209 106.736 142.321 107.481 142.47C108.934 142.768 110.945 143.029 113.179 143.103C115.414 143.178 117.425 143.029 118.877 142.842C119.622 142.768 120.181 142.656 120.591 142.619C121 142.544 121.224 142.544 121.224 142.544C121.224 142.544 121 142.619 120.591 142.731C120.181 142.842 119.622 142.954 118.877 143.066C117.425 143.289 115.377 143.476 113.142 143.401C110.908 143.327 108.859 143.029 107.444 142.693C106.736 142.544 106.141 142.396 105.768 142.247C105.358 142.06 105.135 141.986 105.135 141.986Z" fill="#FFD4BE"/>
<path d="M193.809 86.383L167.106 91.6715C165.244 92.0439 163.457 90.8521 163.122 88.99L155.822 52.0084C155.45 50.1463 156.641 48.3586 158.503 48.0234L175.449 44.6716L191.239 55.5836L196.528 82.3981C196.826 84.223 195.634 86.0106 193.809 86.383Z" fill="#EBEBEB"/>
<path d="M175.411 44.6716L177.46 55.0622C177.795 56.7754 179.471 57.8927 181.184 57.5575L191.202 55.5836L175.411 44.6716Z" fill="#F5F5F5"/>
<path d="M177.758 55.9562C177.758 55.9562 178.13 58.4886 181.147 58.7493C181.259 58.7493 181.37 58.7493 181.482 58.7493C182.823 58.7121 191.724 58.5631 191.686 58.3769C191.649 58.1535 191.128 55.5837 191.128 55.5837L181.11 57.5576C181.184 57.5576 178.652 57.9672 177.758 55.9562Z" fill="#E0E0E0"/>
<path d="M193.809 86.3827C193.809 86.3827 193.846 86.3827 193.958 86.3455C194.07 86.3082 194.181 86.271 194.368 86.1965C194.74 86.0475 195.262 85.7868 195.746 85.191C196.23 84.6323 196.639 83.7013 196.49 82.584C196.304 81.504 196.044 80.2377 195.746 78.8598C194.628 73.2734 193.027 65.2663 191.128 55.5833L191.165 55.6205C186.398 52.306 181.072 48.619 175.374 44.7085H175.449C172.32 45.3417 169.043 45.9748 165.691 46.6451C164.015 46.9803 162.302 47.3155 160.589 47.6507C160.142 47.7252 159.732 47.8369 159.285 47.9114C158.839 47.9859 158.392 48.0604 158.019 48.2093C157.2 48.5073 156.529 49.1404 156.157 49.9225C155.896 50.4811 155.822 51.077 155.896 51.7101C156.008 52.306 156.12 52.9391 156.232 53.535C156.455 54.7267 156.716 55.9557 156.939 57.1475C157.423 59.531 157.87 61.8773 158.317 64.1863C159.211 68.8043 160.105 73.2734 160.961 77.519C161.371 79.6419 161.781 81.7274 162.19 83.7385C162.377 84.7441 162.6 85.7496 162.786 86.7179C162.898 87.202 162.972 87.6862 163.084 88.1704C163.196 88.6545 163.233 89.1387 163.419 89.5856C163.792 90.4421 164.499 91.1497 165.356 91.4477C165.766 91.5966 166.25 91.6711 166.697 91.6339C167.144 91.5966 167.59 91.4849 168.037 91.4104C169.788 91.0753 171.464 90.7401 173.065 90.4049C179.471 89.1387 184.685 88.1331 188.297 87.4255C190.085 87.0903 191.5 86.7924 192.431 86.6434C192.915 86.5689 193.25 86.4944 193.511 86.4572C193.66 86.3827 193.809 86.3827 193.809 86.3827C193.809 86.3827 193.697 86.42 193.437 86.4572C193.176 86.4944 192.841 86.5689 192.357 86.6807C191.426 86.8669 190.01 87.1648 188.223 87.5C184.61 88.2076 179.434 89.2504 173.028 90.5166C171.426 90.8518 169.751 91.187 168 91.5222C167.553 91.5966 167.144 91.7084 166.659 91.7456C166.212 91.7829 165.728 91.7084 165.281 91.5594C164.388 91.2242 163.606 90.5166 163.233 89.6228C163.047 89.1759 162.972 88.6545 162.898 88.2076C162.786 87.7234 162.712 87.2393 162.6 86.7551C162.414 85.7868 162.228 84.7813 162.004 83.7758C161.594 81.7647 161.185 79.6791 160.775 77.5563C159.919 73.3107 159.062 68.8416 158.131 64.2235C157.684 61.9145 157.2 59.5682 156.753 57.1847C156.529 55.993 156.269 54.8012 156.045 53.5722C155.934 52.9763 155.785 52.3805 155.71 51.7473C155.636 51.1142 155.747 50.4439 156.008 49.8852C156.381 49.0287 157.125 48.3583 157.982 48.0604C158.429 47.9114 158.876 47.8369 159.285 47.7624C159.732 47.6879 160.142 47.5762 160.589 47.5017C162.302 47.1665 164.015 46.8314 165.691 46.4962C169.043 45.8258 172.32 45.1927 175.449 44.5596H175.486L175.523 44.5968C181.221 48.5445 186.51 52.2315 191.314 55.5461L191.351 55.5833V55.6205C193.25 65.3036 194.815 73.3107 195.932 78.897C196.193 80.3122 196.453 81.5412 196.639 82.6212C196.788 83.7385 196.342 84.6696 195.857 85.2654C195.373 85.8613 194.815 86.122 194.442 86.271C194.256 86.3455 194.107 86.3827 194.033 86.3827C193.846 86.3827 193.809 86.3827 193.809 86.3827Z" fill="#263238"/>
<path d="M191.202 55.5836C191.202 55.5836 191.128 55.6209 190.942 55.6581C190.755 55.6954 190.495 55.7698 190.197 55.8071C189.526 55.9561 188.633 56.1423 187.478 56.3657C186.324 56.5892 184.983 56.8871 183.456 57.1851C182.711 57.334 181.892 57.483 181.072 57.6692C180.216 57.8182 179.285 57.5947 178.54 57.0361C178.168 56.7754 177.87 56.403 177.646 56.0305C177.423 55.6581 177.311 55.2112 177.237 54.8015C177.088 53.9822 176.939 53.2001 176.79 52.418C176.492 50.8911 176.231 49.5504 176.008 48.3959C175.784 47.2786 175.635 46.3475 175.486 45.6772C175.449 45.3792 175.374 45.1185 175.374 44.9323C175.337 44.7461 175.337 44.6716 175.337 44.6716C175.337 44.6716 175.374 44.7461 175.412 44.9323C175.449 45.1185 175.523 45.3792 175.561 45.6772C175.71 46.3475 175.896 47.2414 176.119 48.3959C176.343 49.5504 176.641 50.8911 176.939 52.418C177.088 53.1629 177.237 53.9822 177.423 54.8015C177.497 55.2112 177.609 55.6209 177.795 55.9933C177.981 56.3657 178.279 56.7009 178.614 56.9616C179.285 57.483 180.179 57.7064 180.998 57.5575C181.817 57.4085 182.599 57.2595 183.382 57.1106C184.908 56.8126 186.249 56.5519 187.404 56.3285C188.521 56.105 189.452 55.9561 190.122 55.8071C190.42 55.7698 190.681 55.6954 190.867 55.6954C191.091 55.5836 191.202 55.5836 191.202 55.5836Z" fill="#263238"/>
<path d="M176.715 54.0566C176.715 54.0938 173.587 54.7642 169.676 55.5463C165.766 56.3284 162.637 56.887 162.6 56.8498C162.6 56.8125 165.728 56.1422 169.639 55.3601C173.549 54.578 176.715 53.9821 176.715 54.0566Z" fill="#263238"/>
<path d="M184.462 57.8922C184.462 57.9295 179.843 58.8978 174.108 60.0523C168.373 61.1696 163.718 62.0634 163.718 62.0261C163.718 61.9889 168.336 61.0206 174.071 59.8661C179.769 58.7488 184.424 57.855 184.462 57.8922Z" fill="#263238"/>
<path d="M185.467 63.1064C185.467 63.1436 180.849 64.1119 175.113 65.2664C169.378 66.3837 164.723 67.2775 164.723 67.2403C164.723 67.203 169.341 66.2347 175.076 65.0802C180.811 63.9257 185.467 63.0319 185.467 63.1064Z" fill="#263238"/>
<path d="M165.728 72.3796C165.728 72.3424 170.346 71.3741 176.082 70.2196C181.817 69.1023 186.472 68.2085 186.472 68.2458C186.472 68.283 181.854 69.2513 176.119 70.4058C170.384 71.5603 165.728 72.4541 165.728 72.3796Z" fill="#263238"/>
<path d="M187.515 73.497C187.515 73.5343 182.897 74.5026 177.162 75.6571C171.427 76.7743 166.771 77.6682 166.771 77.6309C166.771 77.5937 171.389 76.6254 177.125 75.4709C182.86 74.3163 187.515 73.4225 187.515 73.497Z" fill="#263238"/>
<path d="M188.558 78.6738C188.558 78.711 183.94 79.6793 178.205 80.8338C172.469 81.9511 167.814 82.8449 167.814 82.8077C167.814 82.7704 172.432 81.8021 178.168 80.6476C183.866 79.4931 188.521 78.6365 188.558 78.6738Z" fill="#263238"/>
<path d="M177.46 82.0999L157.87 85.9731C157.014 86.1593 156.194 85.6006 156.008 84.7441L154.593 77.6308C154.407 76.7742 154.965 75.9549 155.822 75.7687L175.411 71.8955C176.268 71.7092 177.087 72.2679 177.274 73.1245L178.689 80.2377C178.875 81.1316 178.316 81.9509 177.46 82.0999Z" fill="#7F81D7"/>
<path d="M160.515 78.3013L162.265 77.9661C163.531 77.7054 164.537 78.3013 164.76 79.4558C164.984 80.6103 164.276 81.5414 163.01 81.8021L161.259 82.1373L160.515 78.3013ZM162.861 81.0945C163.643 80.9455 164.053 80.3869 163.904 79.642C163.755 78.8972 163.159 78.562 162.414 78.711L161.595 78.8599L162.079 81.2434L162.861 81.0945Z" fill="white"/>
<path d="M165.207 79.3815C164.984 78.227 165.692 77.2214 166.921 76.9608C168.15 76.7373 169.192 77.3704 169.416 78.5249C169.639 79.6794 168.894 80.685 167.703 80.9457C166.511 81.2064 165.431 80.536 165.207 79.3815ZM168.522 78.7484C168.373 78.0035 167.777 77.6311 167.07 77.7428C166.399 77.8918 165.952 78.4877 166.101 79.1953C166.25 79.9401 166.846 80.3126 167.554 80.2008C168.261 80.0891 168.671 79.456 168.522 78.7484Z" fill="white"/>
<path d="M169.863 78.4876C169.639 77.3331 170.347 76.3275 171.576 76.0669C172.246 75.9179 172.842 76.0669 173.289 76.4393L172.805 77.0724C172.47 76.8117 172.135 76.7372 171.762 76.8117C171.054 76.9607 170.645 77.5565 170.757 78.3014C170.906 79.0462 171.501 79.4187 172.246 79.3069C172.619 79.2324 172.917 79.009 173.14 78.6738L173.81 79.0835C173.55 79.6049 173.028 79.9401 172.358 80.089C171.129 80.2752 170.086 79.6421 169.863 78.4876Z" fill="white"/>
<path d="M189.601 58.8606C189.601 58.8606 191.575 56.3654 193.102 57.7433C194.628 59.1213 194.182 59.8662 192.729 62.0635C192.729 62.0635 195.969 61.8772 194.926 65.1918C194.926 65.1918 198.129 64.8194 197.831 67.5381C197.831 67.5381 200.252 69.9216 198.986 71.4485C197.72 72.9755 193.139 75.7314 191.984 75.2845C190.83 74.8003 190.83 73.1617 190.83 73.1617C190.83 73.1617 189.452 72.5286 189.079 71.8209C188.707 71.1133 189.34 70.0706 189.34 70.0706C189.34 70.0706 188.186 68.8788 187.888 68.5436C187.59 68.2084 188.037 66.6815 188.037 66.6815L189.899 64.8939C189.899 64.8939 187.366 66.0111 186.808 65.5642C186.286 65.1546 185.69 64.7821 186.249 64.0001C186.808 63.218 188.856 61.5048 188.856 61.5048L189.601 58.8606Z" fill="#FFD4BE"/>
<path d="M191.09 73.3855C191.053 73.3482 191.388 72.9758 191.91 72.3799C192.431 71.784 193.176 70.8902 194.256 70.2199C195.336 69.5867 196.304 69.0281 196.9 68.5067C197.533 67.9853 197.757 67.5384 197.794 67.5757C197.831 67.5757 197.645 68.097 197.049 68.6557C196.453 69.2516 195.448 69.8102 194.405 70.4433C193.362 71.0764 192.617 71.8958 192.059 72.4916C191.5 73.1248 191.09 73.4227 191.09 73.3855Z" fill="#EB996E"/>
<path d="M189.303 70.5919C189.228 70.5174 190.42 69.2512 191.947 67.7242C192.692 66.9794 193.362 66.2345 193.921 65.8249C194.479 65.378 194.889 65.1918 194.926 65.229C194.963 65.2662 194.591 65.4897 194.07 65.9738C193.548 66.458 192.952 67.2028 192.17 67.9477C190.643 69.4746 189.34 70.6664 189.303 70.5919Z" fill="#EB996E"/>
<path d="M189.898 64.9313C189.824 64.8568 190.569 64.2609 191.388 63.5161C192.207 62.734 192.617 61.9147 192.692 61.9519C192.766 61.9891 192.468 62.9202 191.612 63.7395C190.755 64.5216 189.936 65.0058 189.898 64.9313Z" fill="#EB996E"/>
<path d="M189.601 58.8606C189.601 58.8606 189.601 58.935 189.563 59.0468C189.526 59.1957 189.489 59.3447 189.452 59.5682C189.34 60.0523 189.154 60.7227 188.93 61.5792V61.6165C188.558 61.9517 188.148 62.3241 187.701 62.7338C187.254 63.1807 186.733 63.6276 186.323 64.1862C186.249 64.3352 186.174 64.4841 186.174 64.6704C186.174 64.8193 186.286 64.9683 186.435 65.1173C186.584 65.2662 186.733 65.378 186.882 65.4897C187.031 65.6014 187.18 65.6014 187.403 65.6014C188.223 65.4897 189.042 65.1918 189.899 64.8193L190.494 64.5586L190.048 65.0055C189.452 65.5642 188.856 66.1973 188.185 66.7932L188.223 66.7559C187.999 67.3146 187.85 68.0594 188.111 68.618C188.446 69.1767 189.005 69.6608 189.563 70.1077L189.675 70.2195L189.563 70.3684C189.154 70.8526 188.893 71.5974 189.414 72.0443C189.899 72.5285 190.532 72.9009 191.165 73.2361L190.941 73.3478V73.3106C190.979 73.3478 190.867 73.1989 191.016 73.4596C191.426 73.2733 191.128 73.3851 191.239 73.3478V73.4223V73.5713C191.239 73.683 191.239 73.7575 191.277 73.8692C191.314 74.0554 191.351 74.2789 191.426 74.4651C191.5 74.6513 191.612 74.8003 191.761 74.9492C191.91 75.0982 192.059 75.2099 192.245 75.2099C192.617 75.2472 193.064 75.0982 193.474 74.9865C193.884 74.8375 194.293 74.6513 194.703 74.4278C195.448 74.0554 196.193 73.6085 196.863 73.1244C197.533 72.6402 198.204 72.1561 198.762 71.5602C199.06 71.2623 199.209 70.9643 199.246 70.5919C199.284 70.2195 199.172 69.847 199.06 69.5119C198.762 68.8043 198.278 68.2084 197.794 67.687L197.757 67.6497V67.5753C197.757 67.2028 197.794 66.8304 197.645 66.5325C197.533 66.1973 197.273 65.9366 197.012 65.7504C196.416 65.378 195.671 65.3407 195.038 65.378H194.852L194.889 65.1918C194.926 65.0055 195.001 64.7821 195.038 64.5959C195.038 64.4097 195.113 64.1862 195.075 64C195.075 63.5903 194.964 63.2552 194.74 62.9572C194.293 62.3986 193.474 62.2124 192.804 62.2124H192.58L192.692 62.0262C193.064 61.4303 193.437 60.8716 193.735 60.3503C193.884 60.0896 193.958 59.7916 193.995 59.4937C194.033 59.233 193.958 58.935 193.846 58.7116C193.586 58.2647 193.213 57.855 192.841 57.5943C192.431 57.3709 191.984 57.3709 191.649 57.4826C190.904 57.706 190.457 58.153 190.159 58.4136C190.01 58.5626 189.899 58.6743 189.824 58.7488C189.638 58.8233 189.601 58.8606 189.601 58.8606C189.601 58.8606 189.638 58.8233 189.675 58.7116C189.75 58.6371 189.861 58.4881 189.973 58.3764C190.122 58.2274 190.308 58.0412 190.569 57.855C190.83 57.6688 191.128 57.4826 191.5 57.3709C191.872 57.2591 192.394 57.2219 192.804 57.4826C192.915 57.5571 192.99 57.6316 193.101 57.706C193.176 57.7805 193.288 57.8923 193.362 57.9667C193.548 58.153 193.735 58.3764 193.884 58.6371C194.032 58.8978 194.107 59.1957 194.07 59.5309C194.032 59.8289 193.921 60.164 193.809 60.4247C193.511 61.0206 193.139 61.5792 192.766 62.1379L192.655 61.9517C193.027 61.9517 193.399 61.9889 193.772 62.1006C194.144 62.2124 194.517 62.4358 194.777 62.771C195.038 63.1062 195.187 63.5531 195.187 63.9628C195.224 64.1862 195.15 64.3724 195.15 64.5959C195.113 64.8193 195.038 65.0055 195.001 65.229L194.852 65.0428C195.559 65.0055 196.342 65.0428 197.012 65.4525C197.347 65.6387 197.645 65.9738 197.794 66.3463C197.943 66.7187 197.943 67.1284 197.943 67.538L197.906 67.4263C198.427 67.9849 198.911 68.618 199.246 69.3629C199.395 69.7353 199.507 70.145 199.47 70.5919C199.47 70.8153 199.395 71.0016 199.284 71.225C199.172 71.4112 199.06 71.5974 198.911 71.7464C198.353 72.3423 197.682 72.8637 196.975 73.3478C196.267 73.832 195.559 74.2789 194.777 74.6886C194.368 74.912 193.958 75.0982 193.548 75.2472C193.101 75.3962 192.692 75.5451 192.17 75.5079C191.649 75.3962 191.314 74.9865 191.128 74.5768C191.053 74.3534 190.979 74.1299 190.941 73.9065C190.941 73.7947 190.904 73.683 190.904 73.5713V73.3851V73.3106C190.979 73.2733 190.718 73.3851 191.128 73.1989C191.314 73.4223 191.165 73.2733 191.202 73.3478V73.3851V73.4223L191.165 73.6458L190.979 73.534C190.308 73.1989 189.675 72.8264 189.154 72.2678C189.042 72.1188 188.893 71.9699 188.856 71.7836C188.781 71.5974 188.781 71.374 188.819 71.1878C188.893 70.8153 189.079 70.4802 189.34 70.2195L189.377 70.4429C188.781 69.996 188.223 69.5119 187.85 68.8415C187.664 68.5063 187.627 68.0967 187.664 67.7615C187.701 67.3891 187.813 67.0539 187.925 66.7559V66.7187H187.962C188.595 66.0856 189.228 65.4897 189.824 64.9311L189.973 65.1173C189.117 65.4524 188.26 65.7876 187.403 65.8994C187.18 65.8994 186.919 65.8994 186.733 65.7504C186.584 65.6387 186.398 65.4897 186.249 65.3407C186.1 65.1918 185.951 65.0055 185.951 64.7821C185.914 64.5586 186.025 64.3724 186.137 64.1862C186.584 63.5531 187.105 63.1434 187.552 62.6965C187.999 62.2869 188.446 61.9144 188.819 61.5792L188.781 61.6165C189.042 60.7599 189.228 60.0896 189.377 59.6054C189.452 59.382 189.489 59.233 189.526 59.084C189.563 58.8978 189.601 58.8606 189.601 58.8606Z" fill="#FFD4BE"/>
<path d="M53.9636 78.9353H30.9851C29.3837 78.9353 28.1174 77.6318 28.1174 76.0676V44.2627C28.1174 42.6613 29.4209 41.395 30.9851 41.395H45.5468L56.8313 53.0146V76.0676C56.8313 77.6691 55.565 78.9353 53.9636 78.9353Z" fill="#EBEBEB"/>
<path d="M45.5469 41.395V50.3332C45.5469 51.8229 46.7386 53.0146 48.2283 53.0146H56.8313L45.5469 41.395Z" fill="#F5F5F5"/>
<path d="M45.6587 51.1155C45.6587 51.1155 45.547 53.2755 48.005 53.9831C48.0795 54.0204 48.1912 54.0204 48.3029 54.0576C49.4202 54.2438 56.8314 55.5846 56.8314 55.3983C56.8314 55.2121 56.8314 52.9776 56.8314 52.9776H48.2285C48.2285 53.0148 46.0684 52.9404 45.6587 51.1155Z" fill="#E0E0E0"/>
<path d="M53.9636 78.9351C53.9636 78.9351 54.1498 78.9351 54.4478 78.8606C54.783 78.7862 55.2671 78.6744 55.7513 78.2648C56.2354 77.8551 56.7196 77.1847 56.794 76.2537C56.794 75.3226 56.794 74.2426 56.794 73.0508C56.794 68.2466 56.7568 61.3567 56.7568 53.0145L56.794 53.0889C53.3678 49.5882 49.569 45.6405 45.5096 41.4693L45.5841 41.5066C42.8654 41.5066 40.0722 41.5066 37.1673 41.5066C35.7149 41.5066 34.2624 41.5066 32.7727 41.5066C32.4003 41.5066 32.0279 41.5066 31.6555 41.5066C31.2831 41.5066 30.9106 41.4693 30.5382 41.5438C29.8306 41.6555 29.1602 42.0652 28.7506 42.6611C28.4526 43.0708 28.2664 43.5549 28.2292 44.0763C28.1919 44.5977 28.2292 45.1191 28.2292 45.6405C28.2292 46.6833 28.2292 47.726 28.2292 48.7316C28.2292 50.7799 28.2292 52.791 28.2292 54.8021C28.2292 58.787 28.2292 62.623 28.2292 66.2727C28.2292 68.0976 28.2292 69.8852 28.2292 71.5984C28.2292 72.455 28.2292 73.3115 28.2292 74.1681C28.2292 74.5778 28.2292 74.9874 28.2292 75.4343C28.2292 75.844 28.1919 76.2537 28.2664 76.6261C28.4154 77.4082 28.8995 78.0785 29.5699 78.4882C29.9051 78.6744 30.2775 78.8234 30.6127 78.8606C30.9851 78.8979 31.3575 78.8979 31.73 78.8979C33.2197 78.8979 34.6721 78.8979 36.0501 78.8979C41.5619 78.8979 46.031 78.9351 49.1221 78.9351C50.6491 78.9351 51.8781 78.9351 52.6974 78.9351C53.1071 78.9351 53.405 78.9351 53.6284 78.9351C53.8519 78.9351 53.9636 78.9351 53.9636 78.9351C53.9636 78.9351 53.8519 78.9351 53.6657 78.9351C53.4422 78.9351 53.1443 78.9351 52.7346 78.9351C51.9153 78.9351 50.7235 78.9351 49.1594 78.9351C46.0683 78.9351 41.5992 78.9351 36.0873 78.9724C34.7093 78.9724 33.2569 78.9724 31.7672 78.9724C31.3948 78.9724 31.0224 79.0096 30.6127 78.9351C30.203 78.8979 29.8306 78.7489 29.4954 78.5255C28.7878 78.1158 28.2664 77.4082 28.1175 76.5889C28.043 76.1792 28.0802 75.7695 28.043 75.3599C28.043 74.9502 28.043 74.5405 28.043 74.0936C28.043 73.237 28.043 72.4177 28.043 71.5239C28.043 69.8108 28.043 68.0231 28.043 66.1982C28.043 62.5485 28.043 58.7125 28.043 54.7276C28.043 52.7538 28.043 50.7054 28.043 48.6571C28.043 47.6143 28.043 46.6088 28.043 45.566C28.043 45.0446 28.043 44.5232 28.043 44.0018C28.0802 43.4432 28.2664 42.9218 28.6016 42.4749C29.0485 41.8418 29.7561 41.3949 30.5382 41.2831C30.9106 41.2086 31.3203 41.2459 31.6555 41.2459C32.0279 41.2459 32.4003 41.2459 32.7727 41.2459C34.2624 41.2459 35.7149 41.2459 37.1673 41.2459C40.0722 41.2459 42.8654 41.2459 45.5841 41.2459H45.6213L45.6586 41.2831C49.718 45.4543 53.5167 49.402 56.943 52.9027L56.9803 52.94V52.9772C56.9803 61.3195 56.943 68.2093 56.943 73.0136C56.943 74.2053 56.943 75.2854 56.9058 76.2164C56.8313 77.1847 56.3471 77.8923 55.8257 78.2648C55.3044 78.6744 54.8202 78.8234 54.485 78.8606C54.3361 78.8979 54.1871 78.8979 54.1126 78.8979C54.0009 78.9724 53.9636 78.9351 53.9636 78.9351Z" fill="#263238"/>
<path d="M56.831 53.0149C56.831 53.0149 56.7565 53.0149 56.6076 53.0521C56.4586 53.0521 56.2351 53.0521 55.9744 53.0521C55.4158 53.0521 54.5965 53.0521 53.6282 53.0894C52.6226 53.0894 51.4681 53.0894 50.1646 53.1266C49.4943 53.1266 48.8239 53.1266 48.1163 53.1266C47.3715 53.1266 46.6266 52.7914 46.1052 52.1955C45.8445 51.8976 45.6583 51.5624 45.5466 51.19C45.4349 50.8176 45.3976 50.4452 45.4349 50.11C45.4349 49.4024 45.4349 48.732 45.4349 48.0616C45.4349 46.7582 45.4349 45.6036 45.4721 44.5981C45.4721 43.6298 45.5093 42.8477 45.5093 42.2518C45.5093 41.9911 45.5093 41.7677 45.5093 41.6187C45.5093 41.4698 45.5093 41.3953 45.5466 41.3953C45.5838 41.3953 45.5466 41.4698 45.5838 41.6187C45.5838 41.7677 45.5838 41.9911 45.5838 42.2518C45.5838 42.8105 45.5838 43.6298 45.6211 44.5981C45.6211 45.6036 45.6211 46.7582 45.6583 48.0616C45.6583 48.6948 45.6583 49.4024 45.6583 50.11C45.6583 50.4824 45.6583 50.8176 45.77 51.1528C45.8818 51.4879 46.068 51.8231 46.2914 52.0838C46.7756 52.6424 47.4832 52.9404 48.1536 52.9776C48.8612 52.9776 49.5315 52.9776 50.2019 52.9776C51.5054 52.9776 52.6599 52.9776 53.6654 53.0149C54.6337 53.0149 55.4158 53.0521 56.0117 53.0521C56.2724 53.0521 56.4958 53.0521 56.6448 53.0521C56.7565 53.0149 56.831 53.0149 56.831 53.0149Z" fill="#263238"/>
<path d="M45.1376 49.3647C45.1376 49.4019 42.4189 49.4764 39.0671 49.4764C35.7153 49.4764 32.9966 49.4391 32.9966 49.3647C32.9966 49.3274 35.7153 49.2529 39.0671 49.2529C42.4189 49.2902 45.1376 49.3274 45.1376 49.3647Z" fill="#263238"/>
<path d="M50.8729 53.8334C50.8729 53.8707 46.888 53.9451 41.9347 53.9451C36.9815 53.9451 32.9966 53.9079 32.9966 53.8334C32.9966 53.7962 36.9815 53.7217 41.9347 53.7217C46.888 53.7589 50.8729 53.7962 50.8729 53.8334Z" fill="#263238"/>
<path d="M50.8729 58.3029C50.8729 58.3401 46.888 58.4146 41.9347 58.4146C36.9815 58.4146 32.9966 58.3774 32.9966 58.3029C32.9966 58.2284 36.9815 58.1912 41.9347 58.1912C46.888 58.2284 50.8729 58.2656 50.8729 58.3029Z" fill="#263238"/>
<path d="M50.8729 62.7721C50.8729 62.8094 46.888 62.8839 41.9347 62.8839C36.9815 62.8839 32.9966 62.8466 32.9966 62.7721C32.9966 62.6976 36.9815 62.6604 41.9347 62.6604C46.888 62.6976 50.8729 62.7349 50.8729 62.7721Z" fill="#263238"/>
<path d="M50.8729 67.2406C50.8729 67.2779 46.888 67.3524 41.9347 67.3524C36.9815 67.3524 32.9966 67.3151 32.9966 67.2406C32.9966 67.1661 36.9815 67.1289 41.9347 67.1289C46.888 67.1289 50.8729 67.2034 50.8729 67.2406Z" fill="#263238"/>
<path d="M50.8729 71.7099C50.8729 71.7471 46.888 71.8216 41.9347 71.8216C36.9815 71.8216 32.9966 71.7844 32.9966 71.7099C32.9966 71.6354 36.9815 71.5981 41.9347 71.5981C46.888 71.5981 50.8729 71.6726 50.8729 71.7099Z" fill="#263238"/>
<path d="M40.892 72.7524H24.5053C23.6488 72.7524 22.9412 72.0448 22.9412 71.1883V65.5647C22.9412 64.7081 23.6488 64.0005 24.5053 64.0005H40.892C41.7485 64.0005 42.4561 64.7081 42.4561 65.5647V71.1883C42.4561 72.0448 41.7485 72.7524 40.892 72.7524Z" fill="#7F81D7"/>
<path d="M30.5758 68.0228C30.5758 68.7677 30.0172 69.2146 29.1233 69.2146H28.453V70.1456H27.6709V66.8311H29.1233C30.0544 66.8311 30.5758 67.278 30.5758 68.0228ZM29.831 68.0228C29.831 67.6504 29.6075 67.4269 29.1233 67.4269H28.4902V68.5814H29.1233C29.5703 68.6187 29.831 68.3952 29.831 68.0228Z" fill="white"/>
<path d="M31.1345 66.8311H32.6242C33.7042 66.8311 34.4491 67.5014 34.4491 68.4697C34.4491 69.4753 33.7042 70.1084 32.6242 70.1084H31.1345V66.8311ZM32.587 69.5125C33.2573 69.5125 33.667 69.1028 33.667 68.4697C33.667 67.8366 33.2201 67.4269 32.587 67.4269H31.8794V69.4753H32.587V69.5125Z" fill="white"/>
<path d="M35.827 67.464V68.3579H37.3539V68.991H35.827V70.1827H35.0449V66.8682H37.5402V67.5013H35.827V67.464Z" fill="white"/>
<path d="M39.3283 131.373H16.6104C15.0463 131.373 13.78 130.106 13.78 128.542V97.0724C13.78 95.5082 15.0463 94.2419 16.6104 94.2419H31.0232L42.1959 105.75V128.542C42.1587 130.106 40.8924 131.373 39.3283 131.373Z" fill="#EBEBEB"/>
<path d="M31.0232 94.2041V103.068C31.0232 104.52 32.2149 105.712 33.6674 105.712H42.1959L31.0232 94.2041Z" fill="#F5F5F5"/>
<path d="M31.1346 103.85C31.1346 103.85 31.0228 106.01 33.4808 106.718C33.5553 106.755 33.667 106.755 33.7788 106.792C34.896 106.978 42.1955 108.282 42.1955 108.133C42.1955 107.947 42.1955 105.749 42.1955 105.749H33.667C33.667 105.712 31.5442 105.637 31.1346 103.85Z" fill="#E0E0E0"/>
<path d="M39.3282 131.372C39.3282 131.372 39.5144 131.372 39.8124 131.298C40.1475 131.223 40.5944 131.111 41.1158 130.702C41.6 130.292 42.0841 129.622 42.1214 128.691C42.1214 127.76 42.1214 126.717 42.1214 125.525C42.1214 120.758 42.0841 113.943 42.0841 105.712L42.1214 105.787C38.7323 102.323 34.9708 98.4127 30.9487 94.2788L31.0232 94.316C28.3417 94.316 25.5485 94.316 22.7181 94.316C21.3029 94.316 19.8505 94.316 18.3608 94.316C17.9883 94.316 17.6159 94.316 17.2435 94.316C16.8711 94.316 16.4987 94.2788 16.1635 94.3533C15.4559 94.465 14.7855 94.8746 14.3758 95.4705C14.0779 95.8802 13.8917 96.3643 13.8544 96.8857C13.8172 97.4071 13.8544 97.9285 13.8544 98.4127C13.8544 99.4555 13.8544 100.461 13.8544 101.467C13.8544 103.515 13.8544 105.489 13.8544 107.463C13.8544 111.41 13.8544 115.209 13.8544 118.821C13.8544 120.646 13.8544 122.397 13.8544 124.11C13.8544 124.966 13.8544 125.823 13.8544 126.642C13.8544 127.052 13.8544 127.462 13.8544 127.871C13.8544 128.281 13.8172 128.691 13.8917 129.063C14.0407 129.845 14.5248 130.516 15.1952 130.888C15.5304 131.074 15.8655 131.223 16.238 131.26C16.6104 131.298 16.9828 131.298 17.3552 131.298C18.8449 131.298 20.2974 131.298 21.6381 131.298C27.1127 131.298 31.5073 131.335 34.5984 131.335C36.1254 131.335 37.3171 131.335 38.1364 131.335C38.5461 131.335 38.8441 131.335 39.0675 131.335C39.2165 131.372 39.3282 131.372 39.3282 131.372C39.3282 131.372 39.2165 131.372 39.0303 131.372C38.8068 131.372 38.5089 131.372 38.0992 131.372C37.2799 131.372 36.0881 131.372 34.5612 131.372C31.5073 131.372 27.0755 131.372 21.6009 131.409C20.2229 131.409 18.8077 131.409 17.318 131.409C16.9456 131.409 16.5731 131.447 16.1635 131.372C15.791 131.335 15.3814 131.186 15.0462 131C14.3758 130.59 13.8544 129.882 13.6682 129.063C13.5938 128.653 13.631 128.244 13.5938 127.834C13.5938 127.424 13.5938 127.015 13.5938 126.605C13.5938 125.786 13.5938 124.929 13.5938 124.073C13.5938 122.359 13.5938 120.609 13.5938 118.784C13.5938 115.172 13.5938 111.373 13.5938 107.425C13.5938 105.451 13.5938 103.44 13.5938 101.429C13.5938 100.424 13.5938 99.381 13.5938 98.3754C13.5938 97.854 13.5938 97.3326 13.5938 96.8113C13.631 96.2899 13.8172 95.7685 14.1151 95.3216C14.5621 94.6884 15.2697 94.2415 16.0145 94.1298C16.3869 94.0553 16.7593 94.0926 17.1318 94.0926C17.5042 94.0926 17.8766 94.0926 18.249 94.0926C19.7015 94.0926 21.1539 94.0926 22.6064 94.0926C25.4741 94.0926 28.2672 94.0926 30.9114 94.0926H30.9487L30.9859 94.1298C35.0081 98.2637 38.7696 102.174 42.1214 105.638L42.1586 105.675V105.712C42.1586 113.943 42.1214 120.758 42.1214 125.525C42.1214 126.717 42.1214 127.76 42.0841 128.691C42.0097 129.622 41.5255 130.329 41.0413 130.739C40.52 131.149 40.0358 131.26 39.7379 131.335C39.5889 131.372 39.4399 131.372 39.3654 131.372C39.3654 131.372 39.3282 131.372 39.3282 131.372Z" fill="#263238"/>
<path d="M42.1589 105.712C42.1589 105.712 42.0844 105.712 41.9354 105.749C41.7864 105.749 41.563 105.749 41.3023 105.749C40.7436 105.749 39.9616 105.749 38.9933 105.786C38.025 105.786 36.8704 105.786 35.567 105.824C34.9338 105.824 34.2635 105.824 33.5559 105.824C32.8483 105.824 32.1034 105.488 31.582 104.893C31.3213 104.595 31.1351 104.259 31.0234 103.924C30.9117 103.552 30.8744 103.179 30.9117 102.844C30.9117 102.137 30.9117 101.466 30.9117 100.833C30.9117 99.5669 30.9117 98.4124 30.9489 97.4068C30.9489 96.4385 30.9862 95.6564 30.9862 95.0978C30.9862 94.8371 30.9862 94.6509 30.9862 94.4647C30.9862 94.3157 30.9862 94.2412 31.0234 94.2412C31.0606 94.2412 31.0234 94.3157 31.0606 94.4647C31.0606 94.6136 31.0606 94.8371 31.0606 95.0978C31.0606 95.6564 31.0606 96.4385 31.0979 97.4068C31.0979 98.3751 31.0979 99.5296 31.1351 100.833C31.1351 101.466 31.1351 102.137 31.1351 102.844C31.1351 103.217 31.1351 103.552 31.2469 103.887C31.3586 104.222 31.5448 104.52 31.7682 104.818C32.2524 105.377 32.9228 105.675 33.5931 105.675C34.3007 105.675 34.9711 105.675 35.6042 105.675C36.8704 105.675 38.025 105.675 39.0305 105.712C39.9988 105.712 40.7809 105.749 41.3395 105.749C41.6002 105.749 41.7864 105.749 41.9726 105.749C42.0844 105.712 42.1589 105.712 42.1589 105.712Z" fill="#263238"/>
<path d="M30.576 102.1C30.576 102.137 27.8946 102.212 24.58 102.212C21.2654 102.212 18.584 102.174 18.584 102.1C18.584 102.025 21.2654 102.025 24.58 102.025C27.8946 102.025 30.576 102.063 30.576 102.1Z" fill="#263238"/>
<path d="M36.2742 106.531C36.2742 106.569 32.3265 106.643 27.4478 106.643C22.569 106.643 18.6213 106.606 18.6213 106.531C18.6213 106.457 22.569 106.42 27.4478 106.42C32.3265 106.42 36.2742 106.457 36.2742 106.531Z" fill="#263238"/>
<path d="M36.2742 110.926C36.2742 110.963 32.3265 111.038 27.4478 111.038C22.569 111.038 18.6213 111.001 18.6213 110.926C18.6213 110.889 22.569 110.814 27.4478 110.814C32.3265 110.852 36.2742 110.889 36.2742 110.926Z" fill="#263238"/>
<path d="M36.2742 115.358C36.2742 115.395 32.3265 115.47 27.4478 115.47C22.569 115.47 18.6213 115.433 18.6213 115.358C18.6213 115.284 22.569 115.246 27.4478 115.246C32.3265 115.284 36.2742 115.321 36.2742 115.358Z" fill="#263238"/>
<path d="M36.2742 119.79C36.2742 119.827 32.3265 119.902 27.4478 119.902C22.569 119.902 18.6213 119.864 18.6213 119.79C18.6213 119.715 22.569 119.678 27.4478 119.678C32.3265 119.678 36.2742 119.715 36.2742 119.79Z" fill="#263238"/>
<path d="M36.2742 124.184C36.2742 124.221 32.3265 124.296 27.4478 124.296C22.569 124.296 18.6213 124.258 18.6213 124.184C18.6213 124.147 22.569 124.072 27.4478 124.072C32.3265 124.11 36.2742 124.147 36.2742 124.184Z" fill="#263238"/>
<path d="M26.368 125.227H10.2048C9.34823 125.227 8.64062 124.52 8.64062 123.663V118.114C8.64062 117.257 9.34823 116.55 10.2048 116.55H26.368C27.2246 116.55 27.9322 117.257 27.9322 118.114V123.663C27.9694 124.52 27.2618 125.227 26.368 125.227Z" fill="#7F81D7"/>
<path d="M16.2008 120.572C16.2008 121.317 15.6421 121.764 14.7856 121.764H14.1152V122.657H13.3704V119.38H14.7856C15.6421 119.38 16.2008 119.827 16.2008 120.572ZM15.4559 120.572C15.4559 120.199 15.2325 120.013 14.7483 120.013H14.1152V121.168H14.7483C15.1952 121.131 15.4559 120.907 15.4559 120.572Z" fill="white"/>
<path d="M19.5897 120.572C19.5897 121.316 19.0311 121.763 18.1745 121.763H17.5041V122.657H16.7593V119.38H18.1745C19.0311 119.38 19.5897 119.827 19.5897 120.572ZM18.8076 120.572C18.8076 120.199 18.5842 120.013 18.1 120.013H17.5041V121.168H18.1372C18.5842 121.13 18.8076 120.907 18.8076 120.572Z" fill="white"/>
<path d="M20.7066 120.013H19.6638V119.38H22.5315V120.013H21.4887V122.657H20.7438V120.013H20.7066Z" fill="white"/>
<path d="M84.0189 41.4693H61.45C59.8859 41.4693 58.6196 40.2031 58.6196 38.6389V7.35532C58.6196 5.79114 59.8859 4.5249 61.45 4.5249H75.7883L86.8493 15.9955V38.6761C86.8493 40.2031 85.5831 41.4693 84.0189 41.4693Z" fill="#EBEBEB"/>
<path d="M75.7515 4.56201V13.3512C75.7515 14.8037 76.9432 15.9954 78.3957 15.9954H86.8497L75.7515 4.56201Z" fill="#F5F5F5"/>
<path d="M75.8629 14.1338C75.8629 14.1338 75.7511 16.2566 78.1719 16.9642C78.2464 17.0014 78.3581 17.0014 78.4326 17.0387C79.5499 17.2249 86.8121 18.5284 86.8121 18.3794C86.8121 18.1932 86.8121 16.0331 86.8121 16.0331H78.3581C78.3953 15.9959 76.2725 15.9214 75.8629 14.1338Z" fill="#E0E0E0"/>
<path d="M84.0187 41.4693C84.0187 41.4693 84.2049 41.4693 84.5028 41.3948C84.8008 41.3203 85.2849 41.2086 85.7691 40.7989C86.2532 40.3892 86.7374 39.7189 86.7746 38.7878C86.7746 37.894 86.7746 36.814 86.7746 35.6222C86.7746 30.8924 86.7374 24.1143 86.7374 15.921L86.7746 15.9955C83.4228 12.532 79.6613 8.69601 75.6764 4.56211L75.7509 4.59935C73.1067 4.59935 70.3135 4.59935 67.4831 4.59935C66.0679 4.59935 64.6154 4.59935 63.163 4.59935C62.7906 4.59935 62.4181 4.59935 62.0829 4.59935C61.7105 4.59935 61.3381 4.56211 61.0029 4.63659C60.2953 4.74832 59.6622 5.15799 59.2153 5.75387C58.9173 6.16353 58.7311 6.64768 58.7311 7.13183C58.6939 7.61598 58.7311 8.17462 58.7311 8.65877C58.7311 9.66431 58.7311 10.7071 58.7311 11.7126C58.7311 13.7237 58.7311 15.7348 58.7311 17.6714C58.7311 21.5819 58.7311 25.3433 58.7311 28.9558C58.7311 30.7435 58.7311 32.4939 58.7311 34.207C58.7311 35.0636 58.7311 35.8829 58.7311 36.7395C58.7311 37.1492 58.7311 37.5588 58.7311 37.9685C58.7311 38.3781 58.6939 38.7878 58.7684 39.1602C58.9173 39.9423 59.4015 40.5754 60.0346 40.9851C60.3698 41.1713 60.705 41.3203 61.0774 41.3575C61.4498 41.3948 61.8222 41.3948 62.1947 41.3948C63.6844 41.3948 65.0996 41.3948 66.4403 41.3948C71.8777 41.3948 76.2723 41.432 79.3261 41.432C80.8531 41.432 82.0076 41.432 82.8269 41.432C83.2366 41.432 83.5345 41.432 83.7207 41.432C83.907 41.4693 84.0187 41.4693 84.0187 41.4693C84.0187 41.4693 83.907 41.4693 83.7207 41.4693C83.4973 41.4693 83.1993 41.4693 82.8269 41.4693C82.0076 41.4693 80.8531 41.4693 79.3261 41.4693C76.2723 41.4693 71.8777 41.4693 66.4403 41.5065C65.0996 41.5065 63.6471 41.5065 62.1947 41.5065C61.8222 41.5065 61.4498 41.5437 61.0774 41.4693C60.705 41.432 60.3326 41.2831 59.9601 41.0968C59.2898 40.6872 58.7684 39.9796 58.6194 39.1602C58.5449 38.7506 58.5822 38.3409 58.5449 37.9312C58.5449 37.5216 58.5449 37.1119 58.5449 36.7022C58.5449 35.8829 58.5449 35.0263 58.5449 34.1698C58.5449 32.4566 58.5449 30.7062 58.5449 28.9186C58.5449 25.3433 58.5449 21.5446 58.5449 17.6342C58.5449 15.6976 58.5449 13.6865 58.5449 11.6754C58.5449 10.6699 58.5449 9.66431 58.5449 8.62153C58.5449 8.10013 58.5449 7.61598 58.5449 7.05735C58.5822 6.53595 58.7684 6.01456 59.0663 5.56765C59.5132 4.93453 60.2208 4.48763 60.9657 4.3759C61.3381 4.30141 61.7105 4.33866 62.0829 4.33866C62.4554 4.33866 62.8278 4.33866 63.163 4.33866C64.6154 4.33866 66.0679 4.33866 67.4831 4.33866C70.3135 4.33866 73.1067 4.33866 75.7509 4.33866H75.7881L75.8254 4.3759C79.8103 8.5098 83.5718 12.3458 86.9236 15.8093L86.9608 15.8465V15.8838C86.9608 24.0771 86.9236 30.8552 86.9236 35.585C86.9236 36.7767 86.9236 37.8195 86.8863 38.7506C86.8119 39.6816 86.3277 40.3892 85.8436 40.7617C85.3594 41.1713 84.838 41.2831 84.5401 41.3575C84.3911 41.3948 84.2421 41.3948 84.1676 41.3948C84.0559 41.4693 84.0187 41.4693 84.0187 41.4693Z" fill="#263238"/>
<path d="M86.8494 15.9954C86.8494 15.9954 86.7749 15.9954 86.6259 16.0326C86.477 16.0326 86.2535 16.0326 85.9928 16.0326C85.4342 16.0326 84.6521 16.0327 83.6838 16.0699C82.7155 16.0699 81.561 16.0699 80.2947 16.1071C79.6616 16.1071 78.9913 16.1071 78.2837 16.1071C77.5761 16.1071 76.8312 15.772 76.3098 15.1761C76.0491 14.8781 75.8629 14.543 75.7512 14.2078C75.6395 13.8726 75.6022 13.4629 75.6395 13.1277C75.6395 12.4201 75.6395 11.7498 75.6395 11.1167C75.6395 9.85042 75.6395 8.69591 75.6767 7.72761C75.6767 6.79655 75.7139 6.01446 75.7139 5.41859C75.7139 5.15789 75.7139 4.97168 75.7139 4.78547C75.7139 4.6365 75.7139 4.56201 75.7512 4.56201C75.7512 4.56201 75.7512 4.6365 75.7884 4.78547C75.7884 4.93444 75.7884 5.15789 75.7884 5.41859C75.7884 5.97722 75.7884 6.75931 75.8257 7.72761C75.8257 8.69591 75.8257 9.85042 75.8629 11.1167C75.8629 11.7498 75.8629 12.4201 75.8629 13.1277C75.8629 13.4629 75.8629 13.7981 75.9746 14.1333C76.0864 14.4685 76.2726 14.7664 76.496 15.0271C76.9802 15.5485 77.6505 15.8837 78.3209 15.8837C79.0285 15.8837 79.6989 15.8837 80.332 15.8837C81.5982 15.8837 82.7527 15.8837 83.721 15.9209C84.6521 15.9209 85.4342 15.9582 86.0301 15.9582C86.2908 15.9582 86.477 15.9582 86.6632 15.9582C86.7749 15.9582 86.8494 15.9582 86.8494 15.9954Z" fill="#263238"/>
<path d="M75.3411 12.4203C75.3411 12.4576 72.6597 12.532 69.3824 12.532C66.105 12.532 63.4236 12.4948 63.4236 12.4203C63.4236 12.3831 66.105 12.3086 69.3824 12.3086C72.6597 12.3086 75.3411 12.3458 75.3411 12.4203Z" fill="#263238"/>
<path d="M81.002 16.7775C81.002 16.8147 77.0543 16.8892 72.2128 16.8892C67.3713 16.8892 63.4236 16.852 63.4236 16.7775C63.4236 16.7403 67.3713 16.6658 72.2128 16.6658C77.0543 16.703 81.002 16.7403 81.002 16.7775Z" fill="#263238"/>
<path d="M81.002 21.172C81.002 21.2093 77.0543 21.2838 72.2128 21.2838C67.3713 21.2838 63.4236 21.2465 63.4236 21.172C63.4236 21.1348 67.3713 21.0603 72.2128 21.0603C77.0543 21.0975 81.002 21.1348 81.002 21.172Z" fill="#263238"/>
<path d="M81.002 25.5668C81.002 25.604 77.0543 25.6785 72.2128 25.6785C67.3713 25.6785 63.4236 25.6413 63.4236 25.5668C63.4236 25.5296 67.3713 25.4551 72.2128 25.4551C77.0543 25.4923 81.002 25.5296 81.002 25.5668Z" fill="#263238"/>
<path d="M81.002 29.9613C81.002 29.9986 77.0543 30.0731 72.2128 30.0731C67.3713 30.0731 63.4236 30.0358 63.4236 29.9613C63.4236 29.9241 67.3713 29.8496 72.2128 29.8496C77.0543 29.8496 81.002 29.9241 81.002 29.9613Z" fill="#263238"/>
<path d="M81.002 34.3559C81.002 34.3931 77.0543 34.4676 72.2128 34.4676C67.3713 34.4676 63.4236 34.4304 63.4236 34.3559C63.4236 34.3186 67.3713 34.2441 72.2128 34.2441C77.0543 34.2441 81.002 34.2814 81.002 34.3559Z" fill="#263238"/>
<path d="M71.1701 35.3615H55.1186C54.262 35.3615 53.5544 34.6539 53.5544 33.7973V28.3227C53.5544 27.4661 54.262 26.7585 55.1186 26.7585H71.1701C72.0266 26.7585 72.7342 27.4661 72.7342 28.3227V33.7973C72.7342 34.6912 72.0266 35.3615 71.1701 35.3615Z" fill="#7F81D7"/>
<path d="M60.2953 32.8292L59.5132 31.7119L58.7311 32.8292H57.8745L59.0663 31.1905L57.9118 29.5891H58.7683L59.5132 30.6319L60.258 29.5891H61.0774L59.9601 31.1533L61.1891 32.8292H60.2953Z" fill="white"/>
<path d="M61.4497 29.552H62.1946V32.1962H63.8332V32.7921H61.4497V29.552Z" fill="white"/>
<path d="M63.9819 32.4938L64.2426 31.9352C64.5033 32.1214 64.913 32.2703 65.3227 32.2703C65.7696 32.2703 65.9558 32.1214 65.9558 31.9352C65.9558 31.3393 64.0564 31.7489 64.0564 30.5199C64.0564 29.9613 64.5033 29.5144 65.4344 29.5144C65.844 29.5144 66.2537 29.6261 66.5517 29.8123L66.3282 30.371C66.0303 30.1848 65.7323 30.1103 65.4344 30.1103C64.9875 30.1103 64.8013 30.2965 64.8013 30.4827C64.8013 31.0786 66.7006 30.6689 66.7006 31.8607C66.7006 32.4193 66.2537 32.8662 65.3227 32.8662C64.8013 32.8662 64.2799 32.7172 63.9819 32.4938Z" fill="white"/>
<path d="M223.752 135.767H200.811C199.209 135.767 197.943 134.463 197.943 132.899V101.132C197.943 99.5302 199.247 98.2639 200.811 98.2639H215.373L226.657 109.884V132.899C226.62 134.501 225.353 135.767 223.752 135.767Z" fill="#EBEBEB"/>
<path d="M215.373 98.2639V107.202C215.373 108.692 216.564 109.884 218.054 109.884H226.657L215.373 98.2639Z" fill="#F5F5F5"/>
<path d="M215.484 107.984C215.484 107.984 215.372 110.144 217.83 110.852C217.905 110.889 218.017 110.889 218.128 110.927C219.246 111.113 226.657 112.453 226.657 112.267C226.657 112.081 226.657 109.846 226.657 109.846H218.054C218.017 109.884 215.894 109.809 215.484 107.984Z" fill="#E0E0E0"/>
<path d="M223.752 135.767C223.752 135.767 223.938 135.767 224.236 135.692C224.571 135.618 225.056 135.506 225.54 135.096C226.024 134.687 226.508 134.016 226.583 133.085C226.583 132.154 226.583 131.074 226.583 129.882C226.583 125.078 226.545 118.188 226.545 109.883L226.583 109.958C223.156 106.457 219.357 102.546 215.298 98.338L215.373 98.3752C212.691 98.3752 209.861 98.3752 206.956 98.3752C205.503 98.3752 204.051 98.3752 202.561 98.3752C202.189 98.3752 201.816 98.3752 201.444 98.3752C201.072 98.3752 200.699 98.338 200.327 98.4125C199.619 98.5242 198.949 98.9339 198.539 99.5297C198.241 99.9394 198.055 100.424 198.018 100.945C197.98 101.466 198.018 101.988 198.018 102.509C198.018 103.552 198.018 104.595 198.018 105.6C198.018 107.649 198.018 109.66 198.018 111.671C198.018 115.656 198.018 119.454 198.018 123.104C198.018 124.929 198.018 126.717 198.018 128.43C198.018 129.286 198.018 130.143 198.018 131C198.018 131.409 198.018 131.819 198.018 132.266C198.018 132.675 197.98 133.085 198.055 133.458C198.204 134.24 198.688 134.91 199.358 135.32C199.694 135.506 200.066 135.655 200.401 135.692C200.774 135.729 201.146 135.729 201.518 135.729C203.008 135.729 204.461 135.729 205.839 135.729C211.35 135.729 215.819 135.767 218.911 135.767C220.438 135.767 221.629 135.767 222.449 135.767C222.858 135.767 223.156 135.767 223.38 135.767C223.64 135.767 223.752 135.767 223.752 135.767C223.752 135.767 223.64 135.767 223.454 135.767C223.231 135.767 222.933 135.767 222.523 135.767C221.704 135.767 220.512 135.767 218.985 135.767C215.894 135.767 211.425 135.767 205.913 135.804C204.535 135.804 203.083 135.804 201.593 135.804C201.22 135.804 200.848 135.841 200.438 135.767C200.066 135.729 199.656 135.58 199.321 135.357C198.614 134.947 198.092 134.24 197.943 133.42C197.869 133.011 197.906 132.601 197.869 132.191C197.869 131.782 197.869 131.372 197.869 130.925C197.869 130.068 197.869 129.249 197.869 128.355C197.869 126.642 197.869 124.855 197.869 123.03C197.869 119.38 197.869 115.544 197.869 111.596C197.869 109.622 197.869 107.574 197.869 105.526C197.869 104.483 197.869 103.477 197.869 102.435C197.869 101.913 197.869 101.392 197.869 100.87C197.906 100.349 198.092 99.7904 198.427 99.3435C198.874 98.7104 199.582 98.2635 200.364 98.1518C200.736 98.0773 201.146 98.1145 201.481 98.1145C201.854 98.1145 202.226 98.1145 202.598 98.1145C204.088 98.1145 205.541 98.1145 206.993 98.1145C209.898 98.1145 212.691 98.1145 215.41 98.1145H215.447L215.484 98.1518C219.544 102.323 223.342 106.271 226.731 109.771L226.769 109.809V109.846C226.769 118.151 226.731 125.041 226.731 129.845C226.731 131.037 226.731 132.117 226.694 133.048C226.62 134.016 226.136 134.724 225.614 135.096C225.093 135.506 224.609 135.655 224.273 135.692C224.125 135.729 223.976 135.729 223.901 135.729C223.789 135.767 223.752 135.767 223.752 135.767Z" fill="#263238"/>
<path d="M226.62 109.884C226.62 109.884 226.545 109.884 226.396 109.921C226.247 109.921 226.024 109.921 225.763 109.921C225.205 109.921 224.385 109.921 223.417 109.958C222.411 109.958 221.257 109.958 219.953 109.995C219.32 109.995 218.613 109.995 217.905 109.995C217.16 109.995 216.415 109.66 215.894 109.064C215.633 108.766 215.447 108.431 215.335 108.059C215.224 107.686 215.186 107.314 215.224 106.979C215.224 106.271 215.224 105.601 215.224 104.93C215.224 103.627 215.224 102.472 215.261 101.467C215.261 100.498 215.298 99.7164 215.298 99.1205C215.298 98.8598 215.298 98.6363 215.298 98.4874C215.298 98.3384 215.298 98.2639 215.335 98.2639C215.335 98.2639 215.335 98.3384 215.373 98.4874C215.373 98.6363 215.373 98.8598 215.373 99.1205C215.373 99.6791 215.373 100.498 215.41 101.467C215.41 102.472 215.41 103.627 215.447 104.93C215.447 105.563 215.447 106.271 215.447 106.979C215.447 107.351 215.447 107.686 215.559 108.021C215.671 108.357 215.857 108.692 216.08 108.952C216.564 109.511 217.235 109.809 217.942 109.809C218.65 109.809 219.32 109.809 219.991 109.809C221.294 109.809 222.449 109.809 223.454 109.846C224.423 109.846 225.205 109.884 225.8 109.884C226.061 109.884 226.285 109.884 226.434 109.884C226.545 109.884 226.62 109.884 226.62 109.884Z" fill="#263238"/>
<path d="M214.926 106.233C214.926 106.271 212.207 106.345 208.855 106.345C205.504 106.345 202.785 106.308 202.785 106.233C202.785 106.196 205.504 106.122 208.855 106.122C212.207 106.159 214.926 106.196 214.926 106.233Z" fill="#263238"/>
<path d="M220.661 110.703C220.661 110.74 216.676 110.814 211.723 110.814C206.807 110.814 202.785 110.777 202.785 110.703C202.785 110.628 206.77 110.591 211.723 110.591C216.676 110.591 220.661 110.665 220.661 110.703Z" fill="#263238"/>
<path d="M220.661 115.172C220.661 115.209 216.676 115.283 211.723 115.283C206.807 115.283 202.785 115.246 202.785 115.172C202.785 115.134 206.77 115.06 211.723 115.06C216.676 115.06 220.661 115.097 220.661 115.172Z" fill="#263238"/>
<path d="M220.661 119.641C220.661 119.678 216.676 119.753 211.723 119.753C206.807 119.753 202.785 119.715 202.785 119.641C202.785 119.566 206.77 119.529 211.723 119.529C216.676 119.529 220.661 119.566 220.661 119.641Z" fill="#263238"/>
<path d="M220.661 124.073C220.661 124.11 216.676 124.184 211.723 124.184C206.807 124.184 202.785 124.147 202.785 124.073C202.785 123.998 206.77 123.961 211.723 123.961C216.676 123.998 220.661 124.035 220.661 124.073Z" fill="#263238"/>
<path d="M220.661 129.584C220.661 129.622 216.676 129.696 211.723 129.696C206.807 129.696 202.785 129.659 202.785 129.584C202.785 129.547 206.77 129.473 211.723 129.473C216.676 129.473 220.661 129.547 220.661 129.584Z" fill="#263238"/>
<path d="M210.717 129.584H194.368C193.511 129.584 192.804 128.877 192.804 128.02V122.397C192.804 121.54 193.511 120.833 194.368 120.833H210.717C211.574 120.833 212.281 121.54 212.281 122.397V128.02C212.281 128.877 211.574 129.584 210.717 129.584Z" fill="#7F81D7"/>
<path d="M195.038 123.7H196.528C197.608 123.7 198.353 124.371 198.353 125.339C198.353 126.307 197.608 126.978 196.528 126.978H195.038V123.7ZM196.491 126.382C197.161 126.382 197.571 125.972 197.571 125.339C197.571 124.706 197.124 124.296 196.491 124.296H195.783V126.344H196.491V126.382Z" fill="white"/>
<path d="M198.726 125.339C198.726 124.371 199.508 123.626 200.551 123.626C201.593 123.626 202.376 124.333 202.376 125.339C202.376 126.344 201.593 127.052 200.551 127.052C199.508 127.052 198.726 126.307 198.726 125.339ZM201.593 125.339C201.593 124.706 201.147 124.296 200.551 124.296C199.955 124.296 199.508 124.743 199.508 125.339C199.508 125.935 199.955 126.382 200.551 126.382C201.147 126.382 201.593 125.972 201.593 125.339Z" fill="white"/>
<path d="M202.711 125.339C202.711 124.333 203.493 123.626 204.498 123.626C205.057 123.626 205.541 123.849 205.876 124.222L205.392 124.669C205.169 124.408 204.908 124.296 204.573 124.296C203.94 124.296 203.53 124.743 203.53 125.339C203.53 125.935 203.977 126.382 204.573 126.382C204.908 126.382 205.169 126.233 205.392 125.972L205.876 126.419C205.578 126.791 205.094 127.015 204.498 127.015C203.493 127.052 202.711 126.344 202.711 125.339Z" fill="white"/>
<path d="M208.408 126.977L207.626 125.823L206.844 126.977H205.95L207.179 125.302L206.025 123.663H206.881L207.626 124.743L208.371 123.663H209.191L208.036 125.264L209.265 126.977H208.408V126.977Z" fill="white"/>
<path d="M248.667 146.679C248.667 146.716 192.99 146.79 124.352 146.79C55.6773 146.79 0 146.753 0 146.679C0 146.641 55.6773 146.567 124.352 146.567C192.99 146.604 248.667 146.641 248.667 146.679Z" fill="#263238"/>
</svg>
