<svg width="657" height="579" viewBox="0 0 657 579" fill="none" xmlns="http://www.w3.org/2000/svg">
<path d="M587.665 338.909C595.051 379.424 594.608 429.822 565.231 457.589C535.855 485.355 477.821 490.127 425.776 492.592C373.797 495.34 328.362 495.054 276.55 493.894C224.738 492.733 167.17 490.252 124.85 467.805C82.1868 445.438 55.526 403.224 59.4845 360.031C63.1658 317.201 97.8766 273.593 119.69 229.161C141.159 184.81 150.009 139.272 180.162 108.644C210.315 78.016 261.705 62.0157 309.126 63.0228C356.136 63.8291 398.833 81.7239 448.338 88.4883C497.566 95.6157 553.604 91.6127 571.758 114.706C589.569 137.88 569.087 187.95 566.936 228.038C564.441 268.207 579.934 298.475 587.665 338.909Z" fill="#8587FE" fill-opacity="0.1"/>
<path d="M415.738 315.458C416.766 309.207 422.068 304.618 428.398 304.539C455.697 304.143 525.33 303.51 529.049 306.517C533.718 310.236 536.092 312.135 535.775 317.99C535.459 323.371 529.603 416.347 529.603 416.347H399.358L415.738 315.458Z" fill="#455A64"/>
<path d="M514.727 416.347C514.727 416.347 514.727 416.268 514.727 416.109C514.727 415.872 514.648 415.635 514.648 415.318C514.569 414.606 514.49 413.577 514.411 412.232C514.331 410.887 514.173 409.225 514.173 407.326C514.094 405.427 514.015 403.211 514.015 400.838C514.015 399.651 514.015 398.385 513.936 397.039C513.936 395.694 513.936 394.349 514.015 392.925C514.015 390.076 514.173 387.069 514.331 383.904C514.727 377.495 515.281 370.531 516.31 363.252C517.338 355.972 518.604 349.009 519.95 342.837C520.662 339.751 521.295 336.744 522.086 334.053C522.482 332.708 522.798 331.363 523.115 330.097C523.51 328.831 523.827 327.644 524.143 326.457C524.776 324.162 525.488 322.026 526.042 320.206C526.596 318.386 527.15 316.803 527.625 315.537C528.1 314.271 528.416 313.322 528.654 312.61C528.733 312.293 528.891 312.056 528.97 311.818C529.049 311.66 529.049 311.581 529.049 311.581C529.049 311.581 529.049 311.66 528.97 311.818C528.891 311.977 528.812 312.293 528.733 312.61C528.495 313.322 528.179 314.271 527.783 315.537C527.388 316.803 526.834 318.386 526.28 320.206C525.726 322.026 525.014 324.083 524.381 326.457C524.064 327.644 523.748 328.831 523.352 330.097C523.036 331.363 522.719 332.708 522.323 334.053C521.611 336.823 520.978 339.751 520.266 342.837C518.921 349.088 517.655 355.972 516.626 363.252C515.677 370.531 515.044 377.495 514.648 383.904C514.49 387.069 514.331 390.076 514.331 392.925C514.331 394.349 514.252 395.694 514.252 397.039C514.252 398.385 514.252 399.651 514.252 400.838C514.252 403.211 514.331 405.427 514.411 407.326C514.411 409.225 514.569 410.887 514.569 412.232C514.648 413.577 514.648 414.606 514.727 415.318C514.727 415.635 514.727 415.951 514.727 416.109C514.727 416.268 514.727 416.347 514.727 416.347Z" fill="#263238"/>
<path d="M441.455 351.303C441.455 351.303 441.534 351.224 441.692 351.224C441.85 351.224 442.009 351.145 442.325 351.224C442.879 351.224 443.67 351.541 444.224 352.332C444.857 353.123 445.015 354.389 444.382 355.576C444.066 356.13 443.67 356.684 443.116 357.08C442.562 357.475 441.85 357.713 441.138 357.792C440.426 357.871 439.635 357.634 439.081 357.238C438.448 356.842 438.131 356.209 437.973 355.576C437.736 354.31 438.29 353.123 439.002 352.49C440.426 351.224 441.771 351.224 441.771 351.303C441.692 351.303 441.613 351.303 441.455 351.303C441.296 351.303 441.138 351.382 440.901 351.462C440.426 351.699 439.793 352.015 439.16 352.648C438.527 353.281 438.131 354.389 438.369 355.497C438.448 356.051 438.764 356.605 439.318 356.921C439.793 357.238 440.505 357.396 441.138 357.396C441.771 357.317 442.404 357.159 442.958 356.763C443.433 356.367 443.829 355.893 444.145 355.418C444.699 354.389 444.541 353.202 444.066 352.49C443.591 351.778 442.879 351.462 442.404 351.382C441.771 351.303 441.534 351.382 441.455 351.303Z" fill="#263238"/>
<path d="M461.949 339.513C461.949 339.592 460.603 339.355 458.467 339.513C456.331 339.671 453.324 340.463 450.633 342.362C447.943 344.261 446.202 346.793 445.332 348.692C444.382 350.67 444.145 352.015 444.066 351.936C444.066 351.936 444.066 351.62 444.224 350.987C444.382 350.354 444.62 349.562 445.015 348.534C445.886 346.556 447.626 343.865 450.396 341.966C453.165 339.988 456.251 339.276 458.388 339.197C459.496 339.117 460.366 339.197 460.999 339.276C461.632 339.434 461.949 339.513 461.949 339.513Z" fill="#263238"/>
<path d="M424.125 363.727C424.125 363.727 424.205 363.489 424.442 363.093C424.679 362.698 425.075 362.065 425.629 361.432C426.737 360.087 428.557 358.583 431.089 357.713C433.542 356.842 435.995 357.001 437.656 357.317C438.527 357.475 439.16 357.713 439.555 357.95C439.951 358.108 440.189 358.267 440.189 358.267C440.189 358.346 439.239 357.871 437.577 357.634C435.916 357.317 433.621 357.317 431.168 358.108C428.794 358.9 426.895 360.403 425.787 361.669C424.679 362.777 424.205 363.727 424.125 363.727Z" fill="#263238"/>
<path d="M449.367 366.971C449.367 366.971 448.814 366.654 448.022 366.021C447.231 365.309 446.281 364.28 445.411 363.014C444.541 361.669 443.987 360.403 443.749 359.374C443.433 358.425 443.354 357.792 443.433 357.792C443.591 357.713 444.145 360.245 445.807 362.777C447.389 365.309 449.447 366.812 449.367 366.971Z" fill="#263238"/>
<path d="M485.45 352.411C485.45 352.411 485.529 352.332 485.687 352.332C485.845 352.332 486.003 352.253 486.32 352.332C486.874 352.332 487.665 352.648 488.219 353.44C488.852 354.231 489.01 355.497 488.377 356.684C488.061 357.238 487.665 357.792 487.111 358.187C486.557 358.583 485.845 358.82 485.133 358.899C484.421 358.979 483.63 358.741 483.076 358.346C482.443 357.95 482.126 357.317 481.968 356.684C481.73 355.418 482.284 354.231 482.997 353.598C484.421 352.332 485.766 352.332 485.766 352.411C485.687 352.411 485.608 352.411 485.45 352.411C485.291 352.411 485.133 352.49 484.896 352.569C484.421 352.807 483.788 353.123 483.155 353.756C482.522 354.389 482.126 355.497 482.364 356.605C482.443 357.159 482.759 357.713 483.313 358.029C483.788 358.346 484.5 358.504 485.133 358.504C485.766 358.425 486.399 358.266 486.953 357.871C487.428 357.475 487.823 357 488.14 356.526C488.694 355.497 488.536 354.31 488.061 353.598C487.586 352.886 486.874 352.569 486.399 352.49C485.766 352.411 485.45 352.49 485.45 352.411Z" fill="#263238"/>
<path d="M505.865 340.621C505.865 340.7 504.519 340.463 502.383 340.621C500.247 340.779 497.24 341.57 494.549 343.469C491.859 345.368 490.118 347.901 489.248 349.8C488.298 351.778 488.061 353.123 487.982 353.044C487.982 353.044 487.982 352.727 488.14 352.094C488.298 351.461 488.536 350.67 488.931 349.641C489.802 347.663 491.542 344.973 494.312 343.074C497.081 341.096 500.167 340.383 502.304 340.304C503.412 340.225 504.282 340.304 504.915 340.383C505.548 340.542 505.865 340.621 505.865 340.621Z" fill="#263238"/>
<path d="M468.121 364.834C468.121 364.834 468.2 364.597 468.437 364.201C468.674 363.805 469.07 363.172 469.624 362.539C470.732 361.194 472.552 359.691 475.084 358.82C477.537 357.95 479.99 358.108 481.652 358.425C482.522 358.583 483.155 358.82 483.551 359.058C483.946 359.216 484.184 359.374 484.184 359.374C484.184 359.453 483.234 358.978 481.572 358.741C479.911 358.425 477.616 358.425 475.163 359.216C472.789 360.007 470.89 361.511 469.782 362.777C468.675 363.884 468.2 364.834 468.121 364.834Z" fill="#263238"/>
<path d="M493.362 368.078C493.362 368.078 492.808 367.762 492.017 367.129C491.226 366.417 490.276 365.388 489.406 364.122C488.536 362.777 487.982 361.511 487.744 360.482C487.428 359.532 487.349 358.899 487.428 358.899C487.586 358.82 488.14 361.352 489.802 363.884C491.384 366.417 493.441 367.92 493.362 368.078Z" fill="#263238"/>
<path d="M479.198 358.583C479.198 358.583 479.198 358.504 479.119 358.425C479.119 358.346 479.04 358.187 478.961 357.95C478.882 357.554 478.723 356.921 478.486 356.209C478.09 354.627 477.537 352.411 476.824 349.562C476.112 346.714 475.321 343.232 474.371 339.276C473.422 335.319 472.393 330.809 471.444 325.903L471.681 326.061C464.164 327.802 455.618 329.78 446.518 331.917L446.281 331.996L446.202 331.759C446.044 331.046 445.964 330.334 445.806 329.543C444.54 322.975 443.353 316.724 442.245 310.869L442.483 311.027C433.067 313.559 424.362 314.825 417.478 315.379H417.32V315.221C416.687 309.919 416.133 305.646 415.817 302.639C415.658 301.215 415.5 300.028 415.421 299.237C415.421 298.841 415.342 298.604 415.342 298.366C415.342 298.129 415.342 298.05 415.342 298.05C415.342 298.05 415.342 298.129 415.421 298.366C415.421 298.604 415.5 298.841 415.579 299.237C415.658 300.028 415.817 301.136 416.054 302.639C416.45 305.646 417.003 309.84 417.716 315.142L417.557 314.983C424.442 314.35 433.067 313.084 442.483 310.552L442.72 310.473L442.799 310.71C443.907 316.566 445.173 322.896 446.36 329.385C446.518 330.097 446.677 330.888 446.756 331.6L446.518 331.442C455.618 329.306 464.164 327.327 471.681 325.587L471.839 325.507V325.666C472.789 330.572 473.818 335.082 474.688 339.038C475.637 342.995 476.429 346.476 477.062 349.404C477.695 352.253 478.249 354.547 478.565 356.051C478.723 356.842 478.882 357.396 478.961 357.792C478.961 357.95 479.04 358.108 479.04 358.266C479.198 358.504 479.198 358.583 479.198 358.583Z" fill="#FAFAFA"/>
<path d="M465.826 355.734C465.826 355.734 465.667 355.339 465.509 354.627C465.351 353.835 465.113 352.807 464.797 351.541C464.243 348.929 463.452 345.289 462.66 341.254L462.898 341.412C462.107 341.57 461.315 341.808 460.524 341.966C455.855 343.074 451.662 344.023 448.655 344.656C447.151 344.973 445.964 345.21 445.015 345.448C444.144 345.606 443.67 345.685 443.67 345.685C443.67 345.685 444.144 345.527 444.936 345.289C445.885 345.052 447.072 344.736 448.497 344.419C451.503 343.707 455.697 342.678 460.366 341.57C461.157 341.412 461.948 341.175 462.74 341.017L462.977 340.937L463.056 341.175C463.847 345.289 464.56 348.929 465.034 351.541C465.272 352.807 465.43 353.835 465.588 354.627C465.746 355.339 465.826 355.734 465.826 355.734Z" fill="#E8505B"/>
<path d="M436.627 341.333C436.627 341.333 436.469 340.937 436.311 340.225C436.153 339.434 435.915 338.405 435.678 337.139C435.124 334.528 434.412 330.967 433.7 326.932C433.621 326.694 433.621 326.457 433.541 326.22L433.779 326.378C429.981 327.407 426.578 328.119 424.125 328.593C422.859 328.831 421.91 328.989 421.197 329.068C420.485 329.147 420.09 329.226 420.09 329.147C420.09 329.147 420.485 329.068 421.118 328.91C421.91 328.752 422.859 328.514 424.046 328.277C426.499 327.723 429.901 327.011 433.621 325.982L433.858 325.903L433.937 326.14C434.016 326.378 434.016 326.615 434.095 326.853C434.887 330.809 435.52 334.449 435.994 337.06C436.232 338.326 436.39 339.355 436.548 340.146C436.627 340.937 436.627 341.333 436.627 341.333Z" fill="#E8505B"/>
<path d="M407.271 318.544C407.192 318.544 406.954 317.436 406.717 316.091C406.559 314.667 406.48 313.559 406.638 313.559C406.717 313.559 406.954 314.667 407.192 316.012C407.35 317.357 407.35 318.544 407.271 318.544Z" fill="#E8505B"/>
<path d="M533.797 302.56C533.797 302.56 533.797 302.481 533.718 302.402C533.718 302.244 533.639 302.085 533.639 301.848C533.559 301.294 533.401 300.582 533.243 299.553C532.926 297.575 532.373 294.647 531.739 291.008L531.898 291.087C528.574 291.641 524.539 292.274 519.949 292.986H519.791V292.827C518.604 285.627 517.18 277.002 515.597 267.506L515.835 267.665C510.691 268.852 505.152 270.118 499.534 271.463C496.686 272.096 493.916 272.729 491.226 273.362L491.068 273.441L490.988 273.283C489.248 266.082 487.586 259.277 486.32 253.026L486.557 253.184C476.825 254.688 468.516 255.954 462.265 256.903H462.107V256.745C461.632 252.868 461.236 249.782 460.999 247.645C460.92 246.617 460.762 245.825 460.762 245.192C460.762 244.955 460.682 244.718 460.682 244.559C460.682 244.401 460.682 244.322 460.682 244.322C460.682 244.322 460.682 244.401 460.762 244.559C460.762 244.718 460.841 244.955 460.841 245.192C460.92 245.746 460.999 246.537 461.157 247.566C461.474 249.703 461.869 252.789 462.344 256.666L462.186 256.587C468.358 255.637 476.745 254.292 486.478 252.709H486.636V252.868C487.902 259.119 489.564 265.924 491.305 273.125L491.068 272.966C493.758 272.333 496.527 271.7 499.376 271.067C505.073 269.722 510.533 268.456 515.676 267.269L515.914 267.19V267.427C517.496 276.923 518.921 285.627 520.029 292.748L519.87 292.59C524.46 291.878 528.495 291.245 531.819 290.77H531.898V290.849C532.531 294.489 533.006 297.417 533.322 299.395C533.48 300.345 533.559 301.136 533.639 301.69C533.639 301.927 533.718 302.085 533.718 302.244C533.797 302.481 533.797 302.56 533.797 302.56Z" fill="#FAFAFA"/>
<path d="M285.255 215.836L285.334 217.972C285.651 217.656 286.046 217.497 286.521 217.497C287.55 217.418 288.42 218.21 288.42 219.238C288.499 220.267 287.708 221.137 286.679 221.216C286.205 221.216 285.809 221.058 285.493 220.821L285.572 222.957C285.888 222.641 286.284 222.482 286.759 222.482C287.787 222.403 288.658 223.195 288.658 224.223C288.737 225.252 287.945 226.122 286.917 226.201C286.442 226.201 286.046 226.043 285.73 225.806L285.809 227.942C286.126 227.626 286.521 227.468 286.996 227.468C288.025 227.388 288.895 228.18 288.895 229.208C288.974 230.237 288.183 231.107 287.154 231.187C286.679 231.187 286.284 231.028 285.967 230.791L286.046 232.927C286.363 232.611 286.759 232.453 287.233 232.453C288.262 232.374 289.132 233.165 289.132 234.193C289.212 235.222 288.42 236.093 287.392 236.172C286.917 236.172 286.521 236.013 286.205 235.776L286.284 237.912C286.6 237.596 286.996 237.438 287.471 237.438C288.499 237.359 289.37 238.15 289.37 239.179C289.449 240.207 288.658 241.078 287.629 241.157C287.154 241.157 286.759 240.998 286.442 240.761L286.521 242.898C286.838 242.581 287.233 242.423 287.708 242.423C288.737 242.344 289.607 243.135 289.607 244.164C289.686 245.192 288.895 246.063 287.866 246.142C287.392 246.142 286.996 245.984 286.679 245.746L286.759 247.091L343.81 245.746L340.882 212.512L285.255 215.836Z" fill="#EBEBEB"/>
<path d="M283.989 214.411L284.068 216.548C284.385 216.231 284.78 216.073 285.255 216.073C286.284 215.994 287.154 216.785 287.154 217.814C287.233 218.843 286.442 219.713 285.413 219.792C284.939 219.792 284.543 219.634 284.226 219.396L284.306 221.533C284.622 221.216 285.018 221.058 285.492 221.058C286.521 220.979 287.392 221.77 287.392 222.799C287.471 223.828 286.679 224.698 285.651 224.777C285.176 224.777 284.78 224.619 284.464 224.382L284.543 226.518C284.859 226.201 285.255 226.043 285.73 226.043C286.758 225.964 287.629 226.755 287.629 227.784C287.708 228.813 286.917 229.683 285.888 229.762C285.413 229.762 285.018 229.604 284.701 229.367L284.78 231.503C285.097 231.187 285.492 231.028 285.967 231.028C286.996 230.949 287.866 231.74 287.866 232.769C287.945 233.798 287.154 234.668 286.125 234.747C285.651 234.747 285.255 234.589 284.939 234.352L285.018 236.488C285.334 236.172 285.73 236.013 286.205 236.013C287.233 235.934 288.104 236.726 288.104 237.754C288.104 238.783 287.392 239.653 286.363 239.732C285.888 239.732 285.492 239.574 285.176 239.337L285.255 241.473C285.572 241.157 285.967 240.998 286.442 240.998C287.471 240.919 288.341 241.711 288.341 242.739C288.42 243.768 287.629 244.638 286.6 244.717C286.125 244.717 285.73 244.559 285.413 244.322L285.492 245.667L342.544 242.581L340.882 211.563L283.989 214.411Z" fill="#F5F5F5"/>
<path d="M341.357 217.497C341.357 217.576 328.617 218.368 312.871 219.238C297.124 220.109 284.385 220.663 284.306 220.583C284.306 220.504 297.045 219.713 312.792 218.843C328.617 217.972 341.357 217.418 341.357 217.497Z" fill="#E0E0E0"/>
<path d="M341.673 222.482C341.673 222.561 328.934 223.353 313.187 224.223C297.441 225.094 284.701 225.647 284.622 225.568C284.622 225.489 297.362 224.698 313.108 223.828C328.855 222.957 341.594 222.403 341.673 222.482Z" fill="#E0E0E0"/>
<path d="M341.911 227.468C341.911 227.547 329.171 228.338 313.425 229.208C297.678 230.079 284.939 230.633 284.859 230.554C284.859 230.474 297.599 229.683 313.346 228.813C329.092 227.942 341.911 227.388 341.911 227.468Z" fill="#E0E0E0"/>
<path d="M342.148 232.452C342.148 232.532 329.409 233.323 313.662 234.193C297.916 235.064 285.176 235.618 285.097 235.538C285.097 235.459 297.837 234.668 313.583 233.798C329.409 232.927 342.148 232.294 342.148 232.452Z" fill="#E0E0E0"/>
<path d="M342.465 237.359C342.465 237.438 329.725 238.229 313.979 239.1C298.232 239.97 285.492 240.524 285.413 240.445C285.413 240.366 298.153 239.574 313.899 238.704C329.646 237.833 342.465 237.28 342.465 237.359Z" fill="#E0E0E0"/>
<path d="M292.106 214.033L291.711 214.054L293.373 245.108L293.768 245.087L292.106 214.033Z" fill="#E8505B"/>
<path d="M298.786 244.797C298.707 244.797 298.232 237.833 297.757 229.288C297.283 220.742 297.045 213.778 297.124 213.778C297.203 213.778 297.678 220.742 298.153 229.288C298.628 237.833 298.865 244.797 298.786 244.797Z" fill="#E0E0E0"/>
<path d="M288.579 245.351C288.499 245.351 288.025 238.387 287.55 229.842C287.075 221.296 286.838 214.332 286.917 214.332C286.996 214.332 287.471 221.296 287.946 229.842C288.42 238.387 288.737 245.351 288.579 245.351Z" fill="#E0E0E0"/>
<path d="M304.325 244.48C304.246 244.48 303.771 237.517 303.296 228.971C302.821 220.425 302.584 213.462 302.663 213.462C302.742 213.462 303.217 220.425 303.692 228.971C304.167 237.517 304.404 244.48 304.325 244.48Z" fill="#E0E0E0"/>
<path d="M309.864 244.164C309.785 244.164 309.31 237.2 308.835 228.654C308.361 220.109 308.123 213.145 308.202 213.145C308.281 213.145 308.756 220.109 309.231 228.654C309.706 237.2 310.022 244.164 309.864 244.164Z" fill="#E0E0E0"/>
<path d="M315.482 243.847C315.403 243.847 314.928 236.884 314.453 228.338C313.979 219.792 313.741 212.829 313.82 212.829C313.9 212.829 314.374 219.792 314.849 228.338C315.245 236.963 315.561 243.847 315.482 243.847Z" fill="#E0E0E0"/>
<path d="M321.021 243.61C320.942 243.61 320.467 236.646 319.992 228.101C319.518 219.555 319.28 212.591 319.359 212.591C319.438 212.591 319.913 219.555 320.388 228.101C320.863 236.646 321.1 243.61 321.021 243.61Z" fill="#E0E0E0"/>
<path d="M326.56 243.293C326.481 243.293 326.006 236.33 325.531 227.784C325.057 219.238 324.819 212.275 324.898 212.275C324.977 212.275 325.452 219.238 325.927 227.784C326.402 236.33 326.718 243.293 326.56 243.293Z" fill="#E0E0E0"/>
<path d="M332.099 242.977C332.02 242.977 331.545 236.013 331.07 227.468C330.595 218.922 330.358 211.958 330.437 211.958C330.516 211.958 330.991 218.922 331.466 227.468C331.941 236.013 332.257 242.977 332.099 242.977Z" fill="#E0E0E0"/>
<path d="M337.717 242.66C337.638 242.66 337.163 235.697 336.689 227.151C336.214 218.605 335.976 211.642 336.056 211.642C336.135 211.642 336.609 218.605 337.084 227.151C337.559 235.697 337.796 242.66 337.717 242.66Z" fill="#E0E0E0"/>
<path d="M337.005 223.907C337.005 223.907 336.847 223.907 336.609 223.986C336.293 223.986 335.897 224.065 335.422 224.065C334.315 224.144 332.89 224.223 331.149 224.382C327.51 224.619 322.524 224.856 316.985 225.173C311.447 225.41 306.461 225.648 302.822 225.806C299.182 225.885 296.966 225.964 296.966 225.806C299.103 225.727 306.461 225.331 316.985 224.777C322.524 224.54 327.43 224.303 331.149 224.144C332.89 224.065 334.394 223.986 335.422 223.986C335.897 223.986 336.293 223.986 336.609 223.986C336.847 223.907 337.005 223.907 337.005 223.907Z" fill="#263238"/>
<path d="M338.113 229.604C338.113 229.683 328.934 230.237 317.539 230.791C306.145 231.345 296.966 231.661 296.966 231.503C296.966 231.424 306.145 230.87 317.539 230.316C328.934 229.762 338.113 229.446 338.113 229.604Z" fill="#263238"/>
<path d="M338.746 234.51C338.746 234.589 329.567 235.143 318.172 235.697C306.778 236.251 297.599 236.567 297.599 236.409C297.599 236.33 306.778 235.776 318.172 235.222C329.567 234.747 338.746 234.431 338.746 234.51Z" fill="#263238"/>
<path d="M290.398 217.735C290.636 219.001 291.19 220.188 292.218 220.9C293.405 221.691 295.146 221.612 296.175 220.662C297.283 219.713 297.599 218.051 296.966 216.785C296.333 215.519 294.75 214.728 293.405 215.044" fill="#E0E0E0"/>
<path d="M290.24 217.656C290.319 219.08 291.506 220.188 292.93 220.109C294.355 220.029 295.463 218.842 295.383 217.418C295.304 215.994 294.117 214.886 292.693 214.965C291.269 215.044 290.161 216.231 290.24 217.656Z" fill="#455A64"/>
<path d="M288.737 216.706C288.816 217.577 289.528 218.21 290.398 218.21C291.269 218.13 291.902 217.418 291.902 216.548C291.823 215.677 291.11 215.044 290.24 215.044C289.37 215.124 288.737 215.836 288.737 216.706Z" fill="#455A64"/>
<path d="M290.24 218.13C290.24 218.051 290.477 218.051 290.794 217.972C291.11 217.893 291.506 217.577 291.664 217.102C291.823 216.627 291.664 216.152 291.506 215.836C291.348 215.519 291.19 215.361 291.19 215.361C291.19 215.282 291.506 215.361 291.743 215.677C291.981 215.994 292.218 216.548 291.981 217.181C291.743 217.814 291.19 218.13 290.794 218.21C290.398 218.368 290.161 218.21 290.24 218.13Z" fill="#263238"/>
<path d="M291.506 215.677C291.585 215.598 291.981 215.677 292.377 215.598C292.851 215.519 293.089 215.203 293.247 215.282C293.326 215.361 293.089 215.836 292.535 215.994C291.902 216.152 291.427 215.757 291.506 215.677Z" fill="#263238"/>
<path d="M291.902 219.634C291.823 219.634 291.664 219.159 291.269 218.763C290.873 218.368 290.398 218.289 290.398 218.209C290.398 218.13 291.031 217.972 291.585 218.526C292.139 219.001 292.06 219.634 291.902 219.634Z" fill="#263238"/>
<path d="M334.235 215.836C334.473 217.102 335.027 218.289 336.055 219.001C337.242 219.792 338.983 219.713 340.012 218.764C341.119 217.814 341.436 216.152 340.803 214.886C340.17 213.62 338.587 212.829 337.242 213.145" fill="#E0E0E0"/>
<path d="M339.221 215.123C339.3 216.469 338.271 217.656 336.847 217.735C335.502 217.814 334.315 216.785 334.235 215.361C334.156 214.016 335.185 212.829 336.609 212.75C337.954 212.75 339.141 213.778 339.221 215.123Z" fill="#E8505B"/>
<path d="M340.566 214.095C340.645 214.886 340.012 215.598 339.141 215.677C338.35 215.756 337.638 215.123 337.559 214.253C337.48 213.462 338.113 212.75 338.983 212.67C339.853 212.591 340.566 213.224 340.566 214.095Z" fill="#E8505B"/>
<path d="M339.299 215.598C339.299 215.677 339.141 215.836 338.666 215.756C338.271 215.756 337.717 215.519 337.4 214.886C337.163 214.332 337.242 213.699 337.48 213.383C337.717 213.066 337.954 212.987 337.954 212.987C337.954 213.066 337.796 213.224 337.717 213.541C337.559 213.857 337.559 214.332 337.717 214.728C337.954 215.123 338.35 215.361 338.666 215.44C339.062 215.598 339.299 215.519 339.299 215.598Z" fill="#263238"/>
<path d="M337.796 213.383C337.875 213.462 337.48 213.857 336.926 213.778C336.293 213.699 336.055 213.224 336.135 213.145C336.214 213.066 336.53 213.304 336.926 213.383C337.401 213.462 337.796 213.304 337.796 213.383Z" fill="#263238"/>
<path d="M337.875 217.181C337.796 217.181 337.638 216.627 338.113 215.994C338.587 215.44 339.22 215.519 339.22 215.598C339.22 215.677 338.746 215.836 338.429 216.231C338.034 216.706 337.954 217.181 337.875 217.181Z" fill="#263238"/>
<path d="M242.13 289.742L288.737 295.676L288.183 278.584L242.13 289.742Z" fill="#E0E0E0"/>
<path d="M288.164 278.972L243.376 275.235L242.139 290.059L286.927 293.796L288.164 278.972Z" fill="#455A64"/>
<path d="M281.853 283.411C281.853 283.49 274.336 283.016 265.078 282.224C255.82 281.433 248.302 280.721 248.381 280.642C248.381 280.563 255.899 281.038 265.157 281.829C274.336 282.62 281.853 283.332 281.853 283.411Z" fill="#263238"/>
<path d="M281.774 287.289C281.774 287.368 274.256 286.893 264.998 286.102C255.74 285.31 248.223 284.598 248.302 284.519C248.302 284.44 255.82 284.915 265.078 285.706C274.256 286.497 281.774 287.209 281.774 287.289Z" fill="#263238"/>
<path d="M256.611 274.232L273.94 275.657L273.069 276.448L274.256 277.477L272.832 278.11L274.098 279.217L255.899 277.714L257.086 276.765L256.453 275.736L257.481 275.261L256.611 274.232Z" fill="#EBEBEB"/>
<path d="M215.701 247.328C215.86 247.645 216.018 247.962 216.018 248.357C216.018 249.465 215.147 250.335 214.04 250.335C212.932 250.335 212.061 249.465 212.061 248.357C212.061 247.962 212.141 247.645 212.378 247.328H210.004C210.162 247.645 210.321 247.962 210.321 248.357C210.321 249.465 209.45 250.335 208.342 250.335C207.235 250.335 206.364 249.465 206.364 248.357C206.364 247.962 206.443 247.645 206.681 247.328H204.307C204.465 247.645 204.623 247.962 204.623 248.357C204.623 249.465 203.753 250.335 202.645 250.335C201.537 250.335 200.667 249.465 200.667 248.357C200.667 247.962 200.746 247.645 200.984 247.328H198.61C198.768 247.645 198.926 247.962 198.926 248.357C198.926 249.465 198.056 250.335 196.948 250.335C195.84 250.335 194.97 249.465 194.97 248.357C194.97 247.962 195.049 247.645 195.286 247.328H192.912C193.071 247.645 193.229 247.962 193.229 248.357C193.229 249.465 192.359 250.335 191.251 250.335C190.143 250.335 189.273 249.465 189.273 248.357C189.273 247.962 189.352 247.645 189.589 247.328H187.215C187.373 247.645 187.532 247.962 187.532 248.357C187.532 249.465 186.661 250.335 185.554 250.335C184.446 250.335 183.575 249.465 183.575 248.357C183.575 247.962 183.654 247.645 183.892 247.328H182.468V288.95L218.866 290.928L217.126 247.328H215.701Z" fill="#E0E0E0"/>
<path d="M215.147 246.221C215.306 246.537 215.464 246.854 215.464 247.249C215.464 248.357 214.594 249.228 213.486 249.228C212.378 249.228 211.508 248.357 211.508 247.249C211.508 246.854 211.587 246.537 211.824 246.221H209.45C209.608 246.537 209.767 246.854 209.767 247.249C209.767 248.357 208.896 249.228 207.788 249.228C206.681 249.228 205.81 248.357 205.81 247.249C205.81 246.854 205.889 246.537 206.127 246.221H203.753C203.911 246.537 204.069 246.854 204.069 247.249C204.069 248.357 203.199 249.228 202.091 249.228C200.983 249.228 200.113 248.357 200.113 247.249C200.113 246.854 200.192 246.537 200.43 246.221H198.056C198.214 246.537 198.372 246.854 198.372 247.249C198.372 248.357 197.502 249.228 196.394 249.228C195.286 249.228 194.416 248.357 194.416 247.249C194.416 246.854 194.495 246.537 194.732 246.221H192.358C192.517 246.537 192.675 246.854 192.675 247.249C192.675 248.357 191.805 249.228 190.697 249.228C189.589 249.228 188.719 248.357 188.719 247.249C188.719 246.854 188.798 246.537 189.035 246.221H186.661C186.82 246.537 186.978 246.854 186.978 247.249C186.978 248.357 186.107 249.228 185 249.228C183.892 249.228 183.021 248.357 183.021 247.249C183.021 246.854 183.1 246.537 183.338 246.221H181.914V287.842H216.572V246.221H215.147Z" fill="#F5F5F5"/>
<path d="M179.144 289.741C179.065 289.741 178.828 279.613 178.669 267.19C178.511 254.767 178.511 244.638 178.669 244.638C178.749 244.638 178.986 254.687 179.144 267.19C179.223 279.613 179.223 289.741 179.144 289.741Z" fill="#E0E0E0"/>
<path d="M184.683 289.662C184.604 289.662 184.367 279.534 184.209 267.111C184.05 254.687 184.05 244.559 184.209 244.559C184.288 244.559 184.525 254.608 184.683 267.111C184.842 279.613 184.842 289.662 184.683 289.662Z" fill="#E0E0E0"/>
<path d="M187.453 289.662C187.373 289.662 187.136 279.534 186.978 267.111C186.82 254.687 186.82 244.559 186.978 244.559C187.057 244.559 187.294 254.608 187.453 267.111C187.611 279.613 187.611 289.662 187.453 289.662Z" fill="#E0E0E0"/>
<path d="M193.071 289.662C192.992 289.662 192.754 279.534 192.596 267.111C192.438 254.687 192.438 244.559 192.596 244.559C192.675 244.559 192.913 254.608 193.071 267.111C193.229 279.613 193.229 289.662 193.071 289.662Z" fill="#E0E0E0"/>
<path d="M198.768 289.662C198.689 289.662 198.452 279.534 198.293 267.111C198.135 254.687 198.135 244.559 198.293 244.559C198.372 244.559 198.61 254.608 198.768 267.111C198.847 279.613 198.847 289.662 198.768 289.662Z" fill="#E0E0E0"/>
<path d="M204.386 289.662C204.307 289.662 204.07 279.534 203.911 267.111C203.753 254.687 203.753 244.559 203.911 244.559C203.991 244.559 204.228 254.608 204.386 267.111C204.465 279.613 204.465 289.662 204.386 289.662Z" fill="#E0E0E0"/>
<path d="M209.688 289.662C209.609 289.662 209.371 279.534 209.213 267.111C209.055 254.687 209.055 244.559 209.213 244.559C209.292 244.559 209.529 254.608 209.688 267.111C209.767 279.613 209.846 289.662 209.688 289.662Z" fill="#E0E0E0"/>
<path d="M215.068 289.662C214.989 289.662 214.752 279.534 214.594 267.111C214.435 254.687 214.435 244.559 214.594 244.559C214.673 244.559 214.91 254.608 215.068 267.111C215.147 279.613 215.147 289.662 215.068 289.662Z" fill="#E0E0E0"/>
<path d="M190.301 289.662C190.222 289.662 189.985 279.534 189.826 267.111C189.668 254.687 189.668 244.559 189.826 244.559C189.906 244.559 190.143 254.608 190.301 267.111C190.38 279.534 190.38 289.662 190.301 289.662Z" fill="#E0E0E0"/>
<path d="M195.84 289.583C195.761 289.583 195.524 279.455 195.366 267.032C195.207 254.608 195.207 244.48 195.366 244.48C195.445 244.48 195.682 254.529 195.84 267.032C195.919 279.455 195.999 289.583 195.84 289.583Z" fill="#E0E0E0"/>
<path d="M201.379 289.504C201.3 289.504 201.063 279.376 200.904 266.952C200.746 254.529 200.746 244.401 200.904 244.401C200.983 244.401 201.221 254.45 201.379 266.952C201.537 279.455 201.537 289.504 201.379 289.504Z" fill="#E0E0E0"/>
<path d="M206.997 289.425C206.918 289.425 206.681 279.296 206.523 266.873C206.364 254.45 206.364 244.322 206.523 244.322C206.602 244.322 206.839 254.371 206.997 266.873C207.076 279.376 207.076 289.425 206.997 289.425Z" fill="#E0E0E0"/>
<path d="M212.299 289.741C212.22 289.741 211.983 279.613 211.824 267.19C211.666 254.767 211.666 244.638 211.824 244.638C211.903 244.638 212.141 254.687 212.299 267.19C212.457 279.613 212.457 289.741 212.299 289.741Z" fill="#E0E0E0"/>
<path d="M218.155 289.346C218.075 289.346 217.838 279.217 217.68 266.794C217.521 254.371 217.521 244.243 217.68 244.243C217.759 244.243 217.996 254.292 218.155 266.794C218.234 279.217 218.234 289.346 218.155 289.346Z" fill="#E0E0E0"/>
<path d="M224.089 284.044C224.089 284.123 213.961 284.361 201.538 284.44C189.114 284.598 178.986 284.598 178.986 284.44C178.986 284.361 189.035 284.123 201.538 284.044C214.04 283.965 224.089 283.965 224.089 284.044Z" fill="#E0E0E0"/>
<path d="M224.326 286.893C224.326 286.972 214.198 287.209 201.775 287.288C189.352 287.447 179.223 287.447 179.223 287.288C179.223 287.209 189.273 286.972 201.775 286.893C214.198 286.814 224.326 286.814 224.326 286.893Z" fill="#E0E0E0"/>
<path d="M224.01 278.505C224.01 278.584 213.881 278.822 201.458 278.901C189.035 279.059 178.907 279.059 178.907 278.901C178.907 278.822 188.956 278.584 201.458 278.505C213.961 278.347 224.01 278.347 224.01 278.505Z" fill="#E0E0E0"/>
<path d="M224.01 272.887C224.01 272.966 213.881 273.203 201.458 273.283C189.035 273.441 178.907 273.441 178.907 273.283C178.907 273.203 188.956 272.966 201.458 272.887C213.881 272.808 224.01 272.808 224.01 272.887Z" fill="#E0E0E0"/>
<path d="M223.931 267.348C223.931 267.427 213.802 267.665 201.379 267.744C188.956 267.902 178.828 267.902 178.828 267.744C178.828 267.665 188.877 267.427 201.379 267.348C213.802 267.269 223.931 267.269 223.931 267.348Z" fill="#E0E0E0"/>
<path d="M223.852 261.809C223.852 261.888 213.723 262.126 201.3 262.205C188.877 262.363 178.749 262.363 178.749 262.205C178.749 262.126 188.798 261.888 201.3 261.809C213.802 261.651 223.852 261.651 223.852 261.809Z" fill="#E0E0E0"/>
<path d="M223.852 256.191C223.852 256.27 213.723 256.507 201.3 256.587C188.877 256.745 178.749 256.745 178.749 256.587C178.749 256.507 188.798 256.27 201.3 256.191C213.723 256.112 223.852 256.112 223.852 256.191Z" fill="#E0E0E0"/>
<path d="M223.773 250.652C223.773 250.731 213.644 250.969 201.221 251.048C188.798 251.206 178.669 251.206 178.669 251.048C178.669 250.969 188.719 250.731 201.221 250.652C213.644 250.573 223.773 250.573 223.773 250.652Z" fill="#E0E0E0"/>
<path d="M223.773 248.436C223.773 248.515 213.644 248.753 201.221 248.832C188.798 248.99 178.669 248.99 178.669 248.832C178.669 248.753 188.719 248.515 201.221 248.436C213.644 248.278 223.773 248.278 223.773 248.436Z" fill="#E0E0E0"/>
<path d="M223.773 253.501C223.773 253.58 213.644 253.817 201.221 253.896C188.798 254.055 178.669 254.055 178.669 253.896C178.669 253.817 188.719 253.58 201.221 253.501C213.644 253.422 223.773 253.422 223.773 253.501Z" fill="#E0E0E0"/>
<path d="M223.773 259.04C223.773 259.119 213.644 259.356 201.221 259.435C188.798 259.593 178.669 259.593 178.669 259.435C178.669 259.356 188.719 259.119 201.221 259.04C213.644 258.881 223.773 258.881 223.773 259.04Z" fill="#E0E0E0"/>
<path d="M223.773 264.579C223.773 264.658 213.644 264.895 201.221 264.974C188.798 265.133 178.669 265.133 178.669 264.974C178.669 264.895 188.719 264.658 201.221 264.579C213.644 264.42 223.773 264.42 223.773 264.579Z" fill="#E0E0E0"/>
<path d="M223.773 270.038C223.773 270.117 213.644 270.355 201.221 270.434C188.798 270.592 178.669 270.592 178.669 270.434C178.669 270.355 188.719 270.117 201.221 270.038C213.644 269.959 223.773 269.959 223.773 270.038Z" fill="#E0E0E0"/>
<path d="M223.773 275.577C223.773 275.657 213.644 275.894 201.221 275.973C188.798 276.131 178.669 276.131 178.669 275.973C178.669 275.894 188.719 275.657 201.221 275.577C213.644 275.498 223.773 275.498 223.773 275.577Z" fill="#E0E0E0"/>
<path d="M223.773 281.116C223.773 281.195 213.644 281.433 201.221 281.512C188.798 281.67 178.669 281.67 178.669 281.512C178.669 281.433 188.719 281.195 201.221 281.116C213.644 281.037 223.773 281.037 223.773 281.116Z" fill="#E0E0E0"/>
<path d="M196.236 252.235C196.473 253.501 197.027 254.688 198.056 255.4C199.243 256.191 200.984 256.112 202.012 255.162C203.12 254.213 203.437 252.551 202.803 251.285C202.17 250.019 200.588 249.228 199.243 249.544" fill="#E0E0E0"/>
<path d="M196.157 252.235C196.236 253.659 197.423 254.767 198.847 254.688C200.271 254.609 201.379 253.422 201.3 251.997C201.221 250.573 200.034 249.465 198.61 249.544C197.185 249.544 196.077 250.81 196.157 252.235Z" fill="#E8505B"/>
<path d="M194.653 251.207C194.732 252.078 195.445 252.711 196.315 252.711C197.185 252.632 197.818 251.92 197.818 251.049C197.739 250.179 197.027 249.546 196.157 249.546C195.286 249.625 194.653 250.416 194.653 251.207Z" fill="#E8505B"/>
<path d="M196.157 252.709C196.157 252.63 196.394 252.63 196.711 252.551C197.027 252.472 197.423 252.156 197.581 251.681C197.739 251.206 197.581 250.731 197.423 250.415C197.265 250.098 197.106 249.94 197.106 249.94C197.106 249.861 197.423 249.94 197.66 250.256C197.898 250.573 198.135 251.127 197.898 251.76C197.66 252.393 197.106 252.709 196.711 252.789C196.315 252.868 196.078 252.709 196.157 252.709Z" fill="#263238"/>
<path d="M197.423 250.177C197.502 250.098 197.898 250.177 198.293 250.098C198.768 250.019 199.005 249.703 199.164 249.782C199.243 249.861 199.005 250.336 198.451 250.494C197.739 250.652 197.344 250.256 197.423 250.177Z" fill="#263238"/>
<path d="M197.818 254.134C197.739 254.134 197.581 253.659 197.185 253.263C196.79 252.868 196.315 252.789 196.315 252.71C196.315 252.63 196.948 252.472 197.502 253.026C198.056 253.501 197.898 254.134 197.818 254.134Z" fill="#263238"/>
<path d="M212.062 261.097C212.062 261.176 206.523 261.334 199.718 261.334C192.913 261.334 187.374 261.255 187.374 261.097C187.374 260.939 192.913 260.859 199.718 260.859C206.523 260.859 212.062 260.939 212.062 261.097Z" fill="#263238"/>
<path d="M212.062 263.629C212.062 263.708 206.523 263.866 199.718 263.866C192.913 263.866 187.374 263.787 187.374 263.629C187.374 263.55 192.913 263.392 199.718 263.392C206.523 263.392 212.062 263.55 212.062 263.629Z" fill="#263238"/>
<path d="M212.062 266.161C212.062 266.24 206.523 266.398 199.718 266.398C192.913 266.398 187.374 266.319 187.374 266.161C187.374 266.082 192.913 265.924 199.718 265.924C206.523 266.003 212.062 266.082 212.062 266.161Z" fill="#263238"/>
<path d="M212.062 268.772C212.062 268.852 206.523 269.01 199.718 269.01C192.913 269.01 187.374 268.931 187.374 268.772C187.374 268.693 192.913 268.535 199.718 268.535C206.523 268.535 212.062 268.693 212.062 268.772Z" fill="#263238"/>
<path d="M212.062 271.304C212.062 271.384 206.523 271.542 199.718 271.542C192.913 271.542 187.374 271.463 187.374 271.304C187.374 271.225 192.913 271.067 199.718 271.067C206.523 271.146 212.062 271.225 212.062 271.304Z" fill="#263238"/>
<path d="M212.062 273.916C212.062 273.995 206.523 274.153 199.718 274.153C192.913 274.153 187.374 274.074 187.374 273.916C187.374 273.757 192.913 273.678 199.718 273.678C206.523 273.678 212.062 273.757 212.062 273.916Z" fill="#263238"/>
<path d="M212.062 276.448C212.062 276.527 206.523 276.685 199.718 276.685C192.913 276.685 187.374 276.606 187.374 276.448C187.374 276.289 192.913 276.21 199.718 276.21C206.523 276.289 212.062 276.369 212.062 276.448Z" fill="#263238"/>
<path d="M173.975 394.824C173.579 394.824 173.263 394.586 173.183 394.191L145.014 286.972C144.935 286.497 145.172 286.023 145.647 285.943C146.122 285.864 146.596 286.102 146.675 286.576L174.845 393.795C174.924 394.27 174.687 394.745 174.212 394.824C174.133 394.824 174.054 394.824 173.975 394.824Z" fill="#263238"/>
<path d="M166.537 397.435C166.141 397.435 165.825 397.198 165.745 396.802L137.655 289.583C137.576 289.108 137.813 288.634 138.288 288.555C138.763 288.396 139.237 288.713 139.317 289.188L167.407 396.406C167.565 396.881 167.249 397.356 166.774 397.435C166.695 397.435 166.616 397.435 166.537 397.435Z" fill="#263238"/>
<path d="M140.978 284.915L139.633 283.965L211.877 186.717L277.791 199.377L277.474 201.039L212.589 188.616L140.978 284.915Z" fill="#263238"/>
<path d="M216.943 189.798L145.885 285.763L147.221 286.752L218.278 190.786L216.943 189.798Z" fill="#263238"/>
<path d="M210.057 191.227C210.927 193.759 213.618 195.025 216.15 194.234C218.682 193.363 219.948 190.673 219.157 188.141C218.286 185.609 215.596 184.343 213.064 185.134C210.532 186.005 209.266 188.695 210.057 191.227Z" fill="#E8505B"/>
<path d="M274.626 193.917L273.439 187.033L278.582 186.638L278.899 193.284L274.626 193.917Z" fill="#E8505B"/>
<g opacity="0.3">
<g opacity="0.3">
<path opacity="0.3" d="M274.626 193.917L273.439 187.033L278.582 186.638L278.899 193.284L274.626 193.917Z" fill="black"/>
</g>
</g>
<path d="M270.511 193.442L265.764 218.922L253.894 252.63L320.837 242.977L293.854 213.541L282.539 191.702L270.511 193.442Z" fill="#7F81D7"/>
<path d="M136.31 287.763C136.31 290.691 138.683 293.065 141.611 293.065C144.539 293.065 146.913 290.691 146.913 287.763C146.913 284.836 144.539 282.462 141.611 282.462C138.683 282.462 136.31 284.836 136.31 287.763Z" fill="#7F81D7"/>
<path d="M152.847 416.267C152.847 415.951 152.768 415.555 152.768 415.239C152.768 403.528 162.264 394.032 173.975 394.032C185.686 394.032 195.181 403.528 195.181 415.239C195.181 415.634 195.181 415.951 195.102 416.267H152.847Z" fill="#7F81D7"/>
<path d="M245.612 408.276C245.375 408.355 244.267 409.463 245.85 411.282C247.432 413.102 257.007 418.008 258.827 415.081C260.567 412.153 256.294 410.096 256.294 410.096L245.612 408.276Z" fill="#FFBE9D"/>
<path d="M256.136 405.111C256.136 405.111 266.027 404.003 270.063 404.557C274.415 405.111 279.083 402.895 281.853 399.888C284.622 396.881 285.334 392.925 285.334 392.925L291.665 388.494C291.665 388.494 292.377 373.538 282.407 375.912L270.775 376.308C270.775 376.308 247.828 380.106 244.267 382.955C244.267 382.955 239.915 387.148 238.649 388.81C238.174 389.443 237.778 395.615 242.13 397.673C242.13 397.673 239.519 400.996 241.814 402.816L242.922 403.607C242.922 403.607 241.418 406.931 242.843 407.88C244.267 408.83 255.266 412.153 258.352 410.017C261.438 407.88 257.798 405.348 256.136 405.111Z" fill="#FFBE9D"/>
<path d="M243.792 397.119C243.792 397.119 244.267 397.119 245.058 397.277C245.85 397.356 247.116 397.514 248.619 397.673C249.331 397.752 250.202 397.752 251.072 397.752C251.942 397.752 252.892 397.752 253.921 397.831C254.949 397.91 255.978 398.147 256.928 398.78C257.798 399.413 258.589 400.521 258.431 401.866C258.352 402.499 257.956 403.053 257.561 403.449C257.086 403.845 256.611 404.082 256.057 404.319C255.028 404.715 253.921 404.794 252.971 404.873C250.993 405.031 249.173 404.952 247.67 404.794C246.166 404.636 244.979 404.398 244.188 404.319C243.397 404.161 242.922 404.082 242.922 404.082C242.922 404.082 243.397 404.082 244.188 404.161C245.058 404.24 246.245 404.398 247.749 404.557C249.252 404.715 250.993 404.794 252.971 404.557C253.921 404.478 254.949 404.319 255.978 404.003C256.453 403.845 256.928 403.607 257.323 403.212C257.719 402.895 258.035 402.42 258.035 401.866C258.194 400.838 257.561 399.809 256.69 399.176C255.899 398.543 254.791 398.385 253.842 398.306C252.892 398.226 251.942 398.226 251.072 398.226C250.202 398.226 249.331 398.147 248.619 398.068C247.116 397.91 245.929 397.752 245.058 397.593C244.267 397.277 243.792 397.198 243.792 397.119Z" fill="#EB996E"/>
<path d="M243.001 389.997C243.001 389.997 243.476 389.997 244.267 390.155C245.058 390.234 246.324 390.393 247.749 390.551C249.252 390.709 250.993 390.788 252.971 390.788C253.921 390.788 255.028 390.709 256.057 391.263C256.532 391.5 257.007 391.975 257.244 392.529C257.481 393.083 257.481 393.716 257.402 394.27C257.165 395.457 256.374 396.406 255.424 397.039C254.475 397.672 253.446 397.91 252.417 397.989C250.439 398.147 248.619 397.831 247.116 397.752C245.691 397.593 244.504 397.514 243.634 397.356C242.843 397.277 242.368 397.198 242.368 397.198C242.368 397.198 242.843 397.198 243.634 397.198C244.504 397.277 245.691 397.356 247.195 397.435C248.698 397.514 250.439 397.752 252.417 397.593C253.367 397.514 254.395 397.198 255.266 396.644C256.136 396.09 256.848 395.219 257.086 394.191C257.323 393.162 256.848 391.975 255.978 391.58C255.108 391.105 254 391.184 253.05 391.105C251.072 391.105 249.252 390.946 247.828 390.788C246.324 390.63 245.137 390.393 244.346 390.234C243.476 390.155 243.001 389.997 243.001 389.997Z" fill="#EB996E"/>
<path d="M248.144 390.867C248.065 390.867 247.749 389.997 247.274 389.047C246.799 388.098 246.245 387.307 246.324 387.227C246.403 387.148 247.116 387.781 247.669 388.81C248.144 389.918 248.223 390.867 248.144 390.867Z" fill="#EB996E"/>
<path d="M278.371 376.545L269.034 375.279C269.034 375.279 242.605 369.898 242.368 370.61C242.131 371.323 240.785 371.56 241.814 374.409C242.764 377.257 258.035 379.789 258.747 380.66C259.46 381.53 259.934 386.832 265.869 389.206C271.883 391.579 275.602 390.788 275.602 390.788" fill="#FFBE9D"/>
<path d="M275.523 390.788C275.523 390.788 275.444 390.788 275.285 390.867C275.127 390.867 274.969 390.947 274.652 390.947C274.098 391.026 273.307 391.026 272.278 390.947C271.25 390.867 269.984 390.709 268.639 390.314C267.214 389.918 265.632 389.443 264.049 388.494C262.467 387.623 260.963 386.12 259.934 384.221C259.381 383.271 259.064 382.163 258.668 381.135C258.589 380.976 258.589 380.897 258.51 380.818C258.431 380.739 258.352 380.739 258.194 380.66C257.956 380.581 257.64 380.502 257.402 380.343C256.848 380.185 256.295 380.027 255.661 379.869C253.367 379.236 250.914 378.682 248.382 377.97C247.116 377.574 245.85 377.178 244.584 376.704C243.951 376.466 243.317 376.15 242.684 375.754C242.368 375.596 242.131 375.358 241.814 375.121C241.656 374.963 241.577 374.804 241.498 374.646C241.418 374.488 241.418 374.33 241.339 374.171C241.181 373.459 241.023 372.747 241.181 372.035C241.26 371.639 241.498 371.323 241.735 371.085C241.814 370.927 241.972 370.848 241.972 370.69C241.972 370.69 241.972 370.69 242.051 370.611C242.131 370.531 242.21 370.531 242.21 370.531C242.289 370.531 242.289 370.531 242.368 370.531C242.447 370.531 242.526 370.531 242.605 370.531C243.951 370.611 245.296 370.848 246.562 371.085C249.173 371.481 251.626 371.956 254 372.431C258.747 373.301 262.941 374.171 266.581 374.884C267.452 375.042 268.322 375.279 269.113 375.358C269.905 375.437 270.696 375.596 271.408 375.675C272.832 375.912 274.098 376.07 275.048 376.229C275.997 376.387 276.789 376.466 277.343 376.545C277.58 376.624 277.817 376.624 277.976 376.624C278.134 376.624 278.213 376.704 278.213 376.704C278.213 376.704 278.134 376.704 277.976 376.704C277.817 376.704 277.58 376.704 277.343 376.624C276.789 376.545 275.997 376.466 275.048 376.387C274.019 376.229 272.753 376.07 271.329 375.912C270.617 375.833 269.825 375.754 269.034 375.596C268.243 375.437 267.372 375.279 266.502 375.121C262.941 374.409 258.668 373.618 253.921 372.747C251.547 372.272 249.094 371.877 246.483 371.402C245.217 371.165 243.871 371.006 242.526 370.927C242.447 370.927 242.368 370.927 242.289 370.927H242.21C242.131 370.848 242.21 370.848 242.21 370.848C242.526 370.927 242.289 370.927 242.368 370.927C242.289 371.085 242.131 371.244 242.051 371.402C241.814 371.639 241.656 371.877 241.577 372.193C241.418 372.747 241.498 373.459 241.735 374.092C241.814 374.409 241.893 374.725 242.131 374.963C242.368 375.2 242.605 375.358 242.922 375.596C243.476 375.912 244.109 376.229 244.742 376.466C246.008 376.941 247.274 377.416 248.461 377.732C250.993 378.444 253.446 379.077 255.741 379.71C256.295 379.869 256.928 380.027 257.481 380.185C257.798 380.264 258.035 380.343 258.352 380.502C258.51 380.581 258.668 380.66 258.747 380.818C258.827 380.976 258.906 381.135 258.985 381.214C259.381 382.322 259.697 383.35 260.251 384.3C261.2 386.199 262.625 387.623 264.207 388.494C265.79 389.364 267.372 389.918 268.718 390.314C270.063 390.709 271.329 390.947 272.358 391.026C273.386 391.105 274.177 391.105 274.652 391.105C274.89 391.105 275.127 391.105 275.285 391.026C275.444 390.788 275.523 390.788 275.523 390.788Z" fill="#EB996E"/>
<path d="M253.288 404.636C253.288 404.636 253.604 404.636 254.237 404.715C254.87 404.794 255.741 405.031 256.769 405.506C257.244 405.744 257.798 406.06 258.352 406.456C258.906 406.851 259.46 407.484 259.539 408.276C259.618 409.146 259.064 409.937 258.352 410.333C257.64 410.808 256.69 410.887 255.82 410.887C252.417 410.649 249.331 410.175 247.195 409.621C246.087 409.304 245.217 409.067 244.663 408.83C244.109 408.592 243.792 408.434 243.792 408.434C243.792 408.434 244.109 408.513 244.742 408.671C245.375 408.83 246.245 409.067 247.274 409.304C249.41 409.779 252.496 410.254 255.82 410.412C256.611 410.412 257.481 410.333 258.114 409.937C258.747 409.542 259.222 408.909 259.143 408.197C259.064 407.563 258.589 407.01 258.114 406.614C257.64 406.218 257.086 405.902 256.611 405.664C254.712 404.794 253.288 404.715 253.288 404.636Z" fill="#EB996E"/>
<path d="M322.05 350.67C322.05 350.67 333.761 331.363 336.372 318.623C338.983 305.884 352.593 285.706 357.025 280.404C361.377 275.103 378.943 269.01 378.943 269.01L385.432 265.528L435.599 261.097C435.599 261.097 468.991 264.579 479.04 273.837C489.169 283.095 497.002 304.143 497.002 314.667C497.002 325.191 507.21 416.426 507.21 416.426L383.612 416.268L386.381 371.244C386.381 371.244 371.426 361.115 367.469 352.332C363.513 343.549 365.729 347.98 365.729 347.98C365.729 347.98 351.723 377.732 346.896 381.293C342.069 384.775 285.967 402.024 285.967 402.024L278.292 372.589L322.05 350.67Z" fill="#A8AAFF"/>
<path d="M468.041 277.556C466.696 277.951 449.921 321.235 448.734 325.191C447.547 329.147 448.734 353.914 448.734 353.914L454.273 364.122C454.273 364.122 452.691 371.56 453.877 375.121L429.11 379.869C429.11 379.869 422.78 375.516 416.925 379.869L387.726 382.322C387.726 382.322 396.272 382.401 393.74 395.615C391.208 408.513 389.309 411.362 389.309 411.362L492.096 408.988C492.096 408.988 503.491 408.434 501.75 386.436C500.009 364.518 495.103 303.905 495.103 303.905C495.103 303.905 487.586 271.463 468.041 277.556Z" fill="#A8AAFF"/>
<path d="M448.497 350.354C448.497 350.354 448.418 350.195 448.259 349.8C448.101 349.404 447.864 348.85 447.626 348.217C447.389 347.505 446.993 346.714 446.677 345.685C446.36 344.736 445.965 343.628 445.569 342.362C445.173 341.096 444.778 339.751 444.461 338.247C444.066 336.744 443.749 335.161 443.433 333.42C442.879 330.018 442.404 326.22 442.246 322.263C442.087 318.307 442.246 314.509 442.562 311.027C442.8 309.286 442.958 307.704 443.195 306.2C443.353 305.409 443.433 304.697 443.591 303.985C443.749 303.272 443.907 302.639 443.986 302.006C444.224 300.74 444.54 299.553 444.857 298.604C445.094 297.575 445.332 296.784 445.569 296.072C445.806 295.439 445.965 294.885 446.123 294.489C446.281 294.094 446.281 293.935 446.36 293.935C446.36 293.935 446.36 294.173 446.202 294.489C446.123 294.885 445.965 295.439 445.727 296.072C445.49 296.784 445.253 297.654 445.094 298.604C444.857 299.633 444.54 300.74 444.303 302.006C444.145 302.639 444.066 303.272 443.907 303.985C443.749 304.697 443.67 305.409 443.591 306.2C443.353 307.704 443.195 309.365 442.958 311.027C442.641 314.43 442.483 318.228 442.641 322.184C442.8 326.14 443.274 329.86 443.828 333.262C444.145 334.924 444.461 336.585 444.778 338.01C445.094 339.513 445.49 340.858 445.806 342.124C446.123 343.39 446.519 344.498 446.835 345.448C447.152 346.476 447.468 347.268 447.706 347.98C447.943 348.613 448.101 349.167 448.259 349.562C448.497 350.195 448.497 350.354 448.497 350.354Z" fill="#263238"/>
<path d="M484.263 397.277C484.263 397.277 484.184 397.198 484.025 396.96C483.867 396.723 483.63 396.406 483.313 396.09C482.997 395.694 482.68 395.22 482.205 394.666C481.731 394.112 481.256 393.479 480.702 392.846C480.148 392.213 479.515 391.421 478.724 390.709C478.012 389.918 477.22 389.206 476.35 388.414C474.609 386.832 472.631 385.249 470.415 383.667C468.2 382.163 465.984 380.897 463.927 379.79C462.898 379.315 461.87 378.761 460.92 378.365C459.97 377.97 459.1 377.574 458.23 377.337C457.438 377.02 456.647 376.783 456.014 376.545C455.381 376.308 454.748 376.15 454.273 375.991C453.798 375.833 453.482 375.754 453.165 375.675C452.928 375.596 452.77 375.517 452.77 375.517C452.77 375.517 452.928 375.517 453.165 375.596C453.482 375.675 453.798 375.754 454.273 375.833C454.748 375.912 455.381 376.07 456.014 376.308C456.726 376.545 457.438 376.704 458.309 377.02C459.179 377.337 460.05 377.653 460.999 378.049C461.949 378.444 462.977 378.919 464.006 379.394C466.142 380.423 468.358 381.689 470.574 383.271C472.789 384.854 474.767 386.436 476.508 388.098C477.379 388.889 478.17 389.681 478.882 390.472C479.594 391.263 480.227 391.975 480.781 392.687C481.335 393.32 481.81 394.033 482.285 394.586C482.68 395.14 483.076 395.615 483.313 396.09C483.551 396.486 483.788 396.802 483.946 397.039C484.184 397.119 484.263 397.277 484.263 397.277Z" fill="#263238"/>
<path d="M492.888 391.5C492.808 391.58 491.938 390.551 490.197 389.127C489.327 388.414 488.298 387.702 487.032 386.911C485.766 386.199 484.342 385.487 482.759 384.854C481.177 384.3 479.594 383.825 478.17 383.588C476.745 383.35 475.4 383.192 474.292 383.113C472.077 383.034 470.732 383.192 470.732 383.113C470.732 383.113 471.048 383.034 471.681 382.955C471.998 382.876 472.393 382.876 472.789 382.876C473.264 382.876 473.739 382.796 474.292 382.876C475.4 382.876 476.745 383.034 478.17 383.271C479.594 383.509 481.177 383.983 482.838 384.537C484.421 385.17 485.924 385.882 487.19 386.674C488.456 387.465 489.485 388.256 490.355 388.968C490.83 389.285 491.147 389.681 491.463 389.997C491.78 390.314 492.017 390.551 492.255 390.788C492.729 391.184 492.967 391.5 492.888 391.5Z" fill="#263238"/>
<path d="M483.392 377.02C483.313 377.099 482.126 376.15 479.911 375.042C479.357 374.804 478.724 374.488 478.091 374.25C477.458 373.934 476.666 373.776 475.875 373.538C474.293 373.143 472.552 372.747 470.653 372.589C468.754 372.51 467.013 372.589 465.351 372.747C464.56 372.905 463.769 372.984 463.056 373.222C462.344 373.38 461.711 373.538 461.078 373.776C458.704 374.567 457.438 375.358 457.359 375.279C457.359 375.279 457.676 375.042 458.309 374.725C458.625 374.567 459.021 374.33 459.416 374.171C459.891 374.013 460.366 373.697 460.999 373.538C461.553 373.301 462.265 373.064 462.977 372.905C463.689 372.668 464.481 372.589 465.272 372.431C466.934 372.193 468.754 372.114 470.653 372.193C472.552 372.351 474.372 372.668 475.954 373.143C476.746 373.38 477.458 373.617 478.17 373.934C478.882 374.171 479.436 374.488 479.99 374.804C480.544 375.042 481.018 375.358 481.414 375.675C481.81 375.912 482.205 376.15 482.443 376.387C483.155 376.783 483.392 377.02 483.392 377.02Z" fill="#263238"/>
<path d="M423.334 409.463C423.255 409.463 423.888 407.801 424.046 405.031C424.204 403.686 424.125 402.025 424.046 400.205C423.888 398.385 423.492 396.406 423.017 394.349C422.464 392.292 421.751 390.472 421.039 388.731C420.248 387.069 419.457 385.645 418.665 384.537C417.162 382.242 415.817 381.135 415.896 381.056C415.896 381.056 416.212 381.293 416.766 381.847C417.083 382.084 417.399 382.48 417.716 382.875C417.874 383.113 418.111 383.35 418.27 383.588C418.428 383.825 418.665 384.142 418.824 384.379C419.694 385.487 420.485 386.99 421.277 388.573C422.068 390.234 422.78 392.133 423.334 394.191C423.888 396.248 424.204 398.226 424.363 400.125C424.521 401.945 424.521 403.607 424.283 405.031C424.283 405.348 424.204 405.744 424.204 405.981C424.125 406.297 424.125 406.614 424.046 406.851C423.967 407.405 423.809 407.88 423.73 408.197C423.492 409.067 423.334 409.463 423.334 409.463Z" fill="#263238"/>
<path d="M406.084 379.789C406.084 379.789 406.084 379.71 406.005 379.552C406.005 379.394 405.926 379.156 405.926 378.84C405.847 378.207 405.688 377.336 405.53 376.229C405.214 373.934 404.818 370.69 404.264 366.654C403.315 358.504 402.128 347.268 401.178 334.845C400.308 322.421 399.833 311.106 399.595 302.956C399.516 298.841 399.437 295.597 399.437 293.302C399.437 292.194 399.437 291.324 399.437 290.691C399.437 290.374 399.437 290.216 399.437 289.979C399.437 289.821 399.437 289.741 399.437 289.741C399.437 289.741 399.437 289.821 399.437 289.979C399.437 290.137 399.437 290.374 399.437 290.691C399.437 291.324 399.516 292.194 399.516 293.302C399.596 295.597 399.675 298.92 399.833 302.956C400.149 311.106 400.624 322.421 401.574 334.845C402.444 347.268 403.631 358.504 404.501 366.654C404.976 370.69 405.372 373.934 405.609 376.229C405.768 377.336 405.847 378.207 405.926 378.84C405.926 379.156 406.005 379.315 406.005 379.552C406.084 379.71 406.084 379.789 406.084 379.789Z" fill="#263238"/>
<path d="M365.729 348.613C365.729 348.613 365.491 348.217 365.175 347.426C364.858 346.635 364.384 345.527 363.83 344.102C362.643 341.333 360.902 337.535 358.766 333.341C356.629 329.226 354.73 325.586 353.306 322.817C352.593 321.472 352.04 320.364 351.723 319.573C351.327 318.781 351.169 318.386 351.169 318.386C351.169 318.386 351.407 318.781 351.881 319.494C352.356 320.285 352.91 321.393 353.622 322.659C355.046 325.349 357.104 328.989 359.24 333.183C361.377 337.297 363.118 341.175 364.225 344.023C364.779 345.448 365.254 346.555 365.491 347.426C365.65 348.138 365.729 348.613 365.729 348.613Z" fill="#263238"/>
<path d="M359.398 333.974C359.398 333.974 359.161 333.974 358.686 333.816C358.211 333.737 357.578 333.5 356.787 333.262C355.205 332.708 353.068 331.917 350.773 330.809C348.479 329.701 346.5 328.435 345.155 327.486C344.443 327.011 343.889 326.615 343.573 326.299C343.177 325.982 343.019 325.824 343.019 325.824C343.019 325.745 343.889 326.378 345.314 327.248C346.738 328.119 348.716 329.306 351.011 330.414C353.305 331.521 355.442 332.392 356.945 333.025C358.449 333.579 359.398 333.895 359.398 333.974Z" fill="#263238"/>
<path d="M348.795 361.036C348.795 361.036 348.479 360.878 347.925 360.482C347.371 360.086 346.659 359.612 345.63 359.058C343.652 357.871 340.882 356.367 337.638 355.181C334.394 353.994 331.308 353.281 329.092 352.886C327.984 352.728 327.035 352.569 326.402 352.49C325.769 352.411 325.452 352.332 325.452 352.332C325.452 352.332 325.769 352.332 326.481 352.332C327.114 352.332 328.064 352.411 329.171 352.569C331.466 352.886 334.552 353.519 337.876 354.785C341.12 356.051 343.968 357.554 345.867 358.82C346.817 359.453 347.608 360.007 348.083 360.403C348.558 360.72 348.795 360.957 348.795 361.036Z" fill="#263238"/>
<path d="M434.333 261.176C434.333 261.176 434.333 261.414 434.254 261.809C434.175 262.284 434.095 262.917 434.016 263.629C433.779 265.212 433.542 267.507 433.067 270.355C432.592 273.204 431.959 276.527 430.851 280.167C429.743 283.807 428.24 287.763 425.866 291.482C424.679 293.461 423.176 295.201 421.751 296.784L421.593 296.942L421.435 296.784C419.298 293.935 416.608 291.878 413.918 290.533C412.573 289.821 411.227 289.425 409.961 289.109C408.695 288.792 407.508 288.634 406.321 288.634C404.106 288.555 402.365 288.95 401.178 289.346C399.991 289.742 399.437 290.058 399.437 289.979C399.437 289.979 399.596 289.9 399.833 289.742C400.149 289.583 400.545 289.346 401.099 289.188C402.286 288.713 404.027 288.317 406.242 288.317C407.35 288.317 408.616 288.475 409.882 288.792C411.148 289.109 412.573 289.583 413.918 290.216C416.687 291.561 419.457 293.619 421.593 296.547H421.277C422.701 294.964 424.125 293.223 425.312 291.324C427.607 287.605 429.189 283.728 430.297 280.167C431.405 276.527 432.038 273.204 432.592 270.355C433.146 267.507 433.462 265.212 433.7 263.629C433.858 262.838 433.937 262.284 434.016 261.809C434.333 261.414 434.333 261.176 434.333 261.176Z" fill="#263238"/>
<path d="M399.516 289.979C399.516 289.979 399.358 289.979 399.042 289.979C398.725 289.979 398.329 289.9 397.776 289.741C396.668 289.504 395.243 288.95 393.503 287.921C392.632 287.447 391.762 286.972 390.575 286.735C389.467 286.497 388.28 286.497 387.014 286.735C384.561 287.209 382.108 289.188 381 291.957L380.605 293.144V291.878C380.605 291.561 380.605 291.245 380.605 290.928C380.684 284.677 380.684 279.059 381 274.944C381.08 272.887 381.317 271.225 381.475 270.118C381.554 269.564 381.633 269.089 381.713 268.852C381.792 268.535 381.792 268.377 381.792 268.377C381.792 268.377 381.713 269.01 381.633 270.118C381.554 271.225 381.396 272.887 381.317 274.944C381.159 279.059 381.159 284.677 381.08 290.928C381.08 291.245 381.08 291.561 381.08 291.878L380.684 291.799C381.792 288.871 384.403 286.893 386.935 286.418C389.546 285.864 391.999 286.655 393.582 287.763C395.243 288.792 396.668 289.425 397.696 289.662C398.962 289.9 399.516 289.979 399.516 289.979Z" fill="#263238"/>
<path d="M427.369 202.622V263.313C427.369 266.795 426.183 270.118 423.888 272.808C420.485 276.844 416.371 280.325 411.702 282.937L399.437 289.821L389.309 280.8C386.302 278.11 384.561 274.391 384.403 270.434C384.245 266.003 384.245 261.572 384.245 261.572C384.245 261.572 367.074 260.306 365.491 243.452C364.7 235.46 364.463 219.159 364.463 204.125C364.383 186.954 377.598 172.711 394.689 171.287L395.164 171.208C412.889 170.654 427.449 184.897 427.369 202.622Z" fill="#F4C9AE"/>
<path d="M384.324 261.176C384.324 261.176 395.085 261.176 405.847 253.105C405.847 253.105 401.653 265.687 384.64 265.608L384.324 261.176Z" fill="#EB996E"/>
<path d="M370.239 215.361C370.318 216.627 371.426 217.656 372.771 217.577C374.116 217.577 375.145 216.469 375.066 215.203C374.987 213.937 373.879 212.908 372.534 212.987C371.189 212.987 370.16 214.095 370.239 215.361Z" fill="#263238"/>
<path d="M368.894 210.851C369.21 211.167 370.951 209.664 373.562 209.427C376.174 209.189 378.152 210.376 378.468 209.98C378.627 209.822 378.231 209.268 377.361 208.714C376.49 208.16 375.066 207.686 373.404 207.844C371.822 208.002 370.476 208.714 369.764 209.347C368.894 210.139 368.656 210.693 368.894 210.851Z" fill="#263238"/>
<path d="M395.006 214.332C395.085 215.598 396.193 216.627 397.538 216.548C398.884 216.548 399.912 215.44 399.833 214.174C399.754 212.908 398.646 211.879 397.301 211.958C395.956 211.958 394.927 213.066 395.006 214.332Z" fill="#263238"/>
<path d="M394.452 209.189C394.769 209.505 396.51 208.002 399.121 207.765C401.732 207.527 403.71 208.714 404.027 208.319C404.185 208.16 403.789 207.606 402.919 207.053C402.049 206.499 400.624 206.024 398.963 206.182C397.38 206.34 396.035 207.053 395.323 207.686C394.531 208.477 394.294 209.031 394.452 209.189Z" fill="#263238"/>
<path d="M386.618 229.288C386.618 229.13 384.957 228.971 382.346 228.892C381.713 228.892 381 228.813 380.921 228.338C380.763 227.863 380.921 227.151 381.238 226.36C381.713 224.698 382.266 222.958 382.82 221.138C384.957 213.7 386.46 207.607 386.144 207.528C385.827 207.448 383.849 213.383 381.713 220.821C381.238 222.641 380.684 224.382 380.288 226.044C380.13 226.835 379.734 227.705 380.13 228.655C380.367 229.13 380.842 229.446 381.317 229.525C381.792 229.604 382.108 229.604 382.425 229.604C384.957 229.525 386.618 229.446 386.618 229.288Z" fill="#263238"/>
<path d="M394.452 230.474C394.057 230.474 394.294 233.323 391.999 235.539C389.784 237.754 386.698 237.675 386.698 238.071C386.698 238.229 387.41 238.546 388.676 238.466C389.942 238.387 391.683 237.833 393.107 236.488C394.452 235.143 395.006 233.481 395.006 232.294C395.006 231.108 394.611 230.395 394.452 230.474Z" fill="#263238"/>
<path d="M392.949 199.061C393.265 199.773 395.797 199.219 398.883 199.298C401.969 199.377 404.502 200.01 404.818 199.377C404.976 199.061 404.502 198.428 403.473 197.795C402.444 197.162 400.783 196.687 398.963 196.608C397.143 196.529 395.481 197.003 394.373 197.557C393.344 198.111 392.791 198.744 392.949 199.061Z" fill="#263238"/>
<path d="M369.21 203.255C369.685 203.808 371.426 203.017 373.641 202.859C375.778 202.542 377.677 202.938 377.994 202.305C378.152 201.989 377.835 201.435 376.965 200.96C376.094 200.485 374.749 200.089 373.325 200.327C371.822 200.485 370.635 201.118 369.922 201.83C369.131 202.305 368.973 202.938 369.21 203.255Z" fill="#263238"/>
<path d="M407.508 185.609L407.587 185.688C410.436 187.587 412.493 190.515 413.285 193.918C413.285 193.997 413.364 194.155 413.364 194.234C414.392 198.982 414.709 203.967 415.817 208.715C416.925 213.462 416.687 217.102 421.514 218.21C424.521 218.922 427.053 217.181 428.161 215.52C428.556 214.887 428.556 214.016 428.556 213.225C428.477 201.514 430.851 196.924 429.822 184.739C429.506 181.415 427.686 178.408 424.837 176.747C422.147 175.164 418.824 173.502 416.133 175.085C413.364 176.668 410.199 182.286 408.141 184.739" fill="#263238"/>
<path d="M422.305 210.772C422.622 210.613 433.621 206.34 434.254 217.972C434.807 229.604 423.096 227.784 423.017 227.468C423.017 227.072 422.305 210.772 422.305 210.772Z" fill="#FFBE9D"/>
<path d="M426.341 222.878C426.42 222.799 426.578 223.037 426.895 223.116C427.211 223.274 427.844 223.353 428.398 223.037C429.585 222.562 430.535 220.504 430.455 218.447C430.455 217.418 430.139 216.39 429.743 215.599C429.348 214.728 428.794 214.174 428.161 214.095C427.528 214.016 427.132 214.412 426.974 214.728C426.816 215.045 426.895 215.282 426.895 215.282C426.895 215.282 426.657 215.124 426.736 214.649C426.736 214.412 426.895 214.174 427.132 213.937C427.369 213.699 427.765 213.541 428.24 213.62C429.11 213.62 429.981 214.412 430.455 215.282C430.93 216.152 431.326 217.26 431.326 218.447C431.405 220.821 430.297 223.037 428.636 223.59C427.844 223.828 427.132 223.67 426.736 223.353C426.42 223.116 426.341 222.878 426.341 222.878Z" fill="#EB996E"/>
<path d="M416.687 176.747C419.14 171.92 410.832 165.906 404.897 164.561C398.963 163.216 391.762 166.618 386.223 168.992C382.741 170.495 379.26 172.395 375.541 172.553C373.008 172.632 370.476 171.92 368.023 171.287C365.57 170.654 363.038 170.021 360.506 170.416C357.974 170.812 355.521 172.395 354.73 174.768C353.939 177.221 355.6 180.307 358.132 180.466C354.809 178.962 350.378 181.653 350.14 185.292C349.903 188.932 354.018 192.177 357.499 191.069C355.759 189.961 353.385 192.256 353.78 194.234C354.176 196.291 356.154 197.636 358.132 198.269C363.117 200.01 368.736 198.823 373.562 196.766C378.389 194.709 382.82 191.702 387.647 189.486C392.474 187.271 400.466 183.314 405.609 184.659C409.407 185.609 412.256 189.882 414.313 188.695C416.212 187.587 417.32 185.372 417.558 183.156C417.637 181.099 417.162 178.883 416.687 176.747Z" fill="#263238"/>
<path d="M356.708 180.307C356.787 180.228 357.341 181.098 358.765 182.365C360.111 183.551 362.326 185.134 365.57 186.004C368.656 186.796 372.85 186.796 376.569 184.659C380.367 182.602 383.453 178.725 387.014 175.085C390.575 171.445 394.927 168.517 399.516 167.726C404.027 166.935 408.379 168.201 410.911 170.654C413.443 173.107 414.155 176.034 414.155 177.933C414.155 178.883 413.997 179.595 413.839 180.07C413.68 180.545 413.522 180.782 413.522 180.782C413.443 180.782 413.839 179.753 413.68 177.933C413.601 176.113 412.731 173.423 410.357 171.287C407.983 169.15 403.948 167.963 399.675 168.834C395.481 169.625 391.287 172.315 387.805 175.955C384.245 179.516 381.079 183.393 377.044 185.609C373.008 187.904 368.577 187.745 365.333 186.796C362.01 185.846 359.794 184.105 358.449 182.76C357.816 182.048 357.341 181.494 357.104 181.019C356.787 180.545 356.708 180.307 356.708 180.307Z" fill="#455A64"/>
<path d="M425.233 209.981C425.233 210.06 424.679 209.664 424.204 208.794C423.65 207.923 423.255 206.499 423.255 204.679C423.176 200.96 426.182 196.687 426.182 191.465C426.262 188.932 425.549 186.479 424.362 184.66C423.096 182.84 421.356 181.811 419.773 181.336C418.19 180.861 416.766 180.94 415.896 181.099C414.946 181.336 414.471 181.574 414.471 181.494C414.471 181.415 414.867 181.02 415.817 180.703C416.766 180.387 418.27 180.07 420.09 180.545C421.83 181.02 423.888 182.048 425.312 184.106C426.736 186.084 427.528 188.774 427.448 191.544C427.448 194.313 426.657 196.845 425.787 199.061C424.995 201.197 424.283 203.175 424.204 204.837C423.729 208.24 425.391 209.981 425.233 209.981Z" fill="#455A64"/>
<path d="M422.622 227.072L420.723 225.331C420.011 224.698 420.011 223.59 420.644 222.957L427.686 215.361C428.319 214.649 429.427 214.649 430.06 215.282L431.959 217.023C432.671 217.656 432.671 218.764 432.038 219.397L424.996 226.993C424.363 227.705 423.334 227.705 422.622 227.072Z" fill="#263238"/>
<path d="M497.24 317.278C497.24 317.278 497.24 317.436 497.319 317.753C497.319 318.069 497.398 318.544 497.398 319.098C497.477 320.285 497.635 322.105 497.794 324.4C498.11 329.068 498.585 335.873 499.139 344.498C499.693 353.123 500.405 363.568 501.196 375.517C501.354 378.523 501.592 381.609 501.829 384.695C501.908 386.278 501.987 387.861 502.067 389.522C502.146 390.314 502.067 391.184 502.067 391.975C501.987 392.766 502.067 393.637 501.908 394.507C501.829 395.378 501.671 396.169 501.592 397.039C501.434 397.91 501.196 398.701 501.038 399.572C500.801 400.363 500.484 401.233 500.247 402.024C499.851 402.816 499.614 403.607 499.139 404.398C497.477 407.484 494.866 410.333 491.305 411.52C468.2 411.52 441.85 411.52 413.918 411.52C405.609 411.52 397.38 411.52 389.388 411.52H389.151L389.23 411.282C389.942 408.592 390.733 405.981 391.445 403.37C391.841 402.024 392.158 400.758 392.553 399.413C392.949 398.147 393.265 396.802 393.503 395.536C393.898 392.925 393.661 390.234 392.791 387.781C392.395 386.595 391.762 385.408 390.971 384.458C390.179 383.508 388.992 382.796 387.805 382.638L386.144 382.401L387.726 382.242C397.934 381.372 407.746 380.581 416.925 379.789H416.846C418.666 378.444 420.96 377.732 423.176 377.89C425.391 377.97 427.449 378.682 429.269 379.869H429.11C438.052 378.207 446.36 376.624 453.878 375.2L453.798 375.358C453.482 374.409 453.403 373.38 453.403 372.431C453.403 371.481 453.403 370.531 453.482 369.582C453.64 367.762 453.878 365.942 454.194 364.201V364.28C452.216 360.561 450.396 357.159 448.734 354.073C448.339 344.973 448.18 337.772 448.259 332.866C448.259 330.413 448.418 328.514 448.497 327.248C448.576 326.615 448.655 326.141 448.734 325.824C448.813 325.508 448.813 325.349 448.813 325.349C448.813 325.349 448.813 325.508 448.734 325.824C448.655 326.141 448.576 326.615 448.576 327.248C448.497 328.514 448.418 330.413 448.418 332.866C448.418 337.772 448.576 344.973 448.972 354.073V353.994C450.633 357.159 452.532 360.482 454.511 364.201V364.28V364.359C454.194 366.021 453.957 367.841 453.798 369.661C453.719 370.611 453.719 371.481 453.719 372.431C453.719 373.38 453.798 374.33 454.115 375.279L454.194 375.437H454.036C446.439 376.862 438.21 378.444 429.269 380.185H429.19H429.11C427.37 379.077 425.312 378.365 423.176 378.286C421.039 378.207 418.903 378.84 417.083 380.185H417.004H416.925C407.667 380.976 397.934 381.768 387.726 382.638V382.242C389.072 382.48 390.258 383.192 391.129 384.221C391.999 385.249 392.632 386.436 393.028 387.702C393.898 390.234 394.136 393.004 393.74 395.694C393.582 397.039 393.186 398.385 392.791 399.651C392.395 400.917 392.078 402.262 391.683 403.607C390.971 406.218 390.179 408.909 389.467 411.52L389.309 411.282C397.301 411.282 405.53 411.282 413.839 411.282C441.771 411.282 468.2 411.362 491.226 411.362H491.147C492.809 410.808 494.391 409.779 495.657 408.592C496.923 407.326 497.952 405.902 498.822 404.398C499.218 403.607 499.535 402.816 499.93 402.024C500.168 401.233 500.484 400.363 500.721 399.572C500.88 398.701 501.117 397.91 501.275 397.119C501.354 396.248 501.513 395.457 501.592 394.666C501.75 393.874 501.671 393.004 501.75 392.213C501.75 391.421 501.829 390.551 501.75 389.76C501.671 388.177 501.592 386.515 501.513 384.933C501.275 381.768 501.117 378.682 500.959 375.675C500.168 363.726 499.535 353.282 498.981 344.657C498.427 336.032 498.031 329.227 497.715 324.558C497.556 322.263 497.477 320.443 497.398 319.256C497.398 318.623 497.319 318.228 497.319 317.911C497.24 317.436 497.24 317.278 497.24 317.278Z" fill="#263238"/>
<path d="M474.767 274.153C474.767 274.153 474.293 274.47 473.343 275.024C472.473 275.578 471.127 276.448 469.703 277.635C466.775 280.009 463.135 283.965 460.208 288.95C457.28 293.935 455.302 298.841 453.877 302.402C453.165 304.143 452.611 305.567 452.216 306.596C452.058 307.071 451.899 307.466 451.741 307.704C451.662 307.941 451.583 308.099 451.583 308.099C451.583 308.099 451.583 307.941 451.662 307.704C451.741 307.387 451.899 306.992 452.058 306.517C452.374 305.488 452.928 304.064 453.561 302.244C454.906 298.683 456.805 293.698 459.812 288.634C462.819 283.57 466.459 279.613 469.466 277.239C470.969 276.052 472.314 275.182 473.264 274.707C473.739 274.47 474.134 274.232 474.372 274.153C474.688 274.232 474.767 274.153 474.767 274.153Z" fill="#263238"/>
<g opacity="0.3">
<g opacity="0.3">
<path opacity="0.3" d="M443.828 304.38C440.426 311.66 439.081 319.968 439.397 328.04C439.714 336.111 440.663 344.182 439.872 352.174C439.081 360.166 436.311 368.395 430.297 373.776C429.585 374.409 428.794 375.042 428.398 375.912C428.003 376.783 428.003 377.969 428.794 378.602C429.506 379.156 430.456 378.998 431.247 378.84C436.944 377.811 442.8 377.099 448.497 376.15C449.763 375.912 453.878 375.121 453.878 375.121C453.878 375.121 453.324 371.956 453.561 370.452C453.719 369.028 454.273 364.122 454.273 364.122C454.115 363.41 453.561 362.777 453.165 362.065C449.367 355.101 448.418 349.879 448.418 349.879C446.44 345.843 445.569 341.887 444.699 338.089C442.167 327.723 442.246 317.516 443.828 304.38Z" fill="black"/>
</g>
</g>
<g opacity="0.3">
<g opacity="0.3">
<path opacity="0.3" d="M381.08 292.59C381.554 293.777 382.029 294.964 382.504 296.151C382.662 296.547 382.82 296.942 383.216 297.021C383.928 297.259 384.482 296.388 384.799 295.755C386.144 293.065 388.834 291.166 391.841 290.849C394.215 290.612 396.747 291.245 399.121 290.77C397.064 289.504 394.927 288.238 392.553 287.526C390.258 286.814 387.647 286.576 385.353 287.447C383.058 288.317 381.159 290.454 381 292.828" fill="black"/>
</g>
</g>
<g opacity="0.3">
<g opacity="0.3">
<path opacity="0.3" d="M400.703 289.583C403.552 289.662 406.321 289.662 409.091 290.295C411.86 290.928 414.472 292.274 416.291 294.41C418.191 296.705 418.903 299.791 419.694 302.719C419.852 303.272 420.09 303.985 420.723 303.985C421.039 303.985 421.356 303.826 421.672 303.589C426.42 300.107 429.506 294.806 431.247 289.188C432.988 283.57 433.383 277.635 433.462 271.779C431.168 275.815 430.218 280.404 428.715 284.836C427.211 289.188 424.996 293.619 421.118 296.151C421.277 295.122 420.881 294.173 420.248 293.381C419.615 292.59 418.824 292.036 417.953 291.482C412.731 288.317 406.163 287.526 400.308 289.346" fill="black"/>
</g>
</g>
<path d="M388.359 382.796H378.706C378.706 382.796 356.866 374.883 352.356 375.675C348.32 376.387 333.524 386.199 330.596 388.177C330.279 388.414 330.042 388.731 329.884 389.047C329.33 390.63 330.042 392.45 331.624 393.083L331.941 393.241L331.783 393.716C331.624 394.27 331.545 394.903 331.545 395.457C331.624 397.514 334.473 398.147 335.502 396.406L334.948 397.435C334.71 397.831 334.631 398.305 334.631 398.78L334.71 399.651C334.79 400.679 335.423 401.55 336.372 401.866C337.243 402.183 338.271 401.866 338.904 401.233C340.803 399.176 344.839 395.061 347.608 394.586C350.061 394.191 354.097 394.112 356.55 394.112C357.816 394.112 358.924 394.903 359.398 396.09C357.737 396.169 346.421 402.104 342.386 404.24C341.12 404.873 340.249 406.06 340.012 407.484C339.854 408.75 340.487 410.096 343.019 409.463C348.32 408.196 357.974 403.765 357.974 403.765C357.974 403.765 362.959 402.341 366.124 404.636C370.635 407.801 372.692 408.988 376.569 407.722C380.447 406.456 383.295 404.557 383.295 404.557L390.971 403.765C391.05 403.607 398.25 385.566 388.359 382.796Z" fill="#F4C9AE"/>
<path d="M359.478 386.436C359.478 386.515 357.895 386.041 355.363 385.882C352.831 385.724 349.191 386.041 345.63 387.544C342.069 389.047 339.3 391.5 337.717 393.399C336.056 395.378 335.344 396.802 335.264 396.723C335.264 396.723 335.423 396.327 335.739 395.694C336.056 395.061 336.689 394.191 337.48 393.162C339.063 391.105 341.832 388.652 345.472 387.069C349.112 385.487 352.831 385.249 355.363 385.487C356.629 385.645 357.658 385.803 358.37 385.961C359.161 386.278 359.478 386.436 359.478 386.436Z" fill="#EB996E"/>
<path d="M357.183 381.135C357.183 381.214 355.6 380.502 352.91 380.423C350.22 380.343 346.501 381.135 342.94 383.271C339.458 385.408 336.768 388.098 334.948 390.076C334.077 391.026 333.286 391.817 332.732 392.371C332.178 392.925 331.941 393.241 331.862 393.162C331.862 393.162 332.099 392.846 332.574 392.213C333.049 391.659 333.761 390.788 334.71 389.76C336.53 387.781 339.142 385.012 342.702 382.796C346.263 380.66 350.14 379.869 352.831 380.027C354.176 380.106 355.284 380.343 355.996 380.581C356.392 380.66 356.629 380.818 356.787 380.897C357.104 381.056 357.183 381.135 357.183 381.135Z" fill="#EB996E"/>
<path d="M483.392 161.316C465.509 161.316 451.029 175.797 451.029 193.68C451.029 200.564 453.165 206.973 456.884 212.196L453.007 224.223L464.876 220.188C470.099 223.828 476.508 226.043 483.392 226.043C501.275 226.043 515.756 211.563 515.756 193.68C515.756 175.797 501.275 161.316 483.392 161.316Z" fill="white"/>
<path d="M474.846 193.442C474.767 194.946 473.501 196.212 471.998 196.133C470.494 196.054 469.228 194.788 469.307 193.284C469.386 191.781 470.652 190.515 472.156 190.594C473.738 190.594 474.925 191.939 474.846 193.442Z" fill="#263238"/>
<path d="M486.003 193.759C485.924 195.262 484.658 196.528 483.155 196.449C481.651 196.37 480.385 195.104 480.464 193.601C480.543 192.097 481.809 190.831 483.313 190.91C484.895 190.989 486.082 192.255 486.003 193.759Z" fill="#263238"/>
<path d="M497.24 192.73C497.952 194.075 497.477 195.816 496.132 196.528C494.787 197.241 493.046 196.766 492.334 195.421C491.622 194.075 492.096 192.335 493.442 191.622C494.787 190.831 496.528 191.385 497.24 192.73Z" fill="#263238"/>
<path d="M484.421 161.079C484.421 161.079 484.579 161.079 484.975 161.079C485.37 161.079 485.924 161.158 486.636 161.158C487.032 161.158 487.428 161.237 487.823 161.237C488.298 161.317 488.773 161.396 489.248 161.475C489.802 161.554 490.356 161.633 490.909 161.791C491.542 161.95 492.096 162.108 492.808 162.345C495.499 163.136 498.664 164.403 501.908 166.618C505.152 168.834 508.476 171.999 511.166 176.193C513.777 180.386 515.756 185.688 516.151 191.543C516.151 193.047 516.31 194.471 516.072 196.054C515.993 196.845 515.993 197.557 515.835 198.349C515.677 199.14 515.597 199.852 515.439 200.643C514.727 203.65 513.698 206.815 512.037 209.664C510.375 212.512 508.318 215.282 505.865 217.656C503.333 220.03 500.405 222.008 497.161 223.511C493.916 225.015 490.355 226.043 486.636 226.36C485.687 226.518 484.817 226.518 483.867 226.518C482.917 226.518 481.968 226.518 481.018 226.518C479.119 226.36 477.22 226.123 475.4 225.648C471.365 224.698 467.646 222.878 464.322 220.584L464.639 220.663C460.682 222.087 456.884 223.511 453.086 224.936L452.374 225.173L452.611 224.461C453.877 220.267 455.143 216.231 456.33 212.354L456.41 212.671C453.324 208.319 451.424 203.413 450.712 198.507C450.396 196.054 450.238 193.68 450.475 191.306C450.554 190.119 450.633 189.011 450.871 187.904C450.95 187.35 451.108 186.796 451.187 186.242C451.266 185.688 451.504 185.134 451.662 184.659C454.115 176.113 459.575 169.941 464.955 166.46C467.646 164.719 470.257 163.453 472.631 162.662C473.264 162.503 473.818 162.266 474.372 162.108C474.925 161.95 475.479 161.87 476.033 161.712C476.587 161.633 477.062 161.475 477.537 161.396C478.011 161.317 478.486 161.317 478.882 161.237C479.752 161.158 480.544 161 481.177 161C481.81 161 482.364 161 482.838 161C483.234 161 483.63 161 483.867 161C484.263 161.079 484.421 161.079 484.421 161.079C484.421 161.079 484.342 161.079 484.104 161.079C483.867 161.079 483.471 161.079 483.076 161.158C482.601 161.158 482.047 161.158 481.414 161.237C480.781 161.237 479.99 161.396 479.119 161.475C475.717 162.029 470.653 163.216 465.43 166.776C460.208 170.258 454.827 176.43 452.453 184.738C452.295 185.292 452.137 185.767 452.057 186.321C451.978 186.875 451.899 187.429 451.741 187.983C451.504 189.091 451.424 190.198 451.345 191.306C451.108 193.601 451.266 195.975 451.583 198.349C452.295 203.096 454.194 207.923 457.201 212.196L457.28 212.354L457.201 212.512C456.014 216.39 454.748 220.504 453.482 224.619L453.007 224.144C456.805 222.72 460.603 221.375 464.56 219.871L464.718 219.792L464.876 219.871C468.12 222.087 471.76 223.828 475.717 224.777C477.537 225.252 479.357 225.489 481.177 225.648C482.126 225.727 482.997 225.727 483.946 225.648C484.896 225.648 485.766 225.648 486.636 225.489C490.276 225.173 493.758 224.144 496.923 222.641C500.088 221.137 503.016 219.159 505.469 216.865C507.922 214.491 509.979 211.879 511.562 209.031C513.224 206.261 514.173 203.175 514.885 200.248C515.044 199.456 515.202 198.744 515.281 198.032C515.439 197.32 515.439 196.529 515.518 195.816C515.677 194.313 515.597 192.889 515.597 191.464C515.281 185.688 513.382 180.545 510.771 176.351C508.159 172.157 504.915 169.071 501.671 166.855C498.506 164.561 495.341 163.295 492.729 162.503C492.096 162.345 491.463 162.108 490.83 161.95C490.197 161.87 489.643 161.712 489.169 161.633C488.615 161.554 488.14 161.475 487.744 161.317C487.27 161.237 486.874 161.237 486.557 161.158C485.845 161.079 485.291 161 484.896 161C484.579 161.158 484.421 161.158 484.421 161.079Z" fill="#263238"/>
<path d="M251.626 416.663L225.355 350.749C223.06 345.052 227.175 338.88 233.347 338.88H315.166C318.885 338.88 322.129 341.254 323.316 344.736L345.867 411.203L372.217 411.362C374.354 411.362 376.094 414.527 376.094 416.663L347.133 416.347L251.626 416.663Z" fill="#263238"/>
<path d="M252.259 354.152C250.36 354.073 248.54 354.548 246.957 355.576C246.482 355.893 245.929 356.288 245.533 356.763C244.109 358.346 241.656 361.432 242.605 366.18C243.634 370.927 246.72 371.639 248.144 371.798C249.568 371.956 259.618 369.107 259.618 369.107C259.618 369.107 263.258 366.021 261.992 361.907C260.884 358.425 257.719 354.31 252.259 354.152Z" fill="#E8505B"/>
<path d="M247.511 370.294C247.511 370.294 247.907 372.826 249.173 373.459C250.439 374.092 252.813 374.013 254.633 373.538C256.452 373.064 259.222 372.035 259.538 370.611C259.855 369.186 259.618 367.445 259.38 367.287C259.143 367.129 256.373 365.546 252.654 366.654C248.856 367.841 247.511 370.294 247.511 370.294Z" fill="#F5F5F5"/>
<g opacity="0.4">
<g opacity="0.4">
<path opacity="0.4" d="M255.661 358.108C256.294 360.72 254.711 363.331 252.179 363.964C249.568 364.597 246.957 363.014 246.324 360.482C245.691 357.871 247.273 355.26 249.806 354.627C252.417 353.994 255.028 355.576 255.661 358.108Z" fill="white"/>
</g>
</g>
<g opacity="0.4">
<g opacity="0.4">
<g opacity="0.4">
<path opacity="0.4" d="M243.475 368.553C244.346 367.446 244.9 365.942 244.821 364.439C244.741 363.014 244.108 361.59 243.001 360.562C243.001 360.562 242.051 363.252 242.447 365.467C243.001 367.841 243.475 368.553 243.475 368.553Z" fill="white"/>
</g>
</g>
</g>
<g opacity="0.4">
<g opacity="0.4">
<g opacity="0.4">
<path opacity="0.4" d="M262.308 363.885C260.963 363.331 259.776 362.223 259.143 360.957C258.51 359.612 258.431 358.267 258.826 356.921C258.826 356.921 260.646 358.662 261.596 360.799C262.545 362.935 262.308 363.885 262.308 363.885Z" fill="white"/>
</g>
</g>
</g>
<path d="M289.449 380.502C289.449 383.429 287.075 385.803 284.148 385.803C281.22 385.803 278.846 383.429 278.846 380.502C278.846 377.574 281.22 375.2 284.148 375.2C287.075 375.2 289.449 377.574 289.449 380.502Z" fill="#F5F5F5"/>
<path d="M601.847 416.267C601.847 416.347 493.046 416.505 358.924 416.505C224.722 416.505 116 416.426 116 416.267C116 416.188 224.722 416.03 358.924 416.03C493.046 416.109 601.847 416.188 601.847 416.267Z" fill="#263238"/>
</svg>
