<svg width="793" height="811" viewBox="0 0 793 811" fill="none" xmlns="http://www.w3.org/2000/svg">
<path d="M737.705 539.748C742.411 604.833 735.762 683.7 694.274 720.819C652.787 757.937 576.866 752.798 508.997 745.346C441.181 738.351 382.226 728.026 315.097 714.944C247.968 701.862 173.525 685.461 121.287 641.089C68.5918 596.77 39.0657 524.833 49.4112 458.018C59.3531 391.712 109.675 330.933 143.351 266.059C176.571 201.238 193.549 131.812 236.389 90.379C279.229 48.9458 347.879 35.0485 409.325 46.9353C470.262 58.4185 523.539 95.7381 586.998 117.099C650.053 138.968 723.29 144.878 744.077 185.007C764.408 225.189 731.78 299.186 724.156 361.528C716.075 423.923 732.542 474.716 737.705 539.748Z" fill="#8587FE" fill-opacity="0.1"/>
<path d="M793 584.084C793 584.111 631.835 584.167 432.949 584.167C234.165 584.139 72.9999 584.111 72.9999 584.084C72.9999 584.056 234.165 584 433.051 584C631.835 584 793 584.028 793 584.084Z" fill="#263238"/>
<path d="M638.391 575.547H130.619C121.3 575.547 113.612 567.975 113.612 558.539V234.353C113.612 225.033 121.183 217.345 130.619 217.345H638.391C647.71 217.345 655.398 224.917 655.398 234.353V558.656C655.398 567.975 647.827 575.547 638.391 575.547Z" fill="#455A64"/>
<path d="M662.155 583.817H116.641C105.225 583.817 95.9056 574.498 95.9056 563.082V552.482H682.89V563.082C682.89 574.498 673.571 583.817 662.155 583.817Z" fill="#455A64"/>
<path d="M331.095 549.104L338.434 560.636H440.827L447.7 549.104H331.095Z" fill="#263238"/>
<path d="M650.739 549.104C650.739 549.337 530.523 549.453 382.234 549.453C233.944 549.453 113.728 549.337 113.728 549.104C113.728 548.871 233.944 548.754 382.234 548.754C530.523 548.754 650.739 548.871 650.739 549.104Z" fill="#263238"/>
<path d="M633.965 539.668H132.949C130.852 539.668 129.105 537.921 129.105 535.824V241.808C129.105 239.711 130.852 237.964 132.949 237.964H633.965C636.062 237.964 637.809 239.711 637.809 241.808V535.824C637.692 537.921 636.062 539.668 633.965 539.668Z" fill="#EBEBEB"/>
<path d="M637.226 540.018H128.639L129.105 260.446H637.226V540.018Z" fill="white"/>
<path d="M170.924 249.613C170.924 251.826 169.06 253.69 166.847 253.69C164.634 253.69 162.77 251.826 162.77 249.613C162.77 247.399 164.634 245.536 166.847 245.536C169.06 245.536 170.924 247.399 170.924 249.613Z" fill="#263238"/>
<path d="M146.229 249.613C146.229 251.826 144.365 253.69 142.151 253.69C139.938 253.69 138.074 251.826 138.074 249.613C138.074 247.399 139.938 245.536 142.151 245.536C144.481 245.536 146.229 247.399 146.229 249.613Z" fill="#263238"/>
<path d="M158.111 249.613C158.111 251.826 156.247 253.69 154.034 253.69C151.82 253.69 149.956 251.826 149.956 249.613C149.956 247.399 151.82 245.536 154.034 245.536C156.247 245.536 158.111 247.399 158.111 249.613Z" fill="#263238"/>
<path d="M637.809 513.109H128.639V540.134H637.809V513.109Z" fill="#263238"/>
<path d="M147.859 529.651V530.466H143.782V529.767L145.996 527.67C146.578 527.204 146.578 526.855 146.578 526.506C146.578 526.04 146.229 525.69 145.53 525.69C144.947 525.69 144.598 525.923 144.248 526.273L143.549 525.69C144.015 525.108 144.714 524.758 145.646 524.758C146.811 524.758 147.626 525.341 147.626 526.389C147.626 526.971 147.51 527.437 146.695 528.136L145.18 529.534H147.859V529.651Z" fill="white"/>
<path d="M148.442 526.971C148.442 526.622 148.675 526.273 149.141 526.273C149.49 526.273 149.84 526.506 149.84 526.971C149.84 527.321 149.607 527.67 149.141 527.67C148.675 527.554 148.442 527.321 148.442 526.971ZM148.442 530C148.442 529.651 148.675 529.301 149.141 529.301C149.49 529.301 149.84 529.534 149.84 530C149.84 530.35 149.607 530.699 149.141 530.699C148.675 530.583 148.442 530.35 148.442 530Z" fill="white"/>
<path d="M152.286 524.991V530.466H151.238V525.807H150.073V524.991H152.286Z" fill="white"/>
<path d="M158.227 529.301H157.295V530.583H156.363V529.301H153.334V528.602L156.013 525.108H157.062L154.499 528.486H156.246V527.321H157.178V528.486H158.11V529.301H158.227Z" fill="white"/>
<path d="M584.457 527.088H167.196V528.952H584.457V527.088Z" fill="white"/>
<path d="M297.314 525.107H166.963V530.233H297.314V525.107Z" fill="#FF725E"/>
<path d="M301.507 528.019C301.507 531.514 298.712 534.426 295.101 534.426C291.606 534.426 288.694 531.63 288.694 528.019C288.694 524.525 291.489 521.612 295.101 521.612C298.712 521.729 301.507 524.525 301.507 528.019Z" fill="#FF725E"/>
<path d="M595.058 528.02C595.058 529.068 594.126 529.767 593.077 529.767C591.563 529.767 590.747 528.835 590.747 527.088C590.747 525.224 591.796 524.176 593.427 524.176C594.009 524.176 594.475 524.292 594.825 524.525L594.475 525.34C594.126 525.108 593.776 525.107 593.427 525.107C592.378 525.107 591.679 525.806 591.679 526.971C592.029 526.622 592.495 526.389 593.194 526.389C594.242 526.272 595.058 526.971 595.058 528.02ZM594.009 528.02C594.009 527.437 593.543 527.088 592.961 527.088C592.262 527.088 591.796 527.437 591.796 528.02C591.796 528.486 592.262 528.952 592.961 528.952C593.66 528.952 594.009 528.602 594.009 528.02Z" fill="white"/>
<path d="M595.523 526.156C595.523 525.807 595.756 525.457 596.222 525.457C596.572 525.457 596.921 525.69 596.921 526.156C596.921 526.505 596.572 526.855 596.222 526.855C595.873 526.738 595.523 526.505 595.523 526.156ZM595.523 529.068C595.523 528.719 595.756 528.369 596.222 528.369C596.572 528.369 596.921 528.602 596.921 529.068C596.921 529.418 596.572 529.767 596.222 529.767C595.873 529.767 595.523 529.534 595.523 529.068Z" fill="white"/>
<path d="M597.504 526.971C597.504 525.107 598.436 524.175 599.834 524.175C601.115 524.175 602.163 525.224 602.163 526.971C602.163 528.835 601.232 529.767 599.834 529.767C598.436 529.767 597.504 528.719 597.504 526.971ZM600.999 526.971C600.999 525.69 600.533 524.991 599.717 524.991C599.018 524.991 598.436 525.573 598.436 526.971C598.436 528.253 598.902 528.952 599.717 528.952C600.533 528.835 600.999 528.253 600.999 526.971Z" fill="white"/>
<path d="M602.746 526.971C602.746 525.107 603.678 524.175 605.076 524.175C606.357 524.175 607.406 525.224 607.406 526.971C607.406 528.835 606.474 529.767 605.076 529.767C603.794 529.767 602.746 528.719 602.746 526.971ZM606.357 526.971C606.357 525.69 605.891 524.991 605.076 524.991C604.377 524.991 603.794 525.573 603.794 526.971C603.794 528.253 604.26 528.952 605.076 528.952C605.775 528.835 606.357 528.253 606.357 526.971Z" fill="white"/>
<path d="M616.258 526.622H614.395V521.147H619.869V523.01H616.258V526.622Z" fill="white"/>
<path d="M619.869 533.727H614.395V528.253H616.258V531.864H619.869V533.727Z" fill="white"/>
<path d="M628.606 533.727H623.131V531.864H626.626V528.253H628.606V533.727Z" fill="white"/>
<path d="M628.606 526.622H626.626V523.01H623.131V521.147H628.606V526.622Z" fill="white"/>
<path d="M198.415 277.103H168.361L153.451 303.08L168.361 329.057H198.415L213.326 303.08L198.415 277.103Z" fill="#EBEBEB"/>
<path d="M170.807 308.206C169.526 306.692 168.128 305.177 167.196 303.43C166.264 301.683 165.682 299.702 165.915 297.722C166.148 296.557 166.614 295.509 166.614 294.344C166.73 292.713 166.031 291.082 166.614 289.568C167.546 287.238 170.691 286.889 172.555 285.258C174.069 283.977 174.768 281.996 176.399 280.831C177.797 279.899 179.66 279.899 181.408 280.132C183.155 280.365 184.786 280.831 186.533 280.598C187.698 280.482 188.863 279.899 190.028 279.667C191.193 279.317 192.474 279.317 193.639 279.899C194.687 280.482 195.27 281.996 194.571 283.045C196.551 282.113 198.998 283.627 199.58 285.724C200.162 287.821 198.998 290.034 197.367 291.432C195.736 292.83 193.523 293.412 191.426 293.878C185.368 295.043 178.845 294.344 173.72 291.082" fill="#263238"/>
<path d="M198.648 314.613C198.415 310.886 197.366 303.314 196.434 296.441C195.386 288.986 188.746 283.744 181.291 284.21H180.592C172.671 285.258 169.06 292.597 170.225 300.518L172.554 329.058H192.008L191.542 324.049C191.425 323.932 198.997 322.301 198.648 314.613Z" fill="#FFD4BE"/>
<path d="M191.426 323.816C191.426 323.816 186.65 324.515 181.175 321.603C181.175 321.603 183.97 326.961 191.542 325.796L191.426 323.816Z" fill="#EB996E"/>
<path d="M193.872 302.964C193.988 303.547 193.522 304.013 192.94 304.129C192.357 304.246 191.775 303.78 191.775 303.197C191.658 302.615 192.124 302.149 192.707 302.032C193.289 301.916 193.872 302.382 193.872 302.964Z" fill="#263238"/>
<path d="M194.92 300.169C194.803 300.285 193.872 299.703 192.707 299.819C191.542 299.936 190.726 300.518 190.61 300.402C190.493 300.285 190.61 300.052 191.076 299.819C191.425 299.47 192.008 299.237 192.823 299.12C193.522 299.12 194.221 299.353 194.57 299.586C194.92 299.936 195.036 300.169 194.92 300.169Z" fill="#263238"/>
<path d="M182.688 303.78C182.805 304.362 182.339 304.828 181.757 304.945C181.174 305.061 180.592 304.595 180.592 304.013C180.475 303.43 180.941 302.964 181.524 302.848C182.106 302.731 182.688 303.197 182.688 303.78Z" fill="#263238"/>
<path d="M183.388 301.217C183.271 301.333 182.339 300.867 181.174 300.867C180.009 300.984 179.194 301.566 179.078 301.45C178.961 301.333 179.078 301.1 179.543 300.867C179.893 300.518 180.475 300.285 181.291 300.168C181.99 300.168 182.689 300.401 183.038 300.634C183.271 300.867 183.388 301.1 183.388 301.217Z" fill="#263238"/>
<path d="M188.28 309.721C188.28 309.604 188.979 309.488 190.144 309.255C190.494 309.255 190.727 309.138 190.727 308.905C190.727 308.672 190.61 308.323 190.494 307.973C190.144 307.274 189.795 306.459 189.445 305.76C187.931 302.615 186.883 299.936 186.999 299.936C187.116 299.936 188.397 302.382 189.911 305.644C190.261 306.459 190.61 307.158 190.96 307.857C191.076 308.206 191.309 308.556 191.193 309.022C191.076 309.255 190.96 309.488 190.727 309.488C190.494 309.604 190.377 309.604 190.261 309.604C188.979 309.721 188.28 309.721 188.28 309.721Z" fill="#263238"/>
<path d="M183.388 296.558C183.272 296.907 182.107 296.791 180.709 297.024C179.311 297.257 178.263 297.722 178.03 297.49C177.913 297.373 178.146 297.024 178.496 296.674C178.961 296.325 179.66 295.975 180.476 295.859C181.291 295.742 182.107 295.742 182.573 295.975C183.155 296.208 183.388 296.441 183.388 296.558Z" fill="#263238"/>
<path d="M194.338 296.79C194.105 297.023 193.289 296.79 192.357 296.907C191.426 296.907 190.61 297.256 190.377 296.907C190.261 296.79 190.377 296.441 190.727 296.208C191.076 295.975 191.659 295.742 192.357 295.626C193.056 295.626 193.639 295.859 193.988 296.092C194.221 296.441 194.338 296.674 194.338 296.79Z" fill="#263238"/>
<path d="M171.157 306.11C171.04 306.11 165.798 304.945 166.264 310.187C166.73 315.429 172.438 313.681 172.438 313.565C172.438 313.332 171.157 306.11 171.157 306.11Z" fill="#FFD4BE"/>
<path d="M170.108 311.818C170.108 311.818 169.992 311.934 169.875 311.934C169.759 312.051 169.526 312.051 169.176 312.051C168.594 311.934 168.011 311.119 167.895 310.07C167.778 309.604 167.895 309.138 168.011 308.789C168.128 308.44 168.361 308.09 168.594 307.974C168.827 307.857 169.06 307.974 169.176 308.207C169.293 308.323 169.293 308.44 169.293 308.44C169.293 308.44 169.409 308.323 169.293 308.09C169.293 307.974 169.176 307.857 169.06 307.741C168.943 307.624 168.71 307.624 168.594 307.624C168.244 307.741 167.895 308.09 167.662 308.556C167.545 309.022 167.429 309.488 167.545 310.07C167.662 311.119 168.361 312.051 169.06 312.167C169.409 312.284 169.759 312.051 169.875 311.934C170.108 311.934 170.108 311.818 170.108 311.818Z" fill="#EB996E"/>
<path d="M195.969 289.102C195.619 291.199 191.425 293.063 187.814 292.946C184.553 292.83 182.922 291.199 180.592 290.151C179.078 289.452 179.078 289.452 177.097 289.801C175.467 290.034 174.651 292.014 173.719 293.412C175.467 297.256 174.768 301.683 174.069 305.76C173.952 306.226 173.836 306.692 173.486 307.041C172.904 307.507 171.972 307.274 171.39 306.692C170.458 305.877 169.992 304.595 169.759 303.314C169.06 300.518 168.827 297.606 169.293 294.81C169.759 292.014 170.924 289.219 172.787 287.122C175.234 284.443 178.728 282.928 182.339 282.812C185.951 282.579 189.562 283.744 192.474 285.724C193.872 286.54 195.153 287.704 195.969 289.102Z" fill="#263238"/>
<path d="M188.979 312.4C188.047 311.934 187.232 311.585 186.3 311.119C186.184 311.002 185.951 311.002 185.834 311.002C185.601 311.002 185.485 311.119 185.368 311.352C184.786 312.051 184.553 313.215 185.019 314.031C185.485 314.846 186.65 315.312 187.581 314.963C188.513 314.497 188.979 313.448 188.979 312.4Z" fill="#EB996E"/>
<path d="M187.698 315.079C187.698 315.079 187.116 315.545 186.184 315.195C185.718 315.079 185.135 314.729 184.786 314.03C184.436 313.448 184.32 312.633 184.553 311.817C184.669 311.468 184.902 311.118 185.252 310.885C185.368 310.769 185.485 310.652 185.718 310.536C185.834 310.419 186.3 310.419 186.417 310.536C186.999 310.885 187.465 311.118 187.815 311.468C188.63 311.934 189.096 312.4 188.98 312.4C188.98 312.516 188.397 312.283 187.582 311.817C187.116 311.584 186.65 311.351 186.184 311.118C186.067 311.118 186.067 311.118 185.951 311.118C185.834 311.235 185.718 311.235 185.601 311.351C185.368 311.584 185.252 311.817 185.135 312.167C184.902 312.749 185.019 313.332 185.252 313.914C185.485 314.38 185.951 314.729 186.3 314.962C187.116 315.195 187.698 315.079 187.698 315.079Z" fill="#263238"/>
<path d="M186.883 303.081C186.766 303.081 186.883 302.615 186.65 301.8C186.417 300.984 185.834 299.819 184.669 298.887C183.505 297.955 181.524 297.49 179.66 298.188C177.797 298.771 176.282 300.751 176.282 303.081C176.282 305.411 177.797 307.275 179.66 307.973C181.524 308.672 183.388 308.206 184.669 307.275C185.834 306.343 186.417 305.178 186.65 304.362C186.766 303.547 186.766 303.081 186.883 303.081C186.883 303.081 186.883 303.197 186.883 303.43C186.883 303.663 186.883 304.013 186.766 304.479C186.65 305.294 186.067 306.576 184.786 307.624C183.505 308.672 181.408 309.255 179.427 308.556C177.331 307.857 175.583 305.76 175.583 303.197C175.583 300.635 177.331 298.421 179.427 297.839C181.524 297.14 183.621 297.722 184.786 298.771C186.067 299.819 186.65 301.101 186.766 301.916C186.883 302.382 186.883 302.731 186.883 302.964V303.081Z" fill="#263238"/>
<path d="M199.929 302.615C199.813 302.615 199.929 302.149 199.696 301.334C199.463 300.518 198.881 299.353 197.716 298.538C196.551 297.606 194.687 297.14 192.94 297.839C191.193 298.421 189.562 300.402 189.678 302.615C189.678 304.828 191.193 306.692 192.94 307.391C194.687 308.09 196.667 307.624 197.716 306.692C198.881 305.877 199.463 304.712 199.696 303.896C199.813 303.081 199.813 302.499 199.929 302.615C199.929 302.615 199.929 302.732 199.929 302.964C199.929 303.197 199.929 303.547 199.813 303.896C199.696 304.712 199.114 305.993 197.832 306.925C196.668 307.973 194.571 308.556 192.59 307.74C190.61 307.042 188.863 304.945 188.863 302.499C188.863 300.052 190.61 297.839 192.59 297.257C194.571 296.558 196.668 297.14 197.832 298.072C199.114 299.12 199.58 300.285 199.813 301.101C199.929 301.567 199.929 301.916 199.929 302.033C199.929 302.382 199.929 302.615 199.929 302.615Z" fill="#263238"/>
<path d="M189.212 301.334C189.096 301.45 188.63 301.101 187.931 301.101C187.232 301.101 186.766 301.45 186.649 301.334C186.533 301.217 186.999 300.518 187.931 300.518C188.863 300.518 189.445 301.217 189.212 301.334Z" fill="#263238"/>
<path d="M176.166 302.266C176.282 302.382 175.234 303.314 173.836 304.362C172.438 305.411 171.273 306.11 171.157 305.993C171.04 305.877 172.089 304.945 173.487 303.897C174.885 302.848 176.166 302.149 176.166 302.266Z" fill="#263238"/>
<path d="M284.383 302.848C284.383 302.964 270.871 303.197 254.329 303.197C237.672 303.197 224.275 303.081 224.275 302.848C224.275 302.615 237.788 302.498 254.329 302.498C270.871 302.498 284.383 302.615 284.383 302.848Z" fill="#263238"/>
<path d="M256.543 309.138C256.543 309.254 249.437 309.487 240.584 309.487C231.731 309.487 224.625 309.371 224.625 309.138C224.625 308.905 231.731 308.789 240.584 308.789C249.32 308.789 256.543 308.905 256.543 309.138Z" fill="#263238"/>
<path d="M461.707 349.327C461.707 349.327 477.666 357.131 483.374 377.284C489.082 397.436 506.206 449.856 506.206 449.856C506.206 449.856 515.991 461.388 517.039 470.008C518.088 478.629 515.991 499.247 512.846 503.208C509.7 507.052 505.157 506.469 505.157 506.469L463.804 502.509L447.496 393.359L461.707 349.327Z" fill="#8587FE"/>
<path d="M324.834 347.462C324.834 347.462 295.246 356.782 287.907 364.819L312.136 477.58L311.787 513.109H452.039C452.039 511.361 453.32 394.99 453.32 394.99L461.707 349.326L411.85 340.59L402.065 332.901L346.617 335.697L338.23 344.084L324.834 347.462Z" fill="#8587FE"/>
<g opacity="0.3">
<path opacity="0.3" d="M336.016 445.196C335.55 444.265 334.968 443.216 333.92 442.983C332.172 442.634 331.124 444.614 330.541 446.245C325.998 459.175 319.941 471.057 312.136 482.24L311.787 499.596C319.941 492.724 327.979 485.385 333.221 476.066C338.463 466.63 340.443 454.981 336.016 445.196Z" fill="black"/>
</g>
<path d="M287.79 364.819C287.79 364.819 278.005 378.099 274.045 386.836C269.967 395.456 236.419 468.377 234.439 475.949C232.458 483.521 227.216 507.168 242.593 512.643H274.045L305.729 448.691L307.36 374.371L287.79 364.819Z" fill="#8587FE"/>
<path d="M276.025 466.397C276.025 466.397 275.326 465.815 273.928 464.999C272.53 464.184 270.2 463.252 267.288 462.553C265.774 462.204 264.259 461.971 262.512 461.854C260.765 461.738 258.901 461.738 257.037 462.204C253.193 463.019 249.465 465.465 246.437 468.843C243.408 472.222 241.544 476.182 240.379 480.026C239.215 483.87 238.749 487.365 238.516 490.394C238.166 493.422 238.166 495.752 238.05 497.5C238.05 498.315 237.933 498.897 237.933 499.48C237.933 499.946 237.817 500.179 237.817 500.179C237.817 500.179 237.817 499.946 237.817 499.48C237.817 499.014 237.817 498.315 237.817 497.5C237.817 495.869 237.933 493.422 238.166 490.394C238.399 487.365 238.865 483.754 239.913 479.91C240.962 476.066 242.942 471.989 245.971 468.494C249 464.999 252.96 462.553 256.921 461.738C258.901 461.272 260.881 461.272 262.629 461.388C264.376 461.505 266.007 461.854 267.521 462.204C270.433 462.903 272.763 463.951 274.161 464.766C274.86 465.232 275.442 465.582 275.675 465.931C275.908 466.164 276.025 466.397 276.025 466.397Z" fill="#263238"/>
<path d="M261.115 453.583C261.115 453.583 261.464 453.467 262.163 453.467C262.862 453.35 263.91 453.35 265.075 453.467C266.356 453.467 267.754 453.7 269.385 454.049C271.016 454.399 272.647 454.981 274.394 455.797C276.141 456.612 277.656 457.544 278.937 458.592C280.219 459.641 281.267 460.573 282.082 461.505C282.898 462.436 283.48 463.252 283.946 463.834C284.296 464.417 284.529 464.766 284.529 464.766C284.412 464.883 283.597 463.601 281.849 461.854C281.034 460.922 279.869 459.99 278.588 459.058C277.306 458.126 275.792 457.195 274.161 456.379C272.53 455.564 270.783 454.981 269.269 454.632C267.754 454.282 266.24 453.933 265.075 453.933C262.629 453.583 261.115 453.7 261.115 453.583Z" fill="#263238"/>
<path d="M289.654 450.089C289.654 450.089 289.071 450.089 288.14 449.972C287.208 449.856 285.81 449.739 284.179 449.623C280.801 449.39 276.258 449.273 271.132 449.856C266.007 450.438 261.58 451.603 258.435 452.652C256.804 453.118 255.523 453.584 254.707 453.933C253.776 454.282 253.31 454.399 253.31 454.399C253.31 454.399 253.776 454.166 254.591 453.7C255.406 453.351 256.688 452.768 258.319 452.186C261.464 451.021 266.007 449.856 271.132 449.157C276.258 448.575 280.917 448.691 284.295 449.04C285.926 449.273 287.324 449.39 288.256 449.623C289.071 449.972 289.654 450.089 289.654 450.089Z" fill="#263238"/>
<path d="M379.35 387.884C379.35 387.884 379.234 387.767 379.001 387.534C378.768 387.185 378.535 386.835 378.185 386.369C377.37 385.321 376.322 383.807 375.04 381.943C372.361 378.099 368.517 372.74 364.09 366.45L364.556 366.333C362.809 371.342 360.945 376.817 358.965 382.642L358.848 382.991L358.499 382.758C358.266 382.642 358.033 382.525 357.8 382.292C355.237 380.662 352.907 378.681 350.927 376.468C348.947 374.255 347.316 372.041 346.035 369.712C343.355 365.052 341.725 360.509 340.676 356.665C339.628 352.821 339.045 349.559 338.579 347.346C338.346 346.298 338.23 345.482 338.113 344.783C338.113 344.55 337.997 344.317 337.997 344.084C337.997 343.968 337.88 343.851 337.88 343.851C337.997 343.851 338.346 345.016 338.812 347.229C339.278 349.443 339.861 352.588 341.026 356.432C342.19 360.276 343.821 364.703 346.501 369.362C347.782 371.575 349.413 373.905 351.393 376.002C353.373 378.099 355.587 380.079 358.149 381.71C358.382 381.826 358.615 381.943 358.848 382.176L358.382 382.292C360.363 376.468 362.226 370.993 363.974 365.984L364.207 365.518L364.556 365.984C368.983 372.391 372.71 377.749 375.39 381.593C376.671 383.457 377.719 384.972 378.418 386.02C378.768 386.486 379.001 386.952 379.234 387.185C379.35 387.651 379.467 387.884 379.35 387.884Z" fill="#263238"/>
<g opacity="0.3">
<path opacity="0.3" d="M415.927 441.702C414.646 454.748 417.558 468.145 424.081 479.56C430.605 490.86 440.157 500.994 452.038 506.469C452.388 494.937 451.922 481.308 452.271 469.659L415.927 441.702Z" fill="black"/>
</g>
<path d="M414.646 426.442C414.646 426.442 409.52 427.84 413.364 438.324C417.209 448.808 418.49 448.109 421.053 457.894C423.615 467.679 426.528 476.532 431.071 482.123C435.497 487.598 452.039 498.897 452.039 498.897L466.949 484.919C466.949 484.919 464.503 474.435 465.085 467.329C465.668 460.223 467.182 442.867 466.949 439.838C466.716 436.809 463.571 429.703 463.571 429.703V424.811L455.883 401.28C455.883 401.28 451.689 399.417 450.175 406.173L447.612 398.951C447.612 398.951 443.535 398.252 442.486 406.639C441.438 414.909 443.302 426.442 443.302 426.442L441.205 440.886L438.06 450.671L435.264 451.137C435.264 451.137 431.071 449.972 428.857 442.168C426.528 434.014 420.354 424.695 414.646 426.442Z" fill="#FFD4BE"/>
<path d="M461.823 463.369C461.823 463.369 461.823 463.136 461.707 462.786C461.707 462.437 461.59 461.854 461.59 461.272C461.474 459.874 461.357 457.894 461.241 455.447C461.008 450.322 460.658 443.333 460.309 435.062L460.426 435.178C459.727 434.363 458.562 434.13 457.397 434.363C456.232 434.596 455.3 435.295 454.601 436.343C453.32 438.44 453.203 441.119 452.854 443.799C452.038 449.739 451.223 455.447 450.524 460.573C450.175 463.136 449.825 465.582 449.243 467.912C448.777 470.241 448.078 472.222 447.379 474.085C446.68 475.949 446.097 477.58 445.748 479.094C445.399 480.609 445.282 481.89 445.282 483.055C445.282 485.268 445.981 486.317 445.864 486.433C445.864 486.433 445.748 486.2 445.515 485.618C445.399 485.035 445.049 484.22 445.049 483.055C444.933 481.89 445.049 480.609 445.399 479.094C445.748 477.58 446.33 475.833 446.913 473.969C447.612 472.105 448.194 470.125 448.66 467.795C449.126 465.582 449.476 463.136 449.825 460.573C450.524 455.447 451.223 449.739 452.038 443.799C452.271 442.517 452.388 441.119 452.621 439.838C452.854 438.557 453.203 437.275 453.902 436.11C454.601 434.945 455.766 434.13 457.047 433.897C458.329 433.548 459.727 433.897 460.659 434.829L460.775 434.945V435.062C461.008 443.333 461.357 450.322 461.474 455.447C461.59 457.894 461.59 459.874 461.59 461.272C461.59 461.854 461.59 462.437 461.59 462.786C461.94 463.136 461.823 463.369 461.823 463.369Z" fill="#FFD4BE"/>
<path d="M453.786 436.576C453.786 436.576 453.553 436.11 453.203 435.295C452.854 434.363 452.388 433.082 451.922 431.451C451.456 429.82 451.107 427.84 450.874 425.626C450.757 424.462 450.641 423.297 450.757 422.132C450.874 420.85 451.223 419.569 452.038 418.521C452.737 417.589 453.669 416.773 454.718 416.424L454.951 416.307L455.067 416.54C457.164 420.385 459.144 423.646 460.426 426.092C461.008 427.257 461.59 428.189 461.94 428.888C462.289 429.587 462.406 429.937 462.406 429.937C462.406 429.937 462.173 429.587 461.707 429.005C461.241 428.306 460.659 427.374 460.076 426.209C458.678 423.879 456.698 420.501 454.601 416.773L454.951 416.89C454.019 417.123 453.203 417.822 452.504 418.754C451.806 419.802 451.456 420.967 451.34 422.132C451.223 423.297 451.223 424.462 451.34 425.51C451.573 427.723 451.922 429.704 452.271 431.334C452.621 432.965 453.087 434.247 453.32 435.179C453.669 436.11 453.786 436.576 453.786 436.576Z" fill="#FFD4BE"/>
<path d="M450.175 438.557C450.175 438.557 450.058 438.091 450.058 437.159C450.058 436.11 449.942 434.945 449.942 433.431C449.825 430.286 449.709 425.976 449.709 421.2C449.709 416.424 449.476 412.114 449.942 408.969C450.175 407.454 450.408 406.173 450.757 405.357C450.99 404.542 451.223 404.076 451.34 404.076C451.456 404.076 450.641 405.94 450.408 408.969C450.058 411.997 450.408 416.424 450.408 421.083C450.524 425.859 450.524 430.169 450.524 433.315C450.524 434.829 450.524 435.994 450.524 437.042C450.291 437.974 450.175 438.557 450.175 438.557Z" fill="#FFD4BE"/>
<path d="M437.594 477.696C437.478 477.58 438.41 476.532 439.574 474.551C440.157 473.619 440.739 472.338 441.322 470.94C441.904 469.542 442.37 467.911 442.603 466.164C442.953 464.417 443.069 462.786 443.069 461.272C443.069 459.757 442.953 458.359 442.72 457.311C442.37 455.098 441.904 453.7 441.904 453.7C441.904 453.7 442.137 454.049 442.37 454.632C442.603 455.214 442.836 456.146 443.186 457.311C443.419 458.476 443.651 459.874 443.651 461.388C443.651 462.902 443.535 464.65 443.302 466.397C442.953 468.144 442.487 469.775 441.904 471.173C441.322 472.571 440.623 473.852 440.04 474.784C439.458 475.716 438.875 476.532 438.41 476.997C437.944 477.463 437.594 477.696 437.594 477.696Z" fill="#FFD4BE"/>
<path d="M463.687 470.358L476.618 474.784C476.618 474.784 488.965 468.377 497.469 474.784C505.973 481.191 513.311 497.965 510.982 504.722C510.982 504.722 505.157 511.944 500.614 512.992C496.188 514.041 478.831 509.847 471.609 508.333C464.386 506.819 451.922 498.781 451.922 498.781L463.687 470.358Z" fill="#FFD4BE"/>
<path d="M465.318 489.345C465.318 489.345 465.202 488.996 465.202 488.18C465.202 487.365 465.085 486.316 464.969 485.035C464.852 482.356 464.619 478.745 464.619 474.784C464.503 470.707 464.619 467.096 464.969 464.417C465.085 463.135 465.202 462.087 465.318 461.271C465.435 460.572 465.551 460.107 465.551 460.107C465.668 460.107 465.435 461.737 465.318 464.417C465.202 467.096 465.085 470.707 465.202 474.668C465.318 478.628 465.318 482.123 465.435 484.919C465.435 486.2 465.435 487.248 465.435 488.064C465.318 488.996 465.318 489.345 465.318 489.345Z" fill="#FFD4BE"/>
<path d="M507.836 474.318C507.72 474.435 506.438 472.571 503.526 470.474C500.73 468.377 496.071 466.048 490.712 465.815C485.238 465.465 480.462 467.213 477.433 469.076C474.288 470.824 472.773 472.571 472.773 472.455C472.773 472.455 473.123 471.989 473.822 471.29C474.521 470.591 475.686 469.659 477.2 468.727C480.229 466.863 485.121 464.999 490.712 465.232C496.304 465.582 500.963 467.912 503.759 470.125C505.157 471.29 506.205 472.338 506.904 473.037C507.487 473.852 507.836 474.318 507.836 474.318Z" fill="#263238"/>
<path d="M506.205 463.602C506.089 463.718 504.458 461.971 500.847 460.69C497.352 459.292 491.877 458.709 486.286 460.224C483.49 461.039 480.927 462.087 478.83 463.369C476.617 464.65 474.87 465.931 473.356 467.213C471.958 468.494 470.793 469.543 470.094 470.242C469.278 470.94 468.929 471.406 468.929 471.406C468.929 471.406 469.278 470.94 469.977 470.125C470.676 469.31 471.725 468.145 473.123 466.863C474.52 465.582 476.384 464.184 478.597 462.903C480.811 461.621 483.374 460.457 486.169 459.641C491.877 458.01 497.469 458.709 500.963 460.224C502.711 460.922 504.108 461.854 504.924 462.437C505.39 462.786 505.623 463.019 505.856 463.252C506.089 463.485 506.205 463.602 506.205 463.602Z" fill="#263238"/>
<path d="M506.322 454.282C506.322 454.399 503.992 453.7 500.264 453.234C498.401 453.001 496.187 452.768 493.625 452.768C491.178 452.768 488.383 453.001 485.587 453.467C482.791 453.933 480.112 454.748 477.782 455.564C475.452 456.379 473.356 457.311 471.725 458.243C468.347 459.99 466.483 461.388 466.366 461.271C466.366 461.271 466.832 460.922 467.648 460.223C468.114 459.874 468.58 459.524 469.279 459.175C469.977 458.825 470.676 458.243 471.492 457.893C473.123 456.961 475.219 456.029 477.549 455.098C479.879 454.282 482.558 453.467 485.47 453.001C488.383 452.535 491.178 452.302 493.625 452.302C496.187 452.302 498.401 452.535 500.264 452.884C501.196 453.001 502.012 453.234 502.827 453.35C503.526 453.467 504.225 453.7 504.691 453.816C505.739 454.049 506.322 454.166 506.322 454.282Z" fill="#263238"/>
<path d="M407.423 340.241C407.423 340.241 408.006 341.405 408.355 343.619C408.705 345.949 408.588 349.327 407.889 353.637C407.54 355.734 406.957 358.063 406.259 360.626C405.443 363.072 404.278 365.635 402.88 368.431C400.085 373.789 396.59 379.614 392.513 385.904L392.047 386.603V385.787C392.047 381.71 392.047 377.4 392.047 372.857L392.513 373.09C389.018 375.886 385.407 378.798 381.68 381.827L381.796 381.71C379.233 389.748 377.602 398.601 376.904 407.804C375.855 422.015 376.671 435.528 377.369 447.876C377.952 460.223 378.301 471.29 378.651 480.609C379 489.928 379.35 497.5 379.583 502.625C379.699 505.188 379.816 507.168 379.932 508.566C379.932 509.265 380.049 509.731 380.049 510.08C380.049 510.43 380.049 510.663 380.049 510.663C380.049 510.663 380.049 510.43 379.932 510.08C379.932 509.731 379.816 509.149 379.816 508.566C379.699 507.168 379.466 505.188 379.35 502.625C379 497.383 378.651 489.928 378.185 480.609C377.719 471.29 377.253 460.223 376.671 447.876C375.972 435.528 375.04 422.015 376.205 407.804C376.904 398.485 378.534 389.515 381.097 381.477V381.361H381.214C384.941 378.332 388.669 375.42 392.163 372.624L392.629 372.275V372.857C392.629 377.4 392.629 381.71 392.629 385.787L392.163 385.671C400.201 373.207 406.725 362.49 407.656 353.753C408.472 349.56 408.588 346.065 408.239 343.852C408.122 342.687 407.889 341.871 407.773 341.289C407.54 340.474 407.423 340.241 407.423 340.241Z" fill="#263238"/>
<path d="M386.572 490.394H386.106C384.475 490.394 382.961 492.025 382.961 493.655C382.961 495.286 384.475 496.917 386.106 496.917C387.737 497.034 389.368 495.519 389.484 493.888C389.601 492.258 388.203 490.627 386.572 490.394Z" fill="white"/>
<path d="M386.572 445.546H386.106C384.475 445.546 382.961 447.177 382.961 448.808C382.961 450.438 384.475 452.069 386.106 452.069C387.737 452.186 389.368 450.671 389.484 449.041C389.601 447.41 388.203 445.662 386.572 445.546Z" fill="white"/>
<path d="M386.106 405.357C387.737 405.474 389.368 403.96 389.485 402.329C389.601 400.698 388.203 398.951 386.572 398.834H386.106C384.476 398.834 382.961 400.465 382.961 402.096C382.961 403.727 384.476 405.357 386.106 405.357Z" fill="white"/>
<path d="M335.783 287.588C331.706 283.045 327.629 278.502 324.601 273.143C321.572 267.785 319.825 261.611 320.873 255.553C321.455 252.059 322.97 248.681 323.203 245.186C323.552 240.293 321.455 235.168 323.203 230.625C325.882 223.403 335.55 222.354 341.375 217.345C345.918 213.501 348.131 207.211 353.14 203.949C357.567 201.153 363.158 201.153 368.284 201.852C373.409 202.551 378.651 203.833 383.777 203.134C387.504 202.668 390.882 201.153 394.493 200.221C398.105 199.29 402.182 199.057 405.327 200.92C408.589 202.784 410.336 207.327 408.239 210.356C414.18 207.56 421.868 212.22 423.499 218.627C425.13 225.033 421.868 231.906 416.743 236.1C411.617 240.293 405.094 242.274 398.571 243.439C380.282 246.933 360.362 244.953 344.52 235.051" fill="#263238"/>
<path d="M400.318 349.21C399.386 342.22 398.687 336.513 398.687 335.697C398.687 335.697 421.868 330.455 420.587 307.041C420.005 295.742 416.743 272.444 413.714 251.476C410.336 228.877 390.184 212.686 367.468 214.2L365.255 214.316C340.909 217.345 329.959 239.711 333.687 263.94L346.85 345.133C346.85 345.133 352.441 363.072 364.44 366.217L379.583 387.767L382.029 378.448L393.329 368.663C393.329 368.663 395.892 365.868 398.92 360.393C401.133 356.083 400.668 351.423 400.318 349.21Z" fill="#FFD4BE"/>
<path d="M398.687 335.464C398.687 335.464 383.893 337.677 367.585 328.824C367.585 328.824 375.972 345.249 399.153 341.522L398.687 335.464Z" fill="#EB996E"/>
<path d="M406.142 271.629C406.375 273.376 404.977 275.007 403.113 275.24C401.25 275.473 399.619 274.191 399.502 272.444C399.269 270.697 400.667 269.066 402.531 268.833C404.278 268.717 405.909 269.881 406.142 271.629Z" fill="#263238"/>
<path d="M409.404 263.358C409.054 263.824 406.375 262.076 402.764 262.309C399.153 262.542 396.59 264.523 396.24 264.173C396.007 263.94 396.357 263.125 397.522 262.309C398.57 261.378 400.434 260.446 402.764 260.329C404.977 260.213 406.957 260.912 408.122 261.611C409.171 262.426 409.637 263.125 409.404 263.358Z" fill="#263238"/>
<path d="M372.128 274.075C372.361 275.822 370.963 277.453 369.099 277.686C367.235 277.919 365.604 276.638 365.488 274.89C365.255 273.143 366.653 271.512 368.517 271.279C370.264 271.163 371.895 272.328 372.128 274.075Z" fill="#263238"/>
<path d="M373.991 266.386C373.642 266.852 370.963 265.105 367.351 265.338C363.74 265.571 361.178 267.551 360.828 267.202C360.595 266.969 360.945 266.153 362.11 265.338C363.158 264.406 365.022 263.474 367.351 263.358C369.565 263.241 371.545 263.94 372.71 264.639C373.758 265.454 374.224 266.153 373.991 266.386Z" fill="#263238"/>
<path d="M388.902 292.247C388.902 292.014 391.115 291.548 394.726 290.849C395.658 290.732 396.474 290.499 396.59 289.801C396.707 289.102 396.357 288.17 395.775 287.121C394.726 284.908 393.678 282.695 392.63 280.249C388.203 270.58 384.941 262.542 385.291 262.309C385.64 262.076 389.601 269.881 394.028 279.55C395.076 281.996 396.124 284.209 397.056 286.422C397.522 287.471 398.105 288.636 397.755 290.034C397.522 290.732 396.94 291.315 396.357 291.431C395.775 291.664 395.309 291.664 394.843 291.781C391.232 292.247 388.902 292.48 388.902 292.247Z" fill="#263238"/>
<path d="M373.991 252.175C373.758 253.224 370.031 252.991 365.837 253.689C361.644 254.388 358.265 255.903 357.683 254.971C357.45 254.621 357.916 253.573 359.197 252.525C360.479 251.476 362.575 250.428 365.138 249.962C367.701 249.496 370.031 249.729 371.545 250.311C373.292 251.01 374.108 251.709 373.991 252.175Z" fill="#263238"/>
<path d="M407.424 252.99C406.841 253.806 404.278 253.223 401.366 253.34C398.337 253.34 395.891 254.272 395.309 253.456C395.076 253.107 395.425 252.175 396.474 251.36C397.522 250.544 399.269 249.729 401.366 249.729C403.463 249.612 405.21 250.311 406.375 251.01C407.191 251.825 407.656 252.641 407.424 252.99Z" fill="#263238"/>
<path d="M336.715 281.297C336.25 281.181 320.291 277.57 321.922 293.645C323.552 309.604 340.793 304.478 340.793 304.012C340.793 303.43 336.715 281.297 336.715 281.297Z" fill="#FFD4BE"/>
<path d="M333.687 298.654C333.57 298.654 333.454 298.887 332.988 299.12C332.522 299.353 331.823 299.586 330.891 299.353C329.144 298.887 327.396 296.324 327.047 293.529C326.814 292.131 327.047 290.616 327.396 289.451C327.746 288.287 328.445 287.355 329.26 287.122C330.075 286.889 330.774 287.238 331.007 287.704C331.24 288.17 331.24 288.403 331.24 288.52C331.24 288.52 331.59 288.17 331.357 287.588C331.24 287.238 331.007 286.889 330.658 286.656C330.192 286.423 329.61 286.306 329.027 286.423C327.746 286.656 326.814 287.821 326.348 289.218C325.882 290.5 325.649 292.131 325.765 293.762C326.231 297.023 328.095 299.819 330.541 300.285C331.706 300.518 332.638 300.052 333.104 299.586C333.687 299.003 333.687 298.654 333.687 298.654Z" fill="#EB996E"/>
<path d="M412.433 229.693C411.384 236.1 398.454 241.924 387.737 241.575C377.836 241.342 372.943 236.333 365.837 232.954C361.294 230.741 361.294 230.741 355.12 231.79C350.111 232.605 347.549 238.429 344.753 242.623C350.111 254.272 347.898 267.784 345.685 280.365C345.452 281.763 345.102 283.277 344.054 284.209C342.307 285.84 339.395 284.792 337.531 283.277C334.735 280.715 333.454 276.87 332.522 273.143C330.425 264.639 329.609 255.786 330.891 247.166C332.289 238.546 335.783 230.159 341.724 223.635C349.063 215.598 359.896 210.938 370.846 210.356C381.796 209.773 392.746 213.151 401.832 219.209C406.142 221.772 410.103 225.15 412.433 229.693Z" fill="#263238"/>
<path d="M391.232 300.401C388.553 299.12 385.757 297.838 383.078 296.557C382.612 296.324 382.146 296.091 381.563 296.208C380.981 296.324 380.515 296.674 380.166 297.14C378.302 299.469 377.836 302.847 379.234 305.527C380.748 308.089 384.126 309.487 386.922 308.322C389.834 307.158 391.232 303.779 391.465 300.634L391.232 300.401Z" fill="#E8AD8E"/>
<path d="M387.155 308.905C387.155 309.022 386.805 309.255 385.99 309.371C385.175 309.488 383.893 309.604 382.495 309.138C381.097 308.672 379.467 307.507 378.418 305.76C377.37 304.013 377.02 301.566 377.952 299.353C378.418 298.305 379.001 297.256 379.816 296.557C380.282 296.208 380.631 295.858 381.097 295.509C381.33 295.392 381.68 295.276 382.029 295.159C382.379 295.159 382.728 295.276 382.961 295.392C383.544 295.625 383.893 295.858 384.243 296.091C384.592 296.324 384.942 296.557 385.407 296.79C386.106 297.256 386.805 297.606 387.388 298.072C389.834 299.586 391.232 300.634 391.232 300.751C391.115 300.867 389.485 300.168 387.038 298.771C386.339 298.421 385.757 298.072 384.942 297.606C384.592 297.373 384.243 297.14 383.777 297.023C383.427 296.79 382.961 296.557 382.612 296.441C382.262 296.324 382.029 296.324 381.68 296.557C381.33 296.79 380.981 297.023 380.631 297.373C379.933 298.072 379.35 298.887 379.001 299.819C378.302 301.683 378.535 303.78 379.35 305.294C380.166 306.808 381.447 307.857 382.728 308.439C384.01 308.905 385.058 309.022 385.873 309.022C386.689 308.789 387.155 308.789 387.155 308.905Z" fill="#263238"/>
<path d="M384.592 272.095C384.476 272.095 384.592 270.58 384.01 268.018C383.311 265.455 381.68 261.844 377.952 258.932C376.088 257.534 373.759 256.369 370.963 255.903C368.284 255.437 365.255 255.553 362.343 256.602C360.828 257.068 359.431 257.883 358.149 258.815C356.868 259.747 355.703 260.912 354.655 262.31C352.674 264.989 351.509 268.484 351.509 271.978C351.509 275.589 352.674 278.968 354.655 281.647C355.586 283.045 356.868 284.21 358.149 285.141C359.431 286.073 360.828 286.889 362.343 287.355C365.255 288.403 368.284 288.52 370.963 288.054C373.642 287.588 376.088 286.423 377.952 285.025C381.68 282.113 383.427 278.502 384.01 275.939C384.592 273.609 384.592 272.095 384.592 272.095C384.592 272.095 384.592 272.211 384.592 272.328C384.592 272.561 384.592 272.794 384.592 273.143C384.592 273.493 384.592 273.959 384.476 274.424C384.359 274.89 384.359 275.473 384.126 276.172C383.893 277.453 383.311 279.084 382.262 280.715C381.33 282.346 379.932 284.093 378.069 285.491C376.205 286.889 373.759 288.17 370.963 288.753C368.167 289.219 365.022 289.219 361.993 288.054C360.479 287.588 359.081 286.772 357.683 285.724C356.285 284.792 355.121 283.511 354.072 282.113C351.975 279.317 350.81 275.706 350.81 272.095C350.81 268.367 351.975 264.872 354.072 262.077C355.121 260.679 356.285 259.398 357.683 258.466C358.965 257.417 360.479 256.718 361.993 256.136C365.022 254.971 368.167 254.971 370.963 255.437C373.759 255.903 376.205 257.184 378.069 258.699C379.932 260.213 381.33 261.844 382.379 263.475C383.311 265.105 383.893 266.62 384.243 268.018C384.476 268.717 384.476 269.299 384.592 269.765C384.708 270.231 384.709 270.697 384.709 271.046C384.709 271.396 384.709 271.629 384.709 271.862C384.592 271.978 384.592 272.095 384.592 272.095Z" fill="#263238"/>
<path d="M424.547 270.464C424.431 270.464 424.547 269.066 423.965 266.503C423.382 264.057 421.752 260.446 418.024 257.65C416.16 256.252 413.947 255.088 411.268 254.622C408.588 254.156 405.676 254.272 402.88 255.321C401.483 255.787 400.085 256.602 398.803 257.534C397.522 258.466 396.357 259.631 395.425 260.912C393.445 263.475 392.396 266.853 392.28 270.348C392.28 273.842 393.445 277.22 395.425 279.783C396.357 281.064 397.522 282.229 398.803 283.161C400.085 284.093 401.483 284.792 402.88 285.375C405.676 286.423 408.705 286.539 411.268 286.073C413.947 285.607 416.16 284.443 418.024 283.045C421.752 280.249 423.382 276.638 423.965 274.192C424.547 271.978 424.431 270.464 424.547 270.464C424.547 270.464 424.547 270.813 424.547 271.512C424.547 271.862 424.547 272.328 424.431 272.794C424.314 273.26 424.314 273.842 424.081 274.541C423.499 276.987 421.868 280.715 418.14 283.627C416.277 285.025 413.947 286.306 411.268 286.772C408.588 287.238 405.443 287.238 402.531 286.073C401.017 285.607 399.619 284.792 398.337 283.86C397.056 282.928 395.775 281.763 394.843 280.366C392.746 277.686 391.698 274.192 391.581 270.581C391.581 266.969 392.746 263.475 394.843 260.796C395.891 259.398 397.056 258.233 398.337 257.301C399.619 256.369 401.017 255.554 402.531 255.088C405.443 254.039 408.472 253.923 411.268 254.389C413.947 254.855 416.393 256.136 418.14 257.534C421.868 260.446 423.499 264.174 424.081 266.62C424.314 267.202 424.314 267.785 424.431 268.367C424.547 268.833 424.547 269.299 424.547 269.649C424.547 270.115 424.547 270.464 424.547 270.464Z" fill="#263238"/>
<path d="M391.931 266.853C391.814 266.969 391.465 266.62 390.766 266.271C390.067 265.921 389.018 265.572 387.853 265.572C386.689 265.572 385.64 265.921 384.941 266.271C384.242 266.62 383.893 266.969 383.776 266.853C383.776 266.853 384.009 266.387 384.708 265.805C385.407 265.339 386.572 264.873 387.853 264.873C389.135 264.873 390.3 265.339 390.999 265.805C391.698 266.387 392.047 266.736 391.931 266.853Z" fill="#263238"/>
<path d="M352.208 269.765C352.325 269.882 349.063 272.561 344.869 275.59C340.792 278.618 337.298 281.065 337.181 280.948C337.065 280.832 340.326 278.152 344.52 275.124C348.713 271.978 352.092 269.532 352.208 269.765Z" fill="#263238"/>
<g opacity="0.3">
<path opacity="0.3" d="M338.462 345.483C336.832 361.325 342.889 377.983 355.586 387.535C356.635 388.234 357.8 389.049 358.964 388.583C359.78 388.234 360.246 387.535 360.712 386.719C364.323 380.429 365.488 373.556 364.439 366.45C362.459 371.692 360.712 376.934 358.731 382.409C347.665 375.886 340.792 361.558 338.462 345.483Z" fill="black"/>
</g>
<path opacity="0.3" d="M381.33 381.477L390.649 378.099L392.164 393.825C392.164 393.825 402.182 375.536 406.375 367.149C410.569 358.762 408.356 344.085 408.356 344.085C408.356 344.085 409.87 356.898 399.735 373.323L392.164 385.671V372.741L381.33 381.477Z" fill="black"/>
<g opacity="0.3">
<path opacity="0.3" d="M273.113 461.505C268.919 459.524 264.143 459.291 259.6 459.757C254.824 460.34 249.932 461.738 246.204 464.883C242.476 467.911 239.914 472.687 240.38 477.58L240.846 477.696C244.107 468.96 250.514 462.553 258.901 461.738C267.172 460.922 275.326 464.65 281.034 470.824C280.452 466.048 277.306 463.368 273.113 461.505Z" fill="black"/>
</g>
<g opacity="0.3">
<path opacity="0.3" d="M508.419 470.475C505.274 467.096 500.964 465.116 496.421 464.301C488.499 462.903 479.996 465.349 474.055 470.824L475.802 469.426C480.345 466.747 485.471 465.233 490.713 465.349C495.955 465.466 501.197 467.446 504.924 471.057C508.419 474.319 510.516 478.862 512.496 483.172C513.311 478.512 511.564 473.853 508.419 470.475Z" fill="black"/>
</g>
<path d="M448.428 397.319C448.428 397.319 448.544 396.854 448.894 396.038C449.243 395.106 449.709 393.941 450.175 392.66C451.34 389.748 452.854 385.904 454.485 381.477C456.116 377.051 457.514 373.09 458.562 370.178C459.028 368.78 459.494 367.731 459.727 366.8C460.076 365.984 460.193 365.518 460.193 365.518C460.193 365.518 460.076 365.984 459.96 366.8C459.727 367.615 459.378 368.78 458.912 370.294C457.98 373.206 456.698 377.283 455.067 381.71C453.437 386.137 451.806 389.981 450.641 392.893C450.058 394.291 449.476 395.456 449.127 396.155C448.661 396.97 448.544 397.319 448.428 397.319Z" fill="#263238"/>
<path d="M301.536 398.485C301.42 398.485 300.138 393.01 298.74 386.137C297.342 379.264 296.294 373.673 296.527 373.673C296.644 373.673 297.925 379.147 299.323 386.02C300.721 392.893 301.769 398.485 301.536 398.485Z" fill="#263238"/>
<path d="M299.439 467.795C299.788 468.028 295.129 431.45 295.129 431.45C295.129 431.45 298.041 403.726 299.672 402.445V392.66C299.672 392.66 304.215 389.864 305.38 394.291C305.38 394.291 309.34 390.796 310.039 399.067C310.738 407.337 310.855 415.841 310.855 415.841L319.824 438.207L321.339 438.906C321.339 438.906 323.202 421.432 324.367 418.87C325.532 416.307 326.231 410.017 330.541 410.949C334.735 411.88 335.084 415.375 334.385 421.083C333.57 426.791 332.638 432.732 332.987 436.343C333.337 440.071 334.968 448.108 334.502 454.632C334.036 461.038 330.425 467.911 326.697 472.687C322.969 477.463 315.864 487.365 312.02 490.277C310.855 491.558 299.439 467.795 299.439 467.795Z" fill="#FFD4BE"/>
<path d="M303.866 438.09C303.866 438.09 303.866 437.508 303.866 436.576C303.982 435.411 304.099 434.013 304.215 432.383C304.448 428.771 304.914 423.879 305.38 418.404C305.613 415.725 305.846 413.045 306.079 410.716C306.195 409.551 306.312 408.386 306.079 407.454C305.962 406.406 305.496 405.59 304.914 404.891C303.749 403.61 302.235 403.26 301.303 403.26C300.371 403.26 299.789 403.493 299.789 403.493C299.789 403.493 299.905 403.377 300.138 403.26C300.371 403.144 300.72 403.027 301.303 403.027C302.351 402.911 303.982 403.26 305.263 404.542C305.962 405.241 306.428 406.173 306.545 407.221C306.778 408.269 306.661 409.434 306.545 410.599C306.312 412.929 306.079 415.608 305.846 418.287C305.38 423.762 304.914 428.655 304.448 432.266C304.215 434.013 304.099 435.411 303.982 436.46C303.982 437.508 303.982 438.09 303.866 438.09Z" fill="#FFD4BE"/>
<path d="M308.758 423.18C308.874 423.296 307.826 424.112 307.127 426.092C306.428 427.956 306.195 430.868 305.613 434.013C305.147 437.159 304.681 439.954 304.331 441.935C303.982 443.915 303.749 445.196 303.632 445.196C303.516 445.196 303.632 443.915 303.982 441.818C304.215 439.721 304.681 436.926 305.147 433.78C305.613 430.635 305.962 427.84 306.777 425.859C307.127 424.927 307.709 424.112 308.059 423.762C308.408 423.296 308.641 423.18 308.758 423.18Z" fill="#FFD4BE"/>
<path d="M305.38 393.941C305.38 393.941 305.496 394.291 305.729 395.106C305.846 395.805 306.079 396.97 306.312 398.251C306.778 400.931 307.244 404.658 307.593 408.852C307.942 413.045 307.943 416.773 307.943 419.452C307.943 420.85 307.826 421.898 307.826 422.714C307.826 423.529 307.71 423.879 307.71 423.879C307.593 423.879 307.593 422.248 307.477 419.452C307.36 416.773 307.244 412.929 307.011 408.852C306.661 404.658 306.312 400.931 305.962 398.251C305.613 395.689 305.38 393.941 305.38 393.941Z" fill="#FFD4BE"/>
<path d="M331.24 428.189C331.357 428.305 329.959 429.004 328.212 428.422C326.464 427.956 325.649 426.558 325.882 426.558C325.998 426.441 326.93 427.373 328.445 427.839C329.842 428.305 331.124 427.956 331.24 428.189Z" fill="#FFD4BE"/>
<path d="M299.905 463.252L276.258 473.153H262.163C262.163 473.153 248.301 477.463 246.087 490.51C243.991 503.557 243.641 510.313 249.815 511.827C255.989 513.458 273.229 513.575 281.733 510.779C290.353 507.983 312.719 489.811 312.719 489.811L314.932 476.764L299.905 463.252Z" fill="#FFD4BE"/>
<path d="M305.38 477.696C305.38 477.696 305.147 477.463 304.681 477.114C304.215 476.648 303.749 476.066 303.167 475.134C302.002 473.386 300.72 470.707 299.905 467.678C298.973 464.65 298.624 461.738 298.507 459.641C298.274 457.544 298.391 456.263 298.391 456.263C298.507 456.263 298.624 457.544 298.857 459.641C299.206 461.738 299.556 464.533 300.488 467.562C301.303 470.591 302.468 473.153 303.516 475.017C304.681 476.648 305.496 477.58 305.38 477.696Z" fill="#EB996E"/>
<path d="M315.747 481.773C315.631 481.773 316.679 479.91 317.145 476.764C317.378 475.133 317.378 473.27 316.912 471.173C316.446 469.076 315.514 466.979 314 464.999C312.602 463.019 310.971 461.271 309.573 459.524C308.176 457.893 307.127 456.146 306.428 454.748C305.729 453.234 305.38 451.952 305.263 451.02C305.147 450.089 305.147 449.623 305.263 449.623C305.38 449.623 305.38 451.719 306.894 454.632C307.593 456.029 308.758 457.66 310.156 459.291C311.554 460.922 313.185 462.669 314.582 464.766C316.097 466.863 317.145 469.076 317.495 471.173C317.961 473.386 317.961 475.366 317.611 476.997C317.378 478.628 316.912 479.909 316.563 480.725C316.33 481.191 316.213 481.424 316.097 481.657C315.747 481.657 315.747 481.773 315.747 481.773Z" fill="#EB996E"/>
<path d="M279.286 424.928C279.17 425.044 276.607 420.268 273.578 414.444C270.55 408.619 268.22 403.727 268.336 403.727C268.453 403.61 271.016 408.386 274.044 414.211C277.073 420.035 279.403 424.928 279.286 424.928Z" fill="white"/>
<path d="M317.495 382.409C317.378 382.293 318.893 378.449 321.106 373.673C323.203 368.897 325.067 365.169 325.183 365.169C325.3 365.285 323.785 369.13 321.572 373.906C319.475 378.682 317.611 382.526 317.495 382.409Z" fill="white"/>
<path d="M354.887 410.017C354.771 410.133 352.325 407.454 349.529 404.076C346.733 400.698 344.52 397.786 344.636 397.669C344.753 397.553 347.199 400.232 349.995 403.61C352.791 407.105 355.004 409.9 354.887 410.017Z" fill="white"/>
<path d="M346.267 447.992C346.151 447.876 347.898 445.196 350.344 441.935C352.674 438.673 354.771 436.11 354.887 436.227C355.004 436.343 353.257 439.022 350.81 442.284C348.48 445.546 346.384 448.109 346.267 447.992Z" fill="white"/>
<path d="M334.735 501.577C334.618 501.577 334.152 500.761 333.337 499.247C332.522 497.733 331.59 495.636 330.541 493.306C329.493 490.976 328.677 488.763 328.211 487.249C327.629 485.618 327.396 484.686 327.513 484.686C327.629 484.686 327.978 485.618 328.677 487.132C329.376 488.88 330.308 490.86 331.24 493.19C332.172 495.403 333.104 497.383 333.803 499.131C334.385 500.528 334.735 501.577 334.735 501.577Z" fill="white"/>
<path d="M367.585 478.745C367.585 478.862 364.439 478.396 360.479 477.697C356.635 476.998 353.49 476.182 353.49 476.066C353.49 475.949 356.635 476.415 360.595 477.114C364.556 477.93 367.585 478.629 367.585 478.745Z" fill="white"/>
<path d="M393.095 428.655C392.979 428.539 396.008 425.044 399.852 420.967C403.696 416.773 406.958 413.512 407.074 413.628C407.19 413.745 404.162 417.239 400.318 421.316C396.474 425.51 393.212 428.772 393.095 428.655Z" fill="white"/>
<path d="M418.723 495.519C418.606 495.636 414.879 491.209 410.336 485.734C405.792 480.259 402.298 475.716 402.414 475.6C402.531 475.483 406.258 479.91 410.801 485.385C415.345 490.86 418.956 495.403 418.723 495.519Z" fill="white"/>
<path d="M259.483 466.98C259.6 467.096 256.105 468.843 252.378 471.756C248.65 474.668 245.971 477.464 245.854 477.347C245.854 477.347 246.32 476.532 247.485 475.367C248.534 474.202 250.164 472.687 252.028 471.29C253.892 469.892 255.756 468.727 257.154 468.028C258.552 467.329 259.367 466.98 259.483 466.98Z" fill="white"/>
<path d="M269.035 441.236C269.152 441.352 267.987 443.449 266.356 445.895C264.725 448.341 263.211 450.322 263.095 450.205C262.978 450.089 264.143 447.992 265.774 445.546C267.405 443.099 268.919 441.236 269.035 441.236Z" fill="white"/>
<path d="M290.702 466.513C290.585 466.63 289.304 464.533 288.722 461.737C288.023 458.942 288.256 456.495 288.489 456.612C288.722 456.612 288.722 458.942 289.421 461.621C289.887 464.417 290.818 466.513 290.702 466.513Z" fill="white"/>
<path d="M293.847 386.253C293.847 386.37 291.867 386.836 289.304 387.185C286.858 387.535 284.761 387.651 284.761 387.535C284.761 387.418 286.741 386.952 289.304 386.603C291.75 386.253 293.847 386.137 293.847 386.253Z" fill="white"/>
<path d="M310.156 357.481C310.272 357.597 308.525 358.762 306.195 360.044C303.982 361.325 302.001 362.14 302.001 362.024C301.885 361.907 303.632 360.742 305.962 359.461C308.175 358.18 310.039 357.364 310.156 357.481Z" fill="white"/>
<path d="M355.819 369.595C355.703 369.712 353.722 367.266 351.276 364.237C348.946 361.208 347.083 358.529 347.316 358.413C347.432 358.296 349.412 360.742 351.859 363.771C354.072 366.916 355.936 369.595 355.819 369.595Z" fill="white"/>
<path d="M413.714 398.601C413.597 398.718 411.501 396.504 409.52 393.359C407.54 390.214 406.492 387.302 406.725 387.302C406.841 387.185 408.123 389.981 410.103 393.01C411.967 396.155 413.947 398.485 413.714 398.601Z" fill="white"/>
<path d="M435.847 405.94C435.963 406.056 434.915 408.736 433.4 411.997C431.886 415.259 430.605 417.822 430.488 417.822C430.372 417.705 431.42 415.026 432.934 411.764C434.449 408.386 435.73 405.823 435.847 405.94Z" fill="white"/>
<path d="M438.992 375.653C438.875 375.769 436.196 372.857 433.051 369.013C429.906 365.285 427.46 362.14 427.576 362.024C427.693 361.907 430.372 364.819 433.517 368.664C436.662 372.508 439.108 375.536 438.992 375.653Z" fill="white"/>
<path d="M405.21 351.19C405.094 351.19 404.861 348.628 404.628 345.599C404.511 342.454 404.511 339.891 404.744 339.891C404.861 339.891 405.094 342.454 405.327 345.482C405.443 348.628 405.327 351.19 405.21 351.19Z" fill="white"/>
<path d="M432.701 349.676C432.701 349.792 429.556 350.375 425.479 350.957C421.519 351.54 418.257 351.773 418.257 351.656C418.257 351.54 421.402 350.957 425.479 350.375C429.44 349.792 432.701 349.443 432.701 349.676Z" fill="white"/>
<path d="M476.152 381.477C476.035 381.594 474.055 377.866 471.841 373.206C469.628 368.547 467.881 364.819 468.114 364.703C468.23 364.586 470.211 368.314 472.424 372.974C474.637 377.633 476.268 381.477 476.152 381.477Z" fill="white"/>
<path d="M468.813 409.085C468.696 409.085 469.046 406.057 469.861 402.445C470.56 398.834 471.259 395.922 471.492 395.922C471.609 395.922 471.259 398.951 470.444 402.562C469.745 406.173 469.046 409.085 468.813 409.085Z" fill="white"/>
<path d="M488.965 430.752C488.849 430.752 487.218 426.791 485.471 421.782C483.723 416.773 482.442 412.696 482.558 412.58C482.675 412.58 484.306 416.54 486.053 421.549C487.8 426.675 489.082 430.752 488.965 430.752Z" fill="white"/>
<path d="M486.17 443.449C486.17 443.566 483.374 442.983 480.229 441.352C477.2 439.722 475.103 437.625 475.22 437.625C475.336 437.508 477.433 439.256 480.462 440.887C483.607 442.517 486.17 443.333 486.17 443.449Z" fill="white"/>
<path d="M511.913 472.455C511.797 472.571 510.865 470.707 509.817 468.494C508.768 466.281 508.186 464.417 508.302 464.301C508.419 464.184 509.351 466.048 510.399 468.261C511.447 470.474 512.146 472.338 511.913 472.455Z" fill="white"/>
<path d="M359.663 512.876C359.547 512.876 359.081 510.546 358.732 507.751C358.382 504.838 358.266 502.509 358.382 502.509C358.499 502.509 358.965 504.838 359.314 507.634C359.663 510.546 359.78 512.876 359.663 512.876Z" fill="white"/>
<path d="M438.759 510.896C438.642 510.896 438.992 508.566 439.574 505.887C440.157 503.091 440.739 500.878 440.972 500.994C441.089 500.994 440.739 503.324 440.157 506.003C439.574 508.682 438.875 510.896 438.759 510.896Z" fill="white"/>
<path d="M453.903 279.899L464.154 261.843C459.611 254.505 457.048 245.885 457.048 236.565C457.048 209.89 478.598 188.339 505.274 188.339C531.95 188.339 553.5 209.89 553.5 236.565C553.5 263.241 531.95 284.792 505.274 284.792C494.208 284.792 483.957 281.064 475.803 274.657L453.903 279.899Z" fill="#FAFAFA"/>
<path d="M453.903 279.899C454.951 279.666 461.824 278.036 475.803 274.89H476.035L475.919 274.657L475.686 274.89C478.482 276.987 481.743 279.084 485.588 280.831C489.432 282.579 493.858 283.977 498.867 284.559C501.313 284.908 503.876 285.025 506.555 284.908C507.837 284.792 509.235 284.792 510.516 284.675C511.914 284.442 513.195 284.209 514.593 284.093C520.068 283.045 525.659 280.948 530.901 277.686C536.143 274.424 540.919 270.114 544.764 264.756C548.608 259.397 551.52 252.991 552.918 246.118C554.316 239.245 554.199 231.79 552.335 224.684C550.471 217.578 547.093 210.589 541.968 204.881L539.987 202.668C539.289 201.969 538.59 201.386 537.891 200.687C537.192 200.105 536.493 199.29 535.677 198.824L533.348 197.076C532.649 196.494 531.717 196.028 530.901 195.445C530.086 194.979 529.271 194.397 528.455 193.931C527.64 193.465 526.708 193.116 525.892 192.65C525.077 192.3 524.262 191.834 523.33 191.485C516.34 188.689 508.885 187.641 501.663 188.107C494.557 188.573 487.684 190.669 481.86 193.931C475.919 197.193 471.026 201.619 467.182 206.512C463.338 211.404 460.659 216.763 458.912 222.121C457.281 227.48 456.815 232.838 456.815 237.847C456.931 242.856 457.863 247.399 459.145 251.36C460.426 255.32 462.173 258.815 464.037 261.727V261.611C457.63 273.376 454.485 278.968 453.903 279.899C454.369 278.968 457.63 273.376 464.27 261.96V261.844V261.727C462.523 258.815 460.776 255.437 459.494 251.36C458.213 247.399 457.281 242.856 457.164 237.964C457.164 233.071 457.63 227.713 459.261 222.471C460.892 217.112 463.688 211.87 467.415 206.978C471.259 202.202 476.152 197.892 481.976 194.63C487.801 191.368 494.557 189.388 501.663 188.806C508.769 188.34 516.107 189.388 522.98 192.067C523.912 192.3 524.728 192.766 525.543 193.232C526.358 193.698 527.174 194.048 528.106 194.514C528.921 194.979 529.737 195.445 530.552 196.028C531.367 196.494 532.183 196.96 532.882 197.542L535.212 199.29C536.027 199.872 536.609 200.571 537.425 201.153C538.124 201.852 538.939 202.435 539.522 203.134L541.502 205.23C546.511 210.938 549.889 217.811 551.753 224.8C553.5 231.906 553.617 239.129 552.335 246.001C550.937 252.874 548.142 259.165 544.298 264.406C540.453 269.765 535.677 274.075 530.552 277.22C525.426 280.482 519.835 282.462 514.477 283.627C513.079 283.86 511.797 284.093 510.399 284.209C509.118 284.326 507.72 284.326 506.439 284.442C503.876 284.559 501.313 284.442 498.867 284.093C493.975 283.511 489.548 282.113 485.704 280.365C481.86 278.618 478.598 276.638 475.803 274.424L474.871 273.726L475.57 274.657L475.686 274.424C461.824 277.919 454.951 279.666 453.903 279.899Z" fill="#263238"/>
<path d="M518.32 234.586C518.32 237.149 520.417 239.245 522.98 239.245C525.542 239.245 527.639 237.149 527.639 234.586C527.639 232.023 525.542 229.926 522.98 229.926C520.417 229.81 518.32 231.907 518.32 234.586Z" fill="#263238"/>
<path d="M499.449 234.586C499.449 237.149 501.546 239.245 504.109 239.245C506.672 239.245 508.768 237.149 508.768 234.586C508.768 232.023 506.672 229.926 504.109 229.926C501.546 229.81 499.449 231.907 499.449 234.586Z" fill="#263238"/>
<path d="M480.578 232.256C479.297 234.469 479.996 237.381 482.326 238.663C484.539 239.944 487.451 239.245 488.732 236.915C490.014 234.702 489.315 231.79 486.985 230.509C484.772 229.227 481.86 229.926 480.578 232.256Z" fill="#263238"/>
</svg>
