<svg width="145" height="46" viewBox="0 0 145 46" fill="none" xmlns="http://www.w3.org/2000/svg">
<path d="M21.024 8.8L18.72 13.3L13.212 24.1L7.704 13.3L5.4 8.8H0.36L2.664 13.3L13.212 34L23.76 13.3L26.064 8.8H21.024Z" fill="#1D2236"/>
<path d="M55.2564 1.76216V13.4599H34.5321V1.76216H28.7754V34H34.5321V19.2166H55.2564V34H61.0132V1.76216H55.2564ZM71.3664 34V1.76216H65.6096V34H71.3664ZM97.3689 19.1245C98.2439 19.0324 99.0729 18.8022 99.8558 18.4337C102.849 17.0521 104.922 14.0125 104.922 10.5124C104.922 8.11762 103.955 5.95308 102.389 4.38724C100.823 2.8214 98.6584 1.85427 96.2636 1.85427H75.9077V34.0921H81.6645V19.2627H87.4212C89.4937 19.2627 91.2898 20.368 92.303 22.0259L92.4411 22.3023L95.5268 28.3354L98.4742 34.0921H104.922L101.974 28.3354L97.3689 19.1245ZM81.6645 13.552V7.61103H96.2636C97.2768 7.61103 97.9676 8.07157 98.3361 8.44C98.6584 8.76238 99.2111 9.49924 99.2111 10.5585C99.2111 11.7098 98.5203 12.7691 97.461 13.2296C97.0926 13.4138 96.6781 13.5059 96.2636 13.5059L81.6645 13.552ZM118.299 7.51892H141.833V1.76216H118.299C113.509 1.76216 109.641 5.67676 109.641 10.4664V25.2958C109.641 30.0854 113.509 34 118.299 34H141.833V28.2432H118.299C116.687 28.2432 115.352 26.9077 115.352 25.2958V19.2166H136.076V13.4599H115.352V10.4664C115.352 8.85449 116.687 7.51892 118.299 7.51892Z" fill="#8587FE"/>
</svg>
