<svg width="239" height="169" viewBox="0 0 239 169" fill="none" xmlns="http://www.w3.org/2000/svg">
<path d="M61.0214 59.6216C61.0214 59.6216 58.8493 57.8374 55.4361 63.1124C52.0229 68.3873 50.6266 71.4903 50.6266 71.4903C50.6266 71.4903 49.7733 72.5763 49.0363 71.723C48.2994 70.8697 47.4461 68.6201 46.0497 68.8528C44.6146 69.1243 43.9553 70.637 43.9941 73.0029C44.0328 75.3301 43.9165 80.4888 43.8777 80.9542C43.8777 81.4197 43.5286 82.0402 42.9468 81.536C42.365 81.0318 39.1457 76.6489 37.1676 78.2779C35.1895 79.907 36.3143 86.4231 36.4307 87.1601C36.547 87.8582 36.3919 88.1685 36.0428 88.2849C35.6937 88.44 34.7628 86.8498 33.7932 85.6086C32.8235 84.4062 31.5047 83.165 30.4187 84.2123C29.3327 85.2595 28.557 89.9915 32.2805 98.1755L34.2586 101.86L38.4476 102.054C47.4461 101.938 51.3635 99.1839 51.8677 97.7876C52.372 96.3525 50.6654 95.6931 49.1527 95.3441C47.64 94.995 45.817 94.8398 45.7782 94.452C45.7394 94.0641 45.9334 93.7926 46.6315 93.5987C47.3297 93.4047 53.7295 91.6593 54.3501 89.1382C54.9707 86.6171 49.6181 85.6086 48.92 85.2983C48.2218 84.988 48.6484 84.4062 49.0751 84.2123C49.5018 84.0184 54.0786 81.6912 56.2118 80.7215C58.3451 79.7518 59.4699 78.5106 59.0821 77.1143C58.6942 75.7568 56.2894 75.9119 55.2034 75.6404C54.1174 75.3301 54.738 74.089 54.738 74.089C54.738 74.089 56.9488 71.4903 60.2457 66.1377C63.5425 60.7852 60.9438 59.5828 60.9438 59.5828" fill="#EBEBEB"/>
<path d="M33.5605 102.52C36.0041 98.6021 40.4646 91.7369 44.2657 85.8025C48.0668 79.8681 51.5188 74.5156 53.9623 70.5981C55.2035 68.6588 56.1732 67.0686 56.8713 65.9825C57.2204 65.4395 57.4919 65.0129 57.6471 64.7414C57.7246 64.5862 57.8022 64.5086 57.841 64.4311C57.8798 64.3535 57.9186 64.3147 57.9186 64.3147C57.9186 64.3147 57.8798 64.3535 57.841 64.4311C57.8022 64.5086 57.7246 64.625 57.6471 64.7801C57.4531 65.0904 57.2204 65.5171 56.8713 66.0601C56.2119 67.1461 55.2035 68.7364 54.0011 70.7145C51.5576 74.6319 48.1443 79.9845 44.3432 85.9189C40.5421 91.8532 36.0429 98.7185 33.5993 102.597" fill="#E0E0E0"/>
<path d="M47.1357 72.1108C47.1357 72.1108 47.1745 72.2272 47.2133 72.4211C47.2521 72.6151 47.2909 72.8866 47.3685 73.2357C47.4848 73.9338 47.64 74.8647 47.7563 75.9119C47.8727 76.9592 47.989 77.89 48.1054 78.5882C48.1442 78.8985 48.183 79.17 48.2218 79.4027C48.2606 79.5967 48.2606 79.713 48.2606 79.713C48.2606 79.713 48.2218 79.5967 48.183 79.4027C48.1442 79.2088 48.1054 78.9373 48.0278 78.5882C47.9115 77.89 47.7951 76.9592 47.64 75.9119C47.4848 74.8647 47.3685 73.9338 47.2909 73.2357C47.2521 72.9254 47.2133 72.6539 47.1745 72.4211C47.1357 72.1884 47.1357 72.1108 47.1357 72.1108Z" fill="#E0E0E0"/>
<path d="M48.6487 79.7905C48.6487 79.7517 50.588 79.3638 52.9928 78.9371C55.3976 78.5105 57.3369 78.2002 57.3369 78.2002C57.3369 78.239 55.3976 78.6268 52.9928 79.0535C50.588 79.4802 48.6487 79.8292 48.6487 79.7905Z" fill="#E0E0E0"/>
<path d="M42.365 88.634C42.365 88.634 42.4814 88.634 42.6753 88.634C42.908 88.6728 43.1795 88.6728 43.4898 88.7116C44.188 88.7892 45.1576 88.8667 46.2437 88.9443C47.3297 89.0219 48.2993 89.0607 48.9975 89.0607C49.3466 89.0607 49.6181 89.0607 49.8508 89.0995C50.0447 89.0995 50.1611 89.0995 50.1611 89.1383C50.1611 89.1383 50.0447 89.1383 49.8508 89.177C49.6569 89.177 49.3854 89.177 48.9975 89.2158C48.2993 89.2158 47.2909 89.2158 46.2437 89.1383C45.1576 89.0607 44.188 88.9443 43.4898 88.8667C43.1407 88.828 42.8692 88.7892 42.6753 88.7504C42.4814 88.634 42.365 88.634 42.365 88.634Z" fill="#E0E0E0"/>
<path d="M39.4949 81.9626C39.4949 81.9626 39.5337 82.0402 39.65 82.1954C39.7276 82.3893 39.844 82.622 39.9991 82.8935C40.2706 83.4753 40.6585 84.2898 41.0463 85.2207C41.4342 86.1128 41.8221 86.9661 42.0548 87.5479C42.1712 87.8194 42.2875 88.0522 42.3651 88.2461C42.4427 88.4012 42.4814 88.5176 42.4427 88.5176C42.4427 88.5176 42.4039 88.44 42.2875 88.2849C42.2099 88.0909 42.0936 87.8582 41.9384 87.5867C41.6669 87.0049 41.2791 86.1904 40.8912 85.2595C40.5033 84.3674 40.1155 83.5141 39.8827 82.9323C39.7664 82.6608 39.65 82.4281 39.5724 82.2342C39.5337 82.0402 39.4949 81.9626 39.4949 81.9626Z" fill="#E0E0E0"/>
<path d="M33.0176 89.0605C33.0176 89.0605 33.0952 89.1769 33.1728 89.3708C33.2891 89.6036 33.4443 89.9139 33.5994 90.2629C33.9485 91.0387 34.4527 92.0859 34.9958 93.2495C35.5388 94.4131 36.0042 95.4603 36.3533 96.2361C36.5084 96.5852 36.6636 96.8955 36.7412 97.1282C36.8187 97.3609 36.8963 97.4772 36.8575 97.4772C36.8575 97.4772 36.7799 97.3609 36.7024 97.167C36.586 96.9342 36.4309 96.6239 36.2757 96.2749C35.9266 95.4991 35.4224 94.4519 34.8794 93.2883C34.3364 92.1247 33.8709 91.0775 33.5219 90.3017C33.3667 89.9526 33.2116 89.6424 33.134 89.4096C33.0564 89.1769 32.9789 89.0605 33.0176 89.0605Z" fill="#E0E0E0"/>
<path d="M36.8186 97.2446C36.8186 97.2446 36.9738 97.2446 37.2065 97.2446C37.478 97.2446 37.8271 97.2834 38.2537 97.3222C39.1458 97.3998 40.387 97.4773 41.7445 97.5161C43.102 97.5549 44.3432 97.5937 45.2353 97.5937C45.662 97.5937 46.011 97.5937 46.2825 97.5937C46.5153 97.5937 46.6704 97.5937 46.6704 97.5937C46.6704 97.5937 46.5153 97.6325 46.2825 97.6325C46.0498 97.6325 45.662 97.6713 45.2353 97.6713C44.3432 97.7101 43.102 97.7101 41.7445 97.6325C40.387 97.5937 39.1458 97.4773 38.2537 97.3998C37.7883 97.361 37.4392 97.3222 37.2065 97.2834C36.9738 97.2834 36.8186 97.2446 36.8186 97.2446Z" fill="#E0E0E0"/>
<path d="M26.8505 74.3993C26.8505 74.3993 26.8892 75.0587 26.7341 76.2999C26.5789 77.541 26.1523 79.364 24.9887 81.4197L24.9499 81.3421H25.0275L24.9887 81.4197C22.4676 85.9189 18.6665 92.629 14.1284 100.697L14.0509 100.813L13.9733 100.697C10.5213 95.189 6.60382 88.9443 2.49244 82.3894C2.2985 82.0791 2.10457 81.7688 1.91064 81.4973L1.83306 81.3421H1.98821L1.91064 81.4973C1.01854 79.9846 0.436743 78.3168 0.165236 76.6489C0.0488762 75.7956 -0.0286971 74.9811 0.0100896 74.1278C0.0488762 73.7012 0.0488762 73.3133 0.0876629 72.8866C0.165236 72.46 0.204023 72.0721 0.281596 71.6455C0.902183 68.4262 2.68637 65.556 4.97478 63.6166C6.13838 62.647 7.41834 61.91 8.73709 61.4058L9.24131 61.2119L9.47403 61.1343L9.74554 61.0567C10.0946 60.9791 10.4049 60.8628 10.754 60.7852C11.4522 60.6688 12.1115 60.5525 12.7709 60.5525C13.4303 60.4749 14.0896 60.5525 14.749 60.5913C15.0593 60.6301 15.3696 60.6688 15.6799 60.7464C15.835 60.7852 15.9902 60.7852 16.1453 60.824C16.3005 60.8628 16.4556 60.9016 16.6108 60.9403C16.9211 61.0179 17.1926 61.0955 17.5029 61.1731C17.7744 61.2894 18.0847 61.4058 18.3562 61.4834C18.5113 61.5221 18.6277 61.5997 18.7828 61.6385C18.8992 61.7161 19.0543 61.7549 19.1707 61.8324C19.4422 61.9488 19.6749 62.1039 19.9464 62.2203C21.9245 63.3839 23.3984 64.8578 24.4069 66.3317C25.4153 67.8056 25.9971 69.2795 26.3462 70.4819C26.5014 71.1024 26.6565 71.6455 26.6953 72.1109C26.7729 72.5763 26.8117 73.003 26.8117 73.3133C26.8117 73.6236 26.8505 73.8951 26.8505 74.0502C26.8505 74.3217 26.8505 74.3993 26.8505 74.3993C26.8505 74.3993 26.8505 74.3217 26.8117 74.1278C26.8117 73.9339 26.7729 73.7012 26.7729 73.3909C26.7729 73.0418 26.6953 72.6539 26.6177 72.1885C26.5789 71.723 26.4238 71.18 26.2687 70.5594C25.9196 69.357 25.3378 67.9219 24.2905 66.448C23.2821 64.9742 21.8082 63.5003 19.8689 62.3754C19.6361 62.2591 19.3646 62.1039 19.0931 61.9876C18.9768 61.91 18.8216 61.8712 18.7053 61.7936C18.5889 61.7161 18.4337 61.6773 18.2786 61.6385C18.0071 61.5221 17.7356 61.4446 17.4253 61.3282C17.1538 61.2506 16.8435 61.1731 16.5332 61.0955C16.3781 61.0567 16.2229 61.0179 16.0678 60.9791C15.9126 60.9403 15.7575 60.9403 15.6023 60.9016C15.292 60.8628 14.9817 60.7852 14.6714 60.7852C14.0509 60.7464 13.3915 60.7076 12.7321 60.7464C12.0727 60.7464 11.4134 60.9016 10.7152 60.9791C10.3661 61.0567 10.0558 61.1731 9.70675 61.2506L9.47403 61.3282L9.24131 61.4058L8.73709 61.5997C7.41834 62.1039 6.13838 62.8409 5.01357 63.8106C2.76394 65.7499 1.01854 68.5425 0.397956 71.723C0.436743 72.1109 0.359169 72.4988 0.320383 72.8866C0.281596 73.3133 0.281596 73.7012 0.242809 74.1278C0.204023 74.9423 0.281596 75.7956 0.397956 76.6102C0.669463 78.278 1.25126 79.907 2.10457 81.3809L2.18214 81.5361H2.027L2.10457 81.3809C2.2985 81.6524 2.49244 81.9627 2.68637 82.273C6.79775 88.8667 10.7152 95.0726 14.1672 100.619H14.0121C18.5889 92.5902 22.39 85.8802 24.9499 81.3809L24.9887 81.4585H24.9111L24.9499 81.3809C26.1135 79.364 26.5402 77.5022 26.7341 76.2999C26.8117 75.6793 26.8505 75.2138 26.8505 74.8648C26.8505 74.7096 26.8505 74.5932 26.8505 74.5157C26.8505 74.4381 26.8505 74.3993 26.8505 74.3993Z" fill="#E0E0E0"/>
<path d="M22.0022 74.2442C22.0022 74.2442 22.0022 74.2054 22.0022 74.089C22.0022 73.9727 22.0022 73.8563 21.9634 73.7012C21.9634 73.6236 21.9634 73.5072 21.9634 73.3909C21.9634 73.2745 21.9246 73.1582 21.9246 73.0418C21.8858 72.7703 21.847 72.4988 21.7307 72.1497C21.5755 71.4903 21.2652 70.7146 20.7998 69.9001C20.2955 69.0856 19.5974 68.2323 18.6665 67.4953C17.6968 66.7972 16.4945 66.1766 15.1369 65.9051C13.7406 65.6723 12.1891 65.7111 10.7152 66.2541C10.3274 66.3705 9.9783 66.5644 9.62922 66.7196C9.28014 66.9135 8.93106 67.1075 8.58198 67.379C8.2329 67.6117 7.92261 67.922 7.61231 68.1935C7.34081 68.5038 7.03051 68.8141 6.79779 69.1631C6.29357 69.8613 5.86691 70.637 5.59541 71.4903C5.3239 72.3436 5.16875 73.2357 5.16875 74.1278C5.16875 75.0587 5.3239 75.9508 5.59541 76.7653C5.86691 77.6186 6.29357 78.3944 6.79779 79.0925C7.03051 79.4416 7.34081 79.7519 7.61231 80.0622C7.92261 80.3337 8.2329 80.644 8.58198 80.8767C8.89227 81.1482 9.28014 81.3421 9.62922 81.5361C9.9783 81.73 10.3662 81.8852 10.7152 82.0403C12.1891 82.6221 13.7406 82.6609 15.1369 82.4282C16.5332 82.1955 17.7356 81.5749 18.6665 80.8767C19.6362 80.1398 20.3343 79.3252 20.8386 78.5107C21.3428 77.6962 21.6531 76.9205 21.7694 76.2611C21.8858 75.9508 21.9246 75.6405 21.9634 75.369C22.0022 75.2526 22.0022 75.1363 22.0022 75.0199C22.0022 74.9036 22.0022 74.826 22.0409 74.7096C22.0409 74.5545 22.0797 74.3993 22.0797 74.3218C21.9634 74.283 22.0022 74.2442 22.0022 74.2442C22.0022 74.2442 22.0022 74.283 22.0022 74.3993C22.0022 74.5157 22.0022 74.6321 22.0022 74.7872C22.0022 74.8648 22.0022 74.9811 22.0022 75.0975C22.0022 75.2139 21.9634 75.3302 21.9634 75.4466C21.9246 75.7181 21.8858 75.9896 21.8082 76.3387C21.6531 76.998 21.3428 77.7738 20.8773 78.6271C20.3731 79.4416 19.675 80.3337 18.7053 81.0706C17.7356 81.8076 16.5332 82.4282 15.0981 82.6609C13.7018 82.8936 12.1116 82.8548 10.5989 82.273C10.211 82.1567 9.86194 81.9627 9.47407 81.7688C9.12499 81.5749 8.73713 81.3421 8.42683 81.1094C8.07775 80.8767 7.76746 80.5664 7.45717 80.2949C7.18566 79.9846 6.87537 79.6743 6.60386 79.2865C6.09963 78.5883 5.63419 77.7738 5.36269 76.9205C5.09118 76.0672 4.93604 75.1363 4.93604 74.2054C4.93604 73.2745 5.09118 72.3436 5.40147 71.4903C5.67298 70.637 6.13842 69.8225 6.64265 69.1244C6.87537 68.7753 7.18566 68.465 7.49595 68.1159C7.80625 67.8444 8.11654 67.5341 8.46562 67.3014C8.77591 67.0299 9.16378 66.8359 9.51286 66.642C9.90073 66.4481 10.2498 66.2929 10.6377 66.1378C12.1504 65.556 13.7406 65.556 15.1369 65.7887C16.5332 66.0602 17.7744 66.6808 18.7441 67.4177C19.7137 68.1547 20.4119 69.0468 20.8773 69.8613C21.3428 70.7146 21.6531 71.4903 21.8082 72.1497C21.8858 72.46 21.9246 72.7703 21.9634 73.0418C21.9634 73.1582 22.0022 73.2745 22.0022 73.3909C22.0022 73.5072 22.0022 73.5848 22.0022 73.7012C22.0022 73.8563 22.0022 74.0115 22.0022 74.089C22.0022 74.2054 22.0022 74.2442 22.0022 74.2442Z" fill="#E0E0E0"/>
<path d="M13.3138 78.2005L8.38794 74.7485L9.59033 73.0419L12.8872 75.3303L17.1925 69.9001L18.8215 71.2189L13.3138 78.2005Z" fill="#E0E0E0"/>
<path fill-rule="evenodd" clip-rule="evenodd" d="M151.433 14.4352C152.907 14.6291 154.303 14.9782 155.622 15.56L158.725 12.9613L164.039 16.9951L162.371 20.641C163.263 21.7658 164 23.0458 164.543 24.4033L168.538 24.7524L169.43 31.3461L165.668 32.7425C165.474 34.2163 165.125 35.6127 164.543 36.9314L167.142 40.0343L163.108 45.3481L159.462 43.6803C158.337 44.5724 157.057 45.3093 155.7 45.8523L155.351 49.8474L148.757 50.7395L147.361 46.9772C145.887 46.7832 144.49 46.4341 143.172 45.8523L140.069 48.451L134.755 44.4172L136.423 40.7713C135.531 39.6465 134.794 38.3665 134.251 37.009L130.256 36.6599L129.364 30.0662L133.087 28.6699C133.281 27.196 133.63 25.7996 134.212 24.4809L131.613 21.378L135.647 16.0642L139.293 17.732C140.418 16.8399 141.698 16.103 143.055 15.56L143.404 11.5649L149.998 10.6729L151.433 14.4352ZM149.455 23.55C144.917 23.7052 141.698 27.9329 142.745 32.3546C143.521 35.6127 146.585 37.9399 149.92 37.8235C154.458 37.6684 157.678 33.4406 156.631 29.0189C155.855 25.7609 152.829 23.4337 149.455 23.55Z" fill="#F5F5F5"/>
<path fill-rule="evenodd" clip-rule="evenodd" d="M91.3525 35.5351C92.2834 35.6515 93.2143 35.8842 94.0676 36.2721L96.0845 34.6042L99.5365 37.2417L98.4505 39.6077C99.0323 40.3447 99.4977 41.1592 99.8856 42.0513L102.484 42.284L103.066 46.5505L100.623 47.4814C100.506 48.4123 100.273 49.3432 99.8856 50.1965L101.553 52.2134L98.9547 55.6654L96.5887 54.5794C95.8518 55.1612 95.0373 55.6266 94.1452 56.0145L93.9124 58.6132L89.6459 59.195L88.715 56.7514C87.7842 56.635 86.8533 56.4023 86 56.0145L83.9831 57.6823L80.5311 55.0448L81.6171 52.6788C81.0353 51.9419 80.5698 51.1273 80.182 50.2353L77.5833 50.0025L77.0015 45.736L79.445 44.8051C79.5614 43.8742 79.7941 42.9434 80.182 42.0901L78.5141 40.0731L81.1129 36.6211L83.4788 37.7072C84.2158 37.1254 85.0303 36.6599 85.9224 36.2721L86.1551 33.6734L90.4216 33.0916L91.3525 35.5351ZM90.0338 41.4695C87.086 41.5858 84.9915 44.3397 85.6897 47.2099C86.1939 49.3432 88.172 50.817 90.3441 50.7395C93.2919 50.6231 95.3863 47.8693 94.6882 44.9991C94.2227 42.8658 92.2446 41.3919 90.0338 41.4695Z" fill="#EBEBEB"/>
<path d="M127.269 66.8359C127.269 66.8359 127.89 67.0686 128.821 67.8444C129.713 68.6201 130.876 70.094 131.225 72.266C131.38 73.3521 131.38 74.5544 130.954 75.7956C130.566 76.998 129.829 78.2392 128.743 79.1701C128.2 79.6743 127.579 80.0621 126.881 80.3724C126.183 80.6827 125.446 80.9155 124.67 81.0318C123.119 81.2645 121.412 80.9542 119.938 80.1785C118.465 79.364 117.301 78.1228 116.68 76.6877C116.331 75.9896 116.137 75.2138 116.021 74.4769C115.905 73.7399 115.943 72.9642 116.06 72.266C116.254 70.8309 116.913 69.551 117.728 68.5813C118.542 67.5728 119.551 66.9135 120.559 66.4868C122.576 65.6335 124.438 65.7887 125.562 66.1377C126.726 66.448 127.269 66.8359 127.269 66.8359C127.23 66.8747 126.687 66.5256 125.524 66.2541C124.399 65.9826 122.615 65.8662 120.675 66.7195C119.744 67.1462 118.775 67.8056 117.999 68.7752C117.262 69.7449 116.642 70.9473 116.448 72.3048C116.331 72.9642 116.331 73.7011 116.448 74.3993C116.525 75.0975 116.758 75.8344 117.068 76.4938C117.689 77.8513 118.775 79.0149 120.171 79.7906C121.567 80.5276 123.158 80.8379 124.632 80.6052C125.369 80.5276 126.067 80.2949 126.726 79.9846C127.385 79.6743 127.967 79.3252 128.471 78.8598C129.519 77.9677 130.217 76.8041 130.605 75.6405C130.993 74.4769 131.031 73.3133 130.915 72.266C130.605 70.1715 129.557 68.7364 128.704 67.9219C127.851 67.185 127.269 66.9135 127.269 66.8359Z" fill="#EBEBEB"/>
<path d="M135.298 60.8238C135.298 60.8238 135.298 60.7462 135.337 60.5523C135.376 60.3584 135.453 60.1256 135.531 59.7766C135.725 59.0784 135.996 58.0699 136.384 56.7124L136.423 56.79C134.833 55.9367 132.777 54.8119 130.294 53.4543L130.411 53.4156C129.558 54.3852 128.627 55.4325 127.618 56.5961L127.579 56.6348H127.502C126.106 56.2858 124.593 56.1306 123.003 56.1694H122.925L122.886 56.0918C122.227 54.9282 121.567 53.6871 120.831 52.4071L121.024 52.4847C118.93 53.1053 116.68 53.7646 114.314 54.4628L114.431 54.3076C114.508 55.6264 114.586 57.0615 114.702 58.5354V58.6517L114.625 58.6905C113.422 59.4275 112.181 60.3584 111.095 61.522L111.018 61.5995L110.901 61.5607C109.66 61.2117 108.264 60.8238 106.829 60.3971L107.061 60.3196C106.014 62.2589 104.889 64.3146 103.726 66.4479L103.687 66.2151C104.657 67.0685 105.743 68.0381 106.867 69.0078L106.945 69.0854L106.906 69.2017C106.557 70.5592 106.363 72.1107 106.441 73.6622V73.7785L106.324 73.8561C105.161 74.5155 103.92 75.2136 102.64 75.9118L102.756 75.6791C103.377 77.8123 104.036 80.062 104.695 82.3892L104.463 82.234C105.781 82.1565 107.216 82.0789 108.69 81.9625H108.807L108.884 82.0789C109.621 83.3201 110.591 84.5224 111.677 85.5697C111.716 85.6473 111.638 85.337 111.754 85.8024V85.8412V85.9188L111.716 86.0351L111.638 86.3066L111.483 86.8108L111.173 87.8193C110.979 88.4787 110.785 89.1768 110.591 89.8362L110.475 89.6035C112.53 90.7283 114.586 91.8531 116.603 92.9779L116.331 93.0167C117.262 91.9695 118.193 90.8835 119.124 89.875L119.202 89.7974L119.318 89.8362C120.792 90.1853 122.304 90.3792 123.778 90.3404H123.895L123.972 90.4568C124.67 91.698 125.33 92.9391 126.028 94.1415L125.795 94.0252C128.084 93.3658 130.333 92.7064 132.505 92.0858L132.35 92.2798C132.273 90.8447 132.195 89.4483 132.117 88.052V87.9357L132.234 87.8581C133.553 87.0824 134.716 86.1127 135.763 85.0267L135.841 84.9491L135.957 84.9879C137.354 85.3757 138.711 85.7636 140.03 86.1515L139.836 86.229C141.038 84.0958 142.124 82.0401 143.21 80.1008L143.249 80.2947C142.124 79.325 141.116 78.3941 140.108 77.5021L140.03 77.4245L140.069 77.3469C140.457 75.7954 140.612 74.2828 140.573 72.8477V72.7701L140.651 72.7313C142.008 71.9944 143.21 71.335 144.335 70.7144L144.258 70.8695C143.521 68.2708 142.861 66.06 142.318 64.1595L142.435 64.237C140.767 64.3146 139.371 64.3922 138.207 64.4697H138.168L138.129 64.431C137.354 63.1122 136.617 62.2201 136.112 61.6771C135.88 61.4056 135.686 61.2117 135.531 61.0565C135.337 60.9014 135.259 60.8238 135.298 60.8238C135.298 60.8238 135.376 60.9014 135.531 61.0177C135.686 61.1341 135.88 61.328 136.151 61.5995C136.655 62.1425 137.431 63.0346 138.246 64.3534L138.168 64.3146C139.332 64.237 140.689 64.1595 142.396 64.0431H142.473L142.512 64.1207C143.055 66.0212 143.715 68.232 144.49 70.8308L144.529 70.9471L144.452 70.9859C143.327 71.6065 142.124 72.3046 140.767 73.0416L140.844 72.9252C140.883 74.3603 140.728 75.9118 140.34 77.5021L140.301 77.3469C141.31 78.239 142.357 79.1699 143.482 80.1395L143.598 80.2171L143.521 80.3335C142.473 82.2728 141.349 84.2897 140.185 86.4618L140.108 86.5781L139.952 86.5393C138.634 86.1515 137.276 85.7636 135.88 85.3757L136.074 85.337C135.026 86.423 133.824 87.3927 132.467 88.2072L132.544 88.0132C132.622 89.4096 132.699 90.8059 132.816 92.241V92.3961L132.66 92.4349C130.488 93.0555 128.239 93.7149 125.95 94.413L125.795 94.4518L125.718 94.2967C125.058 93.0943 124.36 91.8531 123.662 90.6119L123.856 90.7283C122.343 90.7671 120.792 90.6119 119.279 90.2241L119.473 90.1465C118.542 91.1937 117.611 92.241 116.68 93.327L116.564 93.4434L116.409 93.3658C114.392 92.2798 112.336 91.155 110.281 89.9914L110.125 89.9138L110.164 89.7586C110.358 89.0993 110.552 88.4011 110.746 87.7417L111.056 86.7333L111.211 86.229L111.289 85.9575L111.328 85.8412V85.7636V85.7248C111.444 86.1515 111.367 85.8412 111.367 85.9575C110.203 84.8715 109.233 83.6303 108.496 82.3504L108.69 82.4667C107.255 82.5443 105.82 82.6607 104.463 82.7383H104.307L104.269 82.5831C103.609 80.2947 102.95 78.0063 102.329 75.873L102.291 75.7179L102.446 75.6403C103.726 74.9421 104.967 74.244 106.13 73.5846L106.014 73.7785C105.975 72.1883 106.169 70.598 106.518 69.2017L106.596 69.3956C105.51 68.426 104.424 67.4563 103.454 66.603L103.338 66.4867L103.415 66.3315C104.579 64.1982 105.743 62.1425 106.79 60.2032L106.867 60.0869L107.022 60.1256C108.419 60.5135 109.815 60.9402 111.095 61.2892L110.901 61.328C112.026 60.1644 113.267 59.1948 114.508 58.4578L114.431 58.613C114.353 57.1391 114.276 55.704 114.198 54.3852V54.2689L114.314 54.2301C116.68 53.5319 118.93 52.9113 121.024 52.2907L121.141 52.252L121.218 52.3683C121.917 53.6483 122.615 54.9282 123.274 56.053L123.158 55.9755C124.787 55.9367 126.338 56.1306 127.735 56.4797L127.618 56.5185C128.627 55.3937 129.558 54.3076 130.411 53.3768L130.488 53.2992L130.566 53.338C133.048 54.7343 135.104 55.8591 136.655 56.7512L136.694 56.79V56.8288C136.306 58.1475 135.996 59.1172 135.802 59.8153C135.686 60.1256 135.608 60.3971 135.569 60.5911C135.337 60.7074 135.298 60.8238 135.298 60.8238Z" fill="#EBEBEB"/>
<path d="M151.705 67.8444L145.615 43.6415L170.4 43.2148L151.705 67.8444Z" fill="#EBEBEB"/>
<path d="M162.922 47.9319L154.411 59.1477L199.737 93.5438L208.249 82.328L162.922 47.9319Z" fill="#EBEBEB"/>
<path d="M195.999 129.709L199.141 136.846C199.141 136.846 192.935 142.431 193.4 143.827L207.441 138.242L202.981 126.917L195.999 129.709Z" fill="#E8505B"/>
<path opacity="0.5" d="M195.999 129.709L199.141 136.846C199.141 136.846 192.935 142.431 193.4 143.827L207.441 138.242L202.981 126.917L195.999 129.709Z" fill="black"/>
<path d="M207.441 138.203L206.937 137.079L193.633 142.858C193.633 142.858 193.129 143.362 193.361 143.789L207.441 138.203Z" fill="#263238"/>
<path d="M220.745 139.794L224.701 146.504C224.701 146.504 219.193 152.748 219.775 154.067L233.079 146.892L227.377 136.148L220.745 139.794Z" fill="#E8505B"/>
<path opacity="0.5" d="M220.745 139.794L224.701 146.504C224.701 146.504 219.193 152.748 219.775 154.067L233.079 146.892L227.377 136.148L220.745 139.794Z" fill="black"/>
<path d="M233.079 146.931L232.459 145.883L219.931 153.136C219.931 153.136 219.465 153.718 219.775 154.106L233.079 146.931Z" fill="#263238"/>
<path d="M203.563 45.4258L194.913 46.0852L194.642 41.2369C194.642 41.2369 191.151 41.1981 190.647 37.7849C190.142 34.3716 189.599 26.4592 189.599 26.4592C193.323 24.2095 197.938 24.132 201.701 26.2652L202.244 26.5755L203.563 45.4258Z" fill="#FFBE9D"/>
<path d="M194.642 41.237C194.642 41.237 196.814 41.1206 198.908 39.3364C198.908 39.3364 198.171 42.0127 194.719 42.1679L194.642 41.237Z" fill="#EB996E"/>
<path d="M202.36 30.2603C202.399 30.2215 204.61 29.2518 204.842 31.579C205.114 33.9062 202.709 33.6735 202.67 33.6347C202.67 33.5571 202.36 30.2603 202.36 30.2603Z" fill="#FFBE9D"/>
<path d="M203.291 32.6652C203.291 32.6652 203.33 32.704 203.407 32.704C203.485 32.7428 203.601 32.7428 203.718 32.6652C203.95 32.5488 204.106 32.1222 204.106 31.6955C204.106 31.4628 204.028 31.2689 203.912 31.1137C203.834 30.9586 203.679 30.8422 203.563 30.8422C203.446 30.8422 203.369 30.9198 203.33 30.9974C203.291 31.0749 203.33 31.1137 203.33 31.1137C203.33 31.1137 203.291 31.0749 203.291 30.9974C203.291 30.9586 203.33 30.881 203.369 30.8422C203.407 30.8034 203.485 30.7646 203.601 30.7646C203.795 30.7646 203.95 30.9198 204.067 31.0749C204.183 31.2689 204.261 31.4628 204.261 31.6955C204.299 32.161 204.106 32.6264 203.756 32.7816C203.601 32.8591 203.446 32.8203 203.369 32.7428C203.33 32.704 203.291 32.6652 203.291 32.6652Z" fill="#EB996E"/>
<path d="M191.073 31.8895C191.112 32.161 191.345 32.355 191.616 32.3162C191.888 32.2774 192.082 32.0835 192.043 31.812C192.004 31.5405 191.771 31.3465 191.5 31.3853C191.228 31.3853 191.035 31.618 191.073 31.8895Z" fill="#263238"/>
<path d="M190.918 31.2299C190.996 31.2687 191.306 30.9584 191.849 30.8809C192.353 30.8033 192.78 30.9972 192.857 30.9584C192.896 30.9196 192.819 30.8033 192.625 30.7257C192.431 30.6094 192.159 30.5318 191.81 30.6094C191.5 30.6481 191.228 30.8033 191.073 30.9584C190.918 31.0748 190.879 31.1911 190.918 31.2299Z" fill="#263238"/>
<path d="M196.154 31.2687C196.193 31.5402 196.426 31.7341 196.697 31.6953C196.969 31.6566 197.163 31.4626 197.124 31.1911C197.085 30.9196 196.852 30.7257 196.581 30.7645C196.348 30.8033 196.154 31.036 196.154 31.2687Z" fill="#263238"/>
<path d="M196.077 30.6093C196.154 30.6481 196.465 30.3378 197.008 30.2603C197.512 30.1827 197.938 30.3766 198.016 30.3378C198.055 30.299 197.977 30.1827 197.783 30.1051C197.589 29.9887 197.318 29.9112 196.969 29.9887C196.659 30.0275 196.387 30.1827 196.232 30.3378C196.077 30.4542 196.038 30.5705 196.077 30.6093Z" fill="#263238"/>
<path d="M194.719 34.7596C194.719 34.7208 194.37 34.7208 193.866 34.7208C193.749 34.7208 193.594 34.7208 193.555 34.6432C193.517 34.5656 193.555 34.4105 193.594 34.2166C193.672 33.8675 193.749 33.5184 193.866 33.1305C194.215 31.6178 194.447 30.3379 194.37 30.3379C194.292 30.3379 193.982 31.5403 193.633 33.0917C193.555 33.4796 193.478 33.8287 193.4 34.1778C193.361 34.3329 193.323 34.5268 193.4 34.7208C193.439 34.7984 193.555 34.8759 193.633 34.8759C193.711 34.8759 193.788 34.8759 193.866 34.8759C194.409 34.8371 194.719 34.7596 194.719 34.7596Z" fill="#263238"/>
<path d="M196.309 34.876C196.232 34.876 196.309 35.4578 195.883 35.9232C195.456 36.3887 194.835 36.4274 194.835 36.505C194.835 36.5438 194.991 36.5826 195.223 36.5826C195.456 36.5438 195.844 36.4274 196.077 36.1171C196.348 35.8456 196.426 35.4966 196.426 35.2251C196.426 35.0311 196.348 34.876 196.309 34.876Z" fill="#263238"/>
<path d="M195.65 28.5538C195.727 28.6701 196.232 28.5538 196.852 28.5538C197.473 28.515 198.016 28.6313 198.055 28.515C198.093 28.4374 197.977 28.321 197.744 28.2047C197.512 28.0883 197.201 28.0107 196.813 28.0107C196.426 28.0107 196.115 28.1271 195.883 28.2435C195.727 28.3598 195.611 28.515 195.65 28.5538Z" fill="#263238"/>
<path d="M190.918 29.6786C191.034 29.795 191.384 29.601 191.81 29.5622C192.237 29.4847 192.625 29.5235 192.702 29.4071C192.741 29.3295 192.663 29.2132 192.47 29.1356C192.314 29.058 192.004 28.9804 191.733 29.058C191.422 29.0968 191.19 29.2519 191.073 29.4071C190.879 29.4847 190.841 29.6398 190.918 29.6786Z" fill="#263238"/>
<path d="M187.66 24.5973C187.582 24.1707 187.66 23.7053 187.97 23.395C188.28 23.0847 188.823 23.0459 189.134 23.3174C188.901 22.7744 189.25 22.0374 189.832 21.9211C190.375 21.8047 190.918 22.1538 191.461 22.2314C192.004 22.3089 192.547 22.115 193.012 21.8047C193.478 21.5332 193.904 21.1841 194.409 20.9126C195.417 20.3696 196.658 20.2532 197.744 20.5635C198.83 20.8738 199.8 21.6496 200.343 22.658C201.041 22.3089 201.972 22.5804 202.515 23.1622C203.058 23.744 203.291 24.5586 203.33 25.3343C203.33 25.8773 203.252 26.3815 203.136 26.9245C203.136 26.9633 203.136 27.0021 203.174 27.0409C203.407 28.9027 203.485 31.1523 202.709 31.2687C201.313 31.5014 201.274 28.8251 201.274 28.8251C199.49 28.3984 199.761 25.7609 199.257 25.4119C198.792 25.1016 197.744 24.2871 194.447 26.653C193.168 27.5451 191.306 27.7779 190.259 27.7003C190.22 27.7003 190.181 27.7003 190.181 27.7003C190.181 27.7003 190.181 27.7003 190.142 27.7003H190.103C189.754 27.6615 189.444 27.5839 189.134 27.4288C188.785 27.2736 188.436 27.0409 188.242 26.6918C188.048 26.3427 188.048 25.9161 188.28 25.6058C188.009 25.3731 187.737 25.024 187.66 24.5973Z" fill="#263238"/>
<path d="M194.641 44.2237L195.029 57.7602L203.446 39.6468L203.213 37.979L194.641 44.2237Z" fill="#EBEBEB"/>
<path d="M200.227 84.6779C199.917 84.7943 182.385 102.481 182.773 105.7C183.161 108.881 195.65 132.463 195.65 132.463L204.532 128.08L196.193 107.407L196.309 106.127L206.51 97.749L205.967 84.29L200.227 84.6779Z" fill="#263238"/>
<path d="M203.989 88.1686C204.183 88.4789 207.208 116.328 208.023 117.763C208.837 119.198 221.016 142.974 221.016 142.974L230.054 139.328L218.999 113.225L220.241 88.5177L219.542 81.5361L205.89 84.3288L203.989 88.1686Z" fill="#263238"/>
<path d="M207.868 117.259C207.868 117.259 207.829 117.181 207.79 116.987C207.752 116.793 207.713 116.522 207.674 116.173C207.558 115.436 207.402 114.427 207.209 113.225C206.859 110.704 206.355 107.252 205.812 103.451C205.269 99.6495 204.804 96.1975 204.455 93.6764C204.3 92.4352 204.144 91.4267 204.067 90.6898C204.028 90.3407 203.989 90.0692 203.989 89.8753C203.95 89.6813 203.95 89.6038 203.95 89.6038C203.95 89.6038 203.989 89.6813 204.028 89.8753C204.067 90.0692 204.106 90.3407 204.144 90.6898C204.261 91.4267 204.416 92.4352 204.61 93.6376C204.959 96.1587 205.463 99.6107 206.006 103.412C206.549 107.213 207.015 110.665 207.364 113.186C207.519 114.427 207.674 115.436 207.752 116.173C207.79 116.522 207.829 116.793 207.829 116.987C207.868 117.181 207.907 117.259 207.868 117.259Z" fill="#455A64"/>
<path d="M218.806 112.41C218.844 112.41 218.612 113.419 218.263 114.621C217.914 115.824 217.603 116.793 217.565 116.793C217.526 116.793 217.758 115.785 218.108 114.582C218.457 113.341 218.767 112.372 218.806 112.41Z" fill="#455A64"/>
<path d="M220.202 118.694C220.202 118.694 219.969 118.461 219.698 117.996C219.426 117.53 219.155 116.871 218.961 116.095C218.806 115.319 218.806 114.582 218.844 114.039C218.883 113.535 218.999 113.225 218.999 113.225C219.077 113.225 218.806 114.505 219.155 116.056C219.465 117.608 220.241 118.655 220.202 118.694Z" fill="#455A64"/>
<path d="M193.284 104.381C193.284 104.343 194.021 104.653 194.758 105.312C195.456 105.972 195.844 106.67 195.805 106.67C195.766 106.709 195.34 106.088 194.641 105.429C193.904 104.808 193.245 104.42 193.284 104.381Z" fill="#455A64"/>
<path d="M194.642 103.567C194.68 103.528 195.107 103.916 195.495 104.537C195.883 105.157 196.038 105.739 195.999 105.739C195.96 105.778 195.728 105.235 195.34 104.614C194.991 104.032 194.603 103.606 194.642 103.567Z" fill="#455A64"/>
<path d="M195.844 62.9576L198.094 74.0893L199.917 89.604C199.917 89.604 207.441 88.5568 210.622 87.5483C214.345 86.3847 222.413 85.3763 222.413 85.3763L221.055 86.7338C223.964 85.9193 225.787 83.1654 225.787 83.1654C220.784 78.5498 216.556 69.0471 216.556 69.0471L212.755 50.2356C212.755 50.2356 212.173 47.5981 211.824 46.3957C211.475 45.2321 205.735 41.3922 204.92 40.9268L204.416 40.694L204.261 39.1814L203.679 38.8323L197.473 44.4176C196.271 45.5036 195.495 47.0163 195.301 48.6453C195.107 50.3519 194.913 52.8343 195.03 55.7433C195.107 57.9153 195.844 62.9576 195.844 62.9576Z" fill="#54609A"/>
<path d="M200.149 43.6806C200.149 43.6806 196.853 45.426 196.271 46.9387C195.689 48.4513 197.396 64.8581 197.396 64.8581L185.566 65.0908L185.527 72.15C185.527 72.15 204.3 73.6239 205.037 72.6154C206.006 71.2579 207.17 58.4195 207.17 58.4195L207.596 49.1883C207.596 49.1883 206.51 42.1291 200.149 43.6806Z" fill="#54609A"/>
<g opacity="0.3">
<g opacity="0.3">
<path opacity="0.3" d="M198.094 74.0508C199.684 74.555 201.158 74.6326 202.825 74.4774C204.493 74.3223 206.2 73.4302 206.821 71.8787C207.286 70.6763 207.092 69.3576 207.17 68.0776C207.247 66.9528 207.519 65.8668 207.674 64.7808C207.829 63.6947 207.286 61.6778 206.898 60.5918C206.898 60.5918 206.471 68.194 205.269 71.4133C205.114 71.8399 204.92 72.3054 204.532 72.5769C204.105 72.9259 203.524 72.9647 202.981 73.0035C201.468 73.1587 197.822 72.8872 197.822 72.8872" fill="black"/>
</g>
</g>
<path d="M207.596 50.1582C207.596 50.1582 207.596 50.197 207.596 50.3134C207.596 50.4297 207.596 50.5849 207.596 50.8176C207.558 51.2442 207.558 51.9036 207.519 52.7181C207.48 53.5326 207.441 54.5411 207.364 55.7047C207.286 56.8683 207.247 58.187 207.092 59.6609C206.976 61.1348 206.821 62.7251 206.627 64.4317C206.433 66.1383 206.239 67.9613 205.89 69.9006C205.812 70.366 205.735 70.8703 205.579 71.3357C205.424 71.8012 205.153 72.2666 204.726 72.6157C204.338 72.926 203.795 73.1587 203.252 73.1587C202.748 73.1587 202.205 73.1587 201.662 73.1587C199.568 73.1199 197.357 73.0035 195.146 72.8872C191.81 72.6932 188.552 72.4993 185.527 72.2666H185.449V72.189C185.449 69.7067 185.488 67.3407 185.488 65.1686V65.0911H185.566C190.298 64.9747 194.215 64.8971 196.969 64.8583C198.326 64.8196 199.412 64.8196 200.149 64.8196C200.498 64.8196 200.809 64.8196 201.003 64.8196C201.197 64.8196 201.274 64.8196 201.274 64.8196C201.274 64.8196 201.158 64.8196 201.003 64.8583C200.809 64.8583 200.537 64.8583 200.149 64.8971C199.412 64.9359 198.326 64.9359 196.969 65.0135C194.215 65.0911 190.298 65.2074 185.566 65.3238L185.643 65.2462C185.643 67.4183 185.643 69.7842 185.604 72.2666L185.527 72.189C188.552 72.383 191.771 72.6157 195.146 72.7708C197.396 72.8872 199.568 73.0035 201.662 73.0423C202.205 73.0423 202.709 73.0811 203.213 73.0423C203.718 73.0811 204.183 72.8484 204.571 72.5769C204.959 72.2666 205.23 71.8399 205.386 71.3745C205.541 70.9091 205.618 70.4436 205.696 69.9394C206.006 68.0388 206.239 66.2159 206.433 64.5093C206.627 62.8026 206.782 61.2124 206.937 59.7385C207.092 58.2646 207.131 56.9459 207.209 55.7823C207.286 54.6187 207.364 53.6102 207.402 52.7957C207.441 51.9812 207.519 51.3606 207.519 50.8952C207.519 50.7012 207.558 50.5073 207.558 50.3909C207.558 50.2358 207.596 50.1582 207.596 50.1582Z" fill="#263238"/>
<path d="M187.854 72.0337C187.815 72.0337 187.777 70.521 187.777 68.6205C187.777 66.72 187.854 65.2073 187.893 65.2073C187.932 65.2073 187.971 66.72 187.971 68.6205C187.971 70.521 187.932 72.0337 187.854 72.0337Z" fill="#263238"/>
<path d="M186.613 66.2546C186.574 66.2546 186.691 66.0994 186.923 66.177C187.04 66.2158 187.156 66.3321 187.156 66.4873C187.156 66.6424 187.078 66.8364 186.923 66.9139C186.729 66.9915 186.574 66.9139 186.458 66.8364C186.341 66.72 186.303 66.5649 186.341 66.4485C186.38 66.2158 186.535 66.177 186.574 66.2158C186.574 66.2546 186.497 66.3321 186.497 66.4873C186.497 66.5649 186.535 66.6424 186.613 66.72C186.691 66.7976 186.807 66.7976 186.884 66.7588C186.962 66.72 187.04 66.6037 187.04 66.5261C187.04 66.4485 187.001 66.3709 186.923 66.3321C186.729 66.2546 186.613 66.2934 186.613 66.2546Z" fill="#263238"/>
<path d="M212.833 51.7483C212.833 51.7483 219 59.7771 219.737 61.988C220.474 64.16 219.892 67.3405 218.651 68.8144C217.409 70.3271 216.401 69.7065 216.401 69.7065L212.833 51.7483Z" fill="#54609A"/>
<path d="M216.168 69.0861C216.168 69.1249 215.47 69.3188 214.617 69.4352C213.764 69.5903 213.065 69.6679 213.027 69.5903C212.988 69.5128 213.725 69.3576 214.578 69.2412C215.47 69.0861 216.168 69.0085 216.168 69.0861Z" fill="#263238"/>
<path d="M217.332 75.0205C217.332 75.0205 217.41 75.1757 217.487 75.4472C217.565 75.7187 217.72 76.1065 217.914 76.6108C218.263 77.5804 218.845 78.938 219.582 80.3343C220.319 81.7306 221.056 82.9718 221.637 83.8639C221.909 84.2905 222.18 84.6396 222.335 84.8723C222.491 85.105 222.568 85.2602 222.568 85.2602C222.568 85.2602 222.452 85.1438 222.258 84.9111C222.064 84.6784 221.831 84.3293 221.521 83.9026C220.9 83.0493 220.125 81.8082 219.388 80.4118C218.651 78.9767 218.108 77.658 217.797 76.6495C217.642 76.1453 217.526 75.7575 217.448 75.4472C217.371 75.1757 217.332 75.0205 217.332 75.0205Z" fill="#263238"/>
<g opacity="0.3">
<g opacity="0.3">
<path opacity="0.3" d="M217.758 75.9512C218.728 77.6966 219.736 79.442 221.21 80.7995C221.753 81.2649 222.335 81.6916 222.723 82.2734C223.111 82.8552 223.305 83.6697 222.917 84.2515C222.801 84.4455 222.529 84.6394 222.296 84.6006C222.141 84.5618 221.986 84.4067 221.908 84.2903C220.047 81.9243 218.65 79.1705 217.836 76.2615" fill="black"/>
</g>
</g>
<g opacity="0.3">
<g opacity="0.3">
<path opacity="0.3" d="M216.944 69.7066C217.797 69.086 218.069 67.9612 217.952 66.9139C217.836 65.8667 217.371 64.9358 216.944 64.0049C215.625 61.0572 214.733 58.4197 213.957 55.2392L213.375 53.0283L216.401 68.9308L216.944 69.7066Z" fill="black"/>
</g>
</g>
<path d="M201.74 42.9825C201.701 42.9437 202.244 42.4782 202.903 41.8189C203.524 41.1983 203.989 40.6553 204.067 40.6553C204.105 40.6941 203.718 41.3146 203.058 41.9352C202.36 42.6334 201.778 43.0213 201.74 42.9825Z" fill="#263238"/>
<path d="M201.119 44.3398C201.119 44.3786 200.77 44.495 200.227 44.7665C199.684 45.038 198.986 45.5034 198.326 46.1628C197.667 46.8222 197.24 47.5591 196.969 48.1021C196.697 48.6452 196.62 49.033 196.581 48.9942C196.581 48.9942 196.581 48.8779 196.62 48.7227C196.658 48.5676 196.736 48.2961 196.852 48.0246C197.085 47.4428 197.512 46.7058 198.21 46.0077C198.869 45.3483 199.645 44.8829 200.188 44.6501C200.459 44.5338 200.692 44.4562 200.886 44.4174C201.002 44.3398 201.119 44.3398 201.119 44.3398Z" fill="#263238"/>
<path d="M217.642 71.2967C217.642 71.2967 217.603 71.2579 217.565 71.1415C217.487 71.0252 217.409 70.87 217.332 70.6761C217.099 70.2494 216.828 69.6676 216.44 68.9307C216.052 67.1853 215.509 64.5866 214.927 61.7552C214.384 59.0789 213.88 56.6353 213.531 54.8123C213.376 53.959 213.221 53.2221 213.143 52.7179C213.104 52.4852 213.065 52.2912 213.027 52.1361C212.988 52.0197 212.988 51.9421 212.988 51.9421C212.988 51.9421 213.027 52.0197 213.065 52.1361C213.104 52.2912 213.143 52.4852 213.221 52.7179C213.337 53.2221 213.492 53.959 213.686 54.8123C214.074 56.5965 214.578 59.0401 215.16 61.7164C215.742 64.5866 216.285 67.1465 216.634 68.9307C216.983 69.6676 217.254 70.2494 217.448 70.6761C217.526 70.87 217.603 71.0252 217.681 71.1415C217.603 71.2191 217.642 71.2967 217.642 71.2967Z" fill="#263238"/>
<path d="M197.202 64.8582C197.202 64.8582 197.163 64.6643 197.124 64.2764C197.085 63.8497 197.008 63.3455 196.969 62.6861C196.814 61.3286 196.659 59.4668 196.465 57.4112C196.271 55.3555 196.116 53.4937 196.038 52.1362C195.999 51.4768 195.96 50.9338 195.922 50.5459C195.883 50.158 195.883 49.9641 195.922 49.9641C195.922 49.9641 195.96 50.158 195.999 50.5459C196.038 50.9726 196.116 51.4768 196.154 52.1362C196.31 53.4937 196.465 55.3555 196.659 57.4112C196.853 59.4668 197.008 61.3286 197.085 62.6861C197.124 63.3455 197.163 63.8885 197.202 64.2764C197.202 64.6643 197.202 64.8582 197.202 64.8582Z" fill="#263238"/>
<path d="M185.721 65.9052C185.721 65.9052 183.161 63.9658 182.54 63.8495C182.075 63.7719 179.204 63.8107 177.924 63.8495C177.42 63.8495 176.994 64.2373 176.994 64.7416C176.994 64.7804 176.994 64.8191 176.994 64.8191C177.11 65.3622 177.614 65.4785 177.614 65.4785C177.614 65.4785 176.955 65.6724 176.916 66.4094C176.916 67.1463 177.808 67.3015 177.808 67.3015C177.808 67.3015 177.769 67.3403 177.692 67.4178C177.188 67.9221 177.459 68.7366 178.118 68.8917L178.506 68.9693C178.506 68.9693 177.963 69.202 177.963 69.7063C177.963 70.6759 180.174 70.8699 180.174 70.8699C180.174 70.8699 185.565 71.7232 185.682 71.6844C185.837 71.6844 185.721 65.9052 185.721 65.9052Z" fill="#FFBE9D"/>
<path d="M178.428 62.686C178.467 62.9962 178.545 63.6944 179.088 64.0047L182.113 63.8883C182.113 63.8883 179.864 63.1126 179.553 62.7247C179.437 62.6084 179.282 62.4144 179.127 62.2981C178.816 62.1042 178.39 62.3369 178.428 62.686Z" fill="#FFBE9D"/>
<path d="M180.678 63.8495C180.678 63.8883 180.058 63.9659 179.321 63.9659C178.545 63.9659 177.963 63.9271 177.963 63.8495C177.963 63.8107 178.584 63.7332 179.321 63.7332C180.058 63.7719 180.678 63.8107 180.678 63.8495Z" fill="#EB996E"/>
<path d="M179.98 65.556C179.98 65.5948 179.437 65.7111 178.778 65.6724C178.118 65.6336 177.575 65.5172 177.614 65.4784C177.614 65.4396 178.157 65.4784 178.778 65.4784C179.476 65.4784 179.98 65.4784 179.98 65.556Z" fill="#EB996E"/>
<path d="M181.532 65.3234C181.57 65.3622 181.532 65.5173 181.338 65.6337C181.182 65.75 180.989 65.7112 180.989 65.6725C180.989 65.6337 181.105 65.5561 181.221 65.4785C181.376 65.4009 181.493 65.2846 181.532 65.3234Z" fill="#EB996E"/>
<path d="M180.329 67.4566C180.329 67.4954 179.747 67.5342 179.049 67.4954C178.351 67.4566 177.769 67.4178 177.769 67.3403C177.769 67.3015 178.351 67.2627 179.049 67.3015C179.747 67.3403 180.329 67.4178 180.329 67.4566Z" fill="#EB996E"/>
<path d="M182.036 66.6421C182.075 66.6421 182.113 66.6809 182.113 66.7972C182.113 66.9136 182.113 67.1075 181.997 67.2239C181.881 67.379 181.726 67.4566 181.609 67.4566C181.493 67.4566 181.415 67.4566 181.415 67.4178C181.415 67.379 181.687 67.3403 181.842 67.1075C182.036 66.9136 181.997 66.6421 182.036 66.6421Z" fill="#EB996E"/>
<path d="M180.794 69.3185C180.794 69.3573 180.251 69.3573 179.631 69.2797C178.972 69.2021 178.467 69.0857 178.467 69.047C178.467 69.0082 179.01 69.0082 179.631 69.0857C180.29 69.1633 180.794 69.2797 180.794 69.3185Z" fill="#EB996E"/>
<path d="M182.463 68.3875C182.501 68.3875 182.54 68.465 182.54 68.5814C182.54 68.6977 182.501 68.8529 182.385 69.008C182.152 69.2795 181.92 69.3571 181.881 69.3183C181.842 69.2795 182.036 69.0856 182.23 68.8529C182.385 68.6202 182.424 68.3875 182.463 68.3875Z" fill="#EB996E"/>
<path d="M220.047 86.8501C221.094 86.7726 222.102 86.1132 222.645 85.2211C222.723 85.1047 222.762 84.9884 222.684 84.872C222.645 84.7944 222.529 84.7944 222.452 84.7944C221.598 84.7944 220.784 84.9496 219.969 85.2211C219.892 85.2599 219.775 85.2987 219.736 85.3762C219.698 85.4538 219.736 85.5314 219.736 85.5702C219.853 85.9968 219.93 86.3847 220.047 86.8113" fill="#E8505B"/>
<path d="M194.642 44.2234C194.642 44.2234 193.4 48.3736 193.749 48.1408C194.098 47.9081 194.835 47.2487 194.835 47.2487L194.642 44.2234Z" fill="#EBEBEB"/>
<path d="M194.68 46.1626L194.021 47.7916C193.944 47.9468 193.905 48.1407 193.905 48.2959C193.866 48.7613 193.788 49.5758 194.06 49.6534C194.448 49.731 194.797 49.3431 194.797 49.3431L194.68 46.1626Z" fill="#263238"/>
<path d="M215.703 46.3955C215.703 46.3955 209.07 43.7968 205.385 46.0852C201.701 48.3737 201.041 52.0196 198.869 52.0196C194.603 52.0196 194.758 48.9942 194.758 48.9942L193.866 49.2657C193.866 49.8863 192.896 54.308 197.356 54.851C201.856 55.394 203.756 49.2657 207.79 49.2657C211.824 49.2657 214.888 51.4378 214.888 51.4378L217.797 49.6148L215.703 46.3955Z" fill="#263238"/>
<path d="M198.714 54.8121C198.714 54.8121 200.382 53.9588 201.274 51.8644C202.321 49.4984 204.532 46.7833 206.355 46.0851C208.217 45.387 212.483 44.9215 215.431 46.8609L217.332 49.4208L214.888 51.011C214.888 51.011 212.949 49.9638 210.583 49.2656C207.519 48.4123 205.696 49.382 203.912 51.0498C203.795 51.1662 203.718 51.2438 203.601 51.3601C203.136 51.8644 201.933 53.0279 200.809 53.8425C199.878 54.5018 199.102 54.8121 198.714 54.8121Z" fill="#455A64"/>
<path d="M61.4094 18.7017C57.4919 19.3223 54.5829 15.9867 53.6909 13.0777C52.8375 10.3626 52.4497 7.53119 51.2473 4.97127C49.5795 1.36411 45.1578 -0.303716 41.2015 0.0453637C37.2065 0.355657 33.2115 2.33378 29.7207 4.19554L30.6904 25.9161C30.6904 25.9161 38.3313 17.7709 41.9773 17.6545C48.1056 17.4218 47.7565 27.4675 53.6909 28.9414C53.6909 28.9414 62.03 31.191 67.654 23.9379C71.2224 19.3223 71.5327 13.6983 71.5327 13.6983C71.5327 13.6983 68.8176 17.5769 61.4094 18.7017Z" fill="#7F81D7"/>
<path d="M29.5656 0.588379C29.6044 0.588379 30.6904 23.6664 31.9704 52.097C33.2503 80.5664 34.22 103.644 34.1812 103.644C34.1424 103.644 33.0564 80.5664 31.7764 52.097C30.4965 23.6664 29.5268 0.588379 29.5656 0.588379Z" fill="#263238"/>
<g opacity="0.2">
<g opacity="0.2">
<path opacity="0.2" d="M50.5879 11.5649C51.1309 13.5818 52.3333 16.2969 53.4969 18.0811C54.6217 19.8653 56.3671 21.3392 58.4228 21.7658C58.8107 21.8434 59.1985 21.8822 59.5088 22.0373C59.8579 22.1925 60.1682 22.5028 60.1682 22.8906C60.1682 23.4724 59.5864 23.8215 59.0822 24.093C58.3452 24.4421 57.6083 24.83 56.8325 24.9463C56.018 25.1015 55.3974 25.1791 54.8544 24.5973C54.389 24.093 53.7684 23.4724 53.4193 22.8906C51.6351 19.8265 50.743 15.4436 50.5879 11.9916" fill="black"/>
</g>
</g>
<path d="M55.9016 25.5281C55.9016 25.5281 55.824 25.4893 55.7076 25.4117C55.5913 25.3342 55.4361 25.2178 55.2422 25.0626C54.8543 24.7524 54.3113 24.2093 53.8071 23.4724C53.2641 22.7354 52.7599 21.7658 52.372 20.641C51.9453 19.5162 51.5963 18.2362 51.286 16.9175C50.6654 14.2412 50.3939 11.7588 50.2775 9.93585C50.2387 9.04376 50.1999 8.30681 50.2387 7.80259C50.2387 7.56987 50.2387 7.37594 50.2387 7.22079C50.2387 7.10443 50.2387 7.02686 50.2387 7.02686C50.2387 7.02686 50.2387 7.10443 50.2775 7.22079C50.2775 7.37594 50.2775 7.56987 50.3163 7.80259C50.3551 8.30681 50.3551 9.04376 50.4327 9.93585C50.549 11.72 50.8593 14.2024 51.4799 16.8787C51.7902 18.1974 52.1393 19.4774 52.5271 20.6022C52.915 21.727 53.4192 22.6579 53.9235 23.3948C54.4277 24.1318 54.9319 24.6748 55.3198 24.9851C55.6689 25.3342 55.9016 25.5281 55.9016 25.5281Z" fill="#263238"/>
<path d="M5.86694 108.26L57.8023 116.754V108.26H5.86694Z" fill="#E0E0E0"/>
<path d="M66.374 127.459L118.348 135.993V127.459H66.374Z" fill="#E0E0E0"/>
<path d="M126.532 145.844L178.468 154.378V145.844H126.532Z" fill="#E0E0E0"/>
<path d="M186.574 160.467L238.509 169V160.467H186.574Z" fill="#E0E0E0"/>
<path d="M57.8411 101.899H5.86694V108.26H57.8411V101.899Z" fill="#54609A"/>
<g opacity="0.3">
<path opacity="0.3" d="M57.8022 101.899H41.5894V108.26H57.8022V101.899Z" fill="black"/>
</g>
<path d="M118.348 121.099H66.374V127.46H118.348V121.099Z" fill="#54609A"/>
<g opacity="0.3">
<path opacity="0.3" d="M118.348 121.098H102.135V127.459H118.348V121.098Z" fill="#54609A"/>
</g>
<path d="M178.506 139.483H126.532V145.844H178.506V139.483Z" fill="#54609A"/>
<g opacity="0.3">
<path opacity="0.3" d="M178.467 139.483H162.255V145.844H178.467V139.483Z" fill="#54609A"/>
</g>
<path d="M238.625 154.106H186.651V160.467H238.625V154.106Z" fill="#54609A"/>
<g opacity="0.3">
<path opacity="0.3" d="M238.587 154.106H222.374V160.467H238.587V154.106Z" fill="#54609A"/>
</g>
<path d="M206.588 130.911C206.588 131.687 207.208 132.308 207.984 132.308C208.76 132.308 209.38 131.687 209.38 130.911C209.38 130.136 208.76 129.515 207.984 129.515C207.208 129.515 206.588 130.136 206.588 130.911Z" fill="#EBEBEB"/>
</svg>
