<svg width="212" height="224" viewBox="0 0 212 224" fill="none" xmlns="http://www.w3.org/2000/svg">
<path d="M204.599 102.723C204.599 102.723 204.41 102.676 204.033 102.582C203.656 102.535 203.137 102.44 202.524 102.535C201.911 102.629 201.157 102.865 200.497 103.43C199.837 103.949 199.271 104.75 199.083 105.693V105.74L198.989 106.07L198.847 105.74C198.47 104.845 197.81 104.138 197.15 103.666C196.443 103.195 195.689 103.006 195.029 102.959C193.756 102.865 193.001 103.289 192.954 103.242C192.954 103.242 193.143 103.148 193.473 103.006C193.803 102.912 194.369 102.77 195.029 102.818C195.689 102.865 196.49 103.053 197.244 103.525C197.999 103.996 198.659 104.75 199.083 105.693H198.847V105.646C199.083 104.656 199.696 103.808 200.356 103.242C201.063 102.676 201.864 102.44 202.524 102.346C203.184 102.252 203.75 102.346 204.08 102.44C204.41 102.629 204.599 102.723 204.599 102.723Z" fill="#E0E0E0"/>
<path d="M28.8984 74.9565C28.8984 74.9565 28.7098 74.9093 28.3326 74.8151C27.9555 74.7679 27.4369 74.6736 26.8241 74.7679C26.2112 74.8622 25.457 75.0979 24.797 75.6636C24.137 76.1822 23.5713 76.9836 23.3827 77.9265V77.9736L23.2884 78.3036L23.147 77.9736C22.7698 77.0779 22.1098 76.3708 21.4498 75.8993C20.7427 75.4279 19.9884 75.2393 19.3284 75.1922C18.0556 75.0979 17.3013 75.5222 17.2542 75.4751C17.2542 75.4751 17.4427 75.3808 17.7727 75.2393C18.1027 75.1451 18.6684 75.0036 19.3284 75.0508C19.9884 75.0979 20.7898 75.2865 21.5441 75.7579C22.2984 76.2293 22.9584 76.9836 23.3827 77.9265H23.147V77.8793C23.3827 76.8893 23.9955 76.0408 24.6555 75.4751C25.3627 74.9093 26.1641 74.6736 26.8241 74.5793C27.4841 74.4851 28.0498 74.5793 28.3798 74.6736C28.7569 74.8622 28.9455 74.9565 28.8984 74.9565Z" fill="#E0E0E0"/>
<path d="M150.856 65.1978C150.856 65.1978 150.668 65.3863 150.338 65.7635C150.008 66.1406 149.583 66.7063 149.112 67.4606C148.169 68.922 147.226 71.2791 147.273 73.9663C147.273 74.0134 147.273 74.0134 147.273 74.0606H147.038C146.661 71.4206 145.246 69.2992 144.021 68.0734C142.795 66.8477 141.805 66.3292 141.805 66.282C141.805 66.282 141.852 66.282 141.993 66.3763C142.088 66.4235 142.276 66.5177 142.465 66.6592C142.889 66.8949 143.455 67.3192 144.115 67.9792C144.728 68.592 145.435 69.4406 146.001 70.4306C146.566 71.4677 147.038 72.6934 147.226 74.0134H146.991C146.991 73.9663 146.991 73.9663 146.991 73.9191C146.943 71.1849 147.933 68.7806 148.923 67.3192C149.395 66.5649 149.866 65.9992 150.243 65.6692C150.432 65.4806 150.573 65.3392 150.668 65.292C150.809 65.2449 150.856 65.1978 150.856 65.1978Z" fill="#E0E0E0"/>
<path d="M167.309 178.199C159.86 179.943 154.203 187.344 154.439 194.981C149.678 189.749 141.003 188.664 135.11 192.624C129.218 196.537 126.908 205.023 129.925 211.387C122.901 205.918 111.445 207.427 106.118 214.546C104.892 210.067 101.451 206.248 97.1136 204.551C92.7765 202.901 87.6379 203.42 83.7251 205.918C82.4523 197.951 76.0409 191.069 68.1681 189.277C60.3424 187.439 51.5268 190.833 46.9068 197.386C42.994 193.567 37.2426 191.681 31.8212 192.483C26.3998 193.284 21.4498 196.678 18.7627 201.487L23.5241 203.043C32.1983 204.646 39.8826 211.057 42.9468 219.354C47.3311 214.545 54.1196 212.094 60.531 212.943C66.9424 213.791 72.8823 217.94 75.8523 223.691H112.529C121.675 223.597 128.652 224.115 137.09 223.691C140.438 211.953 155.806 201.487 167.356 205.494C169.666 196.584 177.256 189.277 186.213 187.25C182.913 180.414 174.663 176.454 167.309 178.199Z" fill="#EBEBEB"/>
<path d="M186.496 187.109C186.401 187.109 186.307 187.156 186.213 187.156C186.26 187.25 186.307 187.297 186.307 187.392L186.496 187.109Z" fill="#EBEBEB"/>
<path d="M91.6449 165.329C91.9278 163.301 89.0521 161.604 86.8835 161.416C85.8464 161.321 84.7621 161.51 83.8193 161.133C81.6979 160.379 80.8493 157.644 78.775 156.796C77.2193 156.136 75.4279 156.701 73.9665 157.456C72.4579 158.21 70.9965 159.153 69.2994 159.247C67.8379 159.341 66.2822 158.823 64.9622 159.53C64.0194 160.049 63.5008 161.133 62.6523 161.793C61.8037 162.406 60.6723 162.547 59.6351 162.594C58.5509 162.641 57.4666 162.641 56.5237 163.113C55.5809 163.584 54.7323 164.574 54.968 165.611L91.6449 165.329Z" fill="#EBEBEB"/>
<path d="M194.605 50.3952C194.935 47.9438 191.493 45.9638 188.947 45.7753C187.722 45.681 186.449 45.8695 185.27 45.4453C182.772 44.5496 181.735 41.2967 179.283 40.2596C177.445 39.5053 175.323 40.1653 173.532 41.061C171.74 41.9567 169.996 43.0881 168.016 43.2296C166.272 43.3238 164.386 42.711 162.878 43.5596C161.746 44.1724 161.133 45.4924 160.096 46.2467C159.059 47.001 157.739 47.1424 156.466 47.2367C155.193 47.2838 153.873 47.331 152.742 47.8495C151.611 48.3681 150.621 49.5938 150.856 50.8195L194.605 50.3952Z" fill="#EBEBEB"/>
<path d="M60.3896 37.7138C60.7196 35.1681 57.1368 33.0467 54.4025 32.811C53.1297 32.7167 51.7625 32.9053 50.5368 32.481C47.8968 31.5382 46.8126 28.1439 44.2197 27.0125C42.2869 26.2111 40.0712 26.9182 38.1855 27.861C36.2998 28.8039 34.4612 29.9825 32.3398 30.1239C30.5012 30.2182 28.5212 29.5582 26.9184 30.4539C25.7398 31.1139 25.127 32.481 23.9956 33.2824C22.9113 34.0839 21.5442 34.2253 20.177 34.3196C18.8099 34.4139 17.4428 34.4139 16.2642 34.9796C15.0385 35.5453 14.0485 36.8181 14.2842 38.1381L60.3896 37.7138Z" fill="#EBEBEB"/>
<path d="M203.279 135.205C203.75 131.763 198.894 128.935 195.217 128.605C193.473 128.463 191.682 128.746 189.985 128.133C186.402 126.908 184.987 122.24 181.499 120.779C178.906 119.695 175.889 120.638 173.343 121.91C170.798 123.183 168.299 124.786 165.47 124.975C163.019 125.116 160.332 124.22 158.163 125.399C156.56 126.295 155.712 128.133 154.25 129.218C152.789 130.302 150.903 130.49 149.112 130.632C147.321 130.726 145.435 130.726 143.832 131.48C142.182 132.235 140.862 133.979 141.192 135.723L203.279 135.205Z" fill="#F5F5F5"/>
<path d="M66.094 110.69C66.5182 107.579 62.134 104.986 58.7869 104.75C57.184 104.609 55.5812 104.845 54.0726 104.326C50.8198 103.195 49.5469 98.9991 46.3884 97.6791C44.0312 96.6891 41.297 97.5848 38.987 98.7163C36.677 99.8477 34.4142 101.309 31.8685 101.498C29.6528 101.639 27.2014 100.791 25.2685 101.922C23.8071 102.723 23.0528 104.421 21.7328 105.41C20.4128 106.4 18.7157 106.589 17.0657 106.683C15.4629 106.778 13.7657 106.778 12.2572 107.485C10.7958 108.145 9.57005 109.748 9.8529 111.303L66.094 110.69Z" fill="#EBEBEB"/>
<path d="M212 196.066C212 196.066 211.764 195.83 211.34 195.311C211.104 195.076 210.869 194.746 210.491 194.416C210.303 194.227 210.114 194.038 209.926 193.85C209.737 193.661 209.501 193.426 209.266 193.237C209.03 193.048 208.747 192.813 208.464 192.577C208.181 192.341 207.899 192.106 207.569 191.87C206.956 191.351 206.201 190.927 205.4 190.408C203.797 189.466 201.817 188.523 199.507 187.816C197.197 187.108 194.51 186.637 191.587 186.731C191.21 186.731 190.833 186.731 190.503 186.779C190.126 186.826 189.749 186.873 189.372 186.873C189.183 186.873 188.994 186.92 188.806 186.92C188.617 186.967 188.429 186.967 188.24 187.014C187.863 187.061 187.486 187.156 187.062 187.203C185.506 187.58 183.95 188.051 182.394 188.711C180.839 189.418 179.33 190.267 177.869 191.304C176.407 192.388 175.04 193.614 173.72 194.981C171.175 197.81 169.1 201.346 168.016 205.4L167.969 205.541L167.875 205.494C165.14 204.551 162.076 204.41 159.059 204.976C156.042 205.541 153.072 206.72 150.29 208.37C147.509 210.02 144.963 212.188 142.748 214.734C140.579 217.28 138.74 220.297 137.75 223.644L137.703 223.738H137.609C132.942 223.974 128.181 223.927 123.278 223.833C120.826 223.785 118.375 223.738 115.876 223.738C113.378 223.738 110.879 223.738 108.334 223.738C97.2551 223.738 86.5537 223.738 76.3709 223.738H76.2766L76.2295 223.691C74.5795 220.58 72.1281 217.987 69.2995 216.148C66.471 214.31 63.2653 213.178 60.0125 212.943C56.8068 212.707 53.6011 213.273 50.7725 214.404C47.944 215.535 45.4454 217.28 43.4654 219.401L43.3711 219.543L43.324 219.401C41.9097 215.677 39.6469 212.471 37.054 209.925C35.734 208.7 34.3198 207.616 32.9055 206.673C31.4441 205.73 29.9355 205.023 28.4741 204.41C26.9655 203.797 25.457 203.42 23.9956 203.137C23.6184 203.09 23.2413 203.043 22.9113 202.996C22.7227 202.948 22.5341 202.948 22.3456 202.901C22.157 202.901 21.9684 202.854 21.7799 202.854C21.4027 202.807 21.0727 202.807 20.6956 202.76C20.3184 202.76 19.9884 202.76 19.6584 202.76C16.877 202.713 14.3313 203.184 12.1156 203.844C9.89993 204.504 8.01423 205.353 6.45853 206.248C5.70425 206.72 4.99711 207.144 4.38426 207.568C3.7714 207.993 3.25284 208.417 2.73427 208.794C2.26284 209.171 1.8857 209.548 1.50856 209.878C1.17856 210.208 0.895708 210.491 0.659996 210.727C0.235713 211.198 0 211.434 0 211.434C0 211.434 0.235713 211.198 0.659996 210.727C0.895708 210.491 1.13142 210.208 1.46142 209.878C1.79142 209.548 2.16856 209.171 2.68712 208.794C3.15855 208.417 3.67712 207.946 4.28997 207.521C4.90282 207.05 5.60996 206.626 6.36424 206.154C7.91995 205.258 9.80565 204.41 12.0213 203.703C14.237 203.043 16.7827 202.571 19.5642 202.571C19.8942 202.571 20.2713 202.571 20.6013 202.571C20.9784 202.618 21.3084 202.618 21.6856 202.666C21.8741 202.666 22.0627 202.713 22.2513 202.713C22.4399 202.76 22.6284 202.76 22.817 202.807C23.1941 202.854 23.5713 202.901 23.9484 202.948C25.4098 203.231 26.9655 203.656 28.4741 204.221C29.9827 204.834 31.4912 205.541 32.9526 206.484C34.4141 207.427 35.8283 208.511 37.1483 209.737C39.7883 212.283 42.0511 215.488 43.4654 219.26L43.2769 219.213C45.2568 217.044 47.7554 215.3 50.6311 214.121C53.5068 212.943 56.7125 212.377 59.9653 212.66C63.2182 212.895 66.471 214.027 69.3467 215.913C72.2224 217.751 74.7209 220.391 76.3709 223.55L76.2766 223.503C86.4594 223.503 97.1608 223.503 108.239 223.503C110.785 223.503 113.284 223.503 115.782 223.503C118.281 223.503 120.779 223.55 123.183 223.597C128.086 223.691 132.848 223.738 137.515 223.503L137.421 223.597C138.411 220.203 140.249 217.185 142.465 214.593C144.68 212 147.273 209.878 150.055 208.181C152.836 206.531 155.853 205.306 158.87 204.74C161.935 204.174 165.046 204.316 167.78 205.258L167.639 205.353C168.723 201.251 170.845 197.716 173.39 194.84C174.71 193.426 176.077 192.2 177.586 191.116C179.047 190.031 180.603 189.23 182.159 188.523C183.714 187.816 185.317 187.344 186.873 187.014C187.25 186.967 187.674 186.873 188.052 186.826C188.24 186.778 188.429 186.779 188.617 186.731C188.806 186.731 188.994 186.684 189.183 186.684C189.56 186.637 189.937 186.59 190.314 186.59C190.692 186.59 191.069 186.59 191.446 186.543C194.369 186.496 197.103 186.967 199.413 187.674C201.723 188.381 203.703 189.324 205.353 190.314C206.154 190.833 206.909 191.304 207.521 191.776C207.851 192.011 208.134 192.247 208.417 192.483C208.7 192.718 208.936 192.954 209.171 193.143C209.407 193.331 209.643 193.567 209.831 193.756C210.02 193.944 210.209 194.133 210.397 194.321C210.774 194.651 211.01 194.981 211.246 195.264C211.811 195.783 212 196.066 212 196.066Z" fill="#263238"/>
<path d="M105.929 18.5741L108.38 23.5712C108.569 23.9484 108.899 24.1841 109.276 24.2312L114.792 25.0327C115.782 25.1741 116.159 26.3998 115.452 27.1069L111.445 30.9726C111.162 31.2555 111.02 31.6326 111.115 32.0569L112.057 37.5254C112.246 38.5154 111.209 39.2697 110.313 38.7983L105.363 36.2054C105.033 36.0169 104.609 36.0169 104.232 36.2054L99.2819 38.7983C98.3861 39.2697 97.349 38.5154 97.5376 37.5254L98.4804 32.0569C98.5276 31.6798 98.4333 31.2555 98.1504 30.9726L94.1433 27.1069C93.4362 26.3998 93.8133 25.1741 94.8033 25.0327L100.319 24.2312C100.696 24.1841 101.073 23.9484 101.215 23.5712L103.666 18.5741C104.232 17.6784 105.505 17.6784 105.929 18.5741Z" fill="#7F81D7"/>
<path d="M96.5477 21.8743C96.5005 21.9214 93.3891 18.9986 89.5706 15.3686C85.752 11.7386 82.6878 8.76865 82.7349 8.72151C82.7821 8.67437 85.8935 11.5972 89.712 15.2272C93.5306 18.8572 96.5948 21.8271 96.5477 21.8743Z" fill="#7F81D7"/>
<path d="M89.995 24.9384C89.995 24.9855 87.3078 24.8912 84.0079 24.7027C80.7079 24.5141 78.0208 24.2784 78.0208 24.2313C78.0208 24.1841 80.7079 24.2784 84.0079 24.467C87.3078 24.6555 89.995 24.8912 89.995 24.9384Z" fill="#7F81D7"/>
<path d="M100.178 16.0283C100.131 16.0754 99.3293 14.4254 98.4335 12.4454C97.5378 10.4183 96.8778 8.76832 96.925 8.76832C96.9721 8.72118 97.7735 10.3712 98.6693 12.3512C99.565 14.3311 100.272 15.9811 100.178 16.0283Z" fill="#7F81D7"/>
<path d="M104.373 0C104.421 0 104.515 3.29998 104.515 7.35424C104.515 11.4085 104.468 14.7085 104.373 14.7085C104.279 14.7085 104.232 11.4085 104.232 7.35424C104.232 3.29998 104.279 0 104.373 0Z" fill="#7F81D7"/>
<path d="M112.718 8.86286C112.765 8.91 112.105 10.4657 111.162 12.3986C110.219 14.3314 109.465 15.8871 109.371 15.84C109.323 15.7928 109.983 14.2371 110.926 12.3043C111.822 10.3714 112.623 8.81572 112.718 8.86286Z" fill="#7F81D7"/>
<path d="M126.153 11.267C126.2 11.3142 122.618 13.907 118.139 17.0184C113.66 20.1298 109.983 22.6284 109.983 22.5812C109.936 22.5341 113.519 19.9412 117.998 16.8298C122.476 13.7184 126.106 11.2199 126.153 11.267Z" fill="#7F81D7"/>
<path d="M126.53 21.6855C126.577 21.7326 124.786 22.4869 122.57 23.3826C120.355 24.2312 118.516 24.8912 118.516 24.844C118.469 24.7969 120.26 24.0426 122.476 23.1469C124.692 22.2983 126.483 21.6383 126.53 21.6855Z" fill="#7F81D7"/>
<path d="M95.1806 31.7269C95.1806 31.774 90.5135 33.4711 84.7149 35.4511C78.9164 37.4311 74.2021 38.9868 74.2021 38.9397C74.2021 38.8925 78.8693 37.1954 84.6678 35.2154C90.4192 33.2354 95.1334 31.6797 95.1806 31.7269Z" fill="#7F81D7"/>
<path d="M132.046 36.8654C132.046 36.9125 127.897 35.8282 122.853 34.4139C117.809 32.9997 113.708 31.774 113.708 31.7268C113.708 31.6797 117.856 32.764 122.9 34.1782C127.945 35.5925 132.046 36.8182 132.046 36.8654Z" fill="#7F81D7"/>
<path d="M91.315 45.3983C91.2678 45.3511 92.5407 44.1725 94.0964 42.8054C95.6992 41.4383 97.0192 40.354 97.0664 40.4011C97.1135 40.4483 95.8407 41.6268 94.285 42.994C92.6821 44.3611 91.3621 45.4454 91.315 45.3983Z" fill="#7F81D7"/>
<path d="M104.751 56.9482C104.703 56.9482 104.656 52.941 104.656 47.9439C104.703 42.994 104.751 38.9397 104.845 38.9397C104.892 38.9397 104.939 42.9468 104.939 47.9439C104.892 52.8939 104.845 56.9482 104.751 56.9482Z" fill="#7F81D7"/>
<path d="M118.658 46.3883C118.611 46.4355 117.338 45.304 115.782 43.8426C114.226 42.3812 113.001 41.1555 113.048 41.1084C113.095 41.0612 114.368 42.1926 115.923 43.6541C117.479 45.1155 118.705 46.3412 118.658 46.3883Z" fill="#7F81D7"/>
<path d="M128.746 29.4167L128.793 30.2181C128.793 30.2653 128.84 30.3124 128.887 30.3595L129.595 30.7838C129.736 30.8781 129.689 31.0667 129.547 31.1138L128.793 31.3967C128.746 31.3967 128.699 31.4438 128.699 31.5381L128.51 32.3395C128.463 32.481 128.275 32.5281 128.18 32.3867L127.662 31.7738C127.615 31.7267 127.567 31.7267 127.52 31.7267L126.719 31.7738C126.577 31.7738 126.483 31.6324 126.578 31.491L127.002 30.831C127.049 30.7838 127.049 30.7367 127.002 30.6895L126.672 29.9353C126.625 29.7938 126.719 29.6524 126.86 29.6995L127.662 29.8881C127.709 29.8881 127.756 29.8881 127.803 29.841L128.416 29.3224C128.557 29.181 128.746 29.2753 128.746 29.4167Z" fill="#7F81D7"/>
<path d="M133.979 20.8841L134.356 21.2612C134.403 21.3083 134.403 21.3083 134.45 21.3083L134.969 21.2141C135.063 21.2141 135.157 21.3083 135.11 21.4026L134.875 21.8741C134.875 21.9212 134.875 21.9683 134.875 21.9683L135.11 22.4398C135.157 22.534 135.063 22.6283 134.969 22.6283L134.45 22.534C134.403 22.534 134.356 22.534 134.356 22.5812L133.979 22.9583C133.932 23.0055 133.79 23.0055 133.79 22.9112L133.696 22.3926C133.696 22.3455 133.649 22.3455 133.649 22.2983L133.177 22.0626C133.083 22.0155 133.083 21.8741 133.177 21.8741L133.649 21.6383C133.696 21.6383 133.696 21.5912 133.696 21.5441L133.79 21.0255C133.79 20.8369 133.885 20.7898 133.979 20.8841Z" fill="#7F81D7"/>
<path d="M74.1551 14.4726L74.5322 14.8498C74.5794 14.8969 74.5794 14.8969 74.6265 14.8969L75.1451 14.8026C75.2394 14.8026 75.3337 14.8969 75.2865 14.9912L75.0508 15.4626C75.0508 15.5098 75.0508 15.5569 75.0508 15.5569L75.2865 16.0283C75.3337 16.1226 75.2394 16.2169 75.1451 16.2169L74.6265 16.1226C74.5794 16.1226 74.5322 16.1226 74.5322 16.1698L74.1551 16.4998C74.108 16.5469 73.9665 16.5469 73.9665 16.4526L73.8722 15.9341C73.8722 15.8869 73.8251 15.8869 73.8251 15.8398L73.3537 15.6041C73.2594 15.5569 73.2594 15.4155 73.3537 15.4155L73.8251 15.1798C73.8722 15.1798 73.8722 15.1326 73.8722 15.0855L73.9665 14.5669C73.9665 14.4255 74.108 14.3784 74.1551 14.4726Z" fill="#7F81D7"/>
<path d="M27.2485 128.416C27.2485 128.416 27.0599 128.369 26.6827 128.275C26.3056 128.227 25.787 128.133 25.1742 128.227C24.5613 128.322 23.8071 128.557 23.1471 129.123C22.4871 129.642 21.9213 130.443 21.7328 131.386V131.433L21.6385 131.763L21.4971 131.433C21.1199 130.537 20.4599 129.83 19.7999 129.359C19.0928 128.887 18.3385 128.699 17.6785 128.652C16.4057 128.557 15.6514 128.982 15.6042 128.935C15.6042 128.935 15.7928 128.84 16.1228 128.699C16.4528 128.605 17.0185 128.463 17.6785 128.51C18.3385 128.557 19.1399 128.746 19.8942 129.217C20.6485 129.689 21.3085 130.443 21.7328 131.386H21.4971V131.339C21.7328 130.349 22.3456 129.5 23.0056 128.935C23.7128 128.369 24.5142 128.133 25.1742 128.039C25.8342 127.945 26.3999 128.039 26.7299 128.133C27.107 128.322 27.2485 128.416 27.2485 128.416Z" fill="#263238"/>
<path d="M50.0653 126.625C50.0653 126.625 49.8296 126.908 49.3582 127.426C48.8868 127.945 48.2739 128.746 47.6139 129.783C46.2939 131.858 44.9739 135.205 45.0211 139.023C45.0211 139.07 45.0211 139.118 45.0211 139.118L44.6911 139.165C44.1254 135.393 42.1454 132.423 40.4482 130.679C38.704 128.935 37.2897 128.228 37.3368 128.18C37.3368 128.18 37.4311 128.228 37.5726 128.275C37.714 128.369 37.9968 128.463 38.2797 128.699C38.8925 129.076 39.694 129.689 40.5897 130.538C41.4854 131.386 42.4282 132.565 43.2768 134.026C44.0782 135.488 44.7382 137.232 45.0211 139.118L44.6911 139.165C44.6911 139.118 44.6911 139.07 44.6911 139.023C44.6439 135.11 46.0111 131.763 47.4253 129.642C48.1325 128.605 48.7925 127.803 49.2639 127.285C49.4996 127.002 49.7353 126.86 49.8296 126.719C50.0182 126.672 50.0653 126.625 50.0653 126.625Z" fill="#263238"/>
<path d="M166.696 98.6217C166.696 98.6217 166.319 98.4803 165.565 98.3389C164.857 98.1975 163.726 98.056 162.406 98.1975C161.086 98.386 159.53 98.9046 158.163 100.036C156.796 101.12 155.665 102.817 155.193 104.75V104.797L155.099 105.127L154.957 104.797C154.203 102.912 152.836 101.45 151.375 100.507C149.913 99.5646 148.31 99.1403 146.99 99.046C145.67 98.9517 144.586 99.1403 143.879 99.3289C143.172 99.5175 142.795 99.706 142.748 99.6589C142.748 99.6589 142.842 99.6117 143.03 99.5175C143.219 99.4232 143.502 99.3289 143.832 99.2346C144.539 98.9989 145.623 98.8103 146.99 98.8575C148.31 98.9046 149.96 99.3289 151.469 100.319C152.977 101.262 154.345 102.817 155.146 104.703H154.91V104.656C155.382 102.629 156.607 100.932 157.975 99.8003C159.389 98.6689 160.992 98.1503 162.312 97.9618C163.679 97.8203 164.763 97.9617 165.47 98.1503C165.847 98.2446 166.13 98.3389 166.319 98.4332C166.602 98.5746 166.696 98.5746 166.696 98.6217Z" fill="#263238"/>
<path d="M198.046 81.4146C198.046 81.4146 197.81 81.3675 197.433 81.2732C197.056 81.1789 196.443 81.1318 195.736 81.226C195.029 81.3203 194.18 81.6032 193.426 82.216C192.672 82.8289 192.059 83.7246 191.823 84.8089V84.856L191.729 85.186L191.588 84.856C191.163 83.8189 190.456 83.0175 189.655 82.4989C188.853 81.9803 188.005 81.7446 187.298 81.6975C186.59 81.6503 185.978 81.7446 185.6 81.8389C185.223 81.9332 184.988 82.0275 184.988 82.0275C184.988 82.0275 185.035 81.9803 185.129 81.9332C185.223 81.886 185.365 81.8389 185.553 81.7446C185.93 81.6032 186.543 81.5089 187.298 81.5089C188.052 81.556 188.948 81.7446 189.796 82.3103C190.645 82.8289 191.399 83.6775 191.823 84.7617H191.588V84.7146C191.87 83.5832 192.53 82.6403 193.285 82.0275C194.086 81.4146 194.935 81.1317 195.689 81.0375C196.443 80.9432 197.056 81.0375 197.433 81.1789C197.622 81.226 197.81 81.2732 197.905 81.3203C197.999 81.3675 198.046 81.3675 198.046 81.4146Z" fill="#263238"/>
<path d="M177.539 74.3435C177.539 74.3435 177.303 74.5792 176.926 75.0506C176.549 75.4749 176.03 76.1349 175.465 77.0306C174.333 78.7749 173.249 81.5563 173.296 84.762C173.296 84.8092 173.296 84.8092 173.296 84.8563H173.06C172.825 83.3006 172.306 81.8863 171.646 80.6606C170.986 79.482 170.232 78.492 169.478 77.7378C168.77 76.9835 168.11 76.4649 167.592 76.1349C167.121 75.8049 166.838 75.6164 166.838 75.6164C166.838 75.6164 166.932 75.6635 167.026 75.7106C167.168 75.8049 167.356 75.8992 167.592 76.0406C168.11 76.3706 168.77 76.8421 169.525 77.5963C170.279 78.3035 171.08 79.2935 171.74 80.5192C172.4 81.7449 172.966 83.2063 173.202 84.762H172.966C172.966 84.7149 172.966 84.7149 172.966 84.6677C172.919 81.4149 174.098 78.5863 175.229 76.8421C175.795 75.9464 176.36 75.2864 176.785 74.8621C176.973 74.6264 177.162 74.4849 177.256 74.3907C177.492 74.3907 177.539 74.3435 177.539 74.3435Z" fill="#263238"/>
<path d="M85.328 87.6376C95.605 87.6376 105.835 87.6376 116.112 87.6376C118.988 87.6376 121.911 87.6376 124.786 87.6376C126.295 87.6376 126.295 85.2805 124.786 85.2805C114.509 85.2805 104.279 85.2805 94.0022 85.2805C91.1265 85.2805 88.2036 85.2805 85.328 85.2805C83.8194 85.2805 83.8194 87.6376 85.328 87.6376Z" fill="#455A64"/>
<path d="M86.695 42.5693H83.8665V223.597H86.695V42.5693Z" fill="#455A64"/>
<path d="M86.5535 223.597C86.5064 223.597 86.4121 183.101 86.4121 133.13C86.4121 83.159 86.4593 42.6636 86.5535 42.6636C86.6007 42.6636 86.695 83.159 86.695 133.13C86.695 183.101 86.6478 223.597 86.5535 223.597Z" fill="#263238"/>
<path d="M85.328 69.3464C95.605 69.3464 105.835 69.3464 116.112 69.3464C118.988 69.3464 121.911 69.3464 124.786 69.3464C126.295 69.3464 126.295 66.9893 124.786 66.9893C114.509 66.9893 104.279 66.9893 94.0022 66.9893C91.1265 66.9893 88.2036 66.9893 85.328 66.9893C83.8194 66.9893 83.8194 69.3464 85.328 69.3464Z" fill="#455A64"/>
<path d="M126.2 42.9465H123.372V223.597H126.2V42.9465Z" fill="#455A64"/>
<path d="M123.419 200.874C123.372 200.874 123.278 165.611 123.278 122.099C123.278 78.5864 123.325 43.3237 123.419 43.3237C123.466 43.3237 123.561 78.5864 123.561 122.099C123.561 165.564 123.514 200.874 123.419 200.874Z" fill="#263238"/>
<path d="M85.2808 208.322C95.5579 208.322 105.788 208.322 116.065 208.322C118.941 208.322 121.863 208.322 124.739 208.322C126.248 208.322 126.248 205.965 124.739 205.965C114.462 205.965 104.232 205.965 93.9551 205.965C91.0794 205.965 88.1565 205.965 85.2808 205.965C83.7723 205.965 83.7723 208.322 85.2808 208.322Z" fill="#455A64"/>
<path d="M86.1292 171.74C95.7463 171.74 105.363 171.74 114.98 171.74C117.715 171.74 120.449 171.74 123.183 171.74C124.692 171.74 124.692 169.383 123.183 169.383C113.566 169.383 103.949 169.383 94.332 169.383C91.5978 169.383 88.8635 169.383 86.1292 169.383C84.6207 169.383 84.6207 171.74 86.1292 171.74Z" fill="#455A64"/>
<path d="M85.2808 146.236C95.5579 146.236 105.788 146.236 116.065 146.236C118.941 146.236 121.863 146.236 124.739 146.236C126.248 146.236 126.248 143.879 124.739 143.879C114.462 143.879 104.232 143.879 93.9551 143.879C91.0794 143.879 88.1565 143.879 85.2808 143.879C83.7723 143.879 83.7723 146.236 85.2808 146.236Z" fill="#455A64"/>
<path d="M85.2808 126.059C95.5579 126.059 105.788 126.059 116.065 126.059C118.941 126.059 121.863 126.059 124.739 126.059C126.248 126.059 126.248 123.702 124.739 123.702C114.462 123.702 104.232 123.702 93.9551 123.702C91.0794 123.702 88.1565 123.702 85.2808 123.702C83.7723 123.702 83.7723 126.059 85.2808 126.059Z" fill="#455A64"/>
<path d="M85.2808 106.4C95.5579 106.4 105.788 106.4 116.065 106.4C118.941 106.4 121.863 106.4 124.739 106.4C126.248 106.4 126.248 104.043 124.739 104.043C114.462 104.043 104.232 104.043 93.9551 104.043C91.0794 104.043 88.1565 104.043 85.2808 104.043C83.7723 104.043 83.7723 106.4 85.2808 106.4Z" fill="#455A64"/>
<path d="M85.7051 190.597C95.4165 190.597 105.175 190.597 114.886 190.597C117.668 190.597 120.449 190.597 123.231 190.597C124.739 190.597 124.739 188.24 123.231 188.24C113.519 188.24 103.761 188.24 94.0493 188.24C91.2679 188.24 88.4865 188.24 85.7051 188.24C84.1494 188.24 84.1494 190.597 85.7051 190.597Z" fill="#455A64"/>
<path d="M117.809 71.7979L115.405 66.4708C115.405 66.4708 115.546 63.6423 115.122 63.3594C114.556 63.0294 114.415 63.3123 114.273 64.2551L114.038 65.6694C114.038 65.6694 113.142 63.6894 112.246 63.5951C111.681 63.548 111.492 64.538 111.492 64.538C111.492 64.538 110.549 63.6423 109.842 63.8308C109.182 64.0194 109.371 64.9623 109.371 64.9623C109.371 64.9623 108.569 64.4908 108.192 65.3394C107.768 66.3294 109.559 67.7908 109.795 68.4508C110.361 69.8179 109.182 69.8651 109.182 69.8651C109.182 69.8651 106.118 69.4879 106.259 70.2422C106.401 71.0437 107.438 71.0437 108.239 71.0908C108.899 71.1379 111.351 71.7508 112.152 71.9865C112.341 72.0336 112.482 72.0808 112.623 72.1751L114.462 74.0608L117.809 71.7979Z" fill="#FFBE9D"/>
<path d="M116.536 194.275L116.442 207.946L109.041 208.041L109.135 194.322L116.536 194.275Z" fill="#BCB7B6"/>
<path d="M112.812 207.474C112.765 207.474 112.765 204.457 112.812 200.78C112.906 197.103 113.001 194.086 113.048 194.086C113.095 194.086 113.095 197.103 113.048 200.78C112.953 204.457 112.859 207.474 112.812 207.474Z" fill="#263238"/>
<path d="M109.088 203.656C109.088 203.656 109.135 203.561 109.276 203.373C109.418 203.184 109.654 202.948 109.936 202.666C110.266 202.383 110.644 202.1 111.115 201.864C111.586 201.628 112.199 201.487 112.859 201.487C114.132 201.487 115.216 202.147 115.735 202.76C116.018 203.09 116.159 203.373 116.254 203.561C116.348 203.75 116.395 203.891 116.348 203.891C116.301 203.891 116.112 203.42 115.594 202.854C115.075 202.288 114.038 201.723 112.859 201.676C111.634 201.676 110.644 202.241 110.031 202.76C109.418 203.278 109.135 203.656 109.088 203.656Z" fill="#263238"/>
<path opacity="0.3" d="M109.041 199.271V200.78H116.536V199.271H109.041Z" fill="black"/>
<path d="M109.041 208.04L109.088 206.625H116.442V207.945L109.041 208.04Z" fill="#E0E0E0"/>
<path d="M101.073 158.729L100.979 171.882L93.8606 171.977L93.9549 158.777L101.073 158.729Z" fill="#BCB7B6"/>
<path d="M97.4433 171.41C97.3962 171.41 97.3962 168.534 97.4433 164.999C97.5376 161.463 97.6319 158.587 97.679 158.587C97.7262 158.587 97.7262 161.463 97.679 164.999C97.6319 168.534 97.5376 171.41 97.4433 171.41Z" fill="#263238"/>
<path d="M93.9077 167.733C93.9077 167.733 93.9549 167.639 94.0963 167.45C94.2377 167.262 94.4263 167.026 94.7563 166.79C95.0391 166.555 95.4163 166.272 95.8877 166.036C96.3591 165.8 96.9248 165.659 97.5377 165.659C98.7634 165.659 99.8005 166.272 100.272 166.885C100.555 167.167 100.696 167.45 100.791 167.639C100.885 167.827 100.932 167.969 100.885 167.969C100.838 167.969 100.696 167.545 100.178 166.979C99.6591 166.413 98.7163 165.895 97.5377 165.848C96.3591 165.848 95.4163 166.413 94.8506 166.885C94.1906 167.403 93.9077 167.78 93.9077 167.733Z" fill="#263238"/>
<path opacity="0.3" d="M93.8606 163.537V164.999H101.073V163.537H93.8606Z" fill="black"/>
<path d="M93.8606 171.976V170.562H100.979V171.882L93.8606 171.976Z" fill="#E0E0E0"/>
<path d="M102.394 70.6665L102.582 70.6193C103.148 69.5822 104.279 68.9693 105.458 68.8751C106.636 68.8279 107.768 69.2993 108.664 70.0536C109.276 70.5722 109.748 71.2793 110.361 71.7979C110.974 72.3165 111.775 72.7407 112.576 72.5522C112.671 72.835 112.105 73.0236 112.152 73.3536C112.152 73.495 112.341 73.5893 112.482 73.6365C112.718 73.6836 112.906 73.6365 113.142 73.6365C113.378 73.6365 113.614 73.7307 113.661 73.9665C113.708 74.0607 113.661 74.2022 113.614 74.2965C113.378 75.2393 113.001 76.135 112.341 76.8422C111.681 77.5493 110.691 77.9736 109.748 77.785C108.994 77.6436 108.381 77.1722 107.768 76.6536C106.636 75.7579 105.505 74.8622 104.374 73.9193C103.855 73.495 103.336 73.0707 102.912 72.5522C102.535 72.0336 102.299 71.3265 102.394 70.6665Z" fill="#263238"/>
<path d="M103.101 70.8551C102.629 70.478 102.111 70.1951 101.545 70.0537C100.979 69.9594 100.319 70.0537 99.8479 70.3837C99.4236 70.7137 99.1408 71.2323 98.8108 71.6565C98.4808 72.128 98.0565 72.5523 97.5379 72.6465C97.4437 72.6465 97.3494 72.6465 97.2551 72.7408C97.1137 72.8822 97.2079 73.0708 97.3965 73.1651C97.5379 73.2594 97.7265 73.2122 97.9151 73.1651C97.6322 73.4951 97.2551 73.6837 96.8308 73.778C96.9251 74.2022 97.3965 74.4379 97.7737 74.3437C97.6322 75.0037 97.4437 75.6165 97.4437 76.2765C97.4437 76.9365 97.6322 77.6436 98.0565 78.1151C98.5279 78.6336 99.3765 78.9636 99.5651 79.6236" fill="#263238"/>
<path d="M107.862 94.1436L99.0466 94.0493L100.037 86.5065C100.037 86.5065 99.4238 86.365 99.3766 83.1122C99.3295 79.8594 99.1881 74.2965 99.1881 74.2965C102.959 72.6466 107.344 73.2123 110.597 75.7108L111.068 76.088L107.862 94.1436Z" fill="#FFBE9D"/>
<path d="M110.078 80.1423C110.125 80.0951 112.341 79.4823 112.246 81.698C112.152 83.9137 109.936 83.3951 109.936 83.348C109.936 83.2537 110.078 80.1423 110.078 80.1423Z" fill="#FFBE9D"/>
<path d="M99.565 79.671C99.5179 79.6238 97.5379 79.1053 97.5851 81.3681C97.6793 83.5838 99.895 83.0652 99.895 83.0181C99.895 82.9238 99.565 79.671 99.565 79.671Z" fill="#FFBE9D"/>
<path d="M110.785 79.8594C110.455 81.7451 110.502 82.7351 110.219 83.9608C109.748 85.9407 108.758 87.4493 106.966 88.4393C105.175 89.4293 102.771 89.4293 101.262 88.0622C100.178 87.1193 99.4237 86.0822 99.2823 84.6679C99.1408 83.2536 98.7166 80.6136 98.7166 79.1994C98.7166 76.6537 98.7637 74.3437 98.7637 74.3437L106.071 73.0237L110.219 75.4751L110.785 79.8594Z" fill="#263238"/>
<path d="M103.289 89.6179C103.289 89.665 103.855 89.8065 104.562 89.7122C105.269 89.6179 105.788 89.3822 105.788 89.335C105.788 89.2879 105.222 89.4293 104.562 89.5236C103.855 89.6179 103.289 89.5708 103.289 89.6179Z" fill="#263238"/>
<path d="M110.456 83.0652C110.691 81.1324 110.786 78.9638 111.116 76.9367C111.21 76.1824 111.493 75.0981 111.446 74.2967C111.398 73.5424 111.163 73.7781 110.833 73.071C110.408 72.2224 108.806 71.6096 107.863 71.421C106.92 71.2324 106.778 70.431 106.071 71.0439C105.553 70.2424 104.516 69.8181 103.573 70.0539C102.63 70.2896 101.876 71.091 101.781 72.0338C101.263 71.5624 100.414 71.4681 99.8014 71.7981C99.1885 72.1753 98.8585 72.9767 99.0942 73.6838C98.5756 73.7781 98.1042 74.1553 97.8685 74.6267C97.6328 75.0981 97.6799 75.711 98.0099 76.1352C98.3399 76.6538 98.9528 76.9367 99.3299 77.4552C99.7542 78.021 99.8014 78.8695 99.4242 79.4824" fill="#263238"/>
<path d="M101.073 82.6411C101.026 82.6411 100.932 83.5368 101.309 84.6211C101.686 85.6582 102.393 86.3182 102.441 86.2711C102.488 86.2239 101.875 85.5639 101.498 84.574C101.121 83.5368 101.121 82.6411 101.073 82.6411Z" fill="#455A64"/>
<path d="M100.083 81.0381C100.036 81.0381 99.7535 81.7924 99.942 82.8295C100.131 83.8195 100.649 84.4795 100.696 84.4324C100.743 84.3852 100.319 83.7252 100.131 82.7824C99.942 81.8395 100.131 81.0381 100.083 81.0381Z" fill="#455A64"/>
<path d="M109.276 73.3063C108.711 72.4106 107.956 71.6563 107.013 71.2792C106.071 70.902 104.892 70.9963 104.091 71.6563" fill="#263238"/>
<path d="M109.088 78.2565C109.041 78.2565 109.088 77.9736 109.182 77.5965C109.229 77.2194 109.371 76.6537 109.371 76.0408C109.371 75.4279 109.229 74.9094 109.041 74.5794C108.852 74.2494 108.711 74.0608 108.711 74.0137C108.711 74.0137 108.946 74.108 109.182 74.4851C109.418 74.8151 109.606 75.4279 109.606 76.0408C109.606 76.7008 109.465 77.2665 109.371 77.6436C109.182 78.0208 109.088 78.2565 109.088 78.2565Z" fill="#455A64"/>
<path d="M107.579 78.9635C107.532 78.9163 107.673 78.4921 107.862 77.9264C108.051 77.3606 108.145 76.8892 108.239 76.9364C108.286 76.9364 108.333 77.4549 108.145 78.0206C107.909 78.6335 107.626 79.0106 107.579 78.9635Z" fill="#455A64"/>
<path d="M100.555 78.3978C100.555 78.3978 100.272 78.1621 100.036 77.5964C99.8006 77.0778 99.6591 76.2293 99.8006 75.3336C99.9891 74.4379 100.461 73.7307 100.885 73.3064C101.309 72.8821 101.639 72.7407 101.639 72.7407C101.686 72.7879 101.356 72.9764 101.026 73.4007C100.649 73.825 100.225 74.485 100.083 75.3336C99.8949 76.1821 100.036 76.9364 100.225 77.5021C100.413 78.0678 100.602 78.3978 100.555 78.3978Z" fill="#455A64"/>
<path d="M108.522 70.1008C108.522 70.148 108.239 70.0065 107.815 69.818C107.391 69.6294 106.778 69.3937 106.071 69.3937C105.364 69.3937 104.798 69.7237 104.468 70.0537C104.138 70.3837 104.091 70.7137 104.044 70.7137C103.996 70.7137 103.996 70.3837 104.326 69.9594C104.468 69.7708 104.704 69.5351 104.986 69.3937C105.269 69.2522 105.646 69.158 106.024 69.158C106.778 69.158 107.438 69.4408 107.862 69.6765C108.334 69.8651 108.569 70.0537 108.522 70.1008Z" fill="#455A64"/>
<path d="M98.575 72.1751C98.5279 72.1751 98.6222 71.8922 98.8579 71.5622C99.0936 71.2322 99.5179 70.8551 100.131 70.6665C100.744 70.4779 101.309 70.5722 101.686 70.7608C102.064 70.9022 102.252 71.0908 102.205 71.1379C102.205 71.1851 101.969 71.0436 101.592 70.9494C101.215 70.8551 100.696 70.8079 100.178 70.9494C99.6122 71.0908 99.235 71.4208 98.9522 71.7036C98.7164 71.9394 98.6222 72.1751 98.575 72.1751Z" fill="#455A64"/>
<path d="M100.979 80.3781C100.979 80.3309 101.356 80.2366 101.922 80.0009C102.488 79.7181 103.336 79.2938 104.091 78.5395L104.515 78.1152L104.279 78.6809C104.138 79.0109 104.044 79.3881 103.949 79.7652C103.902 79.9538 103.902 80.1895 103.949 80.1895C103.996 80.2367 104.185 80.1424 104.374 80.0481C104.986 79.6709 105.458 79.1995 105.882 78.7281L106.259 78.2567L106.071 78.8224C105.882 79.3881 105.741 79.9538 105.599 80.4252L105.411 80.3309C106.448 79.3409 106.778 78.4924 106.825 78.5395C106.825 78.5395 106.778 78.7752 106.589 79.1052C106.401 79.4824 106.071 79.9538 105.552 80.4724L105.269 80.7552L105.364 80.3781C105.505 79.9067 105.646 79.3409 105.835 78.7752L106.024 78.8695C105.599 79.3881 105.081 79.8595 104.468 80.2838C104.374 80.3309 104.279 80.3781 104.185 80.4724C104.091 80.5195 103.902 80.5666 103.761 80.4724C103.619 80.3781 103.619 80.1895 103.619 80.0952C103.619 79.9538 103.666 79.9067 103.666 79.7652C103.761 79.3881 103.855 79.0109 103.996 78.6338L104.185 78.7752C103.384 79.5295 102.535 79.9538 101.922 80.1895C101.356 80.3309 100.979 80.4252 100.979 80.3781Z" fill="#455A64"/>
<path d="M105.222 71.7507C105.081 71.4678 104.798 71.2793 104.515 71.185C104.232 71.0907 103.902 71.0907 103.619 71.185C102.865 71.3264 102.205 71.7035 101.733 72.2693C101.639 72.4107 101.545 72.5992 101.639 72.7407C101.686 72.7878 101.781 72.835 101.875 72.835C102.959 72.9292 104.091 72.8821 105.175 72.7407" fill="#263238"/>
<path d="M90.8435 137.515C90.9849 137.797 92.7764 143.737 96.7363 144.774C100.696 145.812 112.953 145.104 113.283 144.774C113.613 144.444 117.243 142.464 118.988 138.316C120.732 134.167 108.192 126.955 108.192 126.955L90.8435 137.515Z" fill="#263238"/>
<path d="M121.015 139.117L121.109 142.465C121.109 142.983 121.062 145.576 120.968 146.047L119.459 166.743C119.318 166.696 118.422 179.471 118.328 183.95C118.233 188.287 117.903 200.026 117.903 200.026H107.815L107.155 180.556L106.731 159.483L106.118 144.775L121.015 139.117Z" fill="#263238"/>
<path d="M90.8435 134.215C90.8435 134.215 91.0792 134.545 91.0321 139.117C90.9849 142.606 93.1063 164.197 93.1063 164.197L101.733 163.914L103.431 142.276L90.8435 134.215Z" fill="#263238"/>
<path d="M106.919 145.057C106.919 145.057 106.684 145.105 106.212 145.152C105.741 145.199 105.081 145.246 104.232 145.293C102.582 145.387 100.225 145.435 97.6793 144.916C95.1336 144.397 93.1065 142.936 92.1165 141.569C91.598 140.909 91.3151 140.249 91.1737 139.825C91.0794 139.589 91.0794 139.4 91.0323 139.306C90.9851 139.165 90.9851 139.117 90.9851 139.117C91.0322 139.07 91.2208 140.155 92.258 141.475C93.2479 142.795 95.2279 144.162 97.7265 144.68C100.225 145.199 102.535 145.199 104.232 145.152C105.034 145.105 105.694 145.105 106.212 145.057C106.636 145.057 106.919 145.057 106.919 145.057Z" fill="#455A64"/>
<path d="M117.102 144.633C117.102 144.68 116.678 144.775 116.018 144.916C115.311 145.057 114.368 145.199 113.283 145.293C112.199 145.387 111.256 145.387 110.549 145.387C109.842 145.387 109.418 145.34 109.418 145.293C109.418 145.246 109.842 145.246 110.549 145.199C111.256 145.152 112.199 145.105 113.283 145.01C114.368 144.916 115.311 144.775 116.018 144.68C116.678 144.68 117.102 144.586 117.102 144.633Z" fill="#455A64"/>
<path d="M116.819 148.404C116.819 148.452 116.254 148.404 115.358 148.263C114.462 148.122 113.236 147.886 111.916 147.556C110.596 147.226 109.371 146.849 108.522 146.566C107.674 146.283 107.155 146.047 107.155 146C107.155 145.953 107.721 146.142 108.569 146.377C109.418 146.613 110.644 146.99 111.964 147.32C113.284 147.65 114.509 147.886 115.405 148.074C116.301 148.263 116.819 148.404 116.819 148.404Z" fill="#455A64"/>
<path d="M114.415 75.8993C114.462 75.7578 113.189 73.6836 113.189 73.6836C113.189 73.6836 115.971 70.7136 117.621 70.8079L119.223 73.0236L114.415 75.8993Z" fill="white"/>
<path d="M127.615 85.1866C127.002 83.3009 119.365 72.3167 119.365 72.3167C116.536 72.3167 113.802 75.7109 113.802 75.7109L119.223 87.1194L113.519 92.3522L119.93 99.9422C119.93 99.9422 123.985 94.8508 125.21 93.0122C127.945 88.9108 128.228 87.0723 127.615 85.1866Z" fill="#54609A"/>
<path opacity="0.3" d="M90.5608 136.902C90.5608 136.902 91.2208 141.144 94.7565 142.37C98.2922 143.643 106.495 142.37 106.495 142.37L107.438 139.306L108.475 142.936L121.156 141.333L120.968 138.457L107.532 132.895L90.5608 136.902Z" fill="black"/>
<path d="M118.186 122.759C117.903 121.25 117.573 120.496 117.526 119.6C117.338 116.913 117.338 110.408 117.526 109.606C117.762 108.522 119.978 99.9419 119.978 99.9419L119.223 93.2948L109.889 91.7391L109.229 90.2306C109.229 90.2306 103.006 88.6277 99.0464 90.7491L98.3864 92.352L95.935 92.9648C95.5579 93.1063 93.6722 93.6248 92.2108 94.0491C90.6079 94.4734 89.2408 95.6048 88.5336 97.1134C88.2979 97.5848 88.1094 98.1505 87.8737 98.7634C87.2137 100.696 83.5365 111.256 83.348 114.462C83.1594 118.233 86.5065 118.375 88.5336 117.903C90.5136 117.432 92.8236 112.859 92.8236 112.859L94.0965 121.769C94.0965 121.769 93.8136 123.655 93.2008 125.352C91.9751 128.746 90.1836 135.299 90.1836 135.299C90.8908 137.467 93.4365 140.956 94.7565 141.427C96.0765 141.899 104.986 141.522 104.986 141.522L107.626 134.545L110.031 141.852L122.665 139.872L118.186 122.759Z" fill="#54609A"/>
<path d="M107.532 120.166C107.579 120.213 105.741 121.439 103.478 122.853C101.215 124.268 99.3295 125.399 99.2824 125.305C99.2352 125.258 101.074 124.032 103.337 122.618C105.599 121.251 107.485 120.119 107.532 120.166Z" fill="#263238"/>
<path d="M104.185 123.843C104.232 123.891 102.299 125.163 99.8951 126.719C97.4909 128.228 95.5109 129.453 95.4637 129.359C95.4166 129.312 97.3494 128.039 99.7537 126.483C102.158 124.975 104.185 123.796 104.185 123.843Z" fill="#263238"/>
<path d="M114.179 113.849C114.226 113.896 113.708 115.028 112.671 116.206C111.634 117.385 110.549 118.045 110.549 117.998C110.502 117.951 111.492 117.196 112.482 116.065C113.472 114.886 114.132 113.802 114.179 113.849Z" fill="#263238"/>
<path d="M114.415 115.075C114.462 115.075 114.273 115.452 113.991 116.018C113.708 116.583 113.236 117.338 112.671 118.139C112.105 118.94 111.492 119.6 111.068 120.025C110.596 120.496 110.314 120.732 110.266 120.732C110.219 120.685 111.304 119.553 112.482 117.998C113.613 116.395 114.368 115.028 114.415 115.075Z" fill="#263238"/>
<path d="M114.745 126.625C114.698 126.625 114.839 126.153 115.075 125.352C115.311 124.598 115.594 123.513 115.877 122.335C116.159 121.156 116.348 120.072 116.489 119.271C116.631 118.469 116.725 117.998 116.772 117.998C116.819 117.998 116.772 118.516 116.678 119.318C116.584 120.119 116.395 121.203 116.112 122.429C115.829 123.608 115.499 124.692 115.264 125.446C114.934 126.153 114.745 126.625 114.745 126.625Z" fill="#263238"/>
<path d="M119.365 98.9048C119.318 98.9519 118.469 97.4905 117.196 95.8876C115.924 94.2848 114.745 93.1062 114.792 93.0591C114.792 93.0591 115.122 93.2948 115.641 93.7662C116.112 94.2376 116.772 94.9448 117.432 95.7462C118.092 96.5476 118.564 97.3491 118.941 97.9619C119.224 98.4805 119.412 98.8576 119.365 98.9048Z" fill="#263238"/>
<path d="M121.392 95.5577C121.345 95.6048 120.732 94.4263 119.506 93.4834C118.281 92.5406 117.008 92.2577 117.055 92.1634C117.055 92.1163 117.385 92.1634 117.856 92.3049C118.328 92.4463 118.988 92.7763 119.648 93.2477C120.261 93.7191 120.732 94.2848 121.015 94.7563C121.298 95.2277 121.439 95.5105 121.392 95.5577Z" fill="#263238"/>
<path d="M94.0494 121.769C94.0022 121.769 93.2479 116.913 92.3522 110.879C91.5037 104.845 90.8437 99.9421 90.8908 99.9421C90.9379 99.9421 91.6922 104.798 92.5879 110.832C93.4836 116.866 94.0965 121.769 94.0494 121.769Z" fill="#263238"/>
<path d="M109.983 91.7393C109.983 91.7864 109.323 91.7393 108.239 91.6921C107.155 91.645 105.693 91.645 104.091 91.6921C102.488 91.7864 101.026 91.9278 99.942 92.0693C98.9049 92.2107 98.2449 92.305 98.2449 92.305C98.2449 92.305 98.3863 92.2578 98.6692 92.1636C98.952 92.0693 99.3763 92.0221 99.8949 91.9278C100.932 91.7393 102.393 91.5507 104.043 91.4564C105.693 91.3621 107.155 91.4093 108.192 91.5036C108.711 91.5507 109.135 91.5978 109.465 91.645C109.842 91.6921 109.983 91.7393 109.983 91.7393Z" fill="#263238"/>
<g opacity="0.3">
<path opacity="0.3" d="M92.8237 113.189C92.3052 109.418 91.6452 105.646 91.1266 101.875C89.7595 105.552 90.5137 109.936 92.8237 113.189Z" fill="black"/>
</g>
<g opacity="0.3">
<path opacity="0.3" d="M119.129 86.9307C120.025 86.0822 121.156 85.5636 122.335 85.375C122.901 85.2808 123.561 85.3279 123.985 85.705C124.079 85.7993 124.173 85.8936 124.173 86.035C124.173 86.1765 124.032 86.2708 123.891 86.2708C123.749 86.3179 123.655 86.2708 123.513 86.2708C122.052 86.035 120.496 86.4593 119.129 86.9307Z" fill="black"/>
</g>
<g opacity="0.3">
<path opacity="0.3" d="M98.8107 92.3994C99.9892 92.7766 101.262 92.6823 102.535 92.588C104.751 92.3994 106.919 92.1166 109.088 91.7395C105.599 91.268 102.016 91.4566 98.575 92.3523" fill="black"/>
</g>
<g opacity="0.3">
<path opacity="0.3" d="M98.3865 127.709C103.336 126.342 107.909 123.466 111.304 119.601C107.391 122.099 102.252 124.975 98.3865 127.709Z" fill="black"/>
</g>
<path d="M122.193 86.4123C122.193 86.5066 121.392 86.2709 120.496 86.5538C119.601 86.7895 119.035 87.3552 118.988 87.3081C118.988 87.3081 119.082 87.1195 119.318 86.8838C119.554 86.6481 119.931 86.4123 120.449 86.2709C120.921 86.1295 121.392 86.1295 121.722 86.1766C122.005 86.2709 122.193 86.3652 122.193 86.4123Z" fill="#263238"/>
<path d="M75.9942 80.9438L71.6571 81.1324C70.29 82.7352 68.4986 84.0081 66.3772 84.7152C60.2486 86.7423 53.743 83.3009 51.8101 77.031C49.8773 70.761 53.3187 64.0668 59.4472 62.0396C65.5757 60.0125 72.0814 63.4539 74.0143 69.7239C74.8157 72.3638 74.6743 75.051 73.8257 77.4552L75.9942 80.9438Z" fill="white"/>
<path d="M75.9938 80.9433C75.9938 80.9433 75.9466 80.849 75.8523 80.7076C75.758 80.5662 75.6166 80.3305 75.428 80.0476C75.0509 79.4348 74.4852 78.5862 73.7781 77.4548H73.8723C73.8723 77.5019 73.8252 77.5019 73.7781 77.4548C73.7781 77.4548 73.7309 77.4076 73.7781 77.4076C74.2966 75.9462 74.7209 73.9191 74.3438 71.6091C74.2023 70.4305 73.8252 69.2048 73.2123 68.0263C72.5995 66.8006 71.7981 65.622 70.6667 64.632C69.5824 63.5949 68.2152 62.7935 66.7067 62.2277C65.1981 61.7092 63.4538 61.4735 61.7567 61.662C60.0124 61.8506 58.3153 62.4635 56.7596 63.5006C56.0053 63.972 55.2982 64.632 54.6382 65.292C54.0253 65.9991 53.4125 66.7534 52.9882 67.5548C52.5168 68.3563 52.1868 69.252 51.9039 70.1477C51.6682 71.0434 51.4796 71.9391 51.4325 72.8348C51.3382 74.6262 51.6211 76.4176 52.2811 78.0205C53.5539 81.2262 56.241 83.5362 59.0224 84.5262C61.851 85.5633 64.6795 85.3276 66.8481 84.479C69.0638 83.6305 70.6195 82.3105 71.6095 81.0848H71.6566C73.0709 81.0376 74.1081 80.9905 74.8623 80.9905C75.2395 80.9905 75.5223 80.9905 75.7109 80.9433C75.8995 80.9433 75.9938 80.9433 75.9938 80.9433C75.9938 80.9433 75.8995 80.9433 75.7109 80.9433C75.5223 80.9433 75.2395 80.9905 74.9095 80.9905C74.1552 81.0376 73.0709 81.0848 71.6566 81.179H71.7038C70.7138 82.4047 69.1109 83.7719 66.8952 84.6204C64.6795 85.469 61.8039 85.7519 58.9282 84.7147C57.5139 84.1962 56.0996 83.3947 54.921 82.2633C53.7425 81.1319 52.7053 79.7176 52.0453 78.0676C51.3853 76.4176 51.0553 74.6262 51.1496 72.7877C51.1968 71.8448 51.3853 70.9491 51.6211 70.0063C51.9039 69.1106 52.2339 68.2148 52.7525 67.3663C53.2239 66.5177 53.8368 65.7634 54.4496 65.0563C55.1096 64.3963 55.8167 63.7363 56.6182 63.2649C58.1739 62.2277 59.9653 61.6149 61.7096 61.4263C63.4538 61.2377 65.1981 61.4735 66.801 61.992C68.3567 62.5577 69.7238 63.4063 70.8552 64.4434C71.9866 65.4806 72.8352 66.7063 73.4009 67.932C74.0138 69.1577 74.3438 70.4305 74.5323 71.6091C74.8623 73.9662 74.438 75.9934 73.8723 77.5019L73.7781 77.4548C73.7781 77.4076 73.8252 77.4076 73.8723 77.4548C74.5795 78.5862 75.1452 79.4819 75.4752 80.0948C75.6638 80.3776 75.8052 80.6133 75.8995 80.7548C75.9466 80.849 75.9938 80.9433 75.9938 80.9433Z" fill="#263238"/>
<path d="M59.2109 71.4675L62.6523 67.0833L66.1409 71.4204L59.2109 71.4675Z" fill="#7F81D7"/>
<path d="M64.3966 79.4819L61.2381 79.529L61.1438 70.7605H64.3024L64.3966 79.4819Z" fill="#7F81D7"/>
</svg>
