<svg width="181" height="39" viewBox="0 0 181 39" fill="none" xmlns="http://www.w3.org/2000/svg">
<path d="M63.737 22.2123L62.6608 25.2616H62.5711C62.3918 24.574 62.0629 23.5277 61.5248 22.2721L55.755 7.77281H50.1047V30.882H53.8417V16.6219C53.8417 15.725 53.8417 14.7085 53.8118 13.4529C53.7819 12.8251 53.7221 12.3468 53.6922 11.9881H53.7819C53.9612 12.8849 54.1705 13.5426 54.32 13.9612L61.2557 30.8222H63.8865L70.7625 13.8117C70.9119 13.423 71.0614 12.6458 71.2109 11.9881H71.3006C71.2109 13.6921 71.1511 15.2168 71.1212 16.1435V30.7923H75.0973V7.71302H69.6563L63.737 22.2123ZM78.8641 14.2302H82.7505V30.7923H78.8641V14.2302ZM80.8372 7.23469C80.1795 7.23469 79.6414 7.47386 79.193 7.89239C78.7445 8.31093 78.5054 8.84904 78.5054 9.50674C78.5054 10.1345 78.7445 10.6727 79.193 11.0912C79.6414 11.5097 80.1795 11.719 80.8372 11.719C81.4949 11.719 82.0629 11.4798 82.4815 11.0912C82.9299 10.6727 83.1691 10.1345 83.1691 9.50674C83.1691 8.87894 82.9299 8.34082 82.4815 7.89239C82.0928 7.47386 81.5248 7.23469 80.8372 7.23469ZM96.5323 14.0807C95.8148 13.9313 95.0675 13.8416 94.35 13.8416C92.5861 13.8416 90.9718 14.2302 89.6265 15.0075C88.2812 15.7848 87.205 16.861 86.5174 18.2063C85.7999 19.5815 85.4411 21.166 85.4411 22.9896C85.4411 24.574 85.7999 25.9791 86.4875 27.2646C87.1751 28.5202 88.1317 29.5367 89.4172 30.2243C90.6429 30.9119 92.0779 31.2706 93.6923 31.2706C95.5458 31.2706 97.1302 30.882 98.3858 30.1645L98.4157 30.1346V26.5471L98.2663 26.6667C97.6982 27.0853 97.0405 27.444 96.3828 27.6533C95.6953 27.8924 95.0675 28.012 94.5293 28.012C92.9748 28.012 91.7491 27.5636 90.8821 26.577C89.9852 25.6204 89.5368 24.305 89.5368 22.6607C89.5368 20.9567 89.9852 19.6114 90.912 18.6248C91.8387 17.6383 93.0645 17.1301 94.5592 17.1301C95.8148 17.1301 97.1003 17.5486 98.2663 18.3857L98.4157 18.5053V14.7085L98.3858 14.6787C97.8776 14.4694 97.3096 14.2302 96.5323 14.0807ZM109.357 13.9612C108.401 13.9612 107.504 14.2601 106.727 14.8879C106.069 15.426 105.621 16.2033 105.232 17.1301H105.202V14.2302H101.316V30.7923H105.202V22.3319C105.202 20.8969 105.501 19.7011 106.159 18.8341C106.816 17.9373 107.653 17.4888 108.67 17.4888C109.029 17.4888 109.387 17.5785 109.836 17.6383C110.254 17.7579 110.553 17.8775 110.763 18.0269L110.912 18.1465V14.2601L110.822 14.2302C110.553 14.0508 110.015 13.9612 109.357 13.9612ZM119.94 13.8715C117.22 13.8715 115.038 14.6787 113.513 16.2631C111.958 17.8476 111.211 20.0299 111.211 22.7803C111.211 25.3513 111.988 27.444 113.483 28.9687C114.978 30.4634 117.011 31.2407 119.552 31.2407C122.212 31.2407 124.335 30.4335 125.86 28.8192C127.414 27.2048 128.162 25.0524 128.162 22.3917C128.162 19.7609 127.444 17.6682 125.979 16.1435C124.574 14.6189 122.511 13.8715 119.94 13.8715ZM123.05 26.6069C122.332 27.5337 121.196 27.9821 119.791 27.9821C118.386 27.9821 117.25 27.5337 116.443 26.5471C115.635 25.6204 115.247 24.2751 115.247 22.571C115.247 20.8072 115.665 19.4619 116.443 18.5053C117.25 17.5486 118.356 17.0703 119.761 17.0703C121.136 17.0703 122.212 17.5187 122.99 18.4455C123.767 19.3722 124.186 20.7175 124.186 22.4814C124.126 24.2751 123.797 25.6802 123.05 26.6069ZM136.831 21.1062C135.606 20.5979 134.828 20.2093 134.47 19.8805C134.171 19.5815 134.021 19.163 134.021 18.6248C134.021 18.1764 134.201 17.728 134.649 17.429C135.097 17.1301 135.606 16.9806 136.353 16.9806C137.011 16.9806 137.698 17.1002 138.356 17.2796C139.014 17.4589 139.612 17.728 140.09 18.0867L140.239 18.2063V14.5591L140.15 14.5292C139.701 14.3498 139.103 14.1704 138.386 14.021C137.668 13.9014 137.011 13.8416 136.473 13.8416C134.619 13.8416 133.094 14.29 131.899 15.2766C130.703 16.2033 130.135 17.4589 130.135 18.9238C130.135 19.7011 130.254 20.3887 130.523 20.9567C130.792 21.5247 131.181 22.0628 131.719 22.5113C132.257 22.9298 133.035 23.4081 134.111 23.8565C135.008 24.2452 135.695 24.5441 136.114 24.7833C136.532 25.0225 136.801 25.2915 137.011 25.5008C137.16 25.74 137.25 26.0389 137.25 26.4276C137.25 27.5337 136.413 28.0718 134.709 28.0718C134.051 28.0718 133.363 27.9522 132.556 27.6832C131.749 27.4141 131.002 27.0255 130.374 26.577L130.224 26.4574V30.2542L130.314 30.2841C130.882 30.5531 131.57 30.7325 132.407 30.9418C133.244 31.0912 133.991 31.2108 134.649 31.2108C136.652 31.2108 138.296 30.7624 139.462 29.7758C140.658 28.8192 141.286 27.5935 141.286 26.009C141.286 24.9029 140.987 23.9163 140.329 23.169C139.462 22.4515 138.386 21.7041 136.831 21.1062ZM151.54 13.8715C148.819 13.8715 146.637 14.6787 145.112 16.2631C143.588 17.8476 142.81 20.0299 142.81 22.7803C142.81 25.3513 143.588 27.444 145.082 28.9687C146.577 30.4634 148.61 31.2407 151.151 31.2407C153.812 31.2407 155.935 30.4335 157.459 28.8192C159.014 27.2048 159.761 25.0524 159.761 22.3917C159.761 19.7609 159.044 17.6682 157.579 16.1435C156.174 14.6189 154.111 13.8715 151.54 13.8715ZM154.619 26.6069C153.902 27.5337 152.766 27.9821 151.361 27.9821C149.926 27.9821 148.819 27.5337 148.012 26.5471C147.205 25.6204 146.816 24.2751 146.816 22.571C146.816 20.8072 147.235 19.4619 148.012 18.5053C148.819 17.5486 149.926 17.0703 151.331 17.0703C152.676 17.0703 153.782 17.5187 154.559 18.4455C155.337 19.3722 155.755 20.7175 155.755 22.4814C155.755 24.2751 155.367 25.6802 154.619 26.6069ZM180.538 17.429V14.2302H176.622V9.32737L176.503 9.35727L172.796 10.4634L172.706 10.4933V14.2302H166.846V12.1375C166.846 11.1809 167.086 10.4335 167.504 9.95518C167.923 9.47685 168.55 9.23769 169.328 9.23769C169.866 9.23769 170.434 9.35727 171.062 9.62633L171.211 9.71601V6.33783L171.121 6.30793C170.583 6.12856 169.866 6.00898 168.939 6.00898C167.773 6.00898 166.757 6.27804 165.83 6.72647C164.903 7.23469 164.216 7.92229 163.707 8.84904C163.199 9.74591 162.93 10.7624 162.93 11.9283V14.2302H160.21V17.3991H162.93V30.7923H166.846V17.429H172.706V25.9492C172.706 29.447 174.35 31.2108 177.639 31.2108C178.177 31.2108 178.745 31.1211 179.283 31.0314C179.851 30.9119 180.269 30.7624 180.509 30.6428L180.538 30.6129V27.4141L180.389 27.5337C180.15 27.6832 179.941 27.8027 179.582 27.8924C179.283 27.9821 179.014 28.012 178.805 28.012C178.027 28.012 177.489 27.8326 177.1 27.3842C176.742 26.9657 176.562 26.2781 176.562 25.2616V17.429H180.538Z" fill="#737373"/>
<path d="M0 0H18.3259V18.3259H0V0Z" fill="#F25022"/>
<path d="M20.2392 -3.8147e-06H38.5651V18.3259H20.2392V-3.8147e-06Z" fill="#7FBA00"/>
<path d="M0 20.2392H18.3259V38.5651H0V20.2392Z" fill="#00A4EF"/>
<path d="M20.2392 20.2392H38.5651V38.5651H20.2392V20.2392Z" fill="#FFB900"/>
</svg>
